<?xml version="1.0" encoding="UTF-8"?>
<svg width="600" height="600" version="1.1" viewBox="0 0 158.75 158.75" xmlns="http://www.w3.org/2000/svg" xmlns:cc="http://creativecommons.org/ns#" xmlns:dc="http://purl.org/dc/elements/1.1/" xmlns:rdf="http://www.w3.org/1999/02/22-rdf-syntax-ns#">
<metadata>
<rdf:RDF>
<cc:Work rdf:about="">
<dc:format>image/svg+xml</dc:format>
<dc:type rdf:resource="http://purl.org/dc/dcmitype/StillImage"/>
<dc:title/>
</cc:Work>
</rdf:RDF>
</metadata>
<g transform="translate(0 -138.25)" stroke="#000">
<path d="m33.512 191.85c1.4645-0.0296 2.766-0.77648 4.1604-1.1424 0.82852-0.21745 3.2201-0.97154 2.649-0.6821-2.287 1.1592-4.8476 1.8246-6.9617 3.2747-0.30852 0.21162-1.7785 0.73064-1.4077 0.73373 1.2701 0.0106 2.3307-1.8828 3.393-1.3025 0.80082 0.43751 1.9267-0.18988 2.72-0.55229 1.453-0.66375 2.9349-1.2837 4.5172-1.5599 0.3112-0.0543 1.8017-0.72305 0.89514-0.0375-1.9113 1.4453-4.751 1.279-6.396 3.0126-0.77047 0.81193-4.0326 1.4071-2.9454 1.3756 2.8937-0.0839 5.414-1.6899 7.9449-2.9071 0.82316-0.39586 3.6648-0.53243 2.9393-0.37394-1.1404 0.24914-2.3704 0.61946-3.4676 1.2092-1.7329 0.93144-3.5458 1.6812-5.3814 2.395-1.4833 0.57676-2.7162 1.6082-4.1857 2.2882-0.85182 0.3942 1.083-0.37053 1.4089-0.52317 2.5679-1.2024 5.282-2.0219 7.9249-3.0494 1.7485-0.67974 3.4266-2.0146 5.3039-1.8979 0.75878 0.0471-0.80517 0.47447-1.1012 0.57904-1.9794 0.69912-3.7903 1.7826-5.6978 2.6548-1.9028 0.87007-4.7583 0.79004-5.6926 2.6776-0.1556 0.31438-1.7168 0.81558-1.0744 0.59056 1.9332-0.67719 3.8049-1.5064 5.6411-2.4127 2.2926-1.1317 4.651-2.1414 7.1098-2.8426 0.58496-0.16681 2.3119-0.69156 1.9835-0.53651-2.9983 1.4154-6.1394 2.5874-8.9393 4.3707-1.5832 1.0084-3.0944 2.2963-4.9451 2.683-0.75243 0.15723-2.2629 1.8292-2.0157 1.2096 0.40462-1.0142 1.878-0.95045 2.8226-1.3904 2.9187-1.3595 5.3791-4.072 8.573-4.4404 0.54472-0.0628 2.4245-0.098 2.0105-0.20525-1.0538-0.27308-1.8991 0.67408-2.7381 1.1695-2.3697 1.3991-4.4185 3.3263-6.8728 4.5615-1.0798 0.54344-1.9659 1.8046-3.2025 1.6925-0.68602-0.0622-1.5893 1.2447-1.0891 0.79201 0.92423-0.8363 2.1391-1.2824 3.2459-1.838 2.2277-1.1184 5.2547-1.261 6.7239-3.2844 0.35704-0.49171 1.3699-0.59691 0.51813 0.0584-2.8169 2.1675-5.9133 3.9381-8.891 5.8708-1.1418 0.74108-4.4621 3.1049-3.2679 2.4562 3.9011-2.1192 7.7217-4.3835 11.51-6.7094 0.43923-0.26969 1.8663-0.86611 0.79985-0.0764-3.3052 2.4474-6.2568 5.439-9.8668 7.4078-0.53472 0.29162-1.9661 1.568-1.463 1.2364 0.91828-0.6054 1.9853-0.84315 2.9418-1.4346 2.3367-1.4446 4.5069-3.3286 7.1491-4.116 1.2095-0.36043-0.57917 0.72047-0.88487 0.94383-2.2328 1.6314-4.6854 2.9977-6.7118 4.8797-0.99427 0.92344-2.7951 1.3036-3.1068 2.6234-0.13748 0.58213 1.1161-0.32111 1.4064-0.54541 1.1192-0.8648 2.18-1.7847 3.4771-2.4288 2.1347-1.0601 4.1423-3.6288 6.4568-3.0677 0.56945 0.13805-0.7651 0.50237-1.0362 0.65977-2.7762 1.612-4.9233 4.1046-7.6362 5.7963-0.43359 0.27037-1.2943 1.0565-0.26742 0.48975 2.7946-1.5422 5.4616-3.3218 8.3144-4.7527 0.35485-0.17798 1.745-0.80041 1.3826-0.57099-2.5885 1.639-5.1647 3.3019-7.5739 5.2089-1.1346 0.89813-3.3436 1.2432-3.4108 2.6898-0.02328 0.50152-1.298 1.1116-0.43673 0.56585 1.7418-1.1036 3.6701-1.9046 5.3376-3.1175 1.4451-1.0512 2.7152-2.8833 4.5078-2.9122 0.99787-0.0161-0.88228 1.1585-1.2581 1.4298-1.6582 1.1969-3.5512 2.0797-5.0864 3.427-0.88229 0.77431-3.6193 2.973-2.6285 2.3436 0.54418-0.34573 1.3974-0.77184 2.0468-1.2055 1.5286-1.0207 3.0414-2.0555 4.58-3.0657 1.3109-0.86075 4.1671-3.8672 4.1415-2.2709-0.0063 0.39568-1.1568 1.3628-1.7354 1.7961-1.9273 1.4431-3.9657 2.7351-5.8638 4.2234-1.3247 1.0387-5.0314 4.4717-3.7932 3.3305 0.8226-0.75809 1.8405-1.3044 2.8079-1.8719 2.861-1.6782 5.4727-4.0041 8.6745-4.884 1.1235-0.30878-0.48604 0.8124-0.79623 1.0544-2.3539 1.8364-6.7969 2.5355-7.0645 5.5076-0.03512 0.39014-1.3281 1.0709-0.47718 0.55664 3.2354-1.9552 12.536-8.1531 9.9875-5.3642-1.0976 1.2013-2.6792 1.719-4.0028 2.6218-1.9859 1.3546-3.6443 3.2276-5.8023 4.2814-0.50232 0.2453-2.1055 1.4199-1.4399 1.1713 1.3519-0.5049 2.4218-1.5407 3.7286-2.137 1.4371-0.65576 2.7759-1.4799 4.1289-2.3004 1.073-0.65068 2.0608-1.8141 3.3242-1.7809 0.92542 0.0243-0.72011 0.69999-0.96556 0.87808-0.97648 0.7085-1.7866 1.6195-2.7896 2.302-1.8569 1.2635-3.2178 5.4213-5.1584 4.2973-0.30225-0.17506 1.0247-0.81537 1.3921-1.0533 2.2646-1.4667 4.5847-2.8433 7.0327-3.9753 0.37224-0.17213 2.0825-1.01 1.4392-0.78992-1.0364 0.35462-1.748 1.309-2.5698 2.0275-1.8823 1.6457-4.0594 3.0089-5.5765 5.013-0.77184 1.0196-1.3886 2.2165-2.4609 2.9554-0.80625 0.55557 0.51918-0.35185 0.76366-0.543 1.1902-0.93057 2.2666-1.9868 3.5139-2.859 2.4395-1.7059 8.2906-7.6556 7.5366-4.7781-0.19366 0.73903-1.5173 1.1337-2.2712 1.6825-2.2636 1.6478-4.1697 3.7136-6.2493 5.5737-0.86204 0.77103-2.566 3.5852-2.4939 2.4175 0.01972-0.31911 1.3372-0.96467 1.8768-1.3963 2.0046-1.6036 3.9881-3.3657 6.4384-4.2271 0.57034-0.2005 2.0542-1.1255 1.7937-0.8546-1.1379 1.1834-2.7494 1.7254-3.9599 2.8496-2.2187 2.0607-6.8082 3.2886-6.5418 6.3058 0.03866 0.43775 1.0529-0.60491 1.3675-0.84629 3.1636-2.4275 5.9131-5.5209 9.5012-7.2683 0.59791-0.29117 2.3623-1.45 1.9662-0.99619-0.61989 0.71035-1.2827 1.3977-1.9806 2.0368-1.7537 1.6059-3.8804 2.7995-5.4832 4.5519-0.84328 0.92195-3.1297 3.9066-2.3265 2.945 0.67028-0.80251 1.6465-1.4088 2.5275-2.0112 2.7867-1.9053 5.1103-4.7618 8.3405-5.7531 0.60792-0.18656-0.62332 0.78104-0.85243 0.97178-3.3411 2.7817-6.1457 6.1385-9.4591 8.9716-0.56697 0.48479-2.2357 2.1098-1.8044 1.5647 0.4684-0.5919 1.1205-0.84943 1.9196-1.3692 2.8323-1.8422 5.245-4.2871 8.0984-6.0953 0.77464-0.49087 2.9648-2.174 2.4707-1.5229-1.8525 2.441-4.2813 4.3491-6.6118 6.3069-0.74702 0.62756-0.87241 1.9344-1.8192 2.2253-1.1914 0.36607 0.75033-0.78582 1.0538-0.99869 2.346-1.6454 4.4533-3.6125 6.805-5.2506 1.0006-0.697 3.8475-2.9705 3.0588-2.031-0.94902 1.1304-2.2241 1.9209-3.2751 2.964-2.5069 2.4881-4.2393 6.1385-7.5055 7.4805-0.35119 0.14429-1.1642 1.4143-0.94356 1.0475 0.74309-1.2352 2.1532-1.7682 3.2906-2.5678 2.7199-1.9122 5.6649-3.5386 8.1216-5.8043 0.38567-0.3557 1.5572-1.5017 1.256-1.1893-1.2241 1.2698-2.5162 2.4792-3.7996 3.692-2.3501 2.2208-10.322 7.1391-7.1395 6.5679 1.1073-0.19874 1.9682-1.18 2.8194-1.8949 3.2399-2.7215 6.0849-6.2548 10.051-7.749 0.35785-0.13482 1.7581-1.1974 1.4101-0.79485-1.3806 1.5972-3.106 2.8539-4.7297 4.192-2.1507 1.7724-4.544 3.2222-6.7105 4.9715-0.89097 0.71941-1.6525 3.5071-2.3447 2.5031-0.13408-0.19448 1.0675-0.86922 1.5298-1.2062 1.7728-1.2923 3.3648-2.8048 5.1655-4.0688 2.6774-1.8796 5.4409-3.6322 8.1688-5.4461 0.38372-0.25516 0.75701-0.4124 0.25112 0.11079-1.9043 1.9694-4.2473 3.4171-6.3532 5.152-2.2649 1.8659-4.6682 3.5811-6.7725 5.6266-0.75663 0.73548-3.1735 2.6317-2.1617 2.3248 1.0762-0.3264 1.7982-1.2993 2.6139-2.0254 2.2656-2.0168 4.9049-3.5573 7.422-5.2346 1.4364-0.9572 2.876-1.8918 4.1677-3.0709 0.63436-0.57909 2.8493-2.0204 2.3008-1.4671-1.8756 1.8922-3.7672 3.7795-5.8917 5.3972-1.4625 1.1136-2.8711 2.2995-4.1642 3.6006-0.53604 0.53935-2.0452 2.4514-1.4566 1.8642 0.9271-0.92477 1.9373-1.7583 3.014-2.5442 3.2676-2.3851 6.8607-4.2975 10.097-6.7198 0.87738-0.65678 3.3149-2.618 2.8007-1.6555-0.5208 0.97481-1.6251 1.498-2.5345 2.0668-2.7235 1.7036-5.4366 3.4296-8.0773 5.2594-2.0605 1.4278-4.3364 2.6724-5.9724 4.5772-0.33403 0.3889-1.439 1.4766-1.3698 1.43 2.55-1.7178 5.1149-3.4112 7.7371-5.0227 4.0405-2.483 7.7233-5.72 12.18-7.3529 0.36177-0.13254 1.4185-0.90145 0.60616-0.25002-1.9162 1.5365-4.0956 2.6852-6.1161 4.0798-1.9955 1.3774-3.7322 3.0752-5.5954 4.628-1.384 1.1534-2.4344 2.776-4.0486 3.5745-0.4901 0.24243 0.81671-0.57677 1.0709-0.74815 3.4111-2.2999 6.7168-4.76 10.203-6.9467 2.0582-1.2908 3.8846-3.3674 6.3035-3.6775 0.97385-0.12487-0.53004 0.80226-0.80114 1.0268-1.0184 0.8436-2.224 1.3839-3.2635 2.2256-3.34 2.7046-7.1732 4.733-10.546 7.3838-1.2771 1.0038-5.0356 4.1228-3.8159 3.0332 1.2853-1.1481 2.7712-2.0605 4.1786-3.0568 4.3508-3.0797 8.8903-5.8673 13.484-8.5972 0.97923-0.58195 2.6377-2.8627 2.9286-1.7614 0.15642 0.59204-1.2469 1.2109-1.7905 1.6735-1.4598 1.2423-2.9391 2.4521-4.5885 3.4592-4.2665 2.6051-14.573 13.424-11.125 9.8684 1.6835-1.7358 3.612-3.2176 5.5561-4.6451 4.8368-3.5515 9.1026-8.007 14.477-10.707 0.5927-0.29773 2.5134-1.1062 2.1323-0.77363-1.2185 1.0631-2.5404 1.9933-3.8029 3.0115-2.7421 2.2114-5.745 4.0685-8.691 5.9917-2.994 1.9546-6.7342 9.9372-8.2944 6.7347-0.19838-0.40718 1.152-1.368 1.7097-1.6967 0.57251-0.33749 2.2426-1.3568 1.9328-1.0564-0.32374 0.31402-0.99494 0.71815-0.26799 0.18235 3.4374-2.5336 6.7921-5.1789 10.257-7.6752 1.7661-1.2725 3.3143-3.5534 5.4883-3.5316 0.85266 9e-3 2.2185-1.6648 1.9993-1.1482-0.40613 0.95741-1.3251 1.5952-2.108 2.2429-3.7775 3.125-7.972 5.7042-11.804 8.7536-1.186 0.9438-1.8556 3.3952-3.333 3.0801-0.45638-0.0974 1.1282-0.85573 1.5349-1.1297 2.9931-2.0164 5.9782-4.0481 8.9443-6.1062 2.6537-1.8412 4.7057-4.4392 7.3897-6.2168 0.61266-0.40577 2.7721-1.3709 2.1624-1.1757-1.1595 0.37123-1.6765 1.6964-2.5651 2.5414-3.274 3.1137-7.4324 5.0315-10.801 8.0528-2.268 2.034-8.5749 8.5896-6.7852 6.1239 0.25556-0.3521 1.6169-1.1455 2.272-1.6481 4.589-3.5204 9.3928-6.7543 14.05-10.178 0.36759-0.27025 1.0863-0.62796 0.42496 0.0195-5.0016 4.8963-10.057 9.8345-15.97 13.572-0.60579 0.38289-2.2468 1.8209-1.8185 1.4112 3.1533-3.0158 6.7592-5.5081 10.392-7.9005 2.052-1.3514 3.6476-3.3065 5.734-4.589 0.62161-0.38211 2.528-1.6397 2.0939-1.0946-0.69714 0.87538-1.5624 1.6193-2.4017 2.3612-3.6168 3.197-7.6921 6.0133-10.586 9.8913-0.42488 0.56929-1.3767 2.6009-1.1129 2.0076 0.64158-1.4431 1.9719-2.3832 3.1147-3.4092 2.3107-2.0746 4.9624-3.7622 7.1177-6.0023 0.83553-0.86846 1.3788-3.6488 2.3117-2.7842 0.48511 0.44956-0.59688 1.6467-1.0638 2.1602-1.8202 2.002-3.8225 3.8131-5.6973 5.7725-1.4074 1.4709-2.5844 3.1401-3.992 4.6155-0.44566 0.46713-1.6794 1.8617-1.5097 1.6533 1.493-1.8328 3.2149-3.4756 4.9785-5.0451 1.2948-1.1523 2.526-2.3665 3.9969-3.3304 0.44568-0.29204 0.94828-0.8759 0.31028-0.0823-1.9054 2.3701-3.9905 4.5993-5.8053 7.0382-0.54012 0.72588-2.2347 2.852-1.6411 2.1697 1.5074-1.7328 2.7116-3.9235 4.7303-5.0213 0.65328-0.35526 1.9467-2.0385 1.8071-1.7352-0.6572 1.4282-1.8134 2.5572-2.7153 3.8325-0.87152 1.2325-1.9241 2.4499-2.2479 3.9622 0 0-0.01432 0.20973-0.01432 0.20973" fill="none" stroke-width=".46143"/>
<path d="m86.862 216.5c-1.2104 6.2138-2.9867 12.335-3.5629 18.659-0.11524 1.2646-0.18092 2.5342-0.18091 3.8042" fill="none" stroke-width=".1823"/>
<path d="m72.885 174.53c-0.0025 0.86264 0.68246 1.5558 1.2963 2.0755 0.81042 0.68606 1.9191 0.74107 2.9744 0.92295 0.80001 0.13789 1.5982 0.0287 2.4281-0.0982 0.37471-0.0573 0.65269-0.32516 0.99304-0.45754" fill="none" stroke-width=".18521"/>
<path d="m72.885 174.53c0.78848-1.3305 2.5833-1.5562 3.9962-1.3644 1.2544 0.17025 2.3131 1.0496 2.8806 2.0829 0.30228 0.55043 0.56615 1.1431 0.81506 1.7242" fill="none" stroke-width=".18521"/>
<path d="m76.575 173.12c-1.1035-0.0115-1.9666 0.97773-2.0217 2.0742-0.0501 0.99707 0.77939 1.7977 1.7744 1.9684 0.65882 0.11298 1.2083-0.0105 1.8591-0.35428 0.57564-0.30401 0.59091-0.94486 0.63294-1.5498 0.05332-0.76748-0.35611-1.4304-0.9974-1.7746-0.38198-0.20502-0.83251-0.2506-1.2473-0.36384z" fill="none" stroke-width=".18521"/>
<path d="m80.005 175.93c0.14164 0.38529 0.18384 0.83709 0.01218 1.2181-0.07542 0.16741-0.23837 0.29595-0.42796 0.28907" fill="none" stroke-width=".18521"/>
<path d="m74.704 173.18c-0.70688 0.44586-1.4281 0.82595-2.2599 1.0321-0.7296 0.1808 0.27282 0.853 0.45669 1.1804 0.33888 0.60334 0.88161 1.0776 1.4475 1.4578 0.23178 0.15569 0.48363 0.31924 0.77151 0.33168" fill="none" stroke-width=".18521"/>
<path d="m71.17 174.11c0.88281-1.2234 2.402-2.03 3.896-2.177 1.6513-0.16241 3.5844-0.24753 4.8578 0.78872 0.83188 0.67698 1.7354 1.2709 2.4722 2.0639" fill="none" stroke-width=".12938"/>
<path d="m72.262 174.22c0.15698-0.91369-0.8515-1.3571-0.92276-2.2459-0.06031-0.75218 0.25616 0.52512 0.48437 0.81736 0.24783 0.31736 0.80264 0.8038 0.49037 0.0252-0.12761-0.31815-0.27614-1.7165-0.09503-0.78387 0.10518 0.54159 1.594 1.1749 1.1648 0.8693-0.38209-0.27204-0.77845-1.5612-0.602-1.1768 0.19368 0.42197 1.686 1.0659 1.178 0.79754-0.36718-0.19396-0.36477-1.4726-0.15084-0.61737 0.11234 0.44911 0.98732 0.87814 0.69131 0.0866-0.12957-0.34647-0.09169-0.56679 0.1006-0.11081 0.18724 0.444 0.64111 0.81001 0.76534-0.0258 0.10906-0.73375 0.7003 1.1834 0.74185 0.59746 0.02073-0.29235 0.27248-1.2641 0.21187-0.4536-0.03717 0.49711 0.56855 0.86085 0.45501 0.11922-0.06463-0.42216 0.53742 0.69245 0.30353 0.61167-0.40132-0.13861-0.8557-0.0755-1.2843-0.0694-1.1396 0.016-2.1 0.8081-3.2058 1.0773-0.29236 0.0712-0.49827 0.12899-0.32626 0.48187h-6e-6z" stroke-width=".10292"/>
<path d="m72.262 174.22c0.02973-0.4364-0.43065-0.57362-0.73909-0.71689-0.35407-0.16446-0.55872-0.52017-0.74223-0.84628-0.14222-0.25275-0.04227-0.16497 0.11201-0.0145 0.33877 0.33053 0.7412 0.63508 1.1996 0.74172 0.24327 0.0566 0.89222 0.13457 0.76142 0.17737-0.28619 0.0936-0.69036 0.2884-0.59172 0.65853z" stroke-width=".18521"/>
<path d="m79.798 174.89c0.40105 0.55785 0.77794 1.1352 1.1192 1.7321 0.09212 0.16112-0.26125 0.24291-0.33962 0.34676" fill="none" stroke-width=".18521"/>
<path d="m72.262 173.69c0.40326 0.017 0.74793-0.25864 1.0274-0.51071 0.09531-0.086 0.49652-0.22021 0.43694-0.19508-0.499 0.21047-1.7406 1.1796-1.4643 0.70579 0.15981-0.2741 0.48798-0.28675 0.74124-0.47808 0.38505-0.2909 0.88076-0.34931 1.3362-0.46371 0.12223-0.0307 0.24406-0.063 0.36523-0.0976" fill="none" stroke-width=".18521"/>
<path d="m76.575 173.12c0.30171 0.17124-0.11152 0.083-0.4045 0.18801-0.60788 0.21788-0.90956 0.85546-0.94677 1.4231-0.03966 0.60499 0.35342 1.1921 0.79815 1.5892 0.45912 0.40997 1.1341 0.4957 1.7088 0.1713 0.67371-0.38028 0.6479-1.2419 0.51123-1.9183-0.15752-0.77958-0.89941-1.316-1.6932-1.4084-0.24106-0.028-0.44321 0.48215-0.12631 0.11462 0 0 0.07585-0.0803 0.07585-0.0803s0.0767-0.0794 0.0767-0.0794z" fill="none" stroke-width=".18521"/>
<path d="m77.979 174.42c-0.23911-0.14669-0.60298-0.1875-0.79483 0.0603-0.29222 0.37738-0.08044 1.1102 0.40611 1.1213 0.3099 7e-3 0.48189-0.32582 0.52143-0.59458 0.02981-0.20266-0.0074-0.4211-0.13271-0.587z" fill="none" stroke-width=".18521"/>
<path d="m83.695 173.49c0.5361 0.58172 1.1028 1.2744 1.1185 2.0508 0.01047 0.5198 0.01712 1.0201 0.02492 1.5353 7e-3 0.4596-0.25015 0.9189-0.20789 1.4032" fill="none" stroke-width=".18521"/>
<path d="m93.258 181.8c-1.5514 0.36371-0.44618-1.2385 0.22686-1.7342 1.1926-0.87854 2.8595-0.93829 4.1895-0.45722 1.1069 0.40038 1.966 1.4123 2.2306 2.566 0.12167 0.53053 0.762 1.4071-0.35012 1.2386-0.90987-0.13786-1.7086 0.36333-2.6692 0.31035-0.98061-0.0541-1.7186-0.71777-2.4271-1.3629-0.3223-0.29349-0.7269-0.6602-1.2005-0.5606z" fill="none" stroke-width=".18521"/>
<path d="m95.701 179.41c-0.84129-0.3641-1.6426 0.67818-1.5561 1.3673 0.13092 1.0432 0.90337 2.2022 2.0233 2.2484 0.7919 0.0327 1.7449-0.34876 2.0115-1.0869 0.29649-0.82093 0.07-2.0863-0.71159-2.3209-0.43996-0.13205-1.047-0.32572-1.5072-0.20789" fill="none" stroke-width=".18521"/>
<path d="m95.701 179.41c-0.68368 0.087-0.88352 0.76657-0.85631 1.3893 0.03319 0.75951 0.61783 1.6225 1.4444 1.522 0.45708-0.0556 1.1539-0.0219 1.3079-0.55056 0.19784-0.67945 0.12243-1.6459-0.48511-1.9826-0.39745-0.22028-0.87168-0.4735-1.3481-0.37018l-0.06273-8e-3v3e-5z" fill="none" stroke-width=".18521"/>
<path d="m97.416 180.19c-0.21282-0.19544-0.57088-0.21178-0.79233 0.0169-0.15356 0.15857-0.27551 0.4344-0.1009 0.62209 0.1706 0.18337 0.48528 0.35799 0.69447 0.21905 0.16427-0.10911 0.34502-0.19114 0.43256-0.39899 0.06797-0.16136 0.0411-0.42351-0.16901-0.45366l-0.03113-4e-3 -0.03367-1e-3v2e-5z" fill="none" stroke-width=".18521"/>
<path d="m99.599 181.54c0.14612 0.4455 0.35575 0.92204 0.21868 1.3982-0.08332 0.2894-0.37385 0.39962-0.58249 0.57678" fill="none" stroke-width=".18521"/>
<path d="m93.934 179.73c-0.44594 0.29576-0.84686 0.78891-0.81864 1.3481 0.01994 0.39519 0.37646 1.0281 0.68446 0.83512 0.19061-0.11945-0.2443-0.0948-0.54145-0.10438" fill="none" stroke-width=".18521"/>
<path d="m93.57 178.58c1.1271-0.44204 2.38-0.99718 3.5527-0.5716 1.3891 0.50411 3.1768 1.0587 3.8216 2.4689 0.4865 1.0641 0.74106 2.2964 1.5129 3.1959" fill="none" stroke-width=".12938"/>
<path d="m100.69 182.22c0.10856 0.69694 0.28222 1.5342 0.92881 1.8643 0.42978 0.2194-0.37454 0.12131-0.53763 0.0956-0.69573-0.10966-1.4308-0.46143-2.1063-0.2448-0.25105 0.0805-0.51731 0.10196-0.77958 0.10394" fill="none" stroke-width=".18521"/>
<path d="m92.635 180.09c1.0506-0.95204 2.5129-1.684 3.9099-1.5783 1.3335 0.10089 2.8411 0.62689 3.5209 1.7477 0.65237 1.0756 2.0256 4.5561 1.4044 3.4686-0.65271-1.1427-0.99099-2.4611-1.9891-3.4357-0.92732-0.90547-2.1745-1.6231-3.412-1.4054-1.0881 0.19147-2.2139 0.40685-3.2061 0.92839l-0.12728 0.12155-0.10069 0.15311v-3e-5z" stroke-width=".18521"/>
<path d="m96.013 178.79c0.41097-0.0306 1.0805-0.87921 1.0394-0.72758-0.10517 0.38871-0.6436 0.21659 0.1228 0.51613 0.41418 0.16188 1.0892-0.72303 0.99823-0.5953-0.30691 0.43105-1.5178 0.47649-0.34144 0.91075 0.30308 0.11188 1.1824-0.68727 1.0478-0.34595-0.21637 0.54873-1.2014 0.53946-0.12442 0.76944 0.47543 0.10152 1.5451-1.0198 0.75952-0.16909-0.31776 0.34409-0.91426 0.49446-0.07176 0.62918 0.48835 0.0781 2.0333-0.6479 0.9355 0-0.41717 0.2462-0.7161 0.3415-0.0458 0.77313 0.43868 0.28249 1.3638-0.45059 1.2932-0.40935-0.37765 0.22032-1.6247 0.8717-1.3521 0.9217 0.61046 0.11197 2.2199-1.1544 1.7679-0.55789-0.35114 0.46338-1.6662 0.87834-1.4042 1.1312 0.41615 0.40163 1.8124-0.12089 1.5949 0.02-0.40965 0.26539-1.533 0.38225-1.3861 0.56387 0.42596 0.52651 2.0691 0.10563 1.867 0.25187-0.58274 0.42169-2.0632 0.87402-2.182 0.32863-0.20282-0.93044-0.90166-1.7094-1.2755-2.5879-0.36939-0.86809-1.2243-1.1462-2.0644-1.3058-0.30653-0.0582-1.7881 0.0758-0.74912 0.0459 0.91006-0.0262 1.9913 0.24081 2.5849 0.98049" stroke-width=".10292"/>
<path d="m98.196 179.41c0.22585 0.0874 0.39436 0.3044 0.56636 0.47519 0.33875 0.33637 0.75066 1.443 0.9928 1.032 0.17926-0.30426-0.17602-0.6186-0.37281-0.81579-0.21925-0.2197-0.47059-0.40567-0.77734-0.4972-0.14515-0.0433-0.28807-0.10113-0.40901-0.1942z" stroke-width=".18521"/>
<path d="m95.181 178.95c0.43914-0.16086 0.98577-0.19322 1.3066 0.10778 0.09311 0.0874 0.37472-2e-4 0.29541-0.027-0.19194-0.065-0.34182-0.24225-0.57961-0.23607-0.2981 8e-3 -0.59436 0.0922-0.89144 0.0685-0.16396-0.0131-0.17806 0.0964-0.0014 0.10437 0.57732 0.0261 1.1605-0.0212 1.7335 0.0664l0.03379 0.01 0.02615 0.0105" stroke-width=".18521"/>
<path d="m99.807 180.24c0.46057 0.1373 1.0142 0.0994 1.3597-0.2481 0.13162-0.13234 0.5428-0.47983 0.47965-0.42344-0.21677 0.19355-0.48425 0.32195-0.6763 0.54765-0.26641 0.31309-0.89201 0.95278-1.0313 0.58192-0.03358-0.0894 0.04759-0.33952-0.13176-0.45803z" stroke-width=".18521"/>
<path d="m100.38 181.39c0.39938 0.0427 0.79613 0.0895 1.2025 9e-3 0.34814-0.0689 0.64454-0.24885 0.96167-0.43317 0.29877-0.17365-0.13057 0.0341-0.2406 0.0851-0.55013 0.25486-1.1057 0.5082-1.6933 0.6729-0.25133 0.0705-0.22054-0.17177-0.23027-0.3339z" stroke-width=".10292"/>
<path d="m100.59 182.22c0.31971-0.0925 0.63206 0.16095 0.93823 0.0997 0.44263-0.0885 0.97469-0.0858 1.2923-0.408 0.15872-0.161-0.20109 0.048-0.28159 0.0745-0.37522 0.12319-0.73012 0.31537-1.118 0.40011-0.21347 0.0466-0.65062 0.29642-0.63253-0.14195 2e-3 -0.0601 7e-3 -0.12012 9e-3 -0.18023" stroke-width=".10292"/>
<path d="m101.52 183.05c-0.052-0.10394-0.22249-0.40708-0.15592-0.31183 0.1287 0.18414 0.14974 0.35436 0.14879 0.57084-1e-3 0.29476 0.71947 0.27806 0.52763 0.31928-0.19184 0.0412-0.43279 0.11987-0.60483 0.0118-0.29683-0.18647-0.55932-0.46468-0.6733-0.795-0.0119-0.0344-0.0217-0.0702-0.022-0.10689" stroke-width=".18521"/>
<path d="m100.85 183.73c-0.22686-0.49279-0.48464-0.97038-0.72761-1.4552" fill="none" stroke-width=".18521"/>
<path d="m71.742 178.89c1.8234 1.3017 4.0837 1.7444 6.2932 1.8042 0.4488 0.0121 0.89779 0.0148 1.3467 0.0148" fill="none" stroke-width=".06174"/>
<path d="m94.61 177.54c0.17549-0.17452 0.37347-0.32316 0.55023-0.49725 0.20513-0.20203 0.55427-0.28818 0.65988-0.55589 0.01275-0.0323 0.13153-0.1313 0.0793-0.0616-0.16424 0.2192-0.39404 0.38599-0.54471 0.61429-0.03891 0.059-0.19853 0.20731-0.15461 0.19194 0.14145-0.0495 0.26106-0.1461 0.3828-0.23126 0.18985-0.13282 0.35565-0.30266 0.55988-0.41174 0.09337-0.0499 0.39154-0.12968 0.28626-0.1399-0.08778-9e-3 -0.30999 0.18016-0.23848 0.12879 0.04924-0.0354 0.13861-0.0336 0.07337 0.0398-0.14803 0.16645-0.34289 0.28037-0.49178 0.44912-0.04204 0.0476-0.01692 0.10119 0.04144 0.0447 0.18069-0.175 0.38242-0.32708 0.58684-0.47284 0.18241-0.13006 0.37343-0.24728 0.56717-0.36223 0.08714-0.0517 0.094 0.036 0.03559 0.0924-0.17796 0.17175-0.40472 0.29032-0.5623 0.48221-0.04496 0.0547-0.2081 0.1682-0.19915 0.1671 0.09151-0.0113 0.15303-0.11372 0.24209-0.16712 0.33481-0.20075 0.66941-0.41017 1.035-0.54857 0.14843-0.0562 0.2977-0.10821 0.44226-0.17584 0.1378-0.0645 0.04224 0.10494-0.02067 0.14887-0.25336 0.17692-0.57372 0.22387-0.83576 0.38156-0.16833 0.1013-0.72232 0.21851-0.52974 0.25277 0.06397 0.0114 0.21378-0.0568 0.30136-0.0972 0.38461-0.1771 0.74226-0.4074 1.1357-0.56706 0.21304-0.0865 0.42275-0.20956 0.65246-0.2242 0.1287-8e-3 -0.06888 0.12343-0.10918 0.14897-0.37507 0.23772-0.83607 0.32501-1.1908 0.59063-0.0756 0.0566-0.23103 0.26609-0.25252 0.16667-0.01555-0.0719 0.11437-0.0722 0.1744-0.10206 0.34568-0.1722 0.69428-0.34174 1.0579-0.4733 0.29479-0.10667 0.6114-0.15518 0.89439-0.28967 0.05227-0.0248 0.28476-0.0797 0.19181-6e-3 -0.13294 0.10592-0.29475 0.16809-0.44965 0.2346-0.35919 0.15422-1.4092 0.65941-1.088 0.43689 0.03536-0.0245 0.15386-0.0555 0.05697-5e-3 -0.09587 0.0497-0.18326 0.1521-0.29056 0.14501-0.07693-5e-3 0.0876-0.01 0.12175-0.0155 0.2751-0.0448 0.51684-0.19089 0.77604-0.2853 0.44456-0.16192 0.92475-0.22495 1.355-0.42241 0.03903-0.0179 0.23629 0.0305 0.11857 0.0263-0.09191-3e-3 -0.16824 0.0463-0.24859 0.0847-0.46858 0.22359-0.98644 0.38035-1.3844 0.71416-0.06357 0.0533-0.28196 0.15245-0.19371 0.17921 0.09592 0.0291 0.1907-0.0483 0.27527-0.0872 0.50927-0.23472 1.0121-0.48212 1.5371-0.68446 0.17994-0.0694 0.70155-0.32015 0.52675-0.23938-0.1754 0.0811-0.34602 0.17111-0.5069 0.27953-0.32045 0.21596-0.59188 0.784-0.95658 0.65493-0.05827-0.0206-0.17038 0.0922-0.08371 0.087 0.10244-6e-3 0.18237-0.0851 0.27166-0.12909 0.24089-0.11862 0.48017-0.2406 0.72651-0.34792 0.32984-0.1437 0.64872-0.33953 1.0049-0.39542 0.0417-7e-3 0.21291 0.0184 0.15354 0.0121-0.10502-0.0112-0.19973 0.0719-0.2899 0.12198-0.34207 0.18996-1.3677 0.75423-1.0503 0.52417 0.04279-0.031 0.10576-0.0588 0.02063-0.0159-0.09177 0.0463-0.19884 0.22892-0.26698 0.15206-0.03208-0.0362 0.10955-0.08 0.15393-0.10042 0.51312-0.23624 1.0023-0.59242 1.5643-0.65191 0.0504-5e-3 0.2341-0.0484 0.18311-0.0234-0.10839 0.0532-0.23272 0.0892-0.34822 0.1352-0.54544 0.21704-1.1416 0.37353-1.5926 0.74834-0.09139 0.076 0.09426 7e-3 0.13239-8e-3 0.29841-0.12374 0.56786-0.30761 0.86279-0.43747 0.27669-0.12183 0.53876-0.28982 0.83326-0.35902 0.14292-0.0336 0.28374-0.0392 0.43033-0.0888 0.12118-0.041-0.0599 0.11822-0.103 0.14782-0.32645 0.22408-0.68906 0.38882-1.0506 0.54667-0.15338 0.067-0.29942 0.153-0.45803 0.20582-0.0631 0.021-0.2684 0.11789-0.20885 0.10106 0.256-0.0724 0.49872-0.18558 0.74556-0.28415 0.44663-0.17836 0.87625-0.42646 1.3565-0.4963 0.0518-8e-3 0.19869-0.0118 0.17925-0.0101-0.12712 0.0109-0.24099 0.0645-0.35323 0.12322-0.35476 0.18571-0.6865 0.42621-1.0672 0.55289-0.0897 0.0298-0.30557 0.0233-0.2643 0.11207 0.0392 0.0842 0.16975-7e-3 0.24051-0.0322 0.56994-0.20275 1.1371-0.41347 1.702-0.63005 0.13208-0.0506-0.0714-0.0228-0.1213 0.0131-0.0789 0.0568-0.16328 0.10192-0.25262 0.14305-0.31199 0.14363-0.59817 0.33795-0.90654 0.49041-0.0474 0.0234-0.11959 0.0969-0.0127 0.0665 0.31127-0.0884 0.60859-0.21738 0.91271-0.32695 0.17256-0.0622 0.35003-0.20092 0.52871-0.15692 0.0947 0.0233 0.33923-0.10678 0.27325-0.0489-0.1672 0.14662-0.37912 0.22852-0.58157 0.31344-0.21161 0.0888-0.43824 0.14334-0.64046 0.25173-0.0592 0.0317-0.24541 0.11193-0.18125 0.11049 0.19071-4e-3 0.34958-0.11768 0.52885-0.172 0.15924-0.0482 0.32663-0.0616 0.48558-0.10927 0.19159-0.0575 0.36946-0.22256 0.56778-0.19339 0.0715 0.0105-0.0739 0.0756-0.10198 0.0912-0.31253 0.17398-0.61861 0.36326-0.94679 0.50514-0.0778 0.0336-0.32384 0.0815-0.24055 0.0836 0.20092 5e-3 0.39262-0.0722 0.57835-0.14031 0.29913-0.10977 0.58357-0.34646 0.90296-0.31675 0.10051 9e-3 0.26738-0.1212 0.29859-0.028 0.0159 0.0474-0.0624 0.0275-0.10982 0.0527-0.34406 0.18333-0.68876 0.35804-1.0538 0.50988-0.0593 0.0246-0.24578 0.0868-0.19504 0.08 0.11957-0.016 0.23496-0.0613 0.35124-0.0946 0.37001-0.10598 0.7678-0.12836 1.1187-0.28842 0.0698-0.0318 0.22688 5e-3 0.0919 0.0695-0.38831 0.18529-0.80228 0.30504-1.2036 0.45849-0.10322 0.0395-0.20011 0.12377-0.31021 0.11825-0.0732-4e-3 0.10233-0.01 0.13966-0.0146 0.48618-0.0658 0.94177-0.3801 1.4326-0.31777 0.0562 7e-3 0.24766 0.0137 0.2048 0.0372-0.22069 0.12065-0.45867 0.20637-0.69205 0.29905-0.21668 0.0861-0.80979 0.0819-0.65188 0.25342 0.064 0.0695 0.18313-0.0434 0.26407-0.0716 0.21903-0.0764 0.63891-0.42138 0.67142-0.1883 8e-3 0.0582-0.14947 0.0975-0.21425 0.12473-0.17143 0.0721-0.40854 0.0868-0.50009 0.25025-0.0512 0.0915 0.13538 0.0567 0.18509 0.0483 0.28568-0.0484 0.56935-0.10304 0.85059-0.17723 0.0679-0.0179 0.15728 0.0316 0.0578 0.0851-0.24663 0.13268-0.51537 0.21804-0.78102 0.30334-0.0338 0.0109-0.19709 0.0616-0.0807 0.0594 0.17566-3e-3 0.36135-0.0229 0.51062-0.11223 0.0732-0.0438-0.23063 4e-5 -0.084-0.0186 0.0999-0.0127 0.21991-0.1009 0.30141-0.0354 0.0536 0.0431 0.15267-0.0748 0.11771-0.0434-0.16043 0.14383-0.57008 0.1811-0.51493 0.3893 0.027 0.10181 0.17355 0.082 0.26067 0.0742 0.12808-0.0115 0.28278-0.11119 0.38648-0.0287 0.094 0.0748-0.0888 0.10405-0.14865 0.13718-0.0607 0.0336-0.15675 0.1231-9e-3 0.13363 0.0824 6e-3 -9e-3 0.11222-0.0433 0.0153-0.0544-0.1561-0.11012-0.31433-0.13805-0.47753" fill="none" stroke-width=".076465"/>
<path d="m103.7 178.48c0.0244-0.072 0.0425-0.14936 0.0304-0.22575-9e-3 -0.0541-0.0405-0.10353-0.0864-0.13356-0.0652-0.0426-0.14431-0.0554-0.22063-0.0599-0.13509-8e-3 -0.26916 0.0234-0.40392 0.0222-0.0316-2.9e-4 -0.0836 0.0207-0.0961-0.0104-0.0133-0.0333 0.0225-0.0584 0.0545-0.0608 0.0155-1e-3 0.031 2.6e-4 0.0465 4.7e-4" fill="none" stroke-width=".10292"/>
<path d="m93.726 177.02c0.64757-0.59441 1.4327-1.0206 2.2521-1.3277 0.48287-0.18098 0.9709-0.36461 1.4795-0.44839 0.22859-0.0377 0.4615-0.0302 0.69215-0.0238 0.29255 8e-3 0.58465 0.03 0.87735 0.0328" fill="none" stroke-width=".18521"/>
<path d="m69.249 169.31c0.09046-6e-3 0.17573-0.0409 0.25857-0.0753 0.13534-0.0562 0.26802-0.12369 0.41284-0.15218 0.07991-0.0157 0.16536-0.0143 0.24121 0.0188 0.10909 0.0476 0.20832 0.12089 0.32412 0.14975 0.02604 6e-3 0.06971 0.0258 0.08532-6e-3l9.38e-4 -8e-3" fill="none" stroke-width=".1029px"/>
<path d="m69.616 168.95c-0.02041-8e-3 -0.08081-0.0178-0.06029-0.0276 0.03692-0.0175 0.08227-0.01 0.12258-7e-3 0.19515 0.0115 0.38953 0.0336 0.58332 0.0588 0.19017 0.0247 0.38355 0.0362 0.56894 0.0854 0.03414 9e-3 0.13505 0.0165 0.1026 0.0306-0.021 9e-3 -0.04526 6e-3 -0.06767 7e-3" fill="none" stroke-width=".1029px"/>
<path d="m69.91 168.73c0.34698 0.0177 0.69116 0.0769 1.0316 0.14376 0.28074 0.0551 0.5947 0.0395 0.83699 0.19297 0.11445 0.0725-0.03315 0.0495-0.08978-4e-3 -0.15678-0.14852-0.37576-0.18359-0.57271-0.25098-0.27295-0.0934-1.0378-0.24921-0.77684-0.38975 0.07614-0.041 0.21764 0.0335 0.31011 0.0642 0.37203 0.12359 0.75118 0.22724 1.1133 0.37853 0.09664 0.0404 0.35265 0.23057 0.27877 0.15942-0.17944-0.1728-0.3439-0.37619-0.56788-0.48464-0.0549-0.0266-0.16623-0.14616-0.03601-0.0924 0.30051 0.12409 0.51109 0.40241 0.80362 0.53531 0.15968 0.0725 0.32795 0.28155 0.48849 0.20675 0.06153-0.0287 0.15321 0.1514 0.06557 0.0662-0.06054-0.0588-0.25361-0.25955-0.18968-0.24107 0.05814 0.0168 0.23694 0.14477 0.10381 0.0491-0.21405-0.15388-0.44974-0.27832-0.64616-0.45524-0.07764-0.0699-0.35273-0.21126-0.24226-0.24549 0.13983-0.0433 0.2808 0.0409 0.39994 0.10456 0.35854 0.19166 0.66188 0.46782 1.0051 0.6825 0.14013 0.0876 0.58923 0.29277 0.43247 0.24194-0.1603-0.052-0.2904-0.171-0.41602-0.27961-0.25648-0.22175-0.46484-0.49333-0.71589-0.72322-0.09088-0.0832-0.02532-0.15586 0.08293-0.11103 0.35802 0.14828 0.6866 0.35838 1.0099 0.56958 0.15407 0.10066 0.32237 0.18133 0.46754 0.29364 0.10406 0.0805 0.31245 0.38339 0.30658 0.25064-0.0044-0.10046-0.12512-0.23491-0.18044-0.35021-0.11835-0.24666-0.37349-0.48198-0.32961-0.7532 0.01714-0.10598 0.14806 0.0815 0.18395 0.11909 0.36195 0.37933 0.55064 0.94141 0.99748 1.213 0.06113 0.0371 0.23181 0.17524 0.20826 0.12601-0.12167-0.25428-0.29044-0.4832-0.44632-0.71735-0.17094-0.25676-0.82207-0.69988-0.52073-0.76499 0.11427-0.0247 0.28567 0.13002 0.39298 0.21322 0.42541 0.32986 0.80469 0.71435 1.2494 1.0233 0.1241 0.0862 0.50223 0.14926 0.38335 0.24371-0.06249 0.0497-0.03443-0.0701-0.07423-0.13513-0.20935-0.34195-0.46107-0.65507-0.68394-0.9877-0.03725-0.0556-0.1643-0.28144-0.03289-0.13885 0.35042 0.38024 0.54551 0.88112 0.92782 1.2344 0.05338 0.0493 0.20659 0.19352 0.19449 0.17253-0.24427-0.42366-0.4301-0.8818-0.70894-1.2857-0.04347-0.063-0.05013-0.24521 0.0544-0.11594 0.29261 0.36184 0.50818 0.77783 0.79324 1.1456 0.11815 0.15243 0.19125 0.35103 0.34829 0.4621 0.04342 0.0307 0.1572 0.24467 0.08498 0.17251-0.17019-0.17006-0.29769-0.37836-0.42205-0.58287-0.18468-0.30372-0.37759-0.60649-0.50978-0.93764-0.06642-0.16638 0.16553-0.0497 0.23292-0.011 0.26691 0.15359 0.46513 0.3943 0.67892 0.61029 0.24408 0.2466 0.45557 0.53143 0.73421 0.73798 0.05729 0.0425 0.06674 0.20587-0.02867 0.10336-0.24027-0.25814-0.43596-0.55701-0.59867-0.86821-0.10023-0.1917-0.24894-0.38265-0.24766-0.60225 0.0011-0.1815 0.21842-0.0528 0.28912 0.0274 0.34108 0.38707 0.62874 0.81706 0.92521 1.2382 0.11457 0.16276 0.19161 0.41074 0.38753 0.45204 0.06703 0.0141 0.07988 0.20965 0.03625 0.0796-0.1871-0.5578-0.34032-1.1302-0.58445-1.6659-0.04974-0.10914-0.17142-0.4537-0.14255-0.33568 0.02153 0.088 0.06784 0.25802 0.12136 0.37215 0.09395 0.20034 0.27823 0.33295 0.38308 0.52968 0.26308 0.49366 0.64284 0.93938 0.79494 1.4784 0.02034 0.0721 0.20212 0.17568 0.15416 0.0412-0.06172-0.17302-0.17182-0.32136-0.24971-0.48848-0.16594-0.35604-0.30779-0.72262-0.42279-1.0987-0.0489-0.15993-0.35838-0.47991-0.19348-0.46061 0.09936 0.0116 0.16922 0.16186 0.22671 0.25095 0.35519 0.55035 0.61581 1.1588 0.98892 1.6966 0.07861 0.11329 0.31396 0.44973 0.26435 0.32113-0.15175-0.39333-0.40205-0.73947-0.56432-1.1283-0.10761-0.25785-0.33907-0.6441-0.10905-0.83063 0.04559-0.037 0.10594 0.13734 0.13857 0.19443 0.16722 0.29253 0.32024 0.59418 0.50457 0.87608 0.12748 0.19496 0.39053 0.34704 0.39011 0.57973-1.08e-4 0.0588 0.12324 0.26893 0.07919 0.1481-0.14749-0.40456-0.26128-0.82596-0.47465-1.2025-0.05699-0.10057 0.0237-0.26183 0.11579-0.11188 0.19391 0.31574 0.31263 0.67008 0.46548 1.0062 0.0897 0.19727 0.1258 0.44322 0.29548 0.58029 0.15138 0.12229 0.04853-0.18745 0.04083-0.25859-0.02331-0.21532-0.05619-0.42868-0.10336-0.64073-0.03974-0.17864-0.04584-0.72838-0.04591-0.54427-1.43e-4 0.38273 0.25693 0.69188 0.34156 1.0552 0.05457 0.2343 0.03746 0.52857 0.2227 0.68937 0.08167 0.0709 0.17401 0.36085 0.17287 0.30441-0.0081-0.40297-0.20332-0.77102-0.22906-1.173-0.0112-0.17484-0.16195-0.6384-0.02538-0.52706 0.08143 0.0664 0.11892 0.21656 0.15281 0.32694 0.10924 0.35579 0.18847 0.71868 0.28831 1.0779 0.05658 0.20355-0.03001 0.5915 0.18094 0.60725 0.06362 5e-3 0.07348 0.16842 0.07343 0.12292-6.38e-4 -0.54096-0.26455-1.0839-0.15127-1.6111 0.02442-0.11367-0.02537-0.44202 0.0043-0.34934 0.0228 0.0711-0.0075 0.17252 0.06876 0.25959 0.15356 0.17541 0.18967 0.41487 0.24413 0.63331 0.11597 0.46511 0.26952 0.92521 0.31863 1.4021 0.01113 0.1081 0.09477 0.0539 0.05159-0.0388-0.13367-0.28712-0.11818-0.61268-0.11726-0.92119 9.64e-4 -0.32384 0.07329-1.2903 0.01997-0.97172-0.02723 0.16273 0.07746 0.30657 0.11222 0.46001 0.01438 0.0635 0.05204 0.13943 0.04572 0.0241-0.0038-0.0695-0.0555-0.17306-0.0435-0.0358 0.05594 0.63999 0.25643 1.2622 0.25523 1.908" fill="none" stroke-width=".1029px"/>
<path d="m74.099 167.84c0.82846 0.55373 1.6551 1.1398 2.3002 1.9067 0.08006 0.0952 0.15591 0.19434 0.25601 0.27022 0.07713 0.0585 0.24539 0.26947 0.23679 0.17506-0.01325-0.14554-0.17136-0.19682-0.23364-0.32013-0.2567-0.50829-0.57343-1.0015-0.68773-1.5663-0.02121-0.1048-0.07605-0.41702-0.03413-0.31855 0.02177 0.0511 0.16988 0.23329 0.13432 0.20876-0.03182-0.022-0.15897-0.1296-0.13022-0.0877 0.13107 0.19119 0.22834 0.4399 0.4369 0.54039 0.09811 0.0473 0.18651 0.10656 0.2704 0.18217 0.44979 0.40538 0.80912 0.89862 1.2355 1.3267 0.14355 0.14412 0.28814 0.29183 0.46193 0.4003 0.12207 0.0762 0.10934-0.10618 0.09946-0.17979-0.05173-0.38526-0.16533-0.75854-0.26653-1.1329-0.0863-0.31926-0.13726-0.64968-0.2546-0.95917-0.05048-0.13314 0.12064-0.0858 0.18442-0.0528 0.1775 0.0918 0.30344 0.26723 0.36198 0.44898 0.02765 0.0858 0.12425 0.15124 0.09878 0.24811-0.02689 0.10223 0.0066 0.22406 0.11937 0.26603 0.11956 0.0445 0.28863 0.0178 0.3585 0.14759 0.05627 0.10458 0.0883 0.22001 0.16696 0.31432 0.19747 0.23677 0.41598 0.45418 0.61384 0.69124 0.11675 0.13988 0.16248 0.40077 0.34344 0.42558 0.07273 0.01 0.02923-0.14038 0.02188-0.19549-0.06927-0.51884-0.11412-1.0429-0.23494-1.5526-0.01465-0.0618-0.01579-0.21703 0.06651-0.10363 0.37234 0.513 0.70779 1.0522 1.0836 1.5626 0.11339 0.154 0.10116 0.3823 0.24331 0.51113 0.09759 0.0884 0.13669-0.0814 0.12957-0.16048-0.03198-0.35502-0.19813-0.68269-0.25708-1.0316-0.01552-0.0919-0.11368-0.30922-0.02309-0.28101 0.07678 0.0239 0.12858 0.12583 0.16839 0.1979 0.21623 0.39151 0.3221 0.83044 0.46104 1.2527 0.05781 0.17567 0.06695 0.38342 0.19144 0.52191 0.086 0.0957 0.10895-0.0978 0.11756-0.15958 0.04338-0.31109-0.07722-0.65834 0.06345-0.93859 0.03708-0.0739 0.0516 0.1399 0.05819 0.18422 0.07777 0.52247 0.19046 1.0395 0.2188 1.5703 0.01042 0.19515 0.39546 0.4542 0.21824 0.52787-0.05442 0.0226 0.03608-0.10385 0.07415-0.13644" fill="none" stroke-width=".1029px"/>
<path d="m83.213 171.3c-0.02215 0.0716-0.0281 0.14705-0.03373 0.22139-0.0206 0.27198-0.02496 0.54502-0.02089 0.81763 3e-3 0.19982-0.01265 0.4029 0.02655 0.599 0.0088 0.044 0.0071 0.0945 0.03487 0.13252 0.01561 0.0214 0.05454 0.0329 0.06089-4e-3 0.0098-0.0575-2.3e-5 -0.11608-0.0083-0.17311-0.02212-0.15186-0.05798-0.30149-0.07067-0.45487-0.0064-0.0779-0.0037-0.1564 0.0088-0.23371 0.01336-0.0827-0.01769-0.16345-0.04343-0.24051-0.02403-0.072-0.05432-0.14169-0.09234-0.2076-0.05904-0.10234-0.14915-0.19848-0.15746-0.31836-0.0039-0.0562 0.01499-0.10953-0.01657-0.168-0.01853-0.0343-0.0577-0.017-0.07289 0.0131-0.03458 0.0686-0.04675 0.14592-0.05511 0.22149-0.01068 0.0965-0.0084 0.19416 0.0075 0.29017 0.04666 0.28155 0.16417 0.54716 0.21231 0.82819 0.0085 0.0494-0.0027 0.0996-0.0093 0.14873-0.0041 0.0305-0.0031 0.0961 0.04175 0.0804 0.0408-0.0142 0.06885-0.0503 0.09372-0.0837 0.08776-0.11772 0.15651-0.2481 0.2263-0.37687 0.08058-0.14869 0.13645-0.31354 0.24123-0.44641 0.02089-0.0265 0.05789-0.11069 0.07214-0.0775 0.01694 0.0394 0.0037 0.0855-0.0033 0.12621-0.02072 0.12138-0.05933 0.2391-0.08002 0.36037-0.02408 0.14115 0.0056 0.28356 0.0055 0.42529-7.9e-5 0.0942 0.02394 0.18605 0.05336 0.2752 0.0089 0.0269 0.01961 0.0541 0.02008 0.0828" fill="none" stroke-width=".1029px"/>
<path d="m103.57 177.55c-0.0756-0.0756-0.14772-0.15542-0.20725-0.24452-0.0138-0.0206-0.03-0.044-0.0571-0.0473-0.0342-4e-3 -0.0688-2e-3 -0.10312-2e-3" fill="none" stroke-width=".10292"/>
<path d="m102.47 177.69c-0.12843 0.0444-0.26538 0.0574-0.39605 0.0973-0.0203 6e-3 -0.0703-8e-3 -0.03-0.0235 0.0956-0.0371 0.19884-0.0482 0.29989-0.0613 0.084-0.0109 0.1686-0.0147 0.2534-0.0129 0.38305 8e-3 0.76706 0.0199 1.1473 0.0682 0.1381 0.0175 0.27643 0.0383 0.41095 0.0765 0.0395 0.0112 0.0989 0.0388 0.0689 0.0945-0.0796 0.14803-0.22853 0.24291-0.38144 0.30232-0.31298 0.12161-0.65677 0.13455-0.96897 0.25749-0.0958 0.0377-0.2619 0.0584-0.26193 0.1624-1e-5 0.0299 0.0572 7e-3 0.0788 2e-3 0.12836-0.0319 0.25352-0.0758 0.38446-0.098 0.29653-0.0503 0.59551-0.0956 0.89648-0.1005 0.12444-2e-3 0.24716 0.0215 0.37249 0.0293 0.0496 3e-3 0.0647 0.0488 0.0357 0.0907-0.063 0.091-0.1501 0.16195-0.23712 0.22871-0.23135 0.1775-0.47719 0.3414-0.74659 0.45304-0.0461 0.0191-0.0895 0.0506-0.13925 0.0559-0.0389 4e-3 -0.15181-4e-3 -0.12561-5e-3 0.11149-7e-3 0.22057-0.0337 0.32925-0.0579 0.33441-0.0744 0.66363-0.17536 1.0025-0.22662 0.064-0.01 0.13067-0.0337 0.19383-0.017 0.061 0.0161 5e-3 0.067-0.0307 0.083-0.0726 0.0323-0.14821 0.0564-0.21669 0.0989-0.26678 0.16534-0.50544 0.38142-0.79666 0.50234-0.0639 0.0265-0.12961 0.0553-0.19855 0.06-0.0193 1e-3 -0.0747-9.7e-4 -0.0625-2e-3 0.11653-7e-3 0.23108-0.0322 0.34607-0.0513 0.1956-0.0324 0.39148-0.0823 0.59012-0.0762 0.0522 2e-3 0.12221-0.0145 0.15575 0.0291 0.0329 0.0428-0.0378 0.0691-0.067 0.0861-0.0953 0.0555-0.20382 0.09-0.28999 0.15913-0.14149 0.11351-0.26748 0.24844-0.42179 0.344-0.0419 0.026 6e-3 0.0371 0.0325 0.0526 0.0498 0.0294-0.0233 0.0828-0.0444 0.11058l-4e-3 4e-3 -4e-3 4e-3" fill="none" stroke-width=".1029px"/>
<path d="m91.439 151.82c0.06165 0.45605 0.48325 0.72572 0.84203 0.9452 0.29067 0.17782 0.55911 0.39752 0.73207 0.70257 0.56341 0.99369 0.64735 2.2002 1.3363 3.1337 0.46572 0.63101 1.1289 1.071 1.635 1.6681 0.88801 1.0476 1.5945 2.2324 2.4984 3.27 0.99982 1.1477 2.2008 2.0925 3.2619 3.1793 0.91564 0.93781 1.6177 2.0737 2.069 3.3058 0.38219 1.0435 0.5923 2.1383 0.78624 3.2286 0.0796 0.44755 0.14298 0.90017 0.14382 1.3556" fill="none" stroke-width=".18522"/>
<path d="m105.99 160.55c0.37736 1.6525 1.5215 3.0337 1.7178 4.7473 0.16532 1.4431 0.0964 2.8968 0.19178 4.3457 0.22446 3.411 0.0728 6.8297-0.064 10.245-0.0735 1.8341 0.10283 3.6656-7e-3 5.5026-0.25541 4.2574-0.17492 8.5247-0.17509 12.787" fill="none" stroke-width=".1029px"/>
<path d="m106.62 159.51c0.83046 2.3278 1.946 4.6867 1.8988 7.1676-0.0184 0.96652-0.0542 1.9202 0.0722 2.8931 0.23409 1.8007-0.20416 3.6075-0.13355 5.4095 0.0415 1.0596 0.0161 2.1117-0.0502 3.1747-0.20085 3.2188-0.13485 6.4455-0.12415 9.6685 0.0117 3.5118-0.10567 7.0261 0.0228 10.536 0.083 2.2664 0.0679 4.533-0.13881 6.7991-0.26117 2.8633-0.72149 5.7138-0.81118 8.5878-0.0581 1.8631-0.0667 3.7332 0.24404 5.5889 1.0297 6.1504 2.1491 12.292 2.8878 18.484 0.0318 0.26649 0.0714 0.53267 0.0834 0.80105" fill="none" stroke-width=".19551"/>
<path d="m106.38 179.14c0.53911 0.94831 0.44303 2.1074 0.35076 3.1506-0.30075 3.4004-1.1668 6.7202-2.0351 10.018-0.19178 0.72829-0.52359 1.3925-0.68352 2.1344-0.51782 2.4022-1.6161 4.6462-1.9138 7.106-0.50365 4.1616-1.736 8.1906-2.5369 12.303-0.17081 0.87702-0.67504 1.6394-0.86588 2.5031-0.28051 1.2696-0.66846 2.5043-1.0761 3.7443-0.5492 1.6706-1.0615 3.354-1.7894 4.9614-1.184 2.6146-1.4701 5.4997-2.2149 8.2486-0.80925 2.9868-1.837 5.939-2.2489 9.0097-0.18983 1.415 0.03643 2.8685-0.32559 4.271-0.19969 0.77365-0.01046 1.6394 0.1348 2.4229 0.31725 1.7111 0.70423 3.4804 1.7505 4.917 0.85863 1.179 1.8005 2.428 3.1677 3.0413 0.80934 0.36306 1.2911-0.36813 1.9696-0.68042 1.1513-0.52994 1.8861-1.602 2.4316-2.7088 0.60688-1.2314 1.4516-2.3658 1.6411-3.7786 0.10565-0.78741 0.13091-1.588 0.32549-2.3615" fill="none" stroke-width=".1823"/>
<path d="m101.1 212.29c0.0423-0.16931-0.0393-0.59777-0.17689-0.2245-0.38007 1.0312-0.60437 2.115-0.77894 3.1972-0.0869 0.53849-0.0102 1.1068-0.17781 1.6269-0.24515 0.76057-0.35024 1.5595-0.47699 2.3466-0.37162 2.3075-0.66662 4.6262-0.96248 6.9446-0.51884 4.0658-1.2669 8.1638-0.8772 12.271 0.15868 1.6726 0.35623 3.3998 1.1368 4.9102 0.61041 1.1811 1.4462 2.2185 2.1508 3.3446 0.26475 0.42313 0.47378 0.86649 0.79894 1.2637 0.22796 0.27845 0.6778 0.59148 0.99527 0.27401 0.44818-0.44819 0.59269-1.1032 0.70591-1.7026 0.19749-1.0456 0.80492-2.2468 0.28716-3.1772-0.13748-0.24705-0.28466 0.20643-0.22414 0.34267" fill="none" stroke-width=".1823"/>
<path d="m84.683 185.39c0.05182 1.339-0.71867 2.5127-1.3858 3.6473-0.18715 0.31829-0.48227 0.38734-0.79702 0.51049" fill="none" stroke-width=".1029px"/>
<path d="m89.256 192.67c0.04686 0.50233-0.05051 1.0292-0.34883 1.447-0.08183 0.11461-0.1753 0.22053-0.27483 0.32001" fill="none" stroke-width=".1029px"/>
<path d="m71.821 196.45c1.266 0.53575 2.4766 1.1011 3.9297 1.3705 1.6095 0.29841 3.3807-0.1377 4.9132 0.47848 1.411 0.56734 2.627 1.758 4.4011 1.4673 1.7961-0.29429 3.2869 0.41784 5.2167 0.51403 0.60247 0.03 2.1425-0.57234 0.75257-0.21271-1.5888 0.41109-3.2693 0.90712-4.8881 0.52389-1.5583-0.36892-3.178 0.38663-4.6819-0.12374-1.453-0.49308-2.911-1.0452-4.3558-1.6666-1.5205-0.65386-3.2809-0.7969-4.8329-1.7559-0.70394-0.43498-2.6049-1.0355-1.5009-0.93592 0.65875 0.0594 1.4871 0.68762 2.2522 0.82302" fill="none" stroke-width=".1868"/>
<path d="m71.419 197.01c1.6216 0.87315 2.3321 2.6291 2.9695 4.2906 0.59112 1.5408 2.0911 2.4333 3.3997 3.2959 1.4287 0.94173 3.3261 1.8043 5.0605 1.3047 1.3949-0.40178 2.5214-1.2262 3.7379-2.032 1.3828-0.91593 2.0891-2.76 3.9521-2.8907l0.25421-0.10976" fill="none" stroke-width=".20717"/>
<path d="m72.946 197.73c-0.95654-0.87052 0.35542 0.48673 0.79728 0.75959 1.2931 0.79854 2.1416 1.7611 3.4864 2.7905 1.3694 1.0483 3.0415 2.0217 4.8285 1.8546 1.1714-0.10955 2.3289-0.33082 3.4843-0.65427 1.1859-0.33199 2.2155-0.77121 3.3462-1.252 0.2717-0.11552 0.5604-0.20648 0.8589-0.20246" fill="none" stroke-width=".12348"/>
<path d="m74.072 198.54c0.25502 0.097 0.3026-0.43617 0.54624 0.20741 0.20791 0.54919 1.1743 0.66693 1.4413 1.2978 0.24506 0.57905 0.41519-0.61067 0.42819 0.14599 0.01256 0.73094 0.9985 1.5517 1.5432 1.2524 0.29605-0.16271 0.39373-0.55587 0.39864 0.0572 0.0054 0.67189 0.9346 0.82511 1.4529 0.99627 0.44088 0.14558 1.3451-0.79762 1.2639-0.25905-0.17138 1.1369 1.1627 0.23144 1.447 0.8039" fill="none" stroke-width=".1029px"/>
<path d="m83.719 202.72c0.05503-0.1357 0.19769-0.21013 0.34204-0.21125 0.24288-2e-3 0.4998 0.0961 0.73153-0.0154 0.04917-0.0237 0.09379-0.0563 0.13229-0.0949" fill="none" stroke-width=".1029px"/>
<path d="m73.831 199.1c0.05736 0.1757 0.12162 0.35601 0.25272 0.49309 0.02256 0.0236 0.04577 0.0465 0.06884 0.0696" fill="none" stroke-width=".15875"/>
<path d="m74.393 200.47c0.33034 0.6084 0.75437 1.1698 1.2518 1.6483 0.27748 0.26692 0.5592 0.57442 0.9421 0.67808 0 0 0.02909 4e-3 0.02909 4e-3l0.02798 1e-3" fill="none" stroke-width=".07203"/>
<path d="m89.909 202.4c-0.92877 0.86517-1.6702 1.9306-2.2509 3.0548" fill="none" stroke-width=".06174"/>
<path d="m91.701 191.27c-0.04554 0.75778 0.45519 1.3871 0.90559 1.9346 0.44232 0.53773 0.60118 1.2394 0.6584 1.9101 0.02496 0.29252 0.11592 0.63006-0.03658 0.89828" fill="none" stroke-width=".05145"/>
<path d="m78.574 188.12c-1.4999 0.3412-2.3586 1.7508-3.572 2.6581-0.62576 0.46792-1.3579 0.84844-2.1193 0.96823-0.62993 0.0991-1.2852-0.0612-1.9042 0.099" fill="none" stroke-width=".05145"/>
<path d="m64.076 186.35c0.2694 1.1295 0.78114 2.2108 1.5763 3.0649 0.38124 0.40952 0.72442 0.87227 1.1824 1.1946 0.04313 0.0303 0.0882 0.058 0.13539 0.0816" fill="none" stroke-width=".05145"/>
<path d="m102.25 165.03c0.24883 4.0756 1.984 7.8213 2.8026 11.863 0.65565 3.237-1.7853 5.1893-1.5836 8.9131 0.23451 4.33-1.26 8.9596-3.144 13.056-1.8216 3.9604-4.3857 8.3209-8.5206 9.7912-4.3243 1.5377-6.2574 7.6195-11.155 6.7409-4.0445-0.72554-8.7208-1.0404-10.771-5.2456-1.8777-3.8514-5.0586-6.4712-7.5328-9.8751" fill="none" stroke-width=".23812"/>
<path d="m62.345 200.27c-0.73329-0.93091-1.0681-2.0929-1.4794-3.1948-1.6529-4.4284-0.86906-9.2543-0.90808-13.858" fill="none" stroke-width=".23812"/>
<path d="m58.024 169.01c-0.75903-1.2477-2.4567-0.28507-2.5695 0.72309-0.12211 1.0919-0.23863 2.1552-0.37689 3.2618-0.24678 1.9751 0.01765 3.9596-0.04551 5.9471-0.02726 0.8579-0.07309 1.7154-0.07772 2.5739" fill="none" stroke-width=".23812"/>
<path d="m55.523 180.49c-0.5749 0.33196-0.58583 1.0201-0.84497 1.5683-0.35702 0.75526-0.4768 1.5694-0.48944 2.4899-0.01132 0.82452 0.74942 1.2564 1.363 1.6194 0.63709 0.37697 1.6255 0.98431 2.2452 0.34788 0.64602-0.66344 0.87317-1.5891 1.0429-2.5043 0.06153-0.33183 0.27186-1.2638 0.25061-1.0956-0.07875 0.62306 0.20969 1.2441 0.36148 1.8546 0.12867 0.51752 0.26747 1.038 0.50512 1.5179" fill="none" stroke-width=".23812"/>
<path d="m56.433 172.87c-0.20484 0.6965-0.77086 1.7782-0.20855 2.1711 0.38872 0.2716 1.1804 0.42777 1.0372 1.0397-0.17977 0.76831-0.07795 1.7971-0.74196 2.264-0.5562 0.39116 0.31954 0.96442 0.69343 1.1684 0.39965 0.21799 0.79304 0.5159 0.9252 0.97391" fill="none" stroke-width=".23812"/>
<path d="m59.275 176.74c-0.27829 0.58988-0.79522 1.0265-1.0702 1.6168-0.18842 0.40445-4e-3 0.85494 0.25824 1.1829 0.07572 0.0947 0.15785 0.18414 0.24354 0.26988" fill="none" stroke-width=".23812"/>
<path d="m85.878 151.96c0.89263-2.5375 1.7076-5.6624 4.2753-6.92 1.9171-0.9389 3.7339 0.65393 5.1556 1.7443 2.1926 1.6815 4.2857 3.5384 5.789 5.8931 0.92931 1.4556 2.4102 2.5678 3.084 4.1712" fill="none" stroke-width=".15584"/>
<path d="m85.31 152.3c-0.41241-1.846 0.84218-3.4788 1.0937-5.275 0.26064-1.8616 0.62592-3.8439 3.2788-3.6305 1.806 0.14527 3.403 0.98001 5.0965 1.5965 2.4458 0.89036 4.5386 2.7137 5.7654 4.9216 1.0544 1.8977 2.7842 3.3223 3.9791 5.116 1.1131 1.6709 1.8185 3.5636 2.7285 5.3434" fill="none" stroke-width=".1823"/>
<path d="m97.361 146.38c4.7167 3.9601 8.4019 8.7385 10.513 14.683 1.9776 5.5689 1.7922 11.41 1.7423 17.222-0.057 6.6483-0.16592 13.172-0.87023 19.984-1.0836 10.481-0.04 21.218 2.4508 31.432 0 0 0.31441 0.64716 0.31441 0.64716" fill="none" stroke-width=".26458"/>
<path d="m86.788 153.21c0.30329-0.53995 0.623-1.0692 0.92116-1.6131 0.14022-0.2558 0.45646-1.0325 0.64555-0.35294 0.22089 0.79388-0.11564 2.9853 0.47969 2.4208 0.40147-0.38069 0.63622-0.99576 0.71464-1.5494 0.06632-0.46817 0.4032-0.56583 0.79369-0.22231 0.87781 0.77223 1.5108 1.7875 2.4114 2.5331l0.05939 0.0344" fill="none" stroke-width=".1029px"/>
<path d="m86.674 151.84c0.79988-1.6172 1.7054-3.6872 3.4348-4.1696 1.2879-0.35922 2.6236 0.6729 3.7096 1.3165 1.6201 0.96012 2.3857 2.7801 3.3192 4.3295 0.96975 1.6096 2.124 3.0891 2.731 4.9193 0.47702 1.4384 0.93085 2.968 2.0397 4.0637" fill="none" stroke-width=".26458"/>
<path d="m85.765 145.13c0.08522-1.1004 0.66043-2.67 1.8574-2.7917 1.4554-0.14804 2.6957 0.77929 4.1083 0.85806 1.3573 0.0757 2.2482 1.0782 3.5087 1.4817 2.012 0.644 3.5045 2.3001 4.7748 3.8976 0.36236 0.45572 0.71775 0.92369 0.98507 1.443" fill="none" stroke-width=".26458"/>
<path d="m85.424 146.38c-1.2552-2.8664-5.3411-4.5605-8.0768-3.4494-2.4819 1.008-4.8573 2.5169-6.7649 4.3364-2.2796 2.1742-4.1688 4.6894-5.6973 7.3938-1.5477 2.7384-3.9956 5.2998-4.1491 8.4797-0.09712 2.0123-1.2525 3.8624-1.4604 5.8636" fill="none" stroke-width=".26458"/>
<path d="m85.082 152.3c-0.50115-1.1105-1.9028-2.4862-3.0773-2.437-1.2418 0.0521-2.4076 0.71546-3.5143 1.2731-2.1149 1.0656-4.1756 2.3454-5.7767 4.0687-1.1403 1.2273-2.2897 2.5578-2.8417 4.163l-0.02441 0.20823" fill="none" stroke-width=".18522"/>
<path d="m83.946 152.52c-0.78993 0.32994-1.3406-0.51417-1.8187-0.99147-0.73787-0.73665-1.5934 0.21739-1.8722 0.8561-0.40764 0.93377-1.2911-0.457-1.8798-0.092-0.59738 0.37034-1.2048 0.41935-2.0094 0.43959-1.0451 0.0263-1.4365 1.3303-2.0834 1.9479" fill="none" stroke-width=".26458"/>
<path d="m74.282 150.93c-3.2902 1.1467-5.3281 4.165-7.6133 6.6385-0.89436 0.96809-2.0196 1.7516-2.458 3.1034-0.11588 0.35734-0.22058 0.72084-0.38812 1.0585" fill="none" stroke-width=".23812"/>
<path d="m59.389 167.87c-0.39461 0.91708-1.195 1.6895-1.1786 2.7577 0.01839 1.1984 0.31582 2.4429 1.0426 3.4248 0.33217 0.4488 0.97785 0.54268 1.4464 0.20337 0.29925-0.21671 0.53135-0.51105 0.73605-0.81515" fill="none" stroke-width=".1029px"/>
<path d="m59.048 168.9c-0.79998-0.25382-0.86914 0.65662-1.1443 1.1782-0.50149 0.95043-0.65042 2.1094-0.36673 3.1472 0.19234 0.70361 0.59692 1.3836 1.1874 1.8001 0.29171 0.20577 0.65953 0.24057 1.0058 0.24108" fill="none" stroke-width=".18522"/>
<path d="m68.284 149.26c-2.7704 1.8357-4.3953 4.8483-6.7352 7.2289-1.4702 1.4958-1.8219 3.5569-2.8045 5.3834-0.81162 1.5086-1.3822 3.0981-2.0516 4.6889-0.2777 0.6599-0.62378 1.4448-0.30638 2.1532" fill="none" stroke-width=".26458"/>
<path d="m62.657 156.65c-2.0555 2.2479-3.2918 5.0749-4.3002 7.9556-0.42452 1.2128-1.3467 2.2772-1.3271 3.6206" fill="none" stroke-width=".1029px"/>
<path d="m77.77 154.24c-2.6486 0.19853-4.7582 2.1512-6.2007 4.2373-0.96789 1.3997-1.7352 2.954-2.1599 4.6057" fill="none" stroke-width=".1029px"/>
<path d="m85.809 143.63c-0.7115-1.0219-1.8469-1.8728-3.1508-1.7931-1.5913 0.0972-3.0028 0.95772-4.4059 1.6323" fill="none" stroke-width=".23812"/>
<path d="m82.272 146.2c0.89612 0.0845 1.8157 0.4785 2.2969 1.2967 0.47916 0.81479 0.41111 1.8528 0.98554 2.6188 0 0 0.04561 0.053 0.04561 0.053s0.04837 0.0509 0.04837 0.0509" fill="none" stroke-width=".1029px"/>
<path d="m81.468 146.2c1.2522 0.89019 2.5576 1.9381 3.0346 3.4598 0.1218 0.38852 0.18139 0.79582 0.181 1.2028" fill="none" stroke-width=".1823"/>
<path d="m82.593 144.76c1.1906 0.81526 2.2274 1.9223 2.8091 3.2516 0.32398 0.74029 0.4666 1.6273 0.08491 2.3757" fill="none" stroke-width=".1823"/>
<path d="m87.738 151.51c0.07433-1.1566 1.5339-0.87189 2.2838-0.70113 2.4994 0.56919 4.2564 2.6313 5.7951 4.5349 0.52502 0.64953 1.034 1.312 1.5679 1.9543" fill="none" stroke-width=".1029px"/>
<path d="m59.602 188.17c-0.72292 2.8733-0.8354 5.9625-2.2207 8.619-0.30936 0.59321-0.70404 1.1957-1.3164 1.5102" fill="none" stroke-width=".23812"/>
<path d="m81.977 215.56c-0.94082 0.8695-1.7872 1.983-1.8416 3.3199-0.05466 1.3426-0.0428 2.686 0.03131 4.0287 0.01199 0.21723 0.02116 0.46084 0.17562 0.63178" fill="none" stroke-width=".23812"/>
<path d="m93.848 214.37c-5.7613 8.8137-7.5684 20.692-3.5087 30.244 1.2972 3.0523 2.3974 6.2041 3.9911 9.1472 1.5401 2.8442 5.1936 3.3974 7.4289 0.56283 0.46254-0.58654 0.75708-1.2877 0.93173-2.0098" fill="none" stroke-width=".1823"/>
<path d="m103.05 197.15c-4.0492 8.5704-6.7742 17.732-9.1489 26.886-2.1371 8.2388-5.5471 17.809-1.4109 25.624 2.1017 3.971 5.9565 13.678 10.278 9.8936 1.4348-1.2565 1.1003-3.3207 1.5274-4.9883" fill="none" stroke-width=".1029px"/>
<path d="m100.07 199.58c-0.14693 2.0094-1.0968 3.9598-1.7415 5.8877-1.4015 4.1911-3.3888 8.1338-5.1762 12.172-1.3227 2.9878-3.0037 5.9761-3.3234 9.2777" fill="none" stroke-width=".26458"/>
<path d="m69.731 157.78c0.39013-0.40257 0.45055-1.1351 0.20194-0.17927-0.39274 1.51-1.8903 2.317-2.6407 3.6207-0.79932 1.3888 2.2058 1.6546 1.6348 2.1859-1.5582 1.45-3.9683 1.7986-5.0826 3.8048-1.1679 2.1029-0.76201 4.6709-1.831 6.8067" fill="none" stroke-width=".1029px"/>
<path d="m66.033 163.57c-2.1348 1.0806-3.4875 3.2697-4.0045 5.5658-0.24187 1.0741-0.33606 2.1775-0.33653 3.2771" fill="none" stroke-width=".18522"/>
<path d="m62.335 166.94c-1.0286 1.8027-1.6064 3.8703-1.6078 5.9489" fill="none" stroke-width=".1029px"/>
<path d="m54.778 170.48c-0.88562 2.8498-0.83911 6.0125-2.542 8.5772-1.3254 1.9963-1.8053 4.3779-2.8913 6.4637-1.2096 2.323-1.6685 5.4873 0.15762 7.5778 1.2303 1.4084 2.398 3.9466 4.5504 3.5478 0.61557-0.11406 1.1734-0.42218 1.6899-0.76313" fill="none" stroke-width=".26458"/>
<path d="m53.01 179.16c-0.52111 1.5192-0.98046 3.0382-1.3817 4.6013-0.77786 3.0306-1.2009 6.5983 0.58333 9.3029 0.79062 1.1984 2.1933 2.1768 3.6463 2.1362 0.49674-0.0139 0.96427-0.31158 1.1715-0.76622" fill="none" stroke-width=".26458"/>
<path d="m55.1 186.88c-0.7126 2.4568-0.32347 5.2212 1.0234 7.3381 0.31257 0.49127 0.9556 0.65908 1.2275 1.1832" fill="none" stroke-width=".1029px"/>
<path d="m56.225 186.72c-0.55687 2.4441-0.63393 5.1854 0.54484 7.3828 0.14509 0.27047 0.44569 0.47619 0.41985 0.81697" fill="none" stroke-width=".1029px"/>
<path d="m57.351 187.36c-0.6178 2.0583-0.49986 4.3424 0.48234 6.2704" fill="none" stroke-width=".1029px"/>
<path d="m59.119 186.56c-0.66076 2.8421-0.80543 5.7738-0.8039 8.6821" fill="none" stroke-width=".1029px"/>
<path d="m50.116 192.35c-3.0667-0.0282-5.7635-1.6966-8.628-2.5684-0.90367-0.27503-1.8385-0.48498-2.7875-0.48639" fill="none" stroke-width=".17493"/>
<path d="m50.276 193.15c-4.7623-0.36551-7.968 4.9418-7.9116 9.253 0.08858 6.7687 1.6501 13.671 4.909 19.588 1.6741 3.0396 4.1668 5.4983 7.6687 6.7562 4.4275 1.5903 8.9069 4.0794 13.76 3.3631 3.4137-0.50383 6.4469-0.71363 9.067-3.2673" fill="none" stroke-width=".24395"/>
<path d="m91.436 212.28c-2.5728 8.206-3.7529 16.745-6.1188 25.036-2.3609 8.2737-4.9454 19.843 2.3925 25.546 3.3575 2.6096 6.8732 5.1647 8.0245 9.7543 0.38638 1.5402 0.66969 3.1086 1.1683 4.6189" fill="none" stroke-width=".1823"/>
<path d="m106.87 188.81c-3.4418 7.7261-4.1012 16.37-7.4155 24.209-4.2102 9.9581-7.0154 20.333-9.2825 30.993-1.6206 7.6197 1.9199 17.174 9.1737 19.795 4.4401 1.6046 6.7882-5.2159 7.2028-8.4332" fill="none" stroke-width=".23812"/>
<path d="m61.208 174.81c-0.25124 1.05-0.04975 2.1634-0.3481 3.2006-0.04515 0.15695-0.1041 0.31828-0.22034 0.43743" fill="none" stroke-width=".23812"/>
<path d="m53.363 198.57c-0.31441 0.13982-0.46983 0.50781-0.38825 0.83965 0.14187 0.57706 0.5777 1.0521 1.0859 1.344 0.28575 0.16416 0.6785 0.19168 0.93859-0.0701 0.38897-0.39142 0.43808-1.0353 0.14218-1.504-0.37067-0.58708-1.133-0.78546-1.7784-0.60962z" fill="none" stroke-width=".15875"/>
<path d="m53.136 203.68c-0.55752-0.15207-1.2448-0.1817-1.7053 0.22738-0.33199 0.29491-0.31278 0.80431-0.08563 1.1601 0.42697 0.66884 1.1269 1.1535 1.8786 1.3737 0.35357 0.10354 0.93671 0.23746 1.0889-0.16577 0.12741-0.3376 0.13834-0.75375-0.0096-1.0774-0.17469-0.38215-0.54114-0.62242-0.75426-0.98284-0.21183-0.35824-0.57146-0.58527-0.98113-0.64889" fill="none" stroke-width=".15875"/>
<path d="m53.136 208.23c-0.20184-0.0224-0.47077-0.0553-0.59517 0.13229-0.12069 0.18197-0.11574 0.43373-0.02194 0.62409 0.17166 0.34838 0.638 0.45987 0.98694 0.32094 0.1631-0.0649 0.25151-0.2554 0.19453-0.42297-0.09491-0.27912-0.33961-0.47905-0.56436-0.65435z" fill="none" stroke-width=".15875"/>
<path d="m52.34 210.05c-0.4488-0.11464-0.93046-0.22998-1.3906-0.0998-0.25274 0.0715-0.38239 0.35257-0.31885 0.60136 0.13133 0.51425 0.55183 0.91757 1.0198 1.1452 0.36987 0.17995 0.82826 0.11722 1.1444-0.16885 0.24258-0.21952 0.15724-0.57853 0.01243-0.83308-0.13165-0.23143-0.30689-0.43359-0.46719-0.64488z" fill="none" stroke-width=".15875"/>
<path d="m53.136 213.8c-0.53098-0.0406-1.1737 0.0916-1.4321 0.6065-0.2759 0.54975-0.05324 1.3147 0.44896 1.5872 0.28023 0.15206 0.60355-0.0222 0.90021 0.14648 0.29912 0.17002 0.6202 0.0283 0.87444-0.17646 0.42837-0.34509 0.50543-0.99323 0.22213-1.4619-0.21997-0.36391-0.60657-0.60216-1.0136-0.70183z" fill="none" stroke-width=".15875"/>
<path d="m56.547 221.19c-0.76138-0.0599-1.5507 0.32537-1.9459 0.95172-0.32836 0.52038-0.02255 1.171 0.3488 1.5771 0.41934 0.45864 1.0546 0.94513 1.6913 0.75 0.36697-0.11246 0.62074-0.43251 0.83465-0.73032 0.18658-0.25976 0.47126-0.52016 0.46842-0.84027-0.0044-0.49826-0.3866-0.90242-0.75877-1.1843-0.33972-0.25727-0.76672-0.48743-1.207-0.4103" fill="none" stroke-width=".15875"/>
<path d="m53.591 220.85c-0.43428-0.25806-1.0997-0.39134-1.478 0-0.5262 0.54438-0.38364 1.421-0.01728 2.0222 0.27727 0.45501 0.84437 0.77915 1.3815 0.59264 0.71649-0.24877 1.3331-0.92262 1.3649-1.7042 0.01882-0.46231-0.39679-0.79007-0.82691-0.87327-0.13968-0.027-0.28219-0.0373-0.42432-0.0374z" fill="none" stroke-width=".15875"/>
<path d="m61.208 231.42c-0.48524-0.0627-1.0845-0.078-1.429 0.32164-0.343 0.3979-0.21118 0.99079 0.04123 1.4046 0.26645 0.43686 0.80152 0.78044 1.3236 0.61805 0.53448-0.16625 0.99996-0.68733 0.92697-1.2766-0.05994-0.48395-0.4419-0.86169-0.86276-1.0677z" fill="#fff" stroke-width=".15875"/>
<path d="m80.08 223.58c-0.3215-0.11988-0.71332-0.21451-1.0242-0.0221-0.31818 0.19696-0.31101 0.66295-0.09123 0.93946 0.22136 0.2785 0.65927 0.36377 0.9415 0.18096 0.17838-0.11554 0.40661-0.0604 0.58496-0.15729 0.13793-0.0749-0.0011-0.1905 0.11173-0.3394 0.13137-0.17335-0.09055-0.31718-0.22013-0.39977-0.10226-0.0652-0.20567-0.1289-0.30267-0.20186z" fill="none" stroke-width=".15875"/>
<path d="m58.024 234.27c-0.6413-0.13897-1.2381 0.18224-1.8336 0.40438-0.5411 0.20182-0.67601 0.85175-0.58761 1.3742 0.13134 0.77626 0.84036 1.4952 1.6554 1.3964 0.33531-0.0406 0.762 0.14245 0.99321-0.10537 0.22343-0.23948 0.70819-0.2605 0.7639-0.60647 0.08888-0.55192-0.10622-1.1132-0.35307-1.5954-0.16249-0.31741-0.29259-0.73629-0.63821-0.8677-0.1968-0.0748-0.38106 0.0799-0.56844 0.11369" fill="#fff" stroke-width=".15875"/>
<path d="m54.728 232.56c-0.5719-0.028-1.2043 0.10018-1.5817 0.59971-0.4295 0.56862-0.2572 1.3673 0.17247 1.8871 0.48717 0.58941 1.2412 1.1646 2.021 1.0128 0.76758-0.14943 1.3438-0.93215 1.255-1.7236-0.10348-0.92221-0.91041-1.7754-1.8669-1.776z" fill="#fff" fill-opacity=".99462" stroke-width=".15875"/>
<path d="m71.781 234.27c-0.49191-0.44649-1.2663-0.54765-1.8407-0.16379-0.619 0.41363-0.84922 1.357-0.39164 1.9438 0.18519 0.23752 0.26068 0.60455 0.52702 0.72111 0.66283 0.29009 1.4636 0.13617 2.0589-0.25282 0.38947-0.25452 0.5579-0.76733 0.38468-1.2125-0.15649-0.40216-0.49016-0.69283-0.73823-1.0359z" fill="#fff" stroke-width=".15875"/>
<path d="m67.461 237.34c-0.70705-0.20781-1.5537-0.0178-1.9957 0.61953-0.50068 0.72193-0.2494 1.7634 0.43759 2.2777 0.39608 0.2965 0.88223 0.63549 1.3682 0.55058 0.44567-0.0779 0.82006-0.41475 1.1206-0.73805 0.44021-0.4736 0.53453-1.2228 0.1802-1.7831-0.26272-0.41544-0.67785-0.70894-1.1108-0.92667z" fill="#fff" stroke-width=".15875"/>
<path d="m63.595 239.27c-0.25-0.14607-0.58322-0.29535-0.8535-0.13104-0.29067 0.1767-0.33228 0.56855-0.26635 0.8727 0.05472 0.25246 0.14901 0.54507 0.38118 0.66755 0.26055 0.13745 0.57211-0.0185 0.76478-0.20799 0.25518-0.25103 0.27176-0.6561 0.11782-0.96931-0.0402-0.0818-0.08929-0.15904-0.14393-0.23191z" fill="#fff" stroke-width=".15875"/>
<path d="m72.577 241.54c-0.33596 0.0855-0.46371-0.48933-0.79582-0.34107-0.44157 0.19712-0.73089 0.67613-0.67801 1.1637 0.04825 0.44484 0.20401 1.0134 0.62526 1.1551 0.26793 0.0901 0.55817 0.27607 0.82914 0.21075 0.43971-0.106 0.72154-0.55587 0.7908-0.98184 0.08736-0.5373-0.31186-0.99463-0.77136-1.2066z" fill="#fff" stroke-width=".15875"/>
<path d="m65.187 246.54c-0.87816-0.4971-2.0408-0.52262-2.8756 0.1172-0.94232 0.72229-1.0728 2.1256-0.47914 3.1418 0.21775 0.37273 0.55492 0.64391 1.0173 0.69151 0.88771 0.0914 1.9871 0.0204 2.5283-0.77794 0.64695-0.95435 0.27023-2.2265-0.19082-3.1725z" fill="#fff" stroke-width=".15875"/>
<path d="m57.911 241.43c-0.63593-0.26133-1.4611-0.4021-2.0261 0.0825-0.63051 0.54077-0.54655 1.5408-0.079 2.1617 0.41147 0.54641 1.1134 1.0115 1.8221 0.81219 0.98852-0.27804 1.5745-1.5914 0.97764-2.4742-0.17182-0.25415-0.422-0.4465-0.69458-0.58226z" fill="#fff" fill-opacity=".99462" stroke-width=".15875"/>
<path d="m52.113 204.03c-0.2303 0.0987-0.57154 0.24481-0.53909 0.53188 0.03457 0.30577 0.30705 0.50892 0.54866 0.65741 0.40921 0.25149 0.85273 0.48384 1.3311 0.54641 0.27861 0.0364 0.0079-0.17005-0.11808-0.22445-0.17768-0.0767-0.37542-0.0981-0.5244-0.24826-0.34719-0.34992-0.47084-0.83925-0.69821-1.263z" fill="none" stroke-width=".15875"/>
<path d="m53.477 198.8c-0.0592 0.22493-0.11596 0.46233-0.0716 0.69676 0.02084 0.11015 0.12653 0.19679 0.2412 0.17704 0.2014-0.0347 0.36384-0.19279 0.4568-0.36946 0.06314-0.11999 0.05203-0.28534-0.06335-0.37133-0.15974-0.11905-0.37142-0.12941-0.56305-0.13301z" fill="none" stroke-width=".15875"/>
<path d="m75.192 215.51c-0.95061 0.73079-1.6763 1.7314-2.2012 2.7968-0.41798 0.8484-0.89132 1.8236-0.61633 2.7722 0.02284 0.0788 0.05227 0.15572 0.08897 0.2291" fill="none" stroke-width=".06174"/>
<path d="m65.983 238.36c-0.19035 0.38765-0.23823 0.90186 0.06954 1.2468 0.44192 0.49529 2.379 0.17575 1.7529-8e-3 -0.24488-0.0719-0.51028-0.0879-0.74902-0.19208-0.21413-0.0934-0.45486-0.23298-0.48528-0.4965-0.02332-0.20202 0.03044-0.65944 0.23693-0.55666 0.12596 0.0627 0.31101-8e-3 0.15615-0.12796-0.22118-0.17141-0.53245-0.0408-0.76297 0.0447-0.07376 0.0274-0.14696 0.0565-0.21823 0.0898z" fill="none" stroke-width=".15875"/>
<path d="m70.076 235.06c-0.04131 0.18184-0.10634 0.42679 0.04985 0.56123 0.16438 0.1415 0.40468 0.077 0.5823-9.5e-4 0.18475-0.081 0.40717-0.16149 0.49602-0.34631 0.0807-0.16789-0.19397-0.18243-0.30389-0.19397-0.26873-0.0282-0.62054 0.17935-0.80825-0.0137-0.11371-0.11697-0.06008-0.31627-0.08897-0.4705-0.01768-0.0944 0.26354-0.22962 0.18422-0.19191-0.14123 0.0671-0.18508 0.21863-0.15818 0.37026 0.01686 0.095 0.0459 0.18872 0.04692 0.2859z" fill="none" stroke-width=".15875"/>
<path d="m62.117 248.02c0.0139 0.29784 0.02842 0.60602 0.14571 0.88491 0.04261 0.10132 0.14673 0.22179 0.26643 0.16922 0.16886-0.0742 0.25503-0.26013 0.30061-0.42805 0.05313-0.19576 0.05003-0.453-0.1305-0.58042-0.16944-0.1196-0.3926-0.0909-0.58225-0.0457z" fill="none" stroke-width=".15875"/>
<path d="m63.823 249.61c-0.19374-0.0819-0.78065-0.16339-0.60018-0.28238 0.1942-0.12804 0.44615-0.12487 0.66598-0.19094 0.20095-0.0604 0.65688-0.15276 0.51536-0.4071-0.14386-0.25857-0.44158-0.3767-0.66213-0.55985-0.15565-0.12926-0.66106-0.4991-0.47774-0.40827 0.19492 0.0966 0.40695 0.12804 0.6298 0.1793 0.50913 0.11712 1.0662 0.22959 1.4531 0.58674 0.1679 0.15496-0.03673 0.42649-0.12381 0.58933-0.19126 0.35764-0.56063 0.66605-0.99259 0.61985-0.1426-0.0153-0.28006-0.0628-0.40783-0.12668z" fill="none" stroke-width=".15875"/>
<path d="m56.205 242.79c0.18023 0.37017 0.38109 0.7656 0.74094 0.99208 0.23595 0.1485 0.53543 0.054 0.73349-0.12482 0.197-0.17791 0.20251-0.69868 0.45828-0.63988 0.13159 0.0302-0.15723 0.0926-0.20754 0.10179-0.22757 0.0415-0.4754 0.0744-0.69496-0.0439-0.2667-0.14371-0.53033-0.34971-0.85575-0.31676-0.05887 6e-3 -0.11709 0.0172-0.17446 0.0315z" fill="none" stroke-width=".15875"/>
<path d="m53.363 233.7c-0.04881 0.14754-0.06553 0.30388-0.05567 0.46274 4e-3 0.0645 0.09354 0.14706 0.13828 0.0699 0.05629-0.0971 0.03283-0.21745 0.0032-0.31896-0.02156-0.0738-0.05148-0.14493-0.08578-0.21365z" fill="none" stroke-width=".15875"/>
<path d="m54.045 233.47c0.11952 0.2199 0.27493 0.4572 0.24321 0.71596-0.02844 0.232-0.42622 0.11105-0.4607 0.2856-0.03014 0.1526 0.16968 0.22437 0.28091 0.27892 0.30171 0.14798 0.66162 0.1045 0.95119-0.0701 0.1904-0.11482 0.3049-0.37334 0.52519-0.4044 0.14003-0.0197-0.14195 0.11676-0.20326 0.13726-0.18877 0.0631-0.29166-0.13395-0.43592-0.21526-0.27254-0.15361-0.58341-0.26413-0.77869-0.52735-0.04669-0.0629-0.0869-0.13054-0.12193-0.2006z" fill="none" stroke-width=".15875"/>
<path d="m56.547 236.31c0.04354 0.25229 0.13491 0.56712 0.40362 0.6505 0.28585 0.0887 0.55351-0.0986 0.81557-0.19744 0.13093-0.0494 0.3447-0.33213 0.38766-0.20919 0.0449 0.12851-0.19715 0.0473-0.26958 0.0364-0.24351-0.0369-0.4433-0.18798-0.67204-0.26994-0.21414-0.0767-0.44777-0.0672-0.66523-0.0103z" fill="none" stroke-width=".15875"/>
<path d="m59.957 232.45c0.17432 0.0888 0.35935 0.1768 0.55978 0.18195 0.09183 2e-3 0.18392-0.0645 0.18776-0.1611 0.0067-0.16825-0.10256-0.32887-0.24626-0.41114-0.11125-0.0637-0.25051-0.0189-0.33361 0.0739-0.08054 0.09-0.12922 0.2033-0.16767 0.31637z" fill="none" stroke-width=".15875"/>
<path d="m51.203 210.16c-0.06348 0.19553-0.11086 0.41791-0.02779 0.61455 0.0327 0.0774 0.11994 0.1725 0.20572 0.12626 0.09308-0.0502 0.08934-0.17561 0.06863-0.26462-0.04099-0.17615-0.14047-0.33241-0.24656-0.47619z" fill="none" stroke-width=".15875"/>
<path d="m56.092 223.35c0.3012 0.0726 0.63161 0.21231 0.93042 0.0826 0.28431-0.12344 0.32419-0.50706 0.18923-0.7587-0.18209-0.3395-0.53816-0.53099-0.86251-0.72985-0.15505-0.0951-0.29888-5e-3 -0.23256 0.19803 0.09138 0.28035 0.41704 0.36555 0.57982 0.58586 0.12945 0.17521-0.0948 0.3257-0.2256 0.41055-0.12143 0.0788-0.24956 0.1466-0.37879 0.21153z" fill="none" stroke-width=".15875"/>
<path d="m75.305 232.67c-0.31447-0.10349-0.7266-0.14962-0.97031 0.1185-0.26724 0.294-0.15344 0.7603 0.10001 1.0261 0.24344 0.25526 0.60577 0.42586 0.96148 0.38178 0.3155-0.0391 0.48056-0.37353 0.46728-0.66958-0.01608-0.35835-0.23568-0.69875-0.55846-0.85676z" fill="#fff" stroke-width=".15875"/>
<path d="m55.88 195.77c-0.65196 0.84783-1.3645 1.7245-1.588 2.7927-0.0337 0.16105-0.05336 0.32536-0.05335 0.49002" fill="none" stroke-width=".15875"/>
<path d="m53.641 200.54c-0.23881 0.92733-0.66995 1.8078-0.73448 2.7782-0.0079 0.11824-0.01158 0.23676-0.01158 0.35526" fill="none" stroke-width=".15875"/>
<path d="m52.597 205.61c-0.5411 0.0969-0.18063 0.70863-0.29842 1.0445-0.18802 0.53609 0.08708 1.1267-0.06572 1.6651-0.10538 0.37131-0.32594 0.72715-0.31428 1.1185 4e-3 0.13483-0.19405 0.77553 0.08157 0.64829" fill="none" stroke-width=".15875"/>
<path d="m52.448 211.58c-0.17332 0.88628 0.11436 1.7672 0.14898 2.651 0 0 2.38e-4 0.0348 2.38e-4 0.0348" fill="none" stroke-width=".15875"/>
<path d="m53.194 215.76c0.7417 1.7274 0.90458 3.6998 1.9559 5.2846 0.12678 0.19109 0.26918 0.37244 0.43146 0.53474" fill="none" stroke-width=".15875"/>
<path d="m57.073 223.67c0.11216 0.90717 0.05765 1.8218 0.48325 2.7054 0.38308 0.79527 0.72954 1.5946 1.1229 2.3981 0.29293 0.59834 0.77439 1.0589 0.9973 1.7176 0.12883 0.38068-0.02002 1.0451 0.56222 1.0228" fill="none" stroke-width=".15875"/>
<path d="m61.03 233.81c0.60665 1.0615 1.4361 1.9826 2.3198 2.8173 0.60807 0.57434 1.2211 1.1837 1.979 1.5555" fill="none" stroke-width=".15875"/>
<path d="m69.16 239.04c0.38898-0.30916 0.81377 0.23809 1.3357-0.29461 1.4306-1.46 2.7443-3.03 4.1851-4.4802" fill="none" stroke-width=".15875"/>
<path d="m75.725 232.77c1.3294-1.3633 1.4927-3.3504 2.1205-5.06 0.40676-1.1077 1.2536-2.0772 1.3114-3.2959" fill="none" stroke-width=".15875"/>
<path d="m53.94 200.99c-0.26569 1.1232-0.30746 2.2823-0.29842 3.4319" fill="none" stroke-width=".15875"/>
<path d="m53.194 206.51c-0.09125 0.58018-0.11875 1.1684-0.14251 1.7544-0.0025 0.0618-0.0054 0.12353-0.0067 0.18534" fill="none" stroke-width=".15875"/>
<path d="m52.895 209.64c-0.11654 0.1198-0.23627 0.24425-0.30414 0.40035-0.03114 0.0716-0.0024 0.15404 0.06367 0.1994 0.06894 0.0473 0.16284 0.0509 0.22342 0.10902 0.01005 0.01 0.01733 0.023 0.01706 0.0373" fill="none" stroke-width=".15875"/>
<path d="m52.448 211.28c-0.10506 0.77067 0.05553 1.54 0.12406 2.3062 0.01573 0.17584 0.0252 0.3523 0.02515 0.52887" fill="none" stroke-width=".15875"/>
<path d="m52.448 215.76c-0.41978 1.3294-0.08588 2.7289 0.15326 4.0602 0.07778 0.433 0.14464 0.87051 0.14517 1.3115" fill="none" stroke-width=".15875"/>
<path d="m52.746 223.22c0.27592 2.6951 0.46516 5.5049 1.6915 7.9604 0.26123 0.52307 0.57986 1.0243 0.99435 1.44" fill="none" stroke-width=".15875"/>
<path d="m58.118 237.25c1.0377 0.91556 2.2428 1.6302 3.5436 2.1111 0.22473 0.0831 0.45115 0.16154 0.67844 0.23731" fill="none" stroke-width=".15875"/>
<path d="m63.781 239.46c0.39933 0.0157 0.73189-0.23831 1.065-0.42182 0.13387-0.0737 0.27735-0.14802 0.43387-0.14959" fill="none" stroke-width=".15875"/>
<path d="m67.835 237.63c0.5215-0.28588 1.0455-0.57174 1.5187-0.93546 0.13976-0.10743 0.27711-0.2188 0.40242-0.34302" fill="none" stroke-width=".15875"/>
<path d="m71.983 234.41c1.4623-0.53717 1.7369-2.2391 2.5935-3.3513 0.82204-1.0673 1.8434-1.9642 2.6719-3.0345 0.80955-1.0458 1.491-2.203 1.9087-3.4622" fill="none" stroke-width=".1029px"/>
<path d="m55.581 195.77c-0.34044 1.2714-0.74379 2.5503-0.74606 3.8795" fill="none" stroke-width=".15875"/>
<path d="m54.537 200.99c-0.32019 0.15025-0.36779 0.56712-0.43105 0.87797-0.22088 1.0853-0.0988 2.2284-0.40407 3.2907-0.01538 0.0535-0.02308 0.11396-0.06015 0.15848" fill="none" stroke-width=".15875"/>
<path d="m53.641 206.51c-0.22232 2.6041-1.0576 5.1309-1.0445 7.7591" fill="none" stroke-width=".15875"/>
<path d="m52.746 216.06c0.32269 0.95368 0.1771 1.9778 0.18846 2.9645 0.0073 0.63455 0.10822 1.2798 0.44662 1.8402 0.07591 0.12572 0.11385 0.27102 0.11098 0.41766" fill="none" stroke-width=".15875"/>
<path d="m53.641 223.22c0.2751 1.7141 0.08887 3.4598 0.12368 5.1876 0.02695 1.3377-0.15652 2.7654 0.39392 4.0064 0.0573 0.12919 0.1282 0.25434 0.22846 0.3557" fill="none" stroke-width=".15875"/>
<path d="m54.835 235.9c0.34538 1.5725 0.36304 3.2406 1.0181 4.7258 0.09734 0.22069 0.21181 0.44012 0.38245 0.61369" fill="none" stroke-width=".15875"/>
<path d="m58.118 244.26c0.39582 1.1539 1.0235 2.2296 1.8028 3.16 0.42271 0.50471 0.8507 1.0764 1.4859 1.3152l0.0487 0.011 0.09286 9e-3" fill="none" stroke-width=".15875"/>
<path d="m65.436 249.4c0.82984-0.0443 1.3003-0.78275 1.8833-1.2898 1.3967-1.2147 2.8089-2.4642 3.8658-3.9839 0.13446-0.19335 0.31285-0.3804 0.36187-0.61677" fill="none" stroke-width=".1029px"/>
<path d="m73.039 242.02c1.2306-0.97104 2.0201-2.3827 2.6857-3.7707 0.783-1.6328 1.5466-3.3255 1.7831-5.136l0.0056-0.10038 0.0019-0.0949" fill="none" stroke-width=".1029px"/>
<path d="m77.59 233.22c-0.04666-0.49987 0.06068-0.99361 0.3029-1.4375 0.4482-0.82136 0.60281-1.7483 0.91807-2.6215 0.3753-1.0395 0.81659-2.0544 1.1664-3.1032" fill="none" stroke-width=".1029px"/>
<path d="m81.47 191.96c0.88629 0.17288 1.7759 0.57885 2.3108 1.3372 0.08479 0.12024 0.16009 0.24711 0.22586 0.37869" fill="none" stroke-width=".15875"/>
<path d="m88.01 243c-1.8158 6.3266-0.86922 14.573 5.3362 18.171 3.6109 2.0939 8.5526 4.6893 8.2711 9.4892-0.37914 6.4648-4.1181 12.241-8.395 16.759-0.71498 0.75537-1.5719 1.5492-2.6801 1.5827" fill="none" stroke-width=".26458"/>
<path d="m82.101 228.65c-2.8196 7.4112-4.9548 15.149-8.9282 22.041-2.1679 3.7601-1.3843 9.4295 2.997 10.638 3.5939 0.99139 8.0501 2.722 8.068 7.2534 0.01421 3.5946-1.9308 8.1236 1.7818 10.763 1.0758 0.76478 2.3024 1.2848 3.5453 1.7089" fill="none" stroke-width=".26458"/>
<path d="m79.569 239.62c-1.5164 5.8676-5.053 11.258-4.2862 17.814 0.46878 4.0074 4.2286 4.5189 7.6226 5.4074 4.1647 1.0903 5.3432 5.8099 5.248 9.6882-0.08149 3.3221-0.71282 6.6051-0.77678 9.927" fill="none" stroke-width=".26458"/>
<path d="m71.761 250.59c-0.90937 5.5113-0.70401 11.89 3.3692 16.292 1.8836 2.0357 5.9016 1.4538 6.8915 4.0428 1.2266 3.2078-0.39061 6.7374-2.0313 9.4342-1.4906 2.4502 0.14993 4.6935 3.2125 3.6421 0.7167-0.24606 1.413-0.54771 2.0981-0.87066" fill="none" stroke-width=".26458"/>
<path d="m71.972 266.42c1.2117 2.1876 1.9049 4.7546 1.0578 7.2573-1.0695 3.1597-2.9144 6.1045-2.9444 9.5778-0.02559 2.97 0.84747 6.6672 3.8689 7.882 1.6878 0.67861 3.5903 0.26747 5.1924-0.45002" fill="none" stroke-width=".26458"/>
<path d="m73.449 266.84c2.6404 2.5512 2.4681 6.5049 1.9339 9.8782-0.5603 3.538-2.3932 7.7556-0.1011 10.848 1.6988 2.2919 5.0794 2.9064 7.6583 2.07 0.54443-0.17658 1.0729-0.44275 1.4819-0.85024" fill="none" stroke-width=".1029px"/>
<path d="m78.514 280.98c-0.18858 2.923 0.95054 6.1197 3.4787 7.7646 1.3933 0.9065 3.1595 1.0958 4.7511 0.67614" fill="none" stroke-width=".1029px"/>
<path d="m72.605 243.84c-2.4635 4.161-6.3602 8.0528-6.6477 12.939-0.17086 2.903 2.0784 5.3756 3.7795 7.5424 1.4247 1.8147 3.0589 3.5371 3.4904 5.9704 0.2446 1.3795 0.21719 2.8664-0.41113 4.1463" fill="none" stroke-width=".23812"/>
<path d="m107.63 184.7c-2.6454 17.832-6.6774 35.844-5.0865 53.895 0.26407 2.9962 0.61291 6.0819 1.9212 8.8296" fill="none" stroke-width=".1029px"/>
<path d="m106.74 189.28c-2.5734 8.443-3.7178 17.52-2.8161 26.238 0.69518 6.7214-4.4327 14.685 0.44944 20.332 3.5779 4.1382 6.3672 8.8639 5.784 14.857-0.44288 4.5505-1.8308 8.9299-2.7364 13.394" fill="none" stroke-width=".1029px"/>
<path d="m106.37 210.92c-2.8573 6.834-4.9297 15.025-2.2031 21.996 2.1294 5.4444 9.3452 8.7039 8.4647 15.315-1.0433 7.8336-1.7271 16.333-6.1282 22.865-0.56267 0.83505-1.3739 1.6225-1.3995 2.7073" fill="none" stroke-width=".26458"/>
<path d="m105.31 218.52c-0.16842 7.0699 0.49457 14.435 3.5873 20.891" fill="none" stroke-width=".1029px"/>
<path d="m63.463 216.18c-0.76838 2.3693-2.2621 4.5775-2.2888 7.1329-0.0069 0.65848 0.11896 1.3242 0.41688 1.9147" fill="none" stroke-width=".04116"/>
<path d="m91.678 182.96c7e-3 0.7071 0.23807 1.3998 0.59127 2.0063 0.30779 0.52856 0.7067 1.0247 1.2342 1.3453 0.05177 0.0315 0.10475 0.0609 0.15893 0.088" fill="none" stroke-width=".052917"/>
<path d="m68.659 168.81c0.77783-0.13502 3.0119 0.64288 2.5783 0.34004-0.24396-0.17037-1.4394-1.5164-0.6226-0.75928 0.28214 0.26154 1.6823 1.3913 1.059 0.36212-0.2054-0.33913-0.5578-1.4926-0.17402-0.47596 0.15383 0.40749 1.3612 1.3821 0.6816 0.42304-0.23417-0.33047-0.63082-1.1033 0.05435-0.54225 0.37026 0.30319 1.2721 1.2322 1.2333 1.1952-0.28594-0.27291-1.1447-1.8711-0.39441-0.92575 0.24831 0.31288 1.5003 1.3761 0.7093 0.50184-0.32061-0.35436-1.2087-1.3665-0.08086-0.7894 0.43851 0.22437 1.558 1.5481 1.3925 1.2846-0.26755-0.42611-1.1809-2.2302-0.63455-1.8428 0.62107 0.44047 1.5687 2.4073 1.4866 1.8218-0.06077-0.4333-1.0945-1.9303-0.14332-1.1236 0.25862 0.21933 1.0342 1.4086 0.93398 1.0692-0.09414-0.3187-0.94492-1.9225-0.36248-1.3127 0.40585 0.42493 1.308 1.9915 1.2557 1.7184-0.1173-0.61229-0.73851-2.3227-0.37342-1.8705 0.48992 0.6068 1.2197 2.9474 1.3802 2.1637 0.09648-0.4713-0.6217-2.1104-0.31364-1.7978 0.50304 0.51049 1.2663 2.5028 1.3215 2.0449 0.05281-0.43845-0.43654-2.014-0.08043-1.6406 0.49031 0.5142 0.7715 2.6782 0.86744 2.0079 0.09027-0.63073 0.023-2.474 0.0012-2.1829-0.0793 1.0575 0.39109 3.8849 0.79258 2.9767 0.22189-0.50192 0.16088-2.4764 0.26458-1.9844 0.13566 0.64361 0.15766 2.3482 0.52917 1.9844 0.19804-0.19394 0.70827-1.9495 0.43994-1.2113-0.19942 0.54864 0.18674 2.0701 0.21883 1.9198 0.10395-0.48699 0.10358-2.211 0.36475-1.8178 0.27547 0.41465 0.21378 1.9407 0.27427 1.6352 0.06274-0.31683 0.96707-1.8714 0.6298-0.81858-0.0944 0.29468-0.26836 1.7033-0.27733 1.3809-0.0122-0.43854 0.50161-1.058 0.25513-0.2428-0.10961 0.3625-0.22408 0.77625-0.05331 1.139" fill="none" stroke-width=".07964"/>
<path d="m95.509 176.89c0.57404 0.0186 1.1595-0.34671 1.663-0.63502 0.20836-0.11933 0.68744-0.35367 0.2675-0.0203-0.13895 0.11031-0.612 0.38135-0.15824 0.16305 0.30684-0.14762 1.4146-0.66886 1.177-0.48534-0.24782 0.19136-1.0275 0.73722-0.90445 0.65674 0.59142-0.3869 1.3284-0.42691 1.9482-0.73896 0.30052-0.15132-0.44251 0.39204-0.57483 0.46515-0.20452 0.11299-0.8017 0.52617-0.2292 0.25226 0.56637-0.27098 2.2004-1.1466 1.7445-0.71194-0.28122 0.26807-1.4303 0.86399-1.0317 0.77904 0.62488-0.13317 1.6894-1.4567 1.727-0.79742 0.017 0.29771-1.3189 0.85542-0.99226 0.82201 0.60899-0.0623 2.2258-0.83719 1.7246-0.49763-0.25594 0.17339-1.1901 0.56275-1.0374 0.55911 0.641-0.0153 2.0067-1.1516 1.7747-0.58453-0.11711 0.28618-1.0473 0.58026-0.93095 0.57415 0.30872-0.0162 1.2655-0.27947 1.0917-0.12449-0.16866 0.15038-1.1381 0.44715-0.40831 0.37923 0.40696-0.0379 1.3558-0.65308 1.194-0.33575-0.13686 0.26845-1.0492 0.52513-0.90774 0.50887 0.31753-0.0365 1.1778-0.14931 0.46535 0.14909-0.27767 0.1163-0.76428 0.31973-0.14241 0.20808 0.26511-0.0476 1.1964-0.48218 0.57435 0.0323-0.56856 0.47021 0.74755-0.0517 0.59031 0.13553-0.11784 0.14032-0.95066 0.66647-0.65957 0.49436 0.27144-0.16049 1.0995-0.18069 0.46459 0.19034-0.21557 0.12597-0.79294 0.56666-0.18404 0.35016 0.28147-0.10008 0.64052-0.0333 0.25649 0.26336-0.3189 0.24638-0.42568 0.54272-0.36369 0.94207" fill="none" stroke-width=".079375"/>
<path d="m79.7 223.1c0.73993-1.6097 1.4691-3.2248 2.2451-4.8175" fill="none" stroke-width=".15875"/>
<path d="m72.31 173.9c1.0211-0.57228 2.1891-0.81885 3.2968-1.1799 0.61319-0.1999 1.2169-0.0644 1.849-0.0111 0.59029 0.0497 1.1154 0.34417 1.6362 0.61205 0.91039 0.46825 1.6975 1.1826 2.1298 2.1475 0.12179 0.27181 0.52674 1.1141 0.5233 1.0717-0.04344-0.53714-0.55026-0.90217-0.90252-1.2762-0.49977-0.53064-0.96576-1.073-1.653-1.448-0.52822-0.2882-1.0479-0.5534-1.6457-0.70118-0.54875-0.13567-1.1347-0.39663-1.739-0.38281-1.2507 0.0286-2.4004 0.62344-3.4948 1.168z" stroke-width=".26458px"/>
</g>
<g fill="none" stroke="#000" stroke-width=".23812">
<path d="m70.345 15.627c-4.3884 3.3843-7.4848 8.2733-9.3824 13.36-0.78881 2.1143-2.2901 4.146-2.0434 6.5197 0.10446 1.0053 1.1071 1.7092 2.0715 1.2618"/>
<path d="m64.733 21.427c-0.95751 2.5555-2.3891 5.0335-2.5978 7.7773-0.03285 0.43198-0.06682 1.1916 0.53978 1.203"/>
<path d="m69.784 16.376c-1.2807 2.7011-3.4293 4.7889-4.6083 7.6377-0.81996 1.9812 2.5252-0.22567 2.5096 0.80948-0.02338 1.5572-1.9424 2.3078-2.3914 3.7136"/>
<path d="m66.791 28.162c0.86364-1.0683 3.1718-2.0022 0.9186-4.1598-1.9052-1.8243 0.86775-4.886 2.2744-6.3071 1.5997-1.6161 2.7663-3.6361 4.6917-4.9288 1.8995-1.2753 4.0573-1.4498 6.5419-1.4797 0.64324-0.0077 0.76003 0.67342 0.72758 1.16"/>
<path d="m54.63 47.994c-0.38478 2.3861-0.69758 5.0156 0.4505 7.2341 0.22503 0.43485 0.51228 0.83863 0.85912 1.1849"/>
<path d="m57.81 47.994c-1.0834 2.74-0.55996 5.748-0.56127 8.6061"/>
<path d="m56.688 57.909c-1.6985 1.9597-5.1342 0.86341-5.632-1.6659-0.44188-2.2451-0.45942-4.5832 0.30066-6.756 1.1113-3.1768 1.86-13.045 2.525-9.7257 0.59472 2.9683-0.7684 5.8276-1.1417 8.7436-0.30499 2.3826 0.43661 4.6138 0.89618 7.1779 0.4376 2.4416 3.0983 1.9829 3.8002-0.01901"/>
<path d="m55.752 47.994c-0.45579 1.5562-0.37134 3.2374-0.08683 4.8084 0.22833 1.2607 0.36628 2.7098 1.3104 3.6503 0.26813 0.26711 0.69019 0.33289 1.0215 0.14743"/>
<path d="m83.442 4.5889c1.325 0.89303 2.3753 2.3255 2.3776 3.9918 0.0022 1.5545-0.52212 3.0578-0.50675 4.6143"/>
<path d="m86.622 12.447c0.16752-2.1276 1.3276-4.7571 3.4454-5.2206 2.2295-0.4879 3.7385 1.7785 5.5617 2.8035 2.448 1.3762 3.2262 4.239 4.4085 6.583 0.62867 1.2465 1.201 2.5345 1.9976 3.6863"/>
<path d="m107.58 48.368c-2.6138 11.387-6.3708 23.31-3.9701 34.873 1.3095 6.3074 8.081 9.7136 8.9385 16.091 0.24767 1.8418 0.23588 3.7178 0.64433 5.5371"/>
<path d="m91.673 70.444c-2.7073 5.5071-4.9425 11.482-6.3901 17.531-1.4814 6.1905-3.3669 12.394-3.7722 18.734-0.35171 5.5023 4.3068 8.7539 9.0799 10.627 5.6251 2.208 9.3576 8.1078 9.3143 14.098"/>
<path d="m89.428 72.502c-5.5829 11.832-9.0302 24.873-9.0793 37.99-0.0327 8.726 10.25 7.6053 14.988 12.024 3.94 3.6744 4.7139 9.8461 4.0068 14.906"/>
<path d="m94.106 69.696c-3.1164 5.5289-6.0525 11.39-8.0013 17.484-2.053 6.4196-6.609 15.331-0.79188 20.121 5.2166 4.2954 12.947 5.3648 16.397 12.256 2.787 5.5662 1.9077 12.028 0.62769 17.865"/>
<path d="m104.49 51.268c-3.4588 13.611-10.026 26.153-13.922 39.625-1.9771 6.8358 1.7111 15.913 9.0124 17.267 6.5923 1.2221 9.6814 7.1631 8.371 13.547"/>
<path d="m108.14 44.065c-1.1605 5.1852-2.4972 10.464-2.8063 15.798-0.42277 7.2961-1.8701 15.63 2.0769 21.849 2.4145 3.8041 3.2675 8.7558 6.5291 11.932"/>
</g>
<g display="none">
<path d="m91.174 41.701c-2.1207 1.9725-1.9595 5.1129-1.5033 7.7644 0.27889 1.6209 0.53065 3.1921 0.83112 4.8358 0.32042 1.7528-0.90382 2.679-2.6459 2.8032-1.4843 0.10576-2.7749-0.63942-4.1948-1.2721-1.2376-0.55143-2.4817-1.0054-3.6638-1.6333-1.3709-0.72815-1.128-2.2136 0.14819-2.8727" fill="none" stroke="#000" stroke-width=".18521"/>
</g>
<g>
<path d="m91.767 40.323c-1.4348 2.3332-2.8066 4.9286-2.5228 7.771 0.14046 1.4069 0.5158 2.7301 0.63316 4.1843 0.08038 0.99595 1.588 2.2462 0.49082 3.0427-1.2241 0.88862-2.3688 1.9559-4.0448 1.7821-1.5189-0.1575-2.2343-1.6828-3.5552-2.2667-1.3442-0.59426-3.1336-0.29269-4.1909-1.3236-0.63304-0.61721-1.4618-1.169-0.2506-1.9757 0.17823-0.11871 0.37221-0.21714 0.53124-0.36294" fill="none" stroke="#000" stroke-width=".18521"/>
</g>
<g fill="none" stroke="#000" stroke-width=".18521">
<path d="m82.787 11.043c-0.69995-1.9031-2.0193-4.5679-4.2844-4.5934-3.6585-0.041266-6.573 2.7129-8.701 5.3601-1.953 2.4296-3.3427 5.239-4.8816 7.933"/>
<path d="m81.196 10.669c-1.7387-0.39898-2.9526-2.4008-4.9368-1.8883-2.9935 0.7732-5.9112 2.7089-7.2773 5.4206-1.165 2.3124-2.9406 4.2115-4.2995 6.3952l-0.12394 0.25324-0.10688 0.38982"/>
<path d="m82.225 11.043c-2.0838-4.5525-6.9448-2.4261-9.4441 0.67046-2.3215 2.8763-4.829 5.5758-7.1133 8.4969-2.2558 2.8848-2.8215 6.6414-4.403 9.9696-0.60213 1.2671-1.2408 5.2373 1.2225 2.5654"/>
<path d="m81.571 11.885c-2.3904-3.4054-6.4044-0.92007-8.7183 1.1902-5.4376 4.959-8.3214 11.869-11.876 18.146-0.49601 0.87584-2.0069 4.8904 0.48204 3.6761"/>
<path d="m81.477 12.54c-0.43329-2.8773-3.7251-3.8414-6.1813-2.5127-4.4917 2.4298-8.3956 6.2207-10.677 10.723-1.9932 3.9332-4.1823 7.8658-5.0707 12.23-0.21139 1.0383 0.4686 2.4485 1.6299 1.3561"/>
<path d="m66.791 26.385c-1.5088 0.1812-2.5517 1.4892-3.341 2.6657-0.88117 1.3134-1.5917 2.7585-1.9672 4.2912-0.06544 0.26718 0.11204 0.51827 0.35038 0.62016"/>
<path d="m73.152 14.318c-2.9715 2.0259-4.2521 5.5944-6.5831 8.2033-0.7888 0.88288-0.79151 1.618 0.69097 2.3891 1.585 0.82445-0.74309 2.2145-1.5917 2.6458l-0.15028 0.11492-0.13012 0.11729"/>
<path d="m80.542 13.008c-0.19594-1.2744-1.4409-2.0607-2.6674-2.1407-2.0221-0.13184-4.0663 0.7936-5.3166 2.4451-0.20678 0.27313-0.40791 0.55062-0.62204 0.81812"/>
<path d="m85.032 12.634c0.45315-1.0937 0.09047-2.2807-0.46772-3.1805-1.0473-1.6883-3.3077-1.8809-5.0387-1.3743-1.4434 0.42242-3.089 0.69102-4.1767 1.7919-0.15643 0.15832-0.29633 0.33269-0.41967 0.51786"/>
<path d="m60.804 21.24c-1.6237 2.3577-2.0307 5.2312-2.8955 7.9046-0.10272 0.31754-0.1899 0.64607-0.19148 0.98211"/>
<path d="m54.911 34.804c-0.58267 2.2149-1.1127 4.5027-0.986 6.7794 0.07099 1.2753 0.08009 2.5342-0.16857 3.8127-0.12463 0.64082-0.24603 1.2877-0.2486 1.9428"/>
<path d="m53.882 47.9c0.04921 2.3762-0.45455 5.0522 0.94932 7.1021 0.47515 0.6938 1.0684 1.5466 1.9506 1.6911"/>
<path d="m55.098 47.9c-0.58439 2.3067-0.42264 4.9762 1.0069 6.9344 0.3149 0.43134 0.69931 0.81418 1.1446 1.1105"/>
<path d="m56.22 48.368c-0.29589 1.9395-0.20655 3.9576 0.29941 5.8453 0.19014 0.7094 0.40412 1.4619 0.91667 2.0124"/>
<path d="m58.465 47.619c-0.66285 3.0715-1.0292 6.2107-1.029 9.3544"/>
<path d="m59.494 46.029c-0.53008 3.5235-1.0602 7.047-1.5903 10.571"/>
<path d="m52.946 44.532c-0.48042 1.3533-0.75726 2.8094-0.83371 4.2429-0.11393 2.1364 0.56252 4.238 1.2872 6.2345 0.4606 1.2689 1.792 2.0935 3.076 1.9378 0.21755-0.02638 0.40821-0.13664 0.5865-0.25445"/>
<path d="m53.227 48.648c-0.04749 2.457 0.3148 5.3903 2.4163 6.871 0.61923 0.43629 1.1695 1.1362 1.9803 1.1738"/>
<path d="m78.858 12.727c-1.4831-1.4092-4.2354-0.75658-5.1449 0.93544-0.63503 1.1813-1.0174 2.6359-2.2459 3.3343-1.2034 0.68411-0.91492 2.1619-1.1217 3.3074"/>
<path d="m77.829 13.569c-1.4232-0.46202-3.2116-0.28392-4.1085 1.1099-1.0689 1.661-0.64242 4.5944-2.5131 5.326-1.4701 0.57494-2.8025 1.8351-2.7256 3.5343l-0.0054 0.15779-0.0018 0.16189"/>
<path d="m103.65 19.369c2.2384 5.1281 3.2254 10.495 3.6145 16.144 0.78049 11.329-2.0166 22.466-3.6406 33.673-0.9121 6.2942-0.83164 13.288 2.6453 18.845"/>
<path d="m108.7 34.71c-0.9743 6.3087-1.4241 12.826-2.4291 19.302-1.2941 8.3391-5.8639 15.879-5.489 24.577 0.26267 6.0939 1.0778 12.412 3.996 17.868 0.34475 0.6445 1.2822 1.3648 2.0512 0.92842"/>
<path d="m96.912 66.702c-3.2451 3.675-3.449 7.4192-5.1383 13.029-2.6358 8.7532-7.2444 17.775-4.986 27.102 1.3794 5.6968 2.986 12.149 7.5645 16.024 1.2344 1.0447 3.3351 1.1553 4.2436-0.4024"/>
<path d="m99.344 63.148c-7.4603 11.519-10.257 25.541-10.595 39.082-0.16057 6.4368 1.3844 13.279 5.1451 18.529l0.86398 0.59034 1.0312 0.35699"/>
<path d="m92.983 69.883c-5.1231 9.9299-4.8958 21.072-5.2581 32.009-0.21757 6.5692-1.7742 16.481 4.7432 19.782 3.8828 1.967 9.2414 4.2769 7.063 9.7603"/>
<path d="m88.306 73.625c-1.1543 13.124-4.0561 25.78-7.1094 38.727-1.6356 6.9356 3.0089 13.355 9.5711 15.512 2.6538 0.87261 6.0566 4.6362 3.7122 7.3126"/>
<path d="m89.99 71.38c0.06757 8.7656-3.8541 17-4.5931 25.625-0.54529 6.3641-0.27695 12.524-0.64539 19.089-0.32912 5.8638 5.1066 7.3865 9.2201 10.331 2.6977 1.9308 3.7287 5.3783 3.689 8.5653"/>
<path d="m88.306 72.689c-4.3057 7.5844-6.861 15.825-9.7604 24.099-2.4593 7.0179-4.899 14.067-7.2152 21.124-2.2969 6.9989 3.9509 8.5142 9.8696 9.1298 7.5234 0.78256 2.4519 10.547 7.0809 12.552 0.23297 0.10094 2.2677-0.0181 1.8959 1.0081"/>
<path d="m84.938 77.554c-2.3918 7.0655-5.5629 13.919-7.4496 21.249-1.7309 6.7254-4.6403 15.602 2.05 20.568 5.6839 4.2184 11.15 9.3802 7.406 17.497-1.5654 3.394-0.63556 7.811 3.7933 7.8505"/>
<path d="m74.648 126.76c3.6641 2.4778 5.0302 6.9868 4.7317 11.403-0.24882 3.6797-1.7753 8.3665 1.179 11.218 2.0154 1.945 4.9977 1.2982 7.1153-0.48597 1.5906-1.3402 3.2415-4.1265 5.6829-3.0513"/>
<path d="m80.635 116.28c-0.29548 4.0226 1.31 9.0324 5.2872 10.478 2.6028 0.94582 6.5039 0.51422 7.6246 3.628 1.2382 3.4402-0.51224 7.0708-1.3123 10.403"/>
<path d="m85.406 89.387c-2.4586 7.2413-3.5775 14.817-4.8106 22.339-0.25543 1.5579-0.47042 3.2633 0.22698 4.7426"/>
</g>
</svg>
