<?xml version="1.0" encoding="UTF-8"?>
<svg width="450" height="450" version="1.1" viewBox="0 0 119.0625 119.0625" xmlns="http://www.w3.org/2000/svg" xmlns:cc="http://creativecommons.org/ns#" xmlns:dc="http://purl.org/dc/elements/1.1/" xmlns:rdf="http://www.w3.org/1999/02/22-rdf-syntax-ns#">
<metadata>
<rdf:RDF>
<cc:Work rdf:about="">
<dc:format>image/svg+xml</dc:format>
<dc:type rdf:resource="http://purl.org/dc/dcmitype/StillImage"/>
<dc:title/>
</cc:Work>
</rdf:RDF>
</metadata>
<g transform="translate(31988 938.45)" stroke="#000">
<path d="m-31927-895.59c2.121-2.6894 6.405-2.974 9.109-0.86645 0.373 0.29069 0.753 0.58723 1.046 0.96255" fill="none" stroke-width=".30575px"/>
<path d="m-31927-895.55c2.233 0.31121 4.541 0.87916 6.753 0.42761 0.992-0.20246 1.961-0.53454 2.973-0.69069l0.129-0.0448 0.115-0.0508" fill="none" stroke-width=".26458px"/>
<path d="m-31924-897.36c-0.153 0.67261-0.03 1.5332 0.629 1.8872 0.833 0.44443 1.884 0.20253 2.632-0.32068 0.496-0.34694 0.745-1.0208 0.49-1.5975-0.05-0.11513-0.115-0.2239-0.188-0.32618" fill="none" stroke-width=".29183px"/>
<path d="m-31927-896.69c2.517-3.3022 7.935-4.4064 11.046-1.2911" fill="none" stroke-width=".26458px"/>
<path d="m-31927-897.34c2.195-1.5392 5.17-2.3437 7.723-1.319 0.899 0.36079 1.711 1.0708 1.961 2.0363" fill="none" stroke-width=".26458px"/>
<path d="m-31927-900.42c0.27-0.12935 1.993-2.0789 1.685-1.5795-0.463 0.75016-2.448 2.4278-2.084 2.0041 0.967-1.1264 2.289-1.8452 3.555-2.5764 0.355-0.2051-0.824 1.0419-1.055 1.3228-0.433 0.5262-1.063 0.66298-0.156 0.10513 0.616-0.37888 2.424-1.3726 2.291-1.2701-0.541 0.41562-2.383 1.7518-2.06 1.5762 0.937-0.50888 2.816-2.7692 2.702-1.7341-0.07 0.62753-1.965 1.3318-1.436 1.1292 1.077-0.41238 3.653-2.4556 3.157-1.4162-0.36 0.75509-2.775 1.642-2.196 1.3048 0.82-0.47785 3.442-1.4854 2.626-1.0178-0.522 0.29916-2.212 1.0476-0.764 0.53042 0.733-0.26187 2.823-1.2494 2.343-0.81742-0.427 0.38412-2.31 1.0732-1.889 1.0034 0.495-0.082 1.949-0.72083 1.753-0.60481-0.389 0.23046-2.299 1.3166-0.879 0.76684 0.586-0.22689 0.411-0.0371 0.993-0.27006 0.493-0.19714 1.071-0.48804 0.241-0.0493-1.224 0.64717 0.901 0.11899 0.692 0.27567-0.507 0.38031-0.942 1.03 0.06 0.65389 0.425-0.15926 0 0.3648 0.748 0.23288 1.115-0.19766 1.908 1.0475 2.439 1.8649" fill="none" stroke-width=".15875"/>
<path d="m-31946-923.38c0.148-1.0609 1.049-1.8057 1.982-2.2058 1.089-0.46714 2.231-0.79017 3.361-1.1416 3.04-0.94532 6.271-1.61 9.456-1.1198 1.644 0.25301 3.298 0.71751 4.695 1.6289 1.863 1.2156 3.025 3.161 4.332 4.8991 0.34 0.45227 0.824 0.84693 0.976 1.403 0.02 0.0732-0.06 0.1363-0.127 0.12247" fill="none" stroke-width=".26458px"/>
<path d="m-31948-925.39c2.331-0.69021 4.489-1.8993 6.907-2.3289 2.826-0.5021 5.789-0.0807 8.392 1.1225 1.882 0.86994 3.681 2.0037 5.089 3.5215 0.952 1.0261 1.952 2.0236 2.75 3.1769 0.33 0.47667-0.07 0.28935-0.329 0.10283" fill="none" stroke-width=".26458px"/>
<path d="m-31947-924.1c2.266-1.0196 4.61-1.8718 7.021-2.4785 2.537-0.6383 5.148-1.3209 7.755-1.1079 1.352 0.11041 2.704 0.26603 4.036 0.5389 0.285 0.0584 1.021 0.33036 0.411 0.6087" fill="none" stroke-width=".26458px"/>
<path d="m-31946-922.23c4.32-1.7687 8.829-3.0007 13.295-4.3278 0.599-0.178 2.387-0.72144 1.844-0.3925-0.453 0.2743-1.012 0.4062-1.527 0.55704-3.18 0.93055-6.382 1.8926-9.326 3.4352-0.568 0.29764-1.993 0.36404-1.689 0.9346 0.2 0.3755 0.945-0.0287 1.296-0.15137 4.688-1.6368 9.47-3.1647 14.4-3.7491 0.551-0.0653 2.084-0.41311 1.664-0.0651-0.429 0.35582-1.019 0.46299-1.547 0.60905-1.98 0.54723-4.065 0.72877-5.988 1.4484-0.737 0.27574-1.511 0.49294-2.186 0.89779-0.215 0.12887-1.232 0.21795-0.87 0.22753 0.539 0.0143 1.067-0.0201 1.6-0.14202 3.457-0.7908 6.856-1.9868 10.4-2.2615 0.512-0.0397 1.934-0.32234 1.587-0.0329-0.745 0.621-1.733 0.83209-2.66 1.0158-1.693 0.33544-6.852 0.80503-5.144 0.55799 0.72-0.10412 1.441-0.2898 2.172-0.28367 1.964 0.0165 4.057-0.124 5.85 0.8384 1.013 0.5436 2.281 1.3002 2.347 2.4455 0.03 0.50228-0.706-0.12162-0.889-0.26721-0.694-0.5522-1.781-0.96113-1.927-1.8415-0.08-0.48282 0.687 0.10907 0.858 0.25653 1.353 1.1666 2.724 2.4593 3.379 4.1618 0.351 0.91289 0.463 1.8991 0.462 2.8716" fill="none" stroke-width=".26458px"/>
<path d="m-31915-917.78c0.07 0.40913 0.176 0.81811 0.149 1.237 0 0.10963 0 0.21538 0.03 0.32271 0.09 0.30749 0.235 0.60957 0.254 0.9321 0.01 0.22312-0.04 0.44863 0.03 0.67071 0.03 0.10511 0.149 0.21284 0.105 0.31617-0.04 0.10414 0.04 0.18721 0.12 0.22057 0.06 0.0237 0.02 0.2503 0.02 0.12635 0-0.48714 0.129-0.96127 0.144-1.45 0-0.16523-0.04-0.35509 0.05-0.49451 0.08-0.11741 0.127 0.0679 0.104 0.15605-0.04 0.13927 0 0.2826 0.02 0.42163 0.123 0.92822 0.342 1.8447 0.397 2.7808 0.01 0.22169 0 0.44303 0.01 0.66605 0.01 0.15588 0.2 0.14496 0.239-7e-3 0.09-0.33861 0.04-0.68888 0.03-1.0332 0-0.21338 0.07-0.41845 0.101-0.62704 0.04-0.26212 0.1-0.52245 0.16-0.78127 0.03-0.12779 0.02-0.25771 0.02-0.38914 0-0.0784-0.04-0.23235 0.08-0.23295 0.115-5.9e-4 0.09 0.14433 0.08 0.22037 0 0.0874-0.07 0.21081 0 0.26613 0.07 0.0524 0.13 0.0964 0.141 0.20103 0.06 0.59913-0.09 1.2027 0.01 1.7998 0.03 0.21452 0.139 0.42127 0.129 0.63912 0 0.11193-0.07 0.24002 0.01 0.33676 0.05 0.0641 0.15 0.25487 0.201 0.17561 0.06-0.0941 0.06-0.21413 0.06-0.32199 0-0.21235 0-0.42443 0.03-0.63561 0.04-0.33848 0.06-0.69224 0.208-1.0033 0.04-0.0852 0.103-0.26092 0.198-0.2096 0.1 0.0538-0.05 0.19773 0 0.2869 0.09 0.17475 0.249 0.30901 0.313 0.50455 0.197 0.60324 0.174 1.2483 0.137 1.8725-0.01 0.25371 0 0.50835-0.03 0.76176-0.01 0.15087-0.145 0.44024 0 0.45483 0.06 6e-3 0.175-0.0515 0.148 0.0644-0.01 0.0593-0.01 0.0952 0.02 0.0181 0.162-0.39042 0.194-0.81873 0.364-1.2086 0.1-0.22936 0.197-0.4618 0.226-0.71581 0.02-0.17428 0.03-0.35227 0.1-0.52088 0.04-0.0929 0.155-0.14628 0.154 0.0179 0 0.14304 0.04 0.28469 0.08 0.42249 0.1 0.36938 0.07 0.75428 0.06 1.1318 0 0.36302-0.1 0.74019 0 1.09 0.03 0.11466 0.136 0.19245 0.148 0.32077 0.03 0.29971 0 0.60035-0.01 0.90037 0 0.16225-0.06 0.3389 0.01 0.4884 0.05 0.10275 0.169-0.0209 0.172-0.0977 0-0.13463-0.05-0.26057-0.03-0.39982 0.07-0.56911 0.287-1.1062 0.423-1.662 0.01-0.0533-0.02-0.2102 0.02-0.0763 0.07 0.28604 0.127 0.5748 0.142 0.87041 0.03 0.6804-0.147 1.3482-0.161 2.0256 0 0.34567 0.04 0.6948-0.06 1.037-0.04 0.14694-0.196 0.56688-0.09 0.44934 0.05-0.0588 0.09-0.17509 0.129-0.26029 0.255-0.59186 0.378-1.2316 0.627-1.8246 0.08-0.18341 0.236-0.33607 0.265-0.53326v-0.0494c0 1.2112-0.01 2.4226 0 3.6337 0 0.36029 0.06 0.72678 0 1.0818-0.03 0.14151-0.21 0.28371-0.137 0.40792 0.02 0.0391-0.05 0.1871-0.02 0.0912 0.04-0.14575 1e-3 -0.2982 0.01-0.44713 0.03-0.32742 0.03-0.67042 0.157-0.9737 0.05-0.12047 0.133-0.2239 0.162-0.35615 0.05-0.22991 0.09-0.46253 0.132-0.69385 0.02-0.12085-0.05-0.31514 0.07-0.36388 0.111-0.0472 0.131 0.16079 0.115 0.24519-0.03 0.14597-0.05 0.29086-0.06 0.44124-0.02 0.99556-0.243 1.9716-0.301 2.9644-0.02 0.32673-0.238 0.71473-0.05 0.98102 0.02 0.0349 0.04-0.12391 0.04-0.16832 0.02-0.1341 0.08-0.53132 0.04-0.40381-0.04 0.11404-0.06 0.24197-0.07 0.364-0.03 0.23326-0.09 0.46479-0.09 0.7003 0 0.29542-0.101 0.60971 0 0.88665 0.02 0.059 0.103 9e-3 0.147 0.013" fill="none" stroke-width=".26458px"/>
<path d="m-31917-914.63c0.673 0.42922 1.382 0.82157 1.956 1.383 0.296 0.28947 0.538 0.62813 0.77 0.96882 0.316 0.46343 0.63 0.93056 0.888 1.428 0.297 0.57152 0.379 1.2195 0.6 1.8196 0.177 0.48077 0.298 0.98563 0.527 1.4435 0.144 0.28736 0.373 0.54654 0.429 0.86439 0.02 0.10789-0.02 0.2139 0 0.32473 0.07 0.27492 0.233 0.52516 0.273 0.80594 0.06 0.3894 0.09 0.78199 0.179 1.1665 0.208 0.9049 0.51 1.7893 0.646 2.7094 0.06 0.38655 0.03 0.77801 0.03 1.1671 0 0.1427-0.06 0.29892 0 0.42819 0.01 0.0322-0.01 0.18886-0.02 0.10781 0-0.0438 0.02-0.0843 0.02-0.12776" fill="none" stroke-width=".26458px"/>
<path d="m-31914-910.47c1.004 3.8255 2.008 7.6511 3.012 11.477" fill="none" stroke-width=".26458px"/>
<path d="m-31912-910.75c0.198 0.19966 0.468 0.34493 0.591 0.60526 0.103 0.21748 0.167 0.45118 0.23 0.68244 0.223 0.81903 0.4 1.6494 0.569 2.4806 0.252 1.2412 0.365 2.5076 0.628 3.746 0.04 0.20228 0.116 0.39645 0.147 0.60236 0.07 0.47756 0.131 0.95829 0.134 1.4425 0 0.3344-0.02 0.66923 0 1.0032 0 0.16477 0.07 0.34809 0 0.49566-0.04 0.0672-0.133 0.0745-0.146 0.16701-0.03 0.19779 0.04 0.39571 0 0.59412-0.02 0.1183-0.01 0.25243-0.08 0.35225-0.04 0.0612-0.05-0.0616-0.05-0.0925v-0.01 0.12463" fill="none" stroke-width=".26458px"/>
<path d="m-31911-909.32c0.193 0.3305 0.289 0.70751 0.335 1.085 0.05 0.3872 0.07 0.77693 0.107 1.1649 0.22 2.0776 0.117 4.1695 0.132 6.2542 0 0.68417 0.135 1.3591 0.144 2.044 0 0.077-0.02 0.15634 0 0.23114 0 0.0329-1e-3 0.18887-0.02 0.11429-0.01-0.0447 0.02-0.0892 0.02-0.13423" fill="none" stroke-width=".26458px"/>
<path d="m-31924-929.98c0.148 0.19368 0.218 0.6803 0.443 0.58227 0.11-0.048 0.05 0.0268 0.124 0.12056 0.08 0.10465 0.233 0.11134 0.34 0.19056 0.153 0.11292 0.463 0.23726 0.391 0.41393-0.06 0.14957 0.09 0.24974 0.179 0.34962 0.738 0.84805 1.647 1.5483 2.271 2.4944 0.226 0.34274 0.474 0.66897 0.745 0.97758 0.293 0.33331 0.591 0.66564 0.821 1.0499 0.154 0.25699 0.248 0.56512 0.473 0.76522 0.123 0.10953 0.238 0.22529 0.335 0.36106 0.42 0.58638 0.793 1.2089 1.276 1.7475 0.287 0.31991 0.569 0.64311 0.831 0.98354 0.21 0.27262 0.453 0.51749 0.725 0.73102 0.19 0.14898 0.416 0.26855 0.553 0.46896 0.07 0.10396 0.09 0.22589 0.185 0.32116 0.237 0.23532 0.467 0.47974 0.738 0.6764 0.248 0.17981 0.474 0.38479 0.684 0.60821 0.151 0.16089 0.258 0.35196 0.382 0.53781 0.133 0.19884 0.348 0.32478 0.509 0.49811 0.106 0.11434 0.265 0.12798 0.387 0.2267 0.191 0.15498 0.341 0.34992 0.515 0.52168 0.113 0.11167 0.221-0.0436 0.102-0.14618-0.128-0.1102-0.139-0.28579-0.172-0.43933-0.06-0.29595-0.136-0.59431-0.272-0.86386-0.03-0.0537-0.03-0.0534-0.106-0.11904-0.113-0.1027-0.163-0.25772-0.241-0.38591-0.09-0.15361-0.03-0.3991-0.181-0.49924-0.119-0.0808-0.184-0.20712-0.246-0.33291-0.19-0.38338-0.348-0.78413-0.587-1.1424-0.335-0.50189-0.688-0.99225-1.01-1.5024-0.301-0.47637-0.573-0.98579-0.981-1.3766-0.09-0.088-0.34-0.3475-0.319-0.21508 0.01 0.0637 0.158 0.12895 0.186 0.24931 0.04 0.16057 0.09 0.31798 0.188 0.45501 0.114 0.15516 0.416 0.27698 0.351 0.45961-0.04 0.11217 0.03 0.20252 0.09 0.29486 0.377 0.63171 0.788 1.2456 1.255 1.8146 0.708 0.86352 1.592 1.5908 2.151 2.5686 0.222 0.3882 0.339 0.83621 0.614 1.1923 0.146 0.189 0.305 0.36899 0.413 0.58694 0.07 0.13712 0.08 0.31899 0.204 0.41239 0.139 0.10658 0.238 0.25496 0.313 0.41016 0.03 0.0561-0.08-0.021-0.08 0.0773 0 0.15339 0.145 0.23016 0.197 0.37329 0.07 0.19181 0.03 0.40117 0.01 0.5987-0.02 0.22466-0.04 0.45252 0.02 0.67633 0.04 0.13317 0.1 0.25576 0.106 0.39983 0.01 0.15894 0 0.31739-0.02 0.47506-0.01 0.0981 0.08 0.1535 0.165 0.14538" fill="none" stroke-width=".26458px"/>
<path d="m-31919-927.83c0.2 3e-3 0.432-0.10039 0.604 0.0119 0.258 0.16868 0.481 0.38563 0.709 0.59268 0.657 0.59631 1.339 1.1702 1.913 1.8506 0.445 0.52762 0.812 1.1143 1.268 1.6351 0.245 0.27989 0.533 0.51571 0.81 0.76304 0.358 0.31965 0.663 0.69807 0.915 1.1032 0.197 0.31643 0.311 0.6743 0.492 0.99942 0.16 0.28722 0.3 0.58465 0.41 0.89565 0.427 1.2127 0.648 2.4955 1.203 3.6636 0.44 0.92631 0.981 1.7996 1.51 2.6759 0.132 0.21855 0.297 0.41372 0.406 0.64863 0.09 0.18544 0.145 0.38168 0.173 0.58392 0.02 0.13498 0.135 0.20346 0.191 0.33531 0.205 0.48532 0.332 0.99926 0.459 1.5094 0.06 0.23727 0.09 0.48301 0.217 0.70087 0.106 0.18525 0.26 0.38398 0.201 0.60813-0.03 0.1336 0.06 0.20246 0.125 0.33829 0.06 0.11917 0.04 0.26058 0.04 0.39016 0 0.44629 0.06 0.90075-0.03 1.3389-0.01 0.0767-0.1 0.10403-0.146 0.1567" fill="none" stroke-width=".26458px"/>
<path d="m-31913-920.94c0.271 0.0571 0.586 0.0184 0.81 0.20648 0.132 0.11092 0.198 0.45286 0.354 0.37425 0.121-0.0611 0.192 0.055 0.244 0.14646 0.09 0.16535 0.19 0.33243 0.342 0.4542 0.149 0.1197 0.277 0.26306 0.375 0.42824 0.09 0.15274 0.195 0.29898 0.337 0.41145 0.167 0.13199 0.226 0.34584 0.303 0.53397 0.127 0.30841 0.237 0.62828 0.437 0.90146 0.188 0.25717 0.416 0.50564 0.473 0.8307 0.04 0.24047 0.424 0.38576 0.347 0.60705-0.04 0.11261 0.03 0.20838 0.103 0.28889 0.11 0.12729 0.188 0.27597 0.243 0.43532 0.213 0.61861 0.133 1.2855 0.233 1.9226 0.05 0.32629 0.132 0.64782 0.146 0.98009 0.04 0.90173-0.1 1.8049 0.03 2.7058 0.07 0.539 0.23 1.0682 0.253 1.6122 0 0.18563-0.09 0.39966 0.01 0.55897 0.08 0.11773 0.139 0.24093 0.142 0.38997 0 0.29588-0.108 0.61497 0.04 0.88989 0.145 0.26777 0.106 0.57995 0.08 0.86924-0.03 0.25961 0 0.51685 0.04 0.77996 0.02 0.13705 0.117 0.25422 0.115 0.39062v0.35355c0-0.59159-0.226-1.1479-0.308-1.7296-0.197-1.4054-0.453-2.8002-0.707-4.199-0.116-0.6376 0.09-1.282-0.03-1.9232-0.08-0.44097-0.256-0.86849-0.254-1.3204 0-0.20145 0.172-0.50271 0-0.6059-0.117-0.0685-0.168-0.18271-0.149-0.32898 0.02-0.13838 0.121-0.36389-0.03-0.42508-0.154-0.0612-0.04-0.22194-0.09-0.33619-0.05-0.12277-0.18-0.18317-0.191-0.34726-0.02-0.36497 0.121-0.7322 0.05-1.0916-0.06-0.2714-0.273-0.49343-0.297-0.76884 0-0.0682 1e-3 -0.18865 0-0.0488 0.02 0.91529 0.37 1.7734 0.634 2.6365 0.132 0.43179 0.204 0.8812 0.205 1.3338 0 0.48809 0 0.98086 0.102 1.4612 0.09 0.38908 0.1 0.78988 0.105 1.1867 0.03 1.1768-0.04 2.3527-0.04 3.5296 0 0.86083-0.01 1.7218 0 2.5825 0 0.49282 0.08 0.99859-0.04 1.4802-0.06 0.2418-0.118 0.4865-0.115 0.73906 0 0.45513 0.143 0.93551-0.02 1.3667-0.02 0.0597-0.07 0.30197-0.1 0.23076-0.02-0.057-0.02-0.20471-0.02-0.0631 0 0.15679-0.02 0.62375 0.01 0.47119 0.02-0.0978-0.04-0.22546-0.109-0.0745-0.124 0.27174-0.09 0.58019-0.09 0.86998 0.01 0.36546 0.06 0.73091 0.03 1.0964-0.02 0.19983 0.107 0.36463 0.207 0.52435 0.06 0.0893-0.09 0.10259-0.06-0.0117 0.03-0.11977 0.01-0.2443 0.01-0.3664 0-0.13971-0.03-0.55221 0-0.41975 0.04 0.13964 0.08-0.11026 0.09-0.15715 0.04-0.17723 0.05-0.35572 0.05-0.53944-0.01-0.39669 0.147-0.77476 0.147-1.1724 0-0.18905-0.174-0.49439 0-0.56714 0.171-0.0713 0.159-0.26016 0.166-0.41675 0.01-0.21067-0.04-0.42052-0.01-0.63112 0.01-0.13903 0.22-0.13853 0.176 0.0312-0.05 0.19502-0.1 0.39018-0.148 0.58618-0.224 0.9055-0.255 1.8476-0.473 2.7534-0.05 0.18735-0.172 0.36267-0.131 0.56562 0.02 0.10016-0.106 0.37202-0.15 0.26744-0.03-0.0737 0.111-0.0942 0.144-0.1434" fill="none" stroke-width=".26458px"/>
<path d="m-31949-923.95c0.122-0.4007 0.547-0.58451 0.788-0.89906 0.08-0.10069 0.19-0.1904 0.211-0.33979 0.02-0.14258 0.163-0.25041 0.27-0.33728 0.252-0.20383 0.526-0.3728 0.763-0.60003 0.08-0.0749 0.274-0.28022 0.272-0.27455-0.03 0.0948 0.166-0.0739 0.21-0.10854 0.394-0.30912 0.854-0.59347 1.083-1.0443 0.06-0.11407 0.09-0.23979 0.197-0.32906 0.384-0.32535 0.92-0.40146 1.309-0.71067 0.155-0.12307 0.322-0.23019 0.511-0.2976 0.486-0.17322 0.995-0.28208 1.455-0.53164 0.26-0.14116 0.523-0.29383 0.825-0.32788 0.236-0.0266 0.477-0.0695 0.677-0.20814 0.152-0.10547 0.326-0.16684 0.505-0.20898 0.252-0.0593 0.607-0.35776 0.763-0.14963 0.09 0.1228 0.258 0.0543 0.393 0.0206 0.286-0.0716 0.561-0.17438 0.831-0.29215 0.409-0.17813 0.852-0.26149 1.292-0.31515 0.87-0.1061 1.764-0.23832 2.621-0.0724 0.154 0.0298 0.281-0.0391 0.424-0.0818 0.152-0.0454 0.309-0.0902 0.471-0.0442 0.192 0.0544 0.37 0.15435 0.578 0.14783 0.285-9e-3 0.579-0.0709 0.856 0.029 0.195 0.0703 0.4 0.11138 0.609 0.0906 0.306-0.0305 0.614 0.0271 0.908 0.10684 0.224 0.0607 0.459 0.11614 0.656 0.24346 0.136 0.0877 0.267 0.28436 0.444 0.22561 0.181-0.0601 0.334 0.0874 0.456 0.19585 0.193 0.17173 0.464 0.161 0.68 0.29323 0.363 0.22184 0.686 0.50531 1.09 0.66616 0.251 0.0999 0.564 0.1277 0.741 0.33861 0.114 0.13553 0.234 0.26785 0.395 0.35105 0.217 0.11215 0.365 0.30812 0.541 0.4737 0.103 0.0971 0.195 0.26839 0.346 0.27022 0.188 2e-3 0.357 0.1618 0.504 0.27715 0.164 0.12886 0.252 0.5294 0.446 0.43503 0.153-0.0746 0.199 0.10645 0.229 0.21624 0.04 0.15121 0.16 0.0459 0.279 0.15384 0.196 0.17822 0.373 0.38332 0.501 0.61353 0.04 0.0646-0.07-0.0217 0 0.0387 0.135 0.11861 0.219 0.33732 0.397 0.36529 0.127 0.02 0.261-8.7e-4 0.378 0.0888 0.297 0.22757 0.382 0.62197 0.496 0.95772" fill="none" stroke-width=".26458px"/>
<path d="m-31912-900.71c0.19 0.35693 0.257 0.76188 0.309 1.1584 0.05 0.35317 0.1 0.70935 0.228 1.0438 0.09 0.23637 0.178 0.47538 0.223 0.72595 0.08 0.44991 0.07 0.91789 0.234 1.3514 0.06 0.15571 0.14 0.30558 0.15 0.47561v0.26576c0-0.91269 0.02-1.8331-0.145-2.7348-0.07-0.39418-0.259-0.76375-0.287-1.1652-0.01-0.18625 0.09-0.3919 0-0.55894-0.04-0.0689-0.143-0.0769-0.146-0.17511-0.01-0.31063 0-0.62149 0-0.93219 0-0.105 0.102-0.32623 0-0.31543-0.09 9e-3 -0.121 0.11111-0.167 0.17587-0.131 0.18459-0.325 0.33507-0.388 0.55906-0.04 0.13171-0.02 0.27126 0 0.40323 0.09 0.48655 0.337 0.92516 0.426 1.4126 0.139 0.76366 0.03 1.5555 0.223 2.3105 0.03 0.0985 0.05 0.20067 0.106 0.28521 0.05 0.069 0.08 0.14803 0.09 0.23436 0.01 0.17861-0.03 0.35985 0 0.53667 0.01 0.0599 0.112 0.16967 0.129 0.10767 0.02-0.0635 0-0.13338 0-0.19917-0.01-0.32565-0.03-0.6535 0.02-0.9778 0.07-0.49185 0.243-0.96969 0.269-1.4677 0.01-0.20782 0-0.41558 0-0.62355v-0.17477c0 0.15045 0.02 0.59945 0 0.45316 0-0.0512 0-0.20367-0.03-0.1596-0.03 0.0738-0.04 0.15793-0.05 0.23805-0.03 0.24489-0.07 0.49012-0.07 0.73678 0 0.28042 0.03 0.56056 0 0.8412-0.04 0.44128-0.114 0.87858-0.144 1.3209-0.03 0.39216-0.09 0.79715 0.01 1.1796 0.03 0.10151 0.14 0.17228 0.139 0.27716 0 0.098-0.03 0.2065 0.01 0.29519 0.04 0.0782 0.138-7e-3 0.156-0.0599 0.04-0.12036-0.04-0.24075-0.03-0.36153 0.02-0.20543 0.144-0.39486 0.145-0.60084 0-0.31102-0.05-0.62652 0.01-0.93376 0.04-0.21053 0.138-0.40838 0.137-0.62863-1e-3 -0.16036-0.03-0.3232 0-0.48236 0.01-0.0624 0.121-0.16797 0.143-0.10333 0.02 0.0643 0 0.13528-0.03 0.19822-0.06 0.22279-0.119 0.44776-0.16 0.67597-0.07 0.38848-0.126 0.77913-0.179 1.1701-0.05 0.40296-0.09 0.80986-0.08 1.2164 0 0.0698-0.03 0.14882 0 0.20958 0.02 0.0317-0.02 0.17712-0.03 0.0955-0.01-0.0754 0.02-0.14913 0.06-0.21475 0.1-0.19106 0.213-0.36886 0.334-0.54424 0.04-0.061 0.09-0.11873 0.15-0.16143 0.07-0.0469 0.08-0.13326 0.102-0.20682 0.04-0.14281 0.03-0.30242 0.1-0.43388 0.107-0.20623 0.184-0.42756 0.306-0.62658 0.04-0.0671-0.02-0.12153-0.08-0.0569-0.1 0.11568-0.147 0.25875-0.196 0.3974-0.165 0.46493-0.293 0.94341-0.383 1.4279-0.04 0.21547-0.04 0.43698-0.09 0.65181-0.02 0.073 0.05 0.11053 0.12 0.0917 0.08-0.0214 0-0.11747 0.03-0.15708 0.08-0.09 0.215-0.1 0.316-0.16648 0.08-0.05 0.134-0.12724 0.146-0.22084 0.02-0.12505 0.04-0.26457 0.129-0.35234 0.116-0.11191 0.26-0.208 0.323-0.36322 0.03-0.0865 0-0.22859-0.1-0.22886-0.07-2.1e-4 -0.08 0.0965-0.09 0.14802-0.04 0.16446-0.05 0.35195-0.164 0.48077-0.05 0.0578-0.114 0.0988-0.16 0.16224-0.09 0.11877-0.254 0.21122-0.256 0.35843 0 0.0655-0.04 0.12356-0.07 0.18106-0.06 0.11954-0.143 0.22752-0.222 0.33554-0.06 0.0844-0.137 0.1697-0.154 0.27529-0.02 0.1075 0.05 0.22392 0 0.32264-0.04 0.0707 0.05 0.079 0.08 0.0321 0.08-0.10933 0.09-0.25239 0.143-0.37551 0.03-0.0548 0.1-0.0354 0.06 0.0309-0.111 0.21209-0.252 0.40665-0.373 0.61259-0.07 0.11904-0.156 0.23217-0.198 0.36485-0.175 0.54711-0.134 1.1297-0.134 1.6954" fill="none" stroke-width=".26458px"/>
<path d="m-31908-897.84c-0.143 0.19137-0.334 0.35448-0.43 0.5738-0.03 0.0637-0.04 0.13134-0.06 0.19782-0.02 0.0734-0.03 0.15169-0.07 0.21903-0.03 0.0622-0.08 0.11851-0.122 0.17271-0.112 0.13592-0.239 0.26238-0.319 0.421-0.07 0.13647-0.07 0.29661-0.144 0.43124-0.07 0.13671-0.208 0.23301-0.267 0.37787-0.04 0.0982-0.04 0.20701-0.04 0.31135 0 0.10265 0.02 0.20484 0.02 0.30778" fill="none" stroke-width=".26458px"/>
<path d="m-31909-896.26c0.339-0.53103 1.57-2.0166 1.68-1.3039 0.236 1.5325 0.06 3.089 0.05 4.6346-0.02 3.3531 0.115 6.7809-0.777 10.037-0.328 1.1969-0.823 2.5119-1.885 3.1933-0.143 0.0918-0.334 0.16448-0.498 0.0803" fill="none" stroke-width=".26458px"/>
<path d="m-31908-894.83c-0.587 0.81723-0.888 1.8544-0.709 2.8601 0.253 1.4253 1.153 2.6873 1.139 4.1693" fill="none" stroke-width=".26458px"/>
<path d="m-31910-890.1c-0.223 0.547-0.383 1.1728-0.173 1.7512 0.1 0.2729 0.336 0.4631 0.481 0.7115 0.117 0.20005 0.03 0.44193-0.02 0.64877-0.04 0.15941-0.116 0.31152-0.142 0.47495" fill="none" stroke-width=".26458px"/>
<path d="m-31910-886.08c0.133 0.46339 0.408 0.87325 0.746 1.2134 0.223 0.22416 0.466 0.4279 0.689 0.65155" fill="none" stroke-width=".26458px"/>
<path d="m-31929-900.14c-0.774 0.66465-1.132 1.6821-1.309 2.6549-0.23 1.2658-0.281 2.6128 0.142 3.84 0.05 0.13349 0.1 0.26465 0.163 0.3911" fill="none" stroke-width=".21167"/>
<path d="m-31911-890.1c-0.304 7.2334 1.279 14.934-1.472 21.86-1.867 4.6999-6.091 7.703-10.373 11.042-1.128 0.87944-2.456 1.6687-3.935 1.6716" fill="none" stroke-width=".26458px"/>
<path d="m-31927-888.66c-0.374 1.4075 1.292 1.5373 0.867 3.4754-0.354 1.615-1.223 1.1637-3.05 0.74208-0.516-0.11908-0.932 0.33425-1.26 0.65997" fill="none" stroke-width=".26458px"/>
<path d="m-31938-887.94c-1.089 0.74353-1.669 2.5465-0.535 3.498 0.884 0.74187 2.187 0.78294 3.261 0.51889" fill="none" stroke-width=".26458px"/>
<path d="m-31936-885.22c0.701-0.32086 1.304 0.34493 1.743 0.82071 0.139 0.15077 0.236 0.35642 0.409 0.47049" fill="none" stroke-width=".26458px"/>
<path d="m-31938-899.13c1.583 1.1635 2.383 3.3178 2.14 5.217-0.04 0.32858-0.126 0.65448-0.275 0.95174" fill="none" stroke-width=".21167"/>
<path d="m-31934-888.52c0.623-0.3055 1.318-0.43695 2.009-0.4304" fill="none" stroke-width=".079375"/>
<path d="m-31930-884.21c-0.791 0.70883-1.884 1.6049-3.004 1.0968-0.273-0.12382-0.514-0.31149-0.725-0.52285" fill="none" stroke-width=".26458px"/>
<path d="m-31931-888.37c0.411 0.0925 0.62 0.48096 0.84 0.8023 0.05 0.0716 0.103 0.1404 0.164 0.2019" fill="none" stroke-width=".079375"/>
<path d="m-31925-884.36c2.975 1.7342 6.158 4.1827 6.917 7.6477 0.155 0.70778 0.1 1.4949-0.318 2.1074" fill="none" stroke-width=".15875"/>
<path d="m-31956-894.83c0.812 5.8573-0.241 4.695 0.844 11.118 1.329 7.8709-0.04 13.922 7.555 20.383 7.109 6.045 11.948 10.162 22.014 7.6631" fill="none" stroke-width=".26458px"/>
<path d="m-31926-894.69c1.022 0.68533 2.293 0.4527 3.443 0.4304" fill="none" stroke-width=".26458px"/>
<path d="m-31927-894.69c0.903 1.7876 2.954 1.9637 4.696 2.0863 1.329 0.0936 2.761 0.46989 4.055 0.0656" fill="none" stroke-width=".26458px"/>
<path d="m-31949-895.4c2.336-1.964 5.711-2.903 8.607-1.4345 0.697 0.3535 1.502 0.68767 1.865 1.4345" fill="none" stroke-width=".26458px"/>
<path d="m-31950-895.26c2.381-0.47175 4.546 0.73159 6.996 0.3536 1.203-0.18557 2.396-0.48989 3.62-0.4971" fill="none" stroke-width=".26458px"/>
<path d="m-31946-897.2c-0.55 0.8531 0.222 1.7551 1.065 2.0789 0.939 0.36066 1.677-0.24334 2.39-1.1196 0.313-0.38472 0.353-0.86812-0.01-1.2462" fill="none" stroke-width=".26458px"/>
<path d="m-31941-896.84c0.482 0.22927 1.012 0.45929 1.335 0.90125 0.157 0.21509-0.09 0.36978-0.188 0.53325" fill="none" stroke-width=".26458px"/>
<path d="m-31919-897.21c0.526-0.0296 1.015 0.46577 0.644 0.99359-0.296 0.42122-0.77 0.79172-1.299 0.82971" fill="none" stroke-width=".24104px"/>
<path d="m-31926-896.34c-0.21 0.12094-0.488 0.39057-0.28 0.63674 0.113 0.13385 0.271 0.21703 0.424 0.29566" fill="none" stroke-width=".26458px"/>
<path d="m-31947-896.98c-0.541 0.2195-1.229 0.50437-1.382 1.0801-0.179 0.67306 0.738 0.42479 1.095 0.42619" fill="none" stroke-width=".26458px"/>
<path d="m-31950-896.26c1.55-1.8138 3.901-2.3321 6.184-2.5599 2.167-0.21629 3.995 0.90283 5.436 2.4164" fill="none" stroke-width=".26458px"/>
<path d="m-31948-899.35c2.644-0.2572 5.754-0.49619 7.898 1.219 0.582 0.4655 1.054 1.046 1.571 1.5784" fill="none" stroke-width=".26458px"/>
<path d="m-31960-895.05c-3.753-3.0456-1.743 3.9335-1.435 5.81 0.639 3.8964 2.108 9.2833 6.212 10.409l0.101-0.29563" fill="none" stroke-width=".26458px"/>
<path d="m-31961-892.82c-0.187-2.9714 1.651-0.95728 1.552 1.4173-0.09 2.2403-0.903 5.1665 0.881 6.768 0.255 0.22893 0.652 0.22828 0.939 0.0635" fill="none" stroke-width=".26458px"/>
<path d="m-31957-884.5c-0.645-0.0704-0.741 0.79229-0.746 1.2585 0 0.39635 0.01 0.81126 0.172 1.1803" fill="none" stroke-width=".26458px"/>
<path d="m-31957-887.87c0.164 0.83662-0.253 1.6799-0.06 2.5107l0.05 0.11722 0.08 0.0978" fill="none" stroke-width=".26458px"/>
<path d="m-31941-883.42c-0.854 2.825-4.302 4.3035-4.497 7.3002-0.1 1.4765 1.023 2.4342 2.13 3.1722" fill="none" stroke-width=".15875"/>
<path d="m-31939-894.4c0.755 1.2674-1.908 1.7068-2.858 1.9621-1.547 0.41552-3.464 1.1458-4.961 0.47689" fill="none" stroke-width=".26458px"/>
<path d="m-31940-894.69c-1.224 0.43667-2.39 1.1623-3.73 1.1477" fill="none" stroke-width=".26458px"/>
<path d="m-31946-894.69c1.037 0.13348 1.922 0.43085 3.039 0.25128 0.697-0.11209 1.372-0.3117 2.054-0.46648" fill="none" stroke-width=".13229"/>
<path d="m-31951-865.91c2.536 5.704 2.049 12.386 0.659 18.318-0.44 1.878-2.549 2.6078-3.361 4.2648" fill="none" stroke-width=".26458px"/>
<path d="m-31913-867.29c-0.183 3.8206 0.557 9.0137 1.904 13.258 0.969 3.0523 2.138 6.0374 3.404 8.9777" fill="none" stroke-width=".26458px"/>
<path d="m-31912-857.53c4.013 1.7932 5.461 6.3443 8.575 9.1152 1.5 1.3346 5.583 3.8598 3.763 6.0913" fill="none" stroke-width=".26458px"/>
<path d="m-31912-859.11c0.543 1.3684 2.321 1.4789 3.3 2.4388 1.649 1.6177 3.354 3.1852 5.259 4.4932 1.345 0.9236 2.848 1.5989 3.909 2.9424 1.218 1.5424 1.664 4.0093 3.526 4.7389 1.249 0.48929 2.079 1.5819 3.127 2.3777 1.752 1.3308 3.17 3.3107 3.193 5.5777 0 0.29736-0.144 0.69546-0.508 0.67138" fill="none" stroke-width=".26458px"/>
<path d="m-31904-852.22c0.503 1.3916 1.418 2.607 2.491 3.6089 0.589 0.54975 1.235 1.0478 1.956 1.4121" fill="none" stroke-width=".26458px"/>
<path d="m-31899-843.9c1.61 7e-3 3.366 0.20836 4.639 1.2719 0.76 0.63504 1.175 1.5562 1.758 2.3397 0.469 0.63038 1.13 1.0916 1.485 1.8249 0.265 0.54666 0.621 1.0406 0.941 1.5585 0.219 0.35413-0.03 1.5988 0.598 1.1794 0.07-0.0442 0.123-0.10031 0.191-0.14078" fill="none" stroke-width=".26458px"/>
<path d="m-31899-842.75c1.324 0.0205 2.716-0.33133 3.98 0.20409 0.47 0.19907 0.785 0.62969 1.114 1.0002 1.192 1.3414 2.353 2.7135 3.443 4.1396l0.05 0.0655 0.02 0.042" fill="none" stroke-width=".26458px"/>
<path d="m-31907-844.33c0.849 1.1104 2.215 1.998 2.362 3.5101 0.114 1.1762-1.01 1.8414-1.921 2.3531-0.819 0.45982-1.932 0.48663-2.531 1.2627-1.423 1.8449-3.106 3.5974-3.943 5.7729-0.322 0.83707-0.61 1.694-0.925 2.5393-0.264 0.7077-0.501 1.4439-0.502 2.2072" fill="none" stroke-width=".26458px"/>
<path d="m-31904-849.07c-0.907 0.65972-1.741 1.4639-2.279 2.4573-0.351 0.6476-0.411 1.4153-0.216 2.1523 0.07 0.27588 0.183-0.13197 0.235-0.24148 0.586-1.2354 1.06-2.5285 1.797-3.6885 0.147-0.23122 0.302-0.45763 0.463-0.67961z" fill="none" stroke-width=".26458px"/>
<path d="m-31902-846.77c-0.936 4e-3 -1.791 0.52464-2.397 1.2103-0.624 0.70622-1.135 1.542-1.355 2.4553-0.09 0.37026 0.162 0.70478 0.165 1.0685" fill="none" stroke-width=".0048908"/>
<path d="m-31900-844.91c-1.65 0.90174-2.985 2.3512-3.84 3.9815-0.995 1.8964-0.2 4.0551-0.544 6.0742-0.18 1.0554-1.17 1.5596-1.886 2.2119-2.163 1.9695-4.96 3.4104-6.354 6.095" fill="none" stroke-width=".26458px"/>
<path d="m-31908-837.59c0.105 1.0534 0.811 1.887 1.344 2.756 0.771 1.2581 1.915 2.2154 3.082 3.1059 0.404 0.30826 0.855 0.55414 1.351 0.67451 0.307 0.0745 0.671 0.23134 0.966 0.20614" fill="none" stroke-width=".26458px"/>
<path d="m-31907-838.02c-0.318 0.58262-0.146 1.2899 0.09 1.8667 0.463 1.1526 1.192 2.2009 2.102 3.0462 0.352 0.3271 0.786 0.5471 1.266 0.64344 0.684 0.13722 1.429 0.14168 2.036 0.52359l0.06 0.0429 0.05 0.0458" fill="none" stroke-width=".26458px"/>
<path d="m-31899-841.61c-1.778 1.1172-2.91 2.9928-3.685 4.8898-0.393 0.96159-0.845 1.9181-1.043 2.9394-0.197 1.016-0.199 2.1706-1.011 2.9301" fill="none" stroke-width=".26458px"/>
<path d="m-31899-840.6c-2.041 1.334-3.039 3.6721-3.911 5.8414-0.331 0.82367-0.737 1.6055-0.988 2.4682-0.244 0.8397-1.047 1.3099-1.645 1.8818-0.719 0.68706-1.339 1.4578-2.012 2.2022-0.657 0.72691-1.402 1.4637-2.345 1.7913 0 0-0.145 0.0175-0.145 0.0175" fill="none" stroke-width=".26458px"/>
<path d="m-31901-835.73c-0.594 0.71759-1.039 1.5484-1.264 2.4673-0.38 1.5526-0.956 3.1817-2.259 4.1955-1.087 0.8458-2.395 1.3686-3.442 2.2702-0.467 0.40226-1.034 0.87531-1.069 1.5394" fill="none" stroke-width=".26458px"/>
<path d="m-31910-834.72c0.957 1.4529 1.696 3.1115 3.049 4.2451 0.611 0.51187 1.346 0.85046 2.073 1.1593 0.615 0.26112 1.225 0.67015 1.9 0.65916 0.05-8.3e-4 0.111-1e-3 0.151-0.0383" fill="none" stroke-width=".26458px"/>
<path d="m-31913-832c1.343 1.3456 2.466 2.9361 4.102 3.9737 1.19 0.75495 2.684 0.59644 3.932 1.1908" fill="none" stroke-width=".26458px"/>
<path d="m-31900-843.33c0.226 0.50095 0.477 0.99489 0.841 1.414 0.412 0.4739 0.892 0.95219 0.999 1.5982 0.08 0.50122 0.04 1.0147 0 1.5172-0.06 0.64326-0.07 1.3087-0.305 1.9162-0.03 0.0894-0.124 0.27048-0.236 0.1534" fill="none" stroke-width=".26458px"/>
<path d="m-31898-842.9c0.242 3.4952-0.315 7.1255-2.039 10.224-0.427 0.76739-1.288 1.2627-1.587 2.0775-0.336 0.9162-0.447 1.8163-1.102 2.6785-0.559 0.73529-1.155 1.4609-2.035 1.8577-0.515 0.23206-1.051 0.41516-1.558 0.66417" fill="none" stroke-width=".26458px"/>
<path d="m-31899-848.78c0.423 0.35652 0.954 0.28841 1.47 0.29199 1.5 0.0104 3.083 0.22116 4.326 1.1393 0.794 0.58671 1.587 1.2652 2.621 1.3904 1.063 0.12868 2.136 0.0506 3.203 0.0474" fill="none" stroke-width=".26458px"/>
<path d="m-31900-849.78c0.688 0.43179 1.46 0.0173 2.249 0.26655 2.405 0.75997 5.26 0.73527 7.182 2.4275 0.587 0.51677 1.226 0.81814 2.058 0.87984 1.132 0.084 2.289 0.0307 3.374 0.47917 0.754 0.31167 1.516 0.68859 2.352 0.68104" fill="none" stroke-width=".26458px"/>
<path d="m-31896-845.76c0.599-0.35747 1.206-0.70303 1.825-1.0284 0.359-0.18866 0.496 0.24064 0.669 0.46123 0.455 0.57888 1.217 0.81645 1.925 0.87019 1.071 0.0813 2.132-0.15687 3.202-0.15918" fill="none" stroke-width=".26458px"/>
<path d="m-31891-845.76c0.07 0.66966 0.748 0.9537 0.971 1.6132 0.715 2.1123 2.109 3.9659 2.672 6.1193 0.317 1.212 0.08 2.4748 0.04 3.7076-0.03 0.82017 0.433 1.5839 0.404 2.4078-0.03 0.71838-0.1 1.3548 0.209 2.1064 0.191 0.46461 0.417 0.93708 0.453 1.445" fill="none" stroke-width=".26458px"/>
<path d="m-31890-844.89c0.346 0.93733 0.614 1.8996 1.071 2.7968 0.491 0.96325 1.263 1.8118 1.54 2.8575 0.289 1.0912 0.715 2.1658 0.792 3.2938 0.07 1.0574-0.362 2.0645-0.417 3.1175-0.03 0.59347 0.05 1.2039 0.321 1.7388" fill="none" stroke-width=".26458px"/>
<path d="m-31888-845.76c1.468 1.4591 2.123 3.4828 2.772 5.3918 0.296 0.87086 0.841 1.6592 1.033 2.5562 0.164 0.76464-0.194 1.5578 0.174 2.3174 0.468 0.9651 0.634 2.0421 0.622 3.1075" fill="none" stroke-width=".26458px"/>
<path d="m-31883-844.18c0.683 2.9471 2.31 5.68 2.3 8.7715" fill="none" stroke-width=".26458px"/>
<path d="m-31883-845.18c0.224 0.0901 0.437 0.16351 0.677 0.26285 0.416 0.17195 0.879 0.0617 1.315 0.0666 0.41 5e-3 0.75 0.25521 1.109 0.41743 0.938 0.42346 1.884 0.87065 2.899 1.0684 0.155 0.0302 0.313 0.0536 0.471 0.0542" fill="none" stroke-width=".26458px"/>
<path d="m-31880-843.74c0.912 0.32698 1.528 1.1655 1.857 2.0451 0.51 1.3617 0.581 2.8424 0.587 4.2819" fill="none" stroke-width=".26458px"/>
<path d="m-31894-843.46c0.629-9e-3 1.22-0.25823 1.806-0.45667 0.562-0.19027 1.139-0.42577 1.741-0.38558 0.165 0.011 0.33 0.0486 0.479 0.12325" fill="none" stroke-width=".26458px"/>
<path d="m-31888-844.03c2.474 0.37264 4.985 0.28669 7.478 0.2876" fill="none" stroke-width=".26458px"/>
<path d="m-31892-842.02c0.726-0.35601 1.566-0.31683 2.353-0.30503 1.687 0.0253 3.37 0.13508 5.053 0.26812 0.511 0.0404 0.935-0.27322 1.427-0.34659 0.898-0.13381 1.851-0.01 2.671 0.3835" fill="none" stroke-width=".26458px"/>
<path d="m-31897-839.43c1.681 0.68701 3.52 0.86346 5.321 0.8627" fill="none" stroke-width=".26458px"/>
<path d="m-31890-839.29c0.958 0.40531 2.03 0.39893 3.05 0.37719 2.184-0.0466 4.45 0.0145 6.509-0.72692 0.539-0.1941 1.078-0.35565 1.667-0.27398 0.572 0.0793 1.07-0.17012 1.643-0.24293 0.64-0.0814 1.393-0.0919 1.942 0.29144" fill="none" stroke-width=".26458px"/>
<path d="m-31897-838.71c1.185 0.49614 2.474 0.66919 3.751 0.70628 0.38 0.011 0.759 0.0127 1.139 0.0127" fill="none" stroke-width=".26458px"/>
<path d="m-31889-838.71c1.911 0.0229 3.799 0.40931 5.709 0.44978 0.83 0.0176 1.678 0.0284 2.48-0.29159 1.591-0.63487 3.338-0.84355 5.04-0.87709" fill="none" stroke-width=".26458px"/>
<path d="m-31899-835.12c0.82 0.15002 1.654-0.18881 2.474 0.13087 0.952 0.37117 1.936 0.63615 2.975 0.6256 2.725-0.0276 5.418-0.5089 8.15-0.47146 0.958 0.0131 1.901-0.066 2.813-0.32093 0.832-0.23266 1.613-0.64008 2.474-0.825 1.873-0.4024 3.802-0.28305 5.703-0.28938" fill="none" stroke-width=".26458px"/>
<path d="m-31900-831.09c0.943-0.30235 1.73-1.0616 2.798-0.9379 1.604 0.18577 3.154 0.74108 4.848 0.42095 1.672-0.31603 3.476-0.96236 5.102-0.41432 1.192 0.40167 2.49 0.0884 3.72 0.0994 0.956 9e-3 1.81-0.47859 2.742-0.5406 1.095-0.0728 1.982-0.78985 3.029-1.0805 0.811-0.22512 1.837-0.35594 2.494 0.2961" fill="none" stroke-width=".26458px"/>
<path d="m-31902-827.93c0.856-0.16153 1.651-0.771 2.501-0.72443 1.644 0.0901 3.276 0.51397 4.92 0.42236 1.882-0.10484 3.845-0.88348 5.649-0.32067 0.777 0.24235 1.613 0.45733 2.453 0.14783 1.258-0.46371 2.557-0.88581 3.889-1.0092 0.668-0.0619 1.377 0.20573 2.014-0.0977" fill="none" stroke-width=".26458px"/>
<path d="m-31901-827.21c-0.29-0.091-1.334 0.52749-1.045 0.40298 1.112-0.47845 2.307-0.64171 3.477-1.0229 0.704-0.2294 1.391-0.0424 2.095 0.13894 1.256 0.32351 2.556 0.43954 3.883 0.25948 1.948-0.26432 4.003 0.14617 5.872-0.45742 1.244-0.40181 2.558-0.57111 3.852-0.74959 0.425-0.0586 0.85-0.13015 1.279-0.15331" fill="none" stroke-width=".26458px"/>
<path d="m-31887-829.08c0.247 0.4449 0.279 0.96499 0.342 1.4595 0.06 0.47354 0.1 0.98149 0.376 1.385 0.04 0.0627 0.09 0.12172 0.144 0.17522" fill="none" stroke-width=".26458px"/>
<path d="m-31886-831.67c0.02 0.41983 0.128 0.83324 0.217 1.2438 0.335 1.5502-0.395 4.0302 1.071 4.6354 0.188 0.0776 0.139-0.16248 0.15-0.2712" fill="none" stroke-width=".26458px"/>
<path d="m-31883-833.39c0.311 1.0873 0.422 2.218 0.616 3.3292 0.2 1.1456 0.344 2.3289 0.847 3.3859 0.106 0.22285 0.231 0.44169 0.406 0.61839" fill="none" stroke-width=".26458px"/>
<path d="m-31880-834.97c0.168 0.93082 0.682 1.7422 1.157 2.5425 0.149 0.25087 0.294 0.50376 0.425 0.76476" fill="none" stroke-width=".26458px"/>
<path d="m-31875-842.45c1.304 0.26896 2.61 0.56114 3.856 1.0356 0.204 0.0777 0.407 0.16112 0.602 0.25851" fill="none" stroke-width=".26458px"/>
<path d="m-31949-854.24c-1.851 0.85251-3.785 1.8108-5.055 3.4505-0.65 0.83941-0.107 1.9624 0.08 2.8804 0.187 0.92457 0.519 1.7668 0.554 2.7431 0.04 1.1991-0.02 2.4097 0.424 3.5753 0.492 1.2907 1.102 2.5449 1.151 3.9788 0.05 1.346-0.347 2.7488 0.05 4.0415 0.297 0.96435 1.422 1.5293 1.446 2.5909l0.06 0.17811" fill="none" stroke-width=".26458px"/>
<path d="m-31949-856.4c-2.365 1.3159-5.671 1.578-7.105 3.9877-1.134 1.9049-1.239 4.2157-2.098 6.2218-0.561 1.3106-1.456 2.401-2.342 3.5137-0.916 1.1508-1.33 2.3171-1.628 3.8542-0.252 1.2983-1.222 2.3771-1.361 3.6782-0.179 1.6714-0.28 3.311-0.468 5.0154-0.185 1.6766-0.16 3.4554 0.334 5.0763" fill="none" stroke-width=".26458px"/>
<path d="m-31963-825.05c0.894-0.43929 2.005-0.46667 2.765-1.1161 0.465-0.39733 0.738-0.94587 1.168-1.3902 1.238-1.2801 2.181-2.8374 3.575-3.9676 0.855-0.69321 2.032-0.87861 3.091-0.57781 0.572 0.16245 2.202 0.86192 1.624 0.72472-1.486-0.353-3.132-0.29728-4.469 0.53365-1.311 0.8147-2.182 2.1429-3.367 3.1006-0.373 0.30137-0.829 0.54239-1.079 0.96711" fill="none" stroke-width=".26458px"/>
<path d="m-31961-825.48c1.792-0.37463 3.19-1.7061 4.227-3.1574 0.454-0.63511 0.65-1.4498 1.185-2.0133 0.386-0.40665 0.803-0.81626 1.307-1.0522 0.795-0.37197 1.702-0.16662 2.531-0.0474 0.271 0.039 0.542 0.0839 0.816 0.0871" fill="none" stroke-width=".26458px"/>
<path d="m-31954-844.46c-0.526 2.5839 0.01 5.1987 0.266 7.7765 0.106 1.0714-0.525 2.2356-0.07 3.2076 0.202 0.42764 0.516 0.85087 0.806 1.2385" fill="none" stroke-width=".26458px"/>
<path d="m-31955-853.67c0.565-0.0483 1.166 7.8e-4 1.657 0.30799 0.423 0.26445 0.712 0.69143 0.931 1.13" fill="none" stroke-width=".26458px"/>
<path d="m-31955-854.39c0.413-0.0337 0.821 0.10388 1.188 0.28031 0.458 0.22041 0.909 0.50318 1.206 0.92316 0.108 0.15282 0.194 0.33158 0.194 0.52213" fill="none" stroke-width=".26458px"/>
<path d="m-31954-847.05c-0.153-0.29914-0.185-0.70387-0.47-0.89655-0.287-0.19377-0.649-0.0404-0.917 0.10768-0.87 0.48092-1.593 1.1775-2.32 1.8446-0.347 0.31832-1.413 1.2423-1.038 0.95733 0.953-0.72411 1.887-1.5239 3.026-1.94 0.546-0.1995 1.212-0.24089 1.702 0.13014 0.183 0.13864 0.33 0.3197 0.448 0.51581" fill="none" stroke-width=".26458px"/>
<path d="m-31951-855.39c0.342 0.19733 0.623 0.53331 0.684 0.93207 0.03 0.22125 0 0.45061-0.109 0.64963" fill="none" stroke-width=".26458px"/>
<path d="m-31951-855.54c0.05 0.29959 0.104 0.60166 0.228 0.88039 0.02 0.0426 0.04 0.0846 0.06 0.12621" fill="none" stroke-width=".26458px"/>
<path d="m-31950-855.68c-1.534 0.93067-3.417 0.9765-4.971 1.8715-0.558 0.3213-0.797 0.96353-0.822 1.5841-0.03 0.61204-0.18 1.191-0.335 1.7982-0.266 1.0418-0.06 2.1324 0.19 3.1668 0.191 0.79998 0.138 1.7389 0.761 2.364" fill="none" stroke-width=".26458px"/>
<path d="m-31955-853.67c-0.591 0.48802-0.867 1.1913-1.188 1.8855-0.78 1.6874-0.57 3.6177-0.733 5.4277-0.08 0.85757-0.3 1.7043-0.236 2.5927 0.06 0.84465-0.452 1.5518-0.52 2.3825-0.147 1.7843 0.448 3.5542 1.302 5.1425 0.457 0.84985-0.02 2.021 0 3.0254 0 0.56533 0 1.1613 0.234 1.6882" fill="none" stroke-width=".26458px"/>
<path d="m-31957-839.72c-0.209 0.75287-0.441 1.5255-0.382 2.3154 0.03 0.40284 0.155 0.79988 0.382 1.1357" fill="none" stroke-width=".26458px"/>
<path d="m-31959-845.9c-0.644 0.44405-0.293 1.288-0.332 1.9295-0.04 0.66475-0.436 1.232-0.658 1.8552-0.584 1.6424-0.365 3.4587 0.313 5.0494 0.453 1.0627 1.488 1.9479 1.54 3.1008 0.04 0.88733-0.203 1.7692-0.413 2.6266-0.221 0.90358-0.418 1.8191-0.738 2.6938" fill="none" stroke-width=".26458px"/>
<path d="m-31960-845.04c-0.194 0.64682-0.744 1.0604-0.879 1.7766-0.296 1.5705-1.348 3.2748-0.714 4.7432 0.363 0.8411 0.603 1.7626 1.084 2.5523 0.368 0.60362 0.698 1.1167 0.959 1.8492 0.236 0.66155 0.339 1.349 0.3 2.0648-0.09 1.598-0.733 3.166-0.556 4.7624 0.01 0.12642 0.04 0.25451 0.09 0.36973" fill="none" stroke-width=".26458px"/>
<path d="m-31962-841.73c-0.331 1.1615-0.436 2.3633-0.602 3.5633-0.117 0.84542-0.219 1.7106 0.134 2.5587 0.605 1.4532 1.206 3.004 1.101 4.589-0.04 0.66663-0.08 1.3308-0.345 1.9429-0.371 0.86418-0.839 1.8157-0.645 2.7654 0.05 0.23483 0.256 0.41433 0.501 0.39814" fill="none" stroke-width=".26458px"/>
<path d="m-31953-831.95c-0.214 0.5335-0.254 1.342 0.328 1.6287 0.75 0.36941 1.615 0.30264 2.424 0.28939 1.062-0.0174 1.906 0.74729 2.588 1.4786 0.705 0.75637 1.344 1.7467 2.381 2.0123 0.537 0.13754 1.117 0.0992 1.626 0.34284" fill="none" stroke-width=".26458px"/>
<path d="m-31962-840.29c-0.984 0.43193-1.621 1.5198-2.638 1.7713-1.483 0.36676-2.566 1.4429-3.734 2.363-1.043 0.82132-1.962 1.6764-2.84 2.7384-0.874 1.0577-2.011 1.8441-3.267 2.3873-0.925 0.40005-1.401 1.4494-2.475 1.6264-1.235 0.20351-2.288 0.94001-3.389 1.4885-0.946 0.47141-1.505 1.5358-2.488 1.8741-0.328 0.11287-0.717 0.22025-0.882 0.56187" fill="none" stroke-width=".26458px"/>
<path d="m-31983-826.2c1.388-0.67512 2.83-1.2248 4.127-2.1012 0.853-0.57643 1.577-1.6228 2.61-1.668 1.666-0.073 3.436 0.44581 5.015-0.19279 0.789-0.31905 0.827-1.221 1.365-1.821 0.544-0.60698 1.167-1.0262 2.029-1.196 1.259-0.24772 2.63-0.27332 3.738-0.98658l0.1-0.0869" fill="none" stroke-width=".26458px"/>
<path d="m-31964-833.39c-1.208 1e-3 -2.262 0.6136-3.362 1.1926-0.574 0.30209-1.338 0.23665-1.815 0.67675-0.534 0.49237-0.872 1.3444-1.582 1.5023-0.654 0.14554-1.193 0.64647-1.844 0.67605-1.186 0.0539-2.426-0.75314-3.527-0.32749-0.747 0.28883-1.395 0.79376-2.106 1.1688-0.311 0.16416-0.39 0.57351-0.719 0.719" fill="none" stroke-width=".26458px"/>
<path d="m-31963-837.13c-0.675 0.32554-1.363 0.67206-2.149 0.66164-0.767-0.0102-1.598-0.30434-2.309 0.0574-1.303 0.66254-1.904 2.0864-2.761 3.2161-0.464 0.61171-1.179 0.96477-1.844 1.3114-0.142 0.074-0.285 0.14628-0.428 0.21774" fill="none" stroke-width=".26458px"/>
<path d="m-31972-832.1c0.112 0.86341-0.03 1.7316-0.113 2.5918-0.09 0.9806-0.224 1.9918 0.03 2.956 0.118 0.43915 0.375 0.86385 0.797 1.0668" fill="none" stroke-width=".26458px"/>
<path d="m-31972-832.24c0.211 0.47319 0.178 1.0105 0.16 1.5155-0.04 1.1131-0.162 2.2194-0.236 3.3315-0.02 0.30146 0.115 0.57137 0.272 0.82074 0.206 0.32666 0.455 0.62385 0.667 0.94687" fill="none" stroke-width=".26458px"/>
<path d="m-31980-825.63c1.306 0.0596 2.232-1.5059 3.454-1.3222 0.623 0.0936 1.179 0.0304 1.767-0.36211 0.454-0.3029 0.557-0.73562 1.393-0.47256 1.067 0.33585 2.21 0.0166 3.139-0.59485 0.79-0.51978 1.449-1.3552 2.398-1.5394 1.054-0.20466 2.064 0.88563 3.067 0.35467 0.115-0.0609 0.219-0.14167 0.311-0.23364" fill="none" stroke-width=".26458px"/>
<path d="m-31976-829.36c-0.129 0.97649-0.171 2.0047 0.177 2.9421 0.15 0.40398 0.38 0.77967 0.686 1.0842" fill="none" stroke-width=".26458px"/>
<path d="m-31980-827.64v1.1503" fill="none" stroke-width=".26458px"/>
<path d="m-31970-826.06c0.926-0.33338 1.871-0.61205 2.824-0.85579 0.649-0.16606 1.292-0.51763 1.96-0.45039 0.255 0.0257 0.34 0.357 0.437 0.55933 0.103 0.21574 0.216 0.43254 0.387 0.60305" fill="none" stroke-width=".26458px"/>
<path d="m-31954-830.08c0.198-0.0746 0.115-0.48884 0-0.64058-0.209-0.28214-0.18 0.24604-0.182 0.38645-0.01 0.79171 0.07 1.5843 0.03 2.3748-0.06 0.96944-0.477 1.8757-0.557 2.8389 0 0.0722-0.01 0.14463-0.01 0.2171" fill="none" stroke-width=".26458px"/>
<path d="m-31953-830.51c-0.574 0.88409-0.722 1.9479-0.91 2.9633-0.113 0.60958-0.249 1.2241-0.528 1.7819" fill="none" stroke-width=".26458px"/>
<path d="m-31950-829.94c-0.336 1.1468-0.296 2.3697-0.656 3.5093-0.06 0.17703-0.123 0.35088-0.206 0.51704" fill="none" stroke-width=".26458px"/>
<path d="m-31949-829.36c-0.503 0.6632-0.674 1.4957-0.864 2.288-0.107 0.44611-0.224 0.89463-0.43 1.3069" fill="none" stroke-width=".26458px"/>
<path d="m-31957-826.78c0.81 0.34128 1.692 0.53204 2.58 0.41763 0.966-0.12443 1.948-0.33701 2.934-0.0704 1.029 0.27819 2.537 1.065 3.164 0.21737 0.267-0.36109 0.62 0.11439 0.987 0.1982 0.273 0.0623 0.552 0.0986 0.832 0.1" fill="none" stroke-width=".26458px"/>
<path d="m-31942-875.39c0.761-0.31494 1.476 0.25118 2.362-0.24407 1.757-0.98184 3.523-2.0431 5.47-2.5666 0.754-0.2027 1.409 0.41168 2.126 0.68361 0.774 0.29345 1.486 0.18408 2.303-0.21593 0.901-0.4411 2.02-1.238 2.939-0.7482 0.942 0.5022 1.641 1.3616 2.515 1.9697 0.638 0.44411 1.396 1.1526 2.199 0.8641 0.135-0.0485 0.254-0.13662 0.347-0.24566" fill="none" stroke-width=".2249"/>
<path d="m-31940-875.38c0.679-0.0235 1.284-0.28304 1.927-0.50041 1.211-0.40965 2.627 0.13462 3.779-0.39317 0.644-0.29511 1.418 0.0433 2.13 0.0597 0.697 0.0161 1.358 0.018 2.074-0.20163 0.565-0.17336 1.278-0.64664 1.783-0.28633 0.92 0.65658 2.012 1.0674 3.107 1.3007 0.572 0.12192 1.2 0.31864 1.774 0.12277" fill="none" stroke-width=".18521"/>
<path d="m-31941-874.77c-0.667-0.18056-0.367 0.66029 0.15 0.912 0.802 0.3907 1.633 0.72863 2.518 0.86439 0.827 0.1268 1.646 0.48699 2.457 0.31731 0.828-0.17322 1.567 0.12654 2.378 0.23866 0.852 0.11781 1.719 0.30229 2.594 0.1141 1.474-0.3172 2.987-0.29896 4.462-0.62198 1.356-0.29692 2.756-0.49457 4.035-1.0414 0.232-0.0992 0.651-0.70059 0.115-0.68142" fill="none" stroke-width=".18521"/>
<path d="m-31941-873.65c1.221 0.51898 2.253 1.4191 2.973 2.507 0.429 0.64838 1.176 0.83876 1.857 1.142 0.817 0.36385 1.747 0.24114 2.613 0.18216 1.124-0.0765 2.249-0.1267 3.371 0.0114 0.873 0.10747 1.734-0.13917 2.479-0.62442 1.411-0.91922 2.57-2.3015 4.199-2.822 0.203-0.0648 0.414-0.10843 0.627-0.10859" fill="none" stroke-width=".2249"/>
<path d="m-31932-873.14c0.785 0.0121 1.577 0.10155 2.357-4e-3 0.171-0.0231 0.355-0.0322 0.505-0.12744l0.01-0.0125" fill="none" stroke-width=".18521"/>
<path d="m-31934-873.28c0.191-0.12277 0.431-0.11905 0.645-0.0649 0.275 0.0696 0.53 0.21662 0.819 0.23583 0.176 0.0117 0.324-0.0978 0.485-0.14925 0.04-0.0141 0.09-0.0218 0.136-0.0217" fill="none" stroke-width=".18521"/>
<path d="m-31929-873.57c0.523 0.20205 1.098 0.26886 1.653 0.2004 0.248-0.0306 0.495-0.0889 0.72-0.2004" fill="none" stroke-width=".18521"/>
<path d="m-31936-873.5c0.571-0.11611 1.151-2e-3 1.726 0" fill="none" stroke-width=".18521"/>
<path d="m-31940-875.08c0 0.27396-0.04 0.55136 0.01 0.82277 0.02 0.12345 0.06 0.26917 0.186 0.32495 0.124 0.0567 0.264 0.0123 0.382-0.0371 0.02-0.01 0.05-0.0208 0.07-0.0321" fill="none" stroke-width=".18521"/>
<path d="m-31939-873.64c0.328-0.0633 0.662-0.10947 0.996-0.083 0.126 0.01 0.255 0.0274 0.37 0.083" fill="none" stroke-width=".18521"/>
<path d="m-31927-873.64c0.02-0.13781 0.185-0.17278 0.301-0.1899 0.331-0.0488 0.665-0.0415 0.999-0.0911 0.152-0.0226 0.146-0.1844 0.197-0.30032 0.04-0.1002 0.08-0.43855 0.109-0.34629 0.04 0.10265 0.02 0.20845 0.15 0.28419 0.177 0.1028 0.365 0.2194 0.581 0.20024 0.185-0.0164 0.392-0.14189 0.393-0.3477" fill="none" stroke-width=".18521"/>
<path d="m-31936-873.64c-0.165-0.0894-0.303-0.2201-0.434-0.35175-0.05-0.0491-0.08-0.18864-0.141-0.15155-0.148 0.0949-0.27 0.2266-0.362 0.3773-0.04 0.069-0.08 0.14036-0.141 0.1979" fill="none" stroke-width=".18521"/>
<path d="m-31939-875.22c0 0.16852 0.06 0.3287 0.102 0.48915 0.02 0.0748 0.04 0.15134 0.04 0.22985" fill="none" stroke-width=".079375"/>
<path d="m-31924-874.79c0.144-0.0719 0.288-0.1438 0.432-0.2157" fill="none" stroke-width=".18521"/>
<path d="m-31933-868.33c0.1 0.18999 0.191 0.3836 0.287 0.5752" fill="none" stroke-width=".13229"/>
<path d="m-31932-868.33c0.1 0.19012 0.192 0.38347 0.288 0.5752" fill="none" stroke-width=".13229"/>
<path d="m-31931-868.33c0.431 0.0959 0.863 0.19173 1.294 0.2876" fill="none" stroke-width=".13229"/>
<path d="m-31923-890.33c0.965 0.52537 1.856 1.1824 2.651 1.9416 0.222 0.21206 0.439 0.42966 0.656 0.64672" fill="none" stroke-width=".13229"/>
<path d="m-31914-889.33c0.471 0.58153 1.145 1.1707 1.16 1.916 0.03 1.5656-0.05 3.1322-0.135 4.6953-0.08 1.4707-0.125 2.9462-0.292 4.4102l-0.01 0.0507" fill="none" stroke-width=".13229"/>
<path d="m-31947-928.01c0.102-0.19456 0.167-0.41019 0.296-0.58825 0.07-0.0909 0.148-0.16841 0.228-0.24526 0.144-0.13817 0.294-0.26825 0.432-0.41245 0.229-0.23991 0.447-0.4947 0.716-0.69235 0.283-0.20755 0.595-0.37108 0.875-0.58269 0.244-0.18436 0.485-0.37446 0.74-0.54353 0.09-0.0576 0.177-0.11165 0.276-0.14441 0.119-0.0392 0.243-0.0656 0.359-0.11456 0.08-0.032 0.148-0.0736 0.225-0.10351 0.02-8e-3 0-0.0156 0-0.0421 0-0.0319 0.04-0.0456 0.07-0.0572 0.158-0.075 0.325-0.1301 0.486-0.1976 0.166-0.0695 0.351-0.0666 0.519-0.12635 0.05-0.0164 0.101-0.023 0.135-0.0618 0.04-0.0405 0.06-0.0962 0.114-0.11775 0.37-0.14561 0.779-0.15212 1.151-0.28749 0.101-0.0367 0.182-0.12278 0.287-0.14296 0.06-0.0119 0.124 3e-3 0.186 2e-3 0.139-3.9e-4 0.554-0.0396 0.418-5e-3 -0.03 7e-3 -0.109 0.0108-0.08 0.0315 0.03 0.0276 0.08 0.0362 0.117 0.046 0.13 0.032 0.261 0.0606 0.394 0.0758 0.145 0.0165 0.289-5e-3 0.434-5e-3h1.977" fill="none" stroke-width=".26458px"/>
<path d="m-31942-929.73c0.244-0.14687 0.494-0.28337 0.732-0.44042 0.154-0.10183 0.298-0.21804 0.462-0.30267 0.09-0.0466 0.197-0.0673 0.27-0.13995 0.04-0.0431 0.07-0.10185 0.131-0.12973 0.141-0.0658 0.312-0.0572 0.44-0.15153 0.111-0.0816 0.165-0.22162 0.291-0.28754 0.144-0.0753 0.307-0.0951 0.46-0.14831 0.128-0.0446 0.252-0.1171 0.387-0.1271 0.06-4e-3 0.108 0.0177 0.163-0.0134 0.155-0.0879 0.277-0.22723 0.446-0.28966 0.196-0.0722 0.405-0.0957 0.607-0.14531 0.168-0.0413 0.659-0.19581 0.502-0.12607-0.05 0.0204 0.03 0.0122 0.04 9e-3 0.283-0.0435 0.565-0.0988 0.845-0.15784 0.191-0.0402 0.372-0.12826 0.567-0.14101 0.06-4e-3 0.119 3e-3 0.179 3e-3 0.673-2.1e-4 1.346 8e-3 2.018-3.2e-4 0.487-6e-3 0.974-0.0319 1.461-0.0128 0.07 3e-3 0.142-8e-3 0.208 0.0139 0.291 0.097 0.577 0.20779 0.873 0.29007 0.205 0.057 0.412 0.10062 0.62 0.15037 0.133 0.0319 0.261 0.0806 0.389 0.12721 0.236 0.0858 0.472 0.16866 0.703 0.26574 0.205 0.0863 0.41 0.17923 0.63 0.22294 0.16 0.0318 0.322 0.0632 0.47 0.13189 0.185 0.0857 0.355 0.19831 0.545 0.27498 0.13 0.0525 0.264 0.0936 0.404 0.12216 0.09 0.0186 0.172 0.0685 0.252 0.11389 0.212 0.12067 0.419 0.24876 0.62 0.38711 0.194 0.13348 0.381 0.27815 0.588 0.3894 0.183 0.0983 0.392 0.15112 0.556 0.28313 0.157 0.12651 0.25 0.32123 0.428 0.42491 0.08 0.0472 0.169 0.0806 0.253 0.12264" fill="none" stroke-width=".26458px"/>
<path d="m-31940-921.68c0.217-0.0845 0.413-0.21327 0.602-0.34737 0.191-0.13544 0.377-0.28003 0.584-0.39109 0.177-0.095 0.394-0.12867 0.54-0.26814 0.1-0.0938 0.152-0.2893 0.287-0.2876 0.05 6.9e-4 0.113 0.0226 0.165-0.0118 0.07-0.0468 0.111-0.12291 0.161-0.18922 0.03-0.0332 0.04-0.081 0.08-0.0946 0.01-5e-3 0.03 0.0124 0.02 0.0281-0.03 0.034-0.06 0.0594-0.1 0.0866-0.08 0.0632-0.155 0.13022-0.212 0.21381-0.09 0.12723-0.149 0.27066-0.253 0.38683-0.05 0.0515-0.113 0.0741-0.177 0.0967-0.05 0.0177-0.1 0.0401-0.142 0.0742-0.123 0.0993-0.217 0.22912-0.335 0.33361-0.07 0.0626-0.148 0.12061-0.205 0.19754-0.03 0.0366-0.06 0.0833-0.04 0.13008 0.01 0.0417 0.06 0.0762 0.101 0.0701 0.05-6e-3 0.09-0.0393 0.123-0.072 0.03-0.0319 0.06-0.0711 0.09-0.1041 0.151-0.15341 0.295-0.31396 0.446-0.46775 0.08-0.0864 0.17-0.17479 0.269-0.24681 0.07-0.0489 0.126-0.10734 0.195-0.1547 0.03-0.0193 0.07-0.0265 0.09 0.0109 0.02 0.0445 0.02 0.0982 0 0.14351-0.04 0.0953-0.119 0.17225-0.14 0.27395-0.01 0.0736-0.03 0.14776-0.03 0.22309 0 0.0279-0.02 0.0772 0.01 0.085 0.01 4e-3 0.04-0.0319 0.03-0.0207-0.06 0.10184-0.103 0.21091-0.163 0.311-0.05 0.0764-0.113 0.13882-0.156 0.21735 0 0.0164-0.03 0.0546 1e-3 0.0587 0.04 6e-3 0.09-4e-3 0.128-0.0198 0.09-0.0374 0.17-0.10582 0.239-0.17726 0.1-0.0989 0.181-0.2093 0.28-0.30592 0.04-0.0409 0.09-0.0755 0.145-0.0991 0.124-0.0545 0.265-0.058 0.384-0.11881 0.07-0.0357 0.123-0.0939 0.185-0.14075 0.03-0.025 0.09-0.0244 0.106 0.0168 0.02 0.046 0 0.0963-0.03 0.13331-0.07 0.094-0.153 0.1708-0.237 0.24942-0.03 0.0253-0.05 0.0573-0.07 0.0877-0.04 0.0618-0.09 0.12707-0.103 0.20314 0 0.0221 0 0.0517 0.03 0.0578 0.03 7e-3 0.08 3e-3 0.106-0.0191 0.04-0.0296 0.06-0.0773 0.08-0.12319 0.02-0.06 0.03-0.1283 0.08-0.17331 0.05-0.0466 0.118-0.0592 0.18-0.0833 0.04-0.0163 0.105-0.0283 0.114-0.075 0-0.0417-0.04-0.087-0.01-0.12242 0.01-0.0181 0.04-0.0132 0.06-0.014 0.109-5e-3 0.22-0.0267 0.326 3.8e-4 0.02 4e-3 0.05-6e-3 0.05 0.0152 0 0.0483 0.01 0.0977 0 0.14661v0.25762c0 0.0487-0.04 0.0905-0.06 0.13173-0.04 0.0628-0.08 0.12293-0.107 0.19311-0.01 0.0375-0.01 0.0806 0.01 0.11499 0.02 0.0346 0.07 0.0401 0.111 0.0322 0.04-8e-3 0.06-0.0418 0.08-0.0746 0.04-0.0705 0.04-0.15602 0.09-0.22 0.03-0.0433 0.09-0.0638 0.138-0.0805 0.06-0.0189 0.129-0.0258 0.162-0.0781 0.02-0.0383-0.02-0.0808 0-0.12085 0-0.0346 0.04-0.0522 0.07-0.0682 0.09-0.0522 0.193-0.0739 0.281-0.1296 0.06-0.0381 0.113-0.0969 0.185-0.10624 0.02-3e-3 0.06-0.0216 0.07 3e-3 0.01 0.0385-0.01 0.0765-0.02 0.11473v0.14272c0 0.0432-0.01 0.0861-0.03 0.12488-0.03 0.064-0.07 0.12561-0.114 0.1836-0.03 0.0462-0.09 0.0621-0.131 0.10529-0.01 0.0172-0.02 0.0598 0.01 0.0598 0.04-3e-5 0.08-0.0193 0.119-0.0213" fill="none" stroke-width=".26458px"/>
<path d="m-31935-921.82c0.05 0.0288 0.105 0.0685 0.121 0.12865 0.02 0.0607-0.01 0.12234-0.05 0.17109-0.06 0.0876-0.145 0.15781-0.228 0.22543-0.147 0.11956-0.308 0.2219-0.448 0.34969-0.05 0.0465-0.1 0.0965-0.134 0.15762-0.02 0.043-0.01 0.10488 0.03 0.12898 0.04 0.021 0.09 0.0241 0.124-5e-3 0.03-0.0319 0-0.0794 0-0.11779 0-0.0502 0.06-0.0581 0.1-0.0522 0.06 9e-3 0.113 0.0427 0.172 0.0285 0.04-0.01 0.08-0.0389 0.105-0.0684 0.07-0.0728 0.12-0.17007 0.208-0.2275 0.1-0.0635 0.209-0.0991 0.31-0.15682 0.235-0.13474 0.432-0.35872 0.697-0.41847 1.486-0.33547 2.971-0.67094 4.457-1.0064" fill="none" stroke-width=".26458px"/>
<path d="m-31929-923.26c-0.414 0.37267-0.834 0.73965-1.288 1.0636-0.208 0.14856-0.425 0.28604-0.648 0.41154-0.172 0.0966-0.343 0.20272-0.532 0.25932-0.03 0.0105-0.08 0.0305-0.111 0.0104-0.02-9e-3 -0.01-0.0376 0-0.0396 0.04-4e-3 0.08 0.014 0.114 0.0191v6.2e-4 5.3e-4" fill="none" stroke-width=".26458px"/>
<path d="m-31930-922.4c0.371-0.12358 0.732-0.28096 1.109-0.38482 0.06-0.0171 0.124-0.0335 0.186-0.0466 0.02-5e-3 0.03 0.0249 0.03 0.0434 0 0.0378 0 0.0813-0.04 0.10734-0.05 0.0438-0.114 0.0641-0.176 0.0869-0.05 0.0173-0.09 0.0399-0.133 0.0712-0.06 0.0462-0.101 0.10842-0.151 0.16357-0.04 0.0407-0.08 0.0734-0.137 0.0882-0.05 0.0129-0.09 0.0184-0.142 0.0131-0.08-8e-3 -0.145-0.0432-0.213-0.0764-0.07-0.0327-0.133-0.0674-0.207-0.0823-0.06-0.0114-0.113 5e-3 -0.161 0.0349-0.09 0.0553-0.159 0.13738-0.219 0.22283-0.09 0.13129-0.166 0.27501-0.261 0.40442-0.05 0.0732-0.118 0.14461-0.202 0.18371-0.05 0.0229-0.107 0.0508-0.158 0.032-0.01-6e-3 0-0.0237 0-0.0309 0.03-0.0369 0.07-0.0651 0.115-0.0919 0.05-0.0355 0.118-0.0512 0.181-0.0629 0.08-0.0142 0.154-0.0224 0.224-0.0564 0.04-0.0208 0.08-0.0548 0.102-0.096 0.04-0.0667 0.05-0.14329 0.07-0.21749 0.02-0.0709 0.03-0.14332 0.07-0.20856 0.03-0.0497 0.07-0.0855 0.126-0.10196 0.108-0.0328 0.223-0.0304 0.333-0.012 0.216 0.036 0.418 0.12925 0.635 0.15741 0.143 0.0186 0.287 0.0368 0.43 0.028 0.06-4e-3 0.12-5e-3 0.175-0.0265 0.04-0.017 0.06-0.063 0.08-0.1007 0.01-0.0252 0.04-0.0417 0.07-0.0408 0.02 6.8e-4 0.06 0.01 0.05 0.0365 0 0.0451-0.04 0.0797-0.07 0.11211-0.05 0.0524-0.1 0.10152-0.151 0.15226-0.163 0.16353-0.323 0.33311-0.505 0.47632-0.112 0.0879-0.231 0.16841-0.356 0.23566-0.131 0.0702-0.28 0.0906-0.419 0.13692" fill="none" stroke-width=".26458px"/>
<path d="m-31927-922.54c-0.124 0.0297-0.24 0.09-0.34 0.1692-0.137 0.10826-0.246 0.24567-0.357 0.37954-0.09 0.1142-0.191 0.23129-0.313 0.31704-0.09 0.061-0.187 0.0986-0.284 0.14072-0.106 0.046-0.213 0.0928-0.309 0.15741-0.04 0.0262-0.08 0.0532-0.108 0.0921-0.01 0.0163-0.03 0.0547 0 0.0601 0.04 7e-3 0.08-8e-3 0.114-0.018 0.128-0.0334 0.258-0.0572 0.382-0.1037 0.03-0.0102 0.09-6e-3 0.08-0.0343 0-0.015-0.03-9e-3 -0.04-0.0118 0-2e-3 -0.03-1e-3 -0.02-5e-3 0.04-0.0183 0.08-0.0249 0.122-0.034 0.191-0.042 0.384-0.0809 0.577-0.11825 0.532-0.10294 1.07-0.17524 1.595-0.31495 0.119-0.0317 0.238-0.0626 0.353-0.10594 0.1-0.0362 0.176-0.10689 0.274-0.13875 0.05-0.0175 0.11 5e-3 0.165-2e-3 0.04-4e-3 0.08-0.0336 0.114-0.0159 0.01 8e-3 0.01 0.0354 0 0.0343-0.04-2e-3 -0.08-0.0404-0.119-0.0204-0.04 0.0195-0.07 0.0496-0.09 0.0802-0.06 0.068-0.11 0.14939-0.187 0.20108-0.08 0.0518-0.169 0.0718-0.258 0.0926-0.07 0.0169-0.144 0.0378-0.211 0.0725-0.226 0.11714-0.423 0.28021-0.631 0.42565-0.07 0.0511-0.144 0.10534-0.223 0.14578-0.07 0.0363-0.153 0.0425-0.222 0.0813-0.04 0.0208-0.07 0.0655-0.05 0.10946 0.02 0.0424 0.07 0.0742 0.114 0.0858 0.05 0.012 0.1-9e-3 0.137-0.0329 0.06-0.0368 0.115-0.0875 0.184-0.10962 0.138-0.0443 0.28-0.0776 0.421-0.1093 0.287-0.0645 0.577-0.11898 0.866-0.17592" fill="none" stroke-width=".26458px"/>
<path d="m-31924-921.54c0.07-0.0142 0.13-0.042 0.192-0.07 0.1-0.0438 0.191-0.0952 0.292-0.13029 0.04-0.0153 0.09-0.0274 0.136-0.0288 0.04-1e-3 0.08 0.0252 0.09 0.0646 0.01 0.0354 0.02 0.0832-0.02 0.10781-0.03 0.0257-0.08 0.0298-0.121 0.0312-0.08 3e-3 -0.166-7e-3 -0.249-0.0112-0.08-4e-3 -0.156-8e-3 -0.232 5e-3 -0.04 6e-3 -0.07 0.02-0.107 0.0395-0.182 0.10759-0.343 0.24462-0.497 0.38727-0.169 0.15616-0.326 0.32511-0.502 0.47183-0.04 0.0308-0.08 0.0508-0.116 0.0853-0.02 0.0198-0.02 0.049-0.02 0.0766 0 0.0235 0 0.0594 0.02 0.0685 0.02 8e-3 0.04-0.0118 0.06-0.026 0.05-0.0454 0.09-0.10056 0.134-0.14751 0.03-0.0287 0.06-0.0687 0.104-0.0682 0.04 4.5e-4 0.08 0.0147 0.125 4e-3 0.142-0.0372 0.278-0.0941 0.417-0.14027" fill="none" stroke-width=".26458px"/>
<path d="m-31923-921.11c-0.144 0.19176-0.288 0.38348-0.432 0.5752" fill="none" stroke-width=".26458px"/>
<path d="m-31923-920.39c0.153 0.0767 0.318 0.12988 0.466 0.21653 0.04 0.0234 0.09 0.0404 0.116 0.0769 0.02 0.0241 0 0.0571 0 0.0841v0.0604 1.1438" fill="none" stroke-width=".26458px"/>
<path d="m-31926-922.98c0.284-0.01 0.56-0.0899 0.828-0.17899 0.299-0.0993 0.596-0.2169 0.91-0.25417 0.154-0.0183 0.307 0.0136 0.461 2e-3 0.03-3e-3 0.128 0.0167 0.104-4e-3 -0.02-0.0213 0.02-0.0376 0.04-0.0432 0.101-0.0367 0.207-0.0592 0.311-0.0808 0.06-0.0127 0.122-0.0249 0.184-0.0245 0.07 4.1e-4 0.131 0.0148 0.197 7e-3 0.04-4e-3 0.08-0.0253 0.114-0.0191 0.02 4e-3 0.02 0.0408-0.01 0.0385-0.04-3e-3 -0.08-0.0319-0.119-0.0182-0.1 0.0335-0.199 0.0589-0.29 0.10863-0.01 6e-3 -0.05 0.0279-0.02 0.0324 0.04 7e-3 0.142-0.0212 0.113 2e-3 -0.03 0.0237-0.08 0.0301-0.115 0.0406-0.137 0.0369-0.271 0.089-0.412 0.1055-0.05 6e-3 -0.106-9e-3 -0.162 5e-3 -0.148 0.0364-0.302 0.0675-0.431 0.15397-0.109 0.0731-0.21 0.16597-0.268 0.28336-0.02 0.0346-0.04 0.0812-0.02 0.11417 0.03 0.0358 0.08 0.0103 0.11-5e-3 0.07-0.0352 0.126-0.10054 0.202-0.12186 0.06-0.0156 0.112 7e-3 0.171-6e-3 0.185-0.0391 0.457 0.027 0.548-0.13817 0.05-0.0873 0.115-0.1714 0.211-0.20738 0.09-0.0349 0.196-0.0147 0.289 9e-3 0.108 0.0276 0.217 0.0741 0.329 0.0593 0.07-9e-3 0.138-0.0266 0.206-0.0436 0.161-0.0406 0.323-0.0833 0.484-0.12573 0.169-0.0444 0.338-0.0895 0.509-0.12655 0.04-8e-3 0.08-0.0386 0.114-0.0182 0.03 0.0192 0 0.07-0.01 0.0919-0.05 0.0519-0.114 0.0751-0.178 0.0937-0.168 0.0485-0.346 0.0591-0.509 0.12151-0.153 0.0585-0.311 0.10892-0.456 0.18538-0.04 0.0211-0.09 0.0348-0.111 0.0773-0.02 0.0401-0.04 0.075-0.08 0.10203-0.09 0.0717-0.199 0.12486-0.302 0.17989-0.06 0.0327-0.124 0.0613-0.191 0.0806-0.112 0.0324-0.229 0.0528-0.331 0.1088-0.04 0.024-0.1 0.0432-0.122 0.0875-0.03 0.0476 0.04 0.0744 0.08 0.0768 0.08 5e-3 0.151-0.0228 0.227-0.0365 0.202-0.0368 0.397-0.10565 0.597-0.14953 0.221-0.0484 0.437-0.14124 0.664-0.14595 0.01-2.7e-4 0.05-0.0108 0.04-3e-3 -0.02 0.0177-0.1 0.0323-0.07 0.0539 0.03 0.0282 0.08 0.0224 0.12 0.0222 0.186-5.7e-4 0.373-0.0109 0.558-0.0376 0.1-0.0143 0.202-8e-3 0.297-0.0395 0.151-0.0495 0.296-0.12273 0.454-0.14752 0.08-0.0121 0.158-4e-3 0.229 0.0351 0.04 0.0228 0.03 0.0755 0 0.10491-0.06 0.0545-0.133 0.0888-0.206 0.1209-0.04 0.0159-0.1 8e-3 -0.109 0.0453-0.02 0.0671-0.05 0.1402-0.116 0.17704-0.06 0.0354-0.134 0.0189-0.198 1e-3 -0.07-0.0205-0.15-0.0641-0.226-0.0438-0.08 0.0211-0.155 0.0571-0.231 0.0887-0.121 0.0504-0.254 0.0798-0.36 0.15696-0.01 0.0102-0.06 0.0381-0.04 0.0428 0.02 4e-3 0.04 0.0247 0.02 0.045-0.04 0.0424-0.1 0.0723-0.148 0.10175-0.1 0.0562-0.198 0.11278-0.302 0.15855-0.129 0.0568-0.272 0.068-0.401 0.12704-0.05 0.021-0.02 0.0762 0 0.10849 0.01 0.0325-0.01 0.0589-0.05 0.0501-0.04-9e-3 -0.09-0.0365-0.112 0.0129-0.01 0.0333-0.04 0.0849 0 0.10908 0.04 0.0312 0.1 0.0301 0.145 0.0331 0.169 0.0102 0.337-0.0212 0.506-0.0179 0.204 4e-3 0.41 0.0216 0.612-0.0134 0.227-0.0393 0.447-0.11815 0.678-0.13525 0.23-0.017 0.46 0.0109 0.689 4e-3 0.12-4e-3 0.241-0.0414 0.36-0.0149 0.105 0.0233 0.193 0.0941 0.258 0.17687 0.05 0.0636 0.09 0.13421 0.112 0.21313 0.02 0.0781 0 0.16171-0.05 0.22549-0.07 0.0991-0.179 0.16532-0.282 0.22818-0.09 0.0531-0.169 0.11202-0.258 0.1629-0.04 0.0236-0.03 0.074-0.01 0.10762 0.02 0.0424-0.02 0.0692-0.05 0.0875-0.08 0.0467-0.178 0.0595-0.253 0.11944-0.111 0.0889-0.181 0.22023-0.303 0.29625-0.06 0.04-0.14 0.0544-0.208 0.0844-0.03 0.0145-0.06 0.0435-0.07 0.081 0 0.0549 0.01 0.10861 0.04 0.15806 0.04 0.0847 0.09 0.16164 0.129 0.24513 0.04 0.0889 0.06 0.18917 0.13 0.26676 0.03 0.0382 0.08-4.4e-4 0.118-2e-3 0.04-2e-3 0.06 0.0401 0.08 0.0701 0.04 0.0785 0.05 0.17061 0.111 0.24211 0.08 0.10124 0.148 0.24212 0.275 0.2725 0.06 0.0134 0.119 0.0331 0.151 0.085 0.03 0.0517 0.02 0.11458 0 0.16932-0.01 0.0552-0.04 0.11609-0.01 0.17064 0.03 0.0627 0.11 0.0741 0.139 0.13339 0.02 0.0429 0.02 0.0923 0.03 0.13903 0 0.15128-0.01 0.30189-0.02 0.453" fill="none" stroke-width=".26458px"/>
<path d="m-31920-923.84c0.192 1.0066 0.383 2.0131 0.575 3.0197" fill="none" stroke-width=".26458px"/>
<path d="m-31954-917.51c-0.835-0.64135-1.346-1.5935-1.779-2.5317-0.253-0.54802-0.538-1.0862-0.718-1.662-0.03-0.0989-0.09-0.17699-0.12-0.0175-0.152 0.85587-0.24 1.7217-0.343 2.5844-0.125 1.0462-0.164 2.1051-0.359 3.1405-0.09 0.46845-0.145 0.95566-0.348 1.3877-0.1 0.20636-0.07-0.16571-0.07-0.23997 0-1.3426 0.267-2.7158-0.02-4.028-0.03-0.13295-0.06-0.60192-0.1-0.48913-0.102 0.34003-0.127 0.69856-0.165 1.0503-0.205 1.8936-0.205 3.8022-0.149 5.7025 0.01 0.376 0.5 0.97399 0.153 1.1134-0.185 0.0742-0.163-0.28423-0.149-0.41771 0.03-0.28696-0.07-0.56216-0.134-0.83841-0.23-1.0611-0.856-4.2514-0.736-3.1725 0.173 1.5535 0.196 3.1338 0.571 4.6559 0.113 0.45863 0.207 0.95564 0.521 1.3199 0.02 0.0221 0.04 0.0434 0.06 0.0636" fill="none" stroke-width=".26458px"/>
<path d="m-31950-900.83c0.03-0.15072 0.132-0.3822-0.02-0.47351-0.136-0.0841-0.301 4e-3 -0.421 0.0756-0.418 0.24808-0.839 0.53947-1.097 0.94912-0.06 0.0984-0.296 0.34642-0.168 0.34051 0.174-8e-3 0.331-0.1021 0.483-0.18195 0.392-0.20657 0.77-0.43816 1.174-0.62347 0.711-0.32611 1.435-0.62041 2.161-0.9133 0.236-0.0952 0.491-0.37355 0.72-0.25902 0.109 0.0545-0.138 0.18573-0.212 0.23179-0.439 0.27437-0.901 0.52061-1.392 0.68763-0.399 0.13565-0.895-0.0993-1.232 0.16664-0.128 0.1009 0.179 0.0712 0.249 0.0664 0.307-0.0213 0.616-0.054 0.91-0.15696 1.067-0.37355 2.14-0.73738 3.183-1.1742 0.06-0.0264 0.165-0.0516 0.05 0.0104-0.68 0.36468-1.438 0.60784-2.048 1.0803-0.15 0.11609 0.182 0.0612 0.245 0.0303 0.608-0.29918 1.311-0.32599 1.926-0.59758 0.237-0.10465 0.434-0.30183 0.689-0.35826 0.155-0.0343 0.122 0.10181-0.01 0.15026-0.625 0.23019-1.217 0.57119-1.87 0.7034-0.07 0.0148-0.315 0.23227-0.123 0.1916 0.452-0.0956 0.873-0.29501 1.31-0.44233 0.221-0.0746 0.51-0.0788 0.674-0.22379 0.05-0.0443 0.239-0.10716 0.345-0.14768 0.355-0.13589 0.763-0.52448 1.091-0.32905 0.07 0.0429-0.13 0.12819-0.182 0.15934-0.512 0.30861-1.051 0.57627-1.614 0.7737-0.13 0.0456-0.533 0.11311-0.397 0.11667 0.392 0.0103 0.771-0.12304 1.135-0.2557 0.475-0.1731 0.951-0.34118 1.436-0.48517 0.278-0.0825 1.077-0.42412 0.82-0.29129-0.607 0.3135-1.254 0.53983-1.889 0.78967-0.205 0.0806-0.833 0.26915-0.615 0.24342 0.185-0.0218 0.364-0.0967 0.54-0.1555 0.745-0.24862 1.46-0.65218 2.244-0.7152 0.119-0.01 0.478-0.0916 0.386 0.0107-0.09 0.10145-0.229 0.15235-0.348 0.21509-0.385 0.20223-0.744 0.45565-1.147 0.62209-0.114 0.0471-0.122 0.16843 0.03 0.16822 0.348-4.8e-4 0.692-0.0801 1.033-0.1426" fill="none" stroke-width=".15875"/>
<path d="m-31940-901.12c-0.178 0.17015-0.364 0.33081-0.537 0.50573-0.06 0.0607-0.116 0.12495-0.166 0.19429-0.03 0.0362-0.03 0.0921 0.02 0.11403 0.06 0.0294 0.128 0.035 0.193 0.0398 0.115 8e-3 0.231 9e-3 0.346 9e-3" fill="none" stroke-width=".26458px"/>
<path d="m-31939-900.4c-0.05 0.15057-0.105 0.29771-0.148 0.44924-0.01 0.0387-0.04 0.0798-0.02 0.11907 0.02 0.0479 0.07 0.0651 0.106 0.0926 0.02 0.0178 0.05 0.0373 0.07 0.058" fill="none" stroke-width=".26458px"/>
<path d="m-31953-922.98c-0.679-0.79117-1.703-1.2416-2.74-1.2812-0.674-0.0258-1.366 0.0592-1.985 0.32399-0.418 0.17869-0.641 0.68178-1.108 0.74861-0.282 0.0404-0.412 0.30078-0.553 0.51393-0.481 0.72956-0.988 1.4449-1.599 2.0771-1.062 1.0993-1.892 2.4509-2.234 3.9553-0.156 0.6853-0.2 1.3983-0.08 2.0938 0.209 1.1822 0.706 2.2912 1.236 3.3597" fill="none" stroke-width=".26458px"/>
<path d="m-31954-923.12c-1.1-0.4189-2.352-0.40119-3.443 0.0473-1.468 0.60344-2.623 1.7778-3.511 3.0628-1.13 1.6345-1.941 3.4887-2.388 5.4244-0.152 0.65873-0.23 1.3379-0.157 2.0147 0.128 1.1919 0.579 2.3356 0.583 3.5427" fill="none" stroke-width=".26458px"/>
<path d="m-31953-922.4c-0.344-0.53802-0.935-0.84075-1.528-1.0228-0.67-0.20587-1.312-0.50834-2.02-0.58442-0.986-0.10589-1.953 0.28974-2.733 0.87118-0.984 0.73362-1.834 1.6265-2.679 2.5115-0.768 0.80421-1.532 1.6941-1.799 2.806-0.268 1.1156-0.245 2.2824-0.596 3.3836-0.214 0.67214-0.388 1.3788-0.268 2.0962 0.219 1.3039 0.788 2.51 1.382 3.6794l0.02 0.0317 0.02 0.0318" fill="none" stroke-width=".26458px"/>
<path d="m-31956-908.88c-0.395 0.14263-0.761 0.41126-0.931 0.807-0.172 0.40005-0.27 0.82549-0.43 1.2311-0.609 1.544-1.192 3.1315-1.319 4.801-0.116 1.5242 0.156 3.0471 0.523 4.5207" fill="none" stroke-width=".26458px"/>
<path d="m-31957-905.72c-0.08 0.18968-0.301 0.0289-0.399-0.052-0.13-0.10786-0.299-0.127-0.447-0.0139-0.401 0.30713-0.711 0.71451-1 1.1239-0.564 0.79996-1.072 1.6422-1.483 2.5317-0.142 0.30768-0.255 0.62877-0.31 0.96535-0.195 1.1919-0.187 2.4148 0 3.6072 0.07 0.49832 0.181 0.99333 0.34 1.4721" fill="none" stroke-width=".26458px"/>
<path d="m-31956-905c-0.805 0.18298-1.488 0.7228-1.967 1.3814-0.674 0.9258-1.027 2.0363-1.293 3.1398-0.107 0.44459-0.109 0.90509-0.122 1.3594-0.03 1.1881-0.09 2.3855 0.07 3.5652 0.05 0.35903 0.115 0.71878 0.252 1.0599 0.08 0.19664 0.233 0.17248 0.196-0.0671-0.03-0.18624-0.01-0.37702-0.01-0.5654 0-0.52605-0.01-1.0515-0.03-1.5775-0.02-0.64597-0.03-1.3316 0.283-1.9168 0.503-0.92992 1.336-1.6522 1.744-2.6358 0.1-0.2291 0.301-0.92912 0.16-0.72349-0.136 0.19847-0.234 0.43146-0.338 0.65161-0.44 0.92932-0.799 1.8945-1.128 2.8681-0.405 1.1998-0.867 2.4328-0.834 3.7028 0.01 0.42362 0.08 0.84296 0.113 1.2678 0.01 0.17132 0.17 0.16811 0.242 0.0151 0.231-0.49016 0.36-1.0215 0.476-1.548 0.225-1.0226 0.457-2.0583 0.457-3.1061 0-0.0771 0.03-0.40097-0.05-0.18876-0.15 0.39104-0.374 0.74831-0.528 1.1375-0.143 0.36027-0.257 0.73042-0.386 1.0964-0.261 0.74155-0.567 1.499-0.555 2.295 0 0.20049-0.1 0.6537 0.1 0.59454 0.163-0.0501 0.255-0.24683 0.343-0.38761 0.378-0.60735 0.706-1.252 0.942-1.9276" fill="none" stroke-width=".26458px"/>
<path d="m-31958-896.23c-0.208 0.47499-0.505 0.9201-0.611 1.4321-0.07 0.32433-0.07 0.65543-0.128 0.98289-0.06 0.38254-0.109 0.76801-0.172 1.1512-0.02 0.12131 0.05 0.061 0.09-9e-3 0.25-0.51437 0.414-1.0798 0.757-1.542 0.09-0.11855 0.206-0.3742 0.339-0.28922 0.07 0.0461 0 0.19367 0 0.27247-0.131 0.60283-0.356 1.1881-0.42 1.8025 0 0.0864-0.05 0.26032 0.09 0.24168 0.162-0.0218 0.267-0.17095 0.359-0.29107 0.139-0.18071 0.206-0.42249 0.385-0.56326 0.09-0.0701 0.02 0.11869 0.02 0.1667-0.116 0.6355-0.315 1.2658-0.315 1.9128 0 0.10967-0.08 0.30342 0.03 0.33289 0.1 0.0263 0.173-0.0863 0.215-0.16166 0.103-0.1837 0.07-0.73476 0.22-0.58768 0.04 0.0356 0 0.20445 0.02 0.28731 0.01 0.0623-0.03-0.0206-0.05 0.0611-0.07 0.27793-0.121 0.56236-0.134 0.84812 0 0.13314-0.1 0.33694 0.02 0.40309 0.127 0.0694 0.225-0.12948 0.294-0.21549 0.09-0.11276 0.135-0.30111 0.277-0.33617 0.126-0.031 0.226 0.0865 0.219 0.21073-0.01 0.27249-0.131 0.52539-0.213 0.78211-0.06 0.19001-0.129 0.38332-0.134 0.585" fill="none" stroke-width=".26458px"/>
<path d="m-31956-902.13v4.3139" fill="none" stroke-width=".26458px"/>
<path d="m-31956-897.95c-0.06 0.13912-0.129 0.26967-0.198 0.4017-0.162 0.30883-0.335 0.61586-0.444 0.94805-0.04 0.13668-0.09 0.27967-0.08 0.42508 0 0.0816 0.05 0.1641 0.122 0.20405 0.05 0.0264 0.109 0.0341 0.165 0.0342" fill="none" stroke-width=".26458px"/>
<path d="m-31955-906.15c0.07 0.41813-0.03 0.84381-0.143 1.2435-0.306 1.0493-0.764 2.0451-1.187 3.0504-0.381 0.90544-0.811 1.8012-1.039 2.7594-0.09 0.36991-0.184 0.763-0.09 1.1401 0.03 0.10758 0.08 0.21163 0.157 0.29069" fill="none" stroke-width=".26458px"/>
<path d="m-31956-901.12c-0.391 0.53676-0.709 1.1264-0.948 1.7452-0.217 0.56105-0.384 1.1546-0.377 1.7604 0 0.41825 0.12 0.84896 0.399 1.1721 0.02 0.0232 0.04 0.0457 0.06 0.0675" fill="none" stroke-width=".26458px"/>
<path d="m-31956-898.24c-0.336 1.0696-0.573 2.1819-0.575 3.3073" fill="none" stroke-width=".26458px"/>
<path d="m-31956-910.47c-0.395-0.19602-0.869-0.14357-1.258 0.0444-0.626 0.30285-1.121 0.81994-1.535 1.3674-0.58 0.76784-1.041 1.6261-1.36 2.5346-0.17 0.48393-0.214 0.99824-0.253 1.5058-0.09 1.1522-0.05 2.3088-0.05 3.4631" fill="none" stroke-width=".26458px"/>
<path d="m-31957-908.6c-1.427 0.34862-2.668 1.2586-3.595 2.3779-1.052 1.2708-1.796 2.8555-1.862 4.5165-0.03 0.80738 0.1 1.6121 0.303 2.3952 0.05 0.1744 0.11 0.7079 0.117 0.52826 0.03-0.78563-0.286-1.5365-0.307-2.3161-0.02-0.86629 0.328-1.6807 0.64-2.4708 0.203-0.51331 0.455-1.0199 0.517-1.5746 0.03-0.27628 0.214-0.49444 0.407-0.68269 0.512-0.49943 0.985-1.0571 1.583-1.452 0.247-0.16306 1.058-0.46353 0.763-0.45456-0.169 5e-3 -0.314 0.13444-0.433 0.24567-0.55 0.51317-1.012 1.1119-1.443 1.7259-0.299 0.42603-0.664 0.82384-0.851 1.3108-0.249 0.64782-0.326 1.3448-0.382 2.0311-0.03 0.33235-0.08 0.6638-0.04 0.99911 0.171 1.3267 0.6 2.617 0.687 3.9513 0 0.12205 0.05 0.25339 0.01 0.37278" fill="none" stroke-width=".26458px"/>
<path d="m-31944-929.88c-0.418 0.19592-0.7 0.58344-1.025 0.91045-0.08 0.0815-0.223 0.55081-0.01 0.2958 0.413-0.50575 0.821-1.0176 1.316-1.451 1.047-0.91681 2.214-1.6964 3.492-2.2733 1.034-0.46674 1.897-1.2758 3.012-1.572 1.419-0.37675 2.905-0.25967 4.349-0.14556 0.77 0.0608 1.543 0.0387 2.315 0.0601 0.548 0.0152 1.131-0.0369 1.638 0.19016 0.06 0.026 0.114 0.0577 0.16 0.10287" fill="none" stroke-width=".26458px"/>
<path d="m-31931-933.47c0.767 0.14107 1.548 3e-3 2.306-0.13005 0.839-0.1476 1.689-0.35102 2.545-0.26868 0.452 0.0435 0.932 0.15131 1.269 0.46107 0.364 0.33433 0.515 0.82871 0.87 1.1756 0.626 0.61138 1.307 1.1632 1.925 1.7818" fill="none" stroke-width=".26458px"/>
<path d="m-31931-932.9c1.585 0.0632 3.169-0.26072 4.752-0.0693 0.863 0.10434 1.708 0.40754 2.409 0.9316 0.933 0.69799 1.656 1.6244 2.473 2.445" fill="none" stroke-width=".26458px"/>
<path d="m-31921-930.88c0.292 0.21522 0.583 0.43273 0.86 0.66789 0.461 0.39114 0.921 0.80086 1.474 1.0606 0.3 0.14092 0.628 0.19412 0.947 0.27475 0.544 0.13753 1.096 0.27967 1.591 0.55008 0.162 0.0886 0.317 0.19204 0.448 0.32259" fill="none" stroke-width=".26458px"/>
<path d="m-31917-926.71c0.847 0.56738 1.508 1.36 2.113 2.1698 0.617 0.82559 1.183 1.6977 1.913 2.4317" fill="none" stroke-width=".26458px"/>
<path d="m-31922-930.31l5.895 2.7321" fill="none" stroke-width=".26458px"/>
<path d="m-31918-920.96c0.402 0.4596 0.709 1.0025 0.89 1.5864 0.216 0.69504 0.26 1.429 0.26 2.1523" fill="none" stroke-width=".26458px"/>
<path d="m-31921-917.8c0.06 0.29809 0.09 0.60521 0.07 0.90956-0.03 0.29054-0.04 0.58143-0.06 0.87296 0 0.10392 0.01 0.20612 0.03 0.30767 0.03 0.12876 0.07 0.25668 0.07 0.39019 0 0.0579-0.05 0.0961-0.106 0.10792-0.07 0.0136-0.1-0.0579-0.07-0.11572 0.06-0.13238 0.161-0.24116 0.256-0.34888 0.09-0.1054 0.203-0.19466 0.29-0.30488 0.158-0.20057 0.223-0.45326 0.312-0.68823 0.06-0.15232 0.117-0.31274 0.236-0.42982 0.04-0.0404 0.116-0.0789 0.164-0.0314 0.07 0.0668 0.09 0.16639 0.1 0.25653 0.04 0.26867 0 0.54238 0.02 0.8121 0 0.0341-0.02 0.13213 0 0.12475 0.239-0.18249 0.496-0.33962 0.749-0.50277 0.07-0.0471 0.153-0.0879 0.203-0.16463 0.09-0.13206 0.104-0.30114 0.21-0.41963 0.03-0.0312 0.139-0.0837 0.127-0.0457-0.04 0.14025-0.101 0.27571-0.146 0.41551-0.09 0.26157-0.165 0.53177-0.161 0.80913 0 0.14741 0.04 0.31158 0.161 0.40662 0.08 0.0631 0.188 0.0834 0.289 0.0832" fill="none" stroke-width=".26458px"/>
<path d="m-31963-908.6c-0.106 0.76331-0.06 1.5444 0.106 2.2957 0.139 0.63877 0.352 1.2739 0.722 1.8179 0.165 0.24279 0.365 0.46754 0.61 0.6317" fill="none" stroke-width=".26458px"/>
<path d="m-31962-911.18c-0.283 1.1657-0.459 2.3745-0.337 3.5749 0.08 0.7549 0.283 1.4981 0.624 2.1769" fill="none" stroke-width=".26458px"/>
<path d="m-31961-911.47c0.08 0.32619 0.317 1.3057 0.238 0.97927-0.04-0.16868-0.188-0.66427-0.105-0.51204 0.1 0.18333 0.156 0.39277 0.219 0.59332 0.155 0.49732 0.211 1.023 0.387 1.5151 0.03 0.0893-0.02 0.2761-0.108 0.12334-0.206-0.35341-0.301-0.75818-0.391-1.1534-0.11-0.4858-0.144-0.98392-0.142-1.4818 0-0.65693 0.1-1.3384-0.11-1.9711-0.05-0.17009-0.336-0.3811-0.197-0.50049 0.113-0.0969 0.299 0.0192 0.356 0.13992 0.153 0.3243 0.144 0.69216 0.181 1.0417 0.03 0.31938 0.221 0.58793 0.36 0.8677 0.155 0.31096 0.605 1.2497 0.462 0.93375-0.119-0.26313-0.192-0.54677-0.278-0.82229-0.164-0.52367-0.28-1.0636-0.475-1.576-0.276-0.7236-0.653-1.4277-0.751-2.2006-0.02-0.19023-0.129-0.65085 0.07-0.57769 0.13 0.0489 0.186 0.2339 0.245 0.35793 0.397 0.82877 0.984 1.6147 1.1 2.5258 0.02 0.14956 0.195 0.17097 0.166-2e-3 -0.06-0.3764-0.194-0.73774-0.305-1.1027-0.233-0.76924-0.347-1.5731-0.341-2.376 0-0.2541-0.127-0.56203 0.03-0.76278 0.09-0.11692 0.156 0.17296 0.184 0.24802 0.101 0.26993 0.107 0.60807 0.321 0.8045 0.172 0.15768 0.202-0.20824 0.227-0.32198 0.189-0.86045 0.201-1.7669 0.538-2.5891 0.1-0.2439 0.235-0.47714 0.423-0.66434" fill="none" stroke-width=".26458px"/>
<path d="m-31952-921.68c-1.115 0.80477-1.947 1.9706-2.403 3.2651-0.599 1.6995-0.636 3.5408-0.451 5.316 0.133 1.2775 0.386 2.5399 0.697 3.7852" fill="none" stroke-width=".26458px"/>
<path d="m-31952-923.55c-0.177 0.28871-0.289 0.61238-0.376 0.93769-0.128 0.47974-0.223 0.97857-0.183 1.4763 0.02 0.26271 0.05 0.57823 0.265 0.74231 0.08 0.0611 0.15-0.0647 0.186-0.12512 0.181-0.30407 0.309-0.636 0.441-0.96362 0.235-0.58517 0.406-1.1975 0.682-1.7646 0.03-0.0718 0.06-0.26918 0.116-0.21124 0.05 0.047 0.01 0.14835 0 0.2152-0.06 0.43811-0.205 0.87217-0.18 1.3152 0 0.0878-0.01 0.2089 0.07 0.26046 0.09 0.0567 0.174-0.0436 0.219-0.10989 0.165-0.24067 0.269-0.51591 0.372-0.7869 0.135-0.35455 0.328-0.69806 0.374-1.0745 0-0.0486 0.05-0.0807 0.06-0.0136 0.05 0.24519 0.07 0.49697 0.1 0.74599 0.03 0.28518 0.117 0.56548 0.12 0.85312 0 0.0882 0.07 0.11002 0.113 0.0245 0.127-0.24692 0.202-0.51653 0.31-0.77157 0.05-0.10619 0.04-0.28386 0.154-0.31184 0.08-0.0205 0.116 0.12364 0.136 0.19171 0.1 0.33446 0.07 0.69337 0.164 1.026 0.02 0.0686 0.06 0.19721 0.137 0.17306 0.08-0.0252 0.121-0.11565 0.163-0.18424 0.07-0.11862 0.125-0.26772 0.252-0.33601 0.09-0.0493 0.182 0.0342 0.234 0.10458 0.04 0.0527 0.07 0.11031 0.101 0.1689" fill="none" stroke-width=".26458px"/>
<path d="m-31956-914.64c0 0.29811-0.05 0.59336-0.09 0.88754-0.09 0.60201-0.2 1.2057-0.191 1.8158 0 0.28267 0.02 0.57787 0.145 0.83522 0.04 0.0733 0.08 0.14247 0.139 0.20018" fill="none" stroke-width=".26458px"/>
<path d="m-31949-927.29c-0.591-0.42075-1.34-0.56949-2.055-0.51013-0.971 0.0806-1.902 0.4714-2.684 1.0434-0.588 0.43007-1.114 0.96942-1.445 1.6237" fill="none" stroke-width=".26458px"/>
<path d="m-31954-924.84c-0.07-0.0675-0.05-0.17996-1e-3 -0.25473 0.123-0.18579 0.305-0.32259 0.485-0.44707 0.516-0.35598 1.073-0.64655 1.641-0.91033 0.506-0.23512 1.016-0.4675 1.55-0.63295 0.07-0.0211 0.215-0.12684 0.207-0.0557-0.03 0.26023-0.173 0.49774-0.376 0.65984-0.305 0.24347-0.683 0.3657-1.047 0.49048-0.355 0.12172-0.722 0.22687-1.04 0.43294-0.195 0.12649-0.354 0.32109-0.398 0.55473-0.01 0.0537-0.01 0.10826-0.01 0.16281" fill="none" stroke-width=".26458px"/>
<path d="m-31949-926c-0.282 0.0515-0.552 0.15715-0.813 0.27395-0.517 0.23125-1.021 0.50467-1.458 0.86747-0.235 0.19522-0.464 0.41446-0.596 0.69472-0.08 0.16997-0.1 0.37594-0.01 0.54878 0.04 0.0761 0.09 0.14391 0.148 0.20338" fill="none" stroke-width=".26458px"/>
<path d="m-31951-923.84c0.767-0.0959 1.533-0.19173 2.3-0.2876" fill="none" stroke-width=".26458px"/>
<path d="m-31954-928.15c0.337-0.81741 0.402-1.7865 1.025-2.4522 0.769-0.82137 1.723-1.4478 2.714-1.9662 1.964-1.0276 4.095-1.7198 6.269-2.1302 1.109-0.20944 2.235-0.35066 3.365-0.35359" fill="none" stroke-width=".26458px"/>
<path d="m-31951-929.01c0.955-1.1636 2.124-2.1701 3.489-2.8246 1.49-0.71467 3.152-0.97618 4.791-1.0405 0.308-0.0121 0.615-0.0174 0.923-0.0174" fill="none" stroke-width=".26458px"/>
<path d="m-31951-930.6c0.862-0.61628 1.898-0.9386 2.935-1.1038 1.216-0.19376 2.452-0.1904 3.68-0.19027" fill="none" stroke-width=".26458px"/>
<path d="m-31948-933.47c1.168-0.40037 2.408-0.52981 3.636-0.56495 0.753-0.0215 1.507-0.0101 2.26-0.0101" fill="none" stroke-width=".26458px"/>
<path d="m-31944-934.34h1.725" fill="none" stroke-width=".26458px"/>
<path d="m-31941-934.34c0.959-0.0479 1.917-0.0959 2.876-0.1438" fill="none" stroke-width=".26458px"/>
<path d="m-31940-935.34c0.41 0.0962 0.835 0.0465 1.247-3e-3 0.446-0.0532 0.899-0.12857 1.348-0.0637 0.276 0.0399 0.533 0.15548 0.787 0.26284 0.435 0.18354 0.882 0.3804 1.363 0.37868" fill="none" stroke-width=".26458px"/>
<path d="m-31936-935.34c0.368 0.0651 0.739 0.12236 1.098 0.22638 0.07 0.0191 0.131 0.0395 0.196 0.0612" fill="none" stroke-width=".26458px"/>
<path d="m-31956-926.14c-0.667 0.0891-1.318 0.30873-1.894 0.65879-0.358 0.21752-0.685 0.48294-0.981 0.77921" fill="none" stroke-width=".26458px"/>
<path d="m-31956-924.84c-0.762 0.0881-1.525 0.22819-2.245 0.49996-0.473 0.17862-0.941 0.40997-1.303 0.77071-0.134 0.13354-0.25 0.28571-0.334 0.45483" fill="none" stroke-width=".26458px"/>
<path d="m-31952-919.24c-0.502 0.57376-0.972 1.1948-1.249 1.9121-0.249 0.64428-0.307 1.3413-0.327 2.0262v0.51932" fill="none" stroke-width=".26458px"/>
<path d="m-31914-897.09c0.271 0.33819 0.557 0.67111 0.761 1.0546 0.08 0.14446 0.158 0.29829 0.161 0.46627 0 0.0985-0.06 0.18956-0.139 0.24084-0.146 0.0899-0.317 0.1241-0.482 0.16002-0.37 0.0806-0.745 0.17453-1.073 0.3717-0.137 0.0824-0.265 0.18138-0.379 0.29492" fill="none" stroke-width=".21167"/>
<path d="m-31953-895.37c-0.148 0.15901-0.288 0.33302-0.366 0.53859-0.05 0.13232-0.06 0.28254 0 0.41523 0.07 0.16642 0.198 0.29536 0.332 0.40885 0.202 0.17117 0.424 0.31937 0.612 0.50663" fill="none" stroke-width=".13229"/>
<path d="m-31942-891.2c-0.404 0.10149-0.766 0.32182-1.093 0.57537-0.365 0.28344-0.691 0.6143-1.008 0.94954-0.02 0.019-0.04 0.038-0.06 0.0568" fill="none" stroke-width=".21167"/>
<path d="m-31941-888.9c-0.769 0.74117-1.643 1.36-2.494 2.0014-0.962 0.72535-1.946 1.4364-2.785 2.3049-0.386 0.39943-0.725 0.85405-0.919 1.3796-0.182 0.4922-0.324 0.99731-0.46 1.5035-0.104 0.38783-0.213 0.80964-0.09 1.2021 0.03 0.0872 0.07 0.17122 0.135 0.23616" fill="none" stroke-width=".079375"/>
<path d="m-31937-863.44c0.04 0.18622 0.07 0.37263 0.121 0.55632 0.02 0.0615 0.02 0.12479 0.02 0.18819v0.26209" fill="none" stroke-width=".13229"/>
<path d="m-31936-862.87c-0.05 0.19126-0.1 0.38254-0.144 0.5752" fill="none" stroke-width=".13229"/>
<path d="m-31936-861.57c0.05 0.19147 0.144 0.37798 0.144 0.57584v0.14316" fill="none" stroke-width=".13229"/>
<path d="m-31935-860.86c-0.05 0.19122-0.1 0.38247-0.144 0.5751" fill="none" stroke-width=".13229"/>
<path d="m-31937-861v0.5751" fill="none" stroke-width=".13229"/>
<path d="m-31934-862.29c0.1-0.0479 0.192-0.0959 0.288-0.1438" fill="none" stroke-width=".13229"/>
<path d="m-31928-919.09c0.826-0.26726 1.597-0.68883 2.443-0.8949 0.283-0.0689 0.573-0.11183 0.864-0.1117" fill="none" stroke-width=".26458px"/>
<path d="m-31928-918.09c0.738-0.15591 1.414-0.50349 2.123-0.7502 0.427-0.14863 0.874-0.25731 1.328-0.2563" fill="none" stroke-width=".26458px"/>
<path d="m-31927-917.8c0.255 0.10757 0.54 0.13195 0.812 0.089 0.421-0.0664 0.806-0.25766 1.209-0.38966 0.229-0.0751 0.468-0.13107 0.711-0.13077" fill="none" stroke-width=".26458px"/>
<path d="m-31926-917.37c0.166 0.0157 0.332-0.0106 0.495-0.038 0.438-0.0739 0.87-0.19556 1.314-0.22583 0.165-0.0113 0.336-0.0199 0.494 0.0357 0.05 0.0183 0.102 0.0451 0.141 0.0844" fill="none" stroke-width=".26458px"/>
<path d="m-31924-916.94h1.294" fill="none" stroke-width=".26458px"/>
<path d="m-31931-920.39c1.007-0.23967 2.013-0.47933 3.02-0.719" fill="none" stroke-width=".26458px"/>
<path d="m-31930-919.52c1.198-0.33553 2.397-0.67107 3.595-1.0066" fill="none" stroke-width=".26458px"/>
<path d="m-31952-916.5c-0.21 0.49723-0.53 0.93654-0.839 1.3764-0.36 0.51252-0.739 1.0223-0.978 1.6057-0.117 0.28536-0.196 0.59037-0.196 0.90046" fill="none" stroke-width=".26458px"/>
<path d="m-31927-860.14c0.05 0.19126 0.1 0.38254 0.144 0.5752" fill="none" stroke-width=".13229"/>
<path d="m-31928-859.27c0.05 0.33553 0.1 0.67107 0.144 1.0066" fill="none" stroke-width=".13229"/>
<path d="m-31927-858.56c0.288 0.0959 0.575 0.19173 0.863 0.2876" fill="none" stroke-width=".13229"/>
<path d="m-31925-859.71c-0.24 0.0479-0.479 0.0959-0.719 0.1438" fill="none" stroke-width=".13229"/>
<path d="m-31924-859.71v0.719" fill="none" stroke-width=".052917"/>
<path d="m-31923-863.44c0.192-0.0479 0.383-0.0958 0.575-0.1437" fill="none" stroke-width=".13229"/>
<path d="m-31950-921.11c-0.414 0.31433-0.858 0.58752-1.267 0.90802-0.291 0.22779-0.576 0.47337-0.784 0.7813-0.04 0.0578-0.08 0.11777-0.106 0.18008" fill="none" stroke-width=".26458px"/>
<path d="m-31949-920.96c-0.812 0.73544-1.809 1.2383-2.588 2.0132" fill="none" stroke-width=".26458px"/>
<path d="m-31949-920.53c-0.443 0.39489-0.935 0.73803-1.336 1.1785-0.151 0.16589-0.289 0.34605-0.39 0.54709" fill="none" stroke-width=".26458px"/>
<path d="m-31947-921.68c-0.444 0.37693-0.924 0.71015-1.432 0.99506-0.1 0.0539-0.194 0.10573-0.293 0.15524" fill="none" stroke-width=".26458px"/>
<path d="m-31953-918.52c0 0.16295 0.05 0.32344 0.122 0.4682 0.126 0.2432 0.33 0.43644 0.453 0.6822" fill="none" stroke-width=".26458px"/>
<path d="m-31952-919.24v1.4379" fill="none" stroke-width=".26458px"/>
<path d="m-31939-855.35c0.665 0.95958 1.035 2.1026 1.137 3.2621 0.145 1.6504-0.168 3.2903-0.368 4.922-0.09 0.72568-0.159 1.4553-0.159 2.1871" fill="none" stroke-width=".079375"/>
<path d="m-31933-853.11c0.324 0.68094 0.605 1.3909 0.734 2.1373 0.05 0.30142 0.08 0.60721 0.08 0.9131" fill="none" stroke-width=".13229"/>
<path d="m-31926-854.13c-0.334 0.3412-0.572 0.76601-0.734 1.2132-0.248 0.68383-0.322 1.4214-0.617 2.0893-0.02 0.0521-0.05 0.10366-0.07 0.15452" fill="none" stroke-width=".13229"/>
<path d="m-31945-897.65c-0.01 0.33807-0.03 0.67974 0.03 1.0148 0.04 0.22722 0.129 0.4539 0.295 0.61792 0.153 0.15082 0.353 0.24458 0.555 0.30868 0.189 0.06 0.406 0.0734 0.585-0.025 0.193-0.10625 0.311-0.3045 0.397-0.50028 0.162-0.36999 0.228-0.7755 0.398-1.142 0.05-0.0989 0.101-0.19604 0.178-0.27407" fill="none" stroke-width=".26458px"/>
<path d="m-31924-897.57c-0.123 0.0685-0.201 0.20175-0.212 0.34131-0.02 0.21572 0.07 0.42652 0.174 0.60814 0.153 0.25487 0.362 0.48405 0.623 0.62928 0.157 0.0873 0.349 0.14022 0.526 0.0795 0.09-0.0315 0.162-0.10266 0.248-0.1484 0.271-0.14441 0.577-0.20498 0.845-0.35839 0.08-0.0458 0.139-0.12021 0.169-0.20641 0.06-0.18239 0.06-0.37901 0.06-0.56957 0-0.12204 0-0.24498 0.02-0.36617 0-0.0491 0.06-0.0877 0.108-0.0714 0.04 0.0124 0.08 0.0369 0.108 0.062" fill="none" stroke-width=".23512px"/>
<path d="m-31938-872.79c0.09 0.0565 0.17 0.12524 0.249 0.19505 0.14 0.12346 0.277 0.25023 0.398 0.39222 0.04 0.0471 0.09 0.0917 0.109 0.14996v0.0254" fill="none" stroke-width=".18521"/>
<path d="m-31923-896.4c-0.754-0.6565-0.449-0.9589 0.967-0.9589 0.7 0 0.75 0.025 0.75 0.3804 0 0.2952-0.149 0.4407-0.664 0.6488l-0.664 0.2684z" opacity=".03" stroke-width=".14262"/>
<path d="m-31923-896.31c-0.323-0.1416-0.401-0.3211-0.157-0.3669 0.08-0.015 0.565-0.047 1.076-0.07l0.929-0.043 0.216 0.2582c-0.412 2.0507-1.862 0.3296-2.064 0.2216z" opacity=".03" stroke-width=".097478"/>
<path d="m-31945-896.12c-0.221-0.155-0.399-0.4855-0.399-0.7411 0-0.421 0.08-0.4614 0.85-0.4614 0.467 0 0.849 0.03 0.849 0.066s-0.09 0.327-0.202 0.6458c-0.248 0.7113-0.574 0.8572-1.098 0.4904z" opacity=".03" stroke-width=".16995"/>
<path d="m-31933-876.04-0.661-0.3417h0.566c0.689 0 1.21 0.2903 0.943 0.5198-0.107 0.092-0.469 0.015-0.848-0.1807z" opacity=".03" stroke-width=".18521"/>
<path d="m-31954-850.96c-0.04 1.1084 0.91 1.7522 1.222 2.6871 0.05 0.1545-0.05 0.334 0 0.4885 0.692 1.384-0.09-0.3641 0.244 0.9771 0.317 1.2685 0.244-0.2607 0.244 0.9772" fill="none" stroke-width=".15875"/>
<path d="m-31953-852.67c0.244 0.4072 0.481 0.8188 0.732 1.2214 0.156 0.249 0.373 0.463 0.489 0.7329 0.132 0.3085 0.138 0.6586 0.244 0.9771 0.115 0.3454 0.326 0.6514 0.489 0.9771 0.08 0.1629 0.143 0.3371 0.244 0.4886 0.06 0.096 0.193 0.1412 0.244 0.2442 0.04 0.073 0.08 0.2443 0 0.2443s0-0.1628 0-0.2443" fill="none" stroke-width=".15875"/>
<path d="m-31951-853.41c0.08 0.3257 0.163 0.6514 0.244 0.9771 0 0.1629-0.04 0.3306 0 0.4886 0.04 0.1766 0.187 0.3158 0.244 0.4885 0.05 0.1533 0 0.7805 0 0.9771" fill="none" stroke-width=".15875"/>
<path d="m-31953-851.45c0.08 0.4072 0.113 0.8275 0.244 1.2214 0.04 0.1093 0.18 0.1485 0.244 0.2443 0.101 0.1515 0.151 0.3324 0.244 0.4886 0.151 0.2517 0.338 0.4811 0.489 0.7328 0.08 0.1629 0.163 0.3257 0.244 0.4886 0 0.081-0.04 0.1714 0 0.2442 0.05 0.103 0.193 0.1413 0.245 0.2443 0.04 0.073-0.06 0.1867 0 0.2443 0.325 0.3257 0.244-0.4071 0.244 0.2443" fill="none" stroke-width=".15875"/>
<path d="m-31909-853.65c0.515 0.3236-0.128 0.8352 0 1.2214 0.06 0.1727 0.209 0.31 0.245 0.4886 0.05 0.2395 0 0.4885 0 0.7328v2.1985" fill="none" stroke-width=".15875"/>
<path d="m-31908-852.43c0.08 0.3257 0.178 0.6479 0.244 0.9771 0.03 0.1597 0 0.3257 0 0.4886v0.9771 2.6871" fill="none" stroke-width=".15875"/>
<path d="m-31922-896.62c-0.124-0.0966-0.249-0.1957-0.394-0.25886-0.06-0.0249-0.118-0.0473-0.181-0.0432-0.04 3e-3 -0.08 0.0354-0.09 0.0771-0.02 0.0623 0 0.12826 0.01 0.18891 0.04 0.12941 0.1 0.25156 0.18 0.35905 0.05 0.0706 0.113 0.13992 0.191 0.18307 0.04 0.0226 0.09 0.0358 0.138 0.014 0.05-0.0244 0.08-0.0768 0.1-0.12762 0.04-0.1137 0.05-0.23534 0.05-0.35452v-0.0188-0.0192z" fill="none" stroke-width=".26458px"/>
<path d="m-31944-896.62c-0.127-9e-3 -0.257-0.0157-0.381 0.015-0.06 0.0158-0.134 0.0434-0.168 0.10431-0.03 0.0591-0.02 0.13163 0 0.19133 0.04 0.1093 0.117 0.20449 0.195 0.29193 0.04 0.0446 0.08 0.0883 0.124 0.1297 0.03 0.0265 0.07 0.0446 0.11 0.0254 0.05-0.0244 0.09-0.071 0.1-0.1219 0-0.0367 0.04-0.0569 0.08-0.0585 0.08-4e-3 0.157 0.0208 0.235 0.0333 0.05 8e-3 0.106 0.0242 0.156 6e-3 0.05-0.0168 0.07-0.0662 0.08-0.10681 0.02-0.0543 0.04-0.1106 0.07-0.16401 0.02-0.0499 0-0.1042-0.05-0.13432-0.07-0.049-0.149-0.0747-0.227-0.0999-0.107-0.0345-0.217-0.0599-0.32-0.10635v-2e-3 -2e-3z" fill="none" stroke-width=".26458px"/>
</g>
</svg>
