<?xml version="1.0" encoding="UTF-8"?>
<svg width="120mm" height="120mm" version="1.1" viewBox="0 0 119.99999 119.99999" xmlns="http://www.w3.org/2000/svg" xmlns:cc="http://creativecommons.org/ns#" xmlns:dc="http://purl.org/dc/elements/1.1/" xmlns:rdf="http://www.w3.org/1999/02/22-rdf-syntax-ns#">
<metadata>
<rdf:RDF>
<cc:Work rdf:about="">
<dc:format>image/svg+xml</dc:format>
<dc:type rdf:resource="http://purl.org/dc/dcmitype/StillImage"/>
<dc:title/>
</cc:Work>
</rdf:RDF>
</metadata>
<g stroke="#000">
<path d="m81.194 42.649c0.18543 3.6576-1.0803 7.1924-1.2737 10.807-0.09143 1.7093-0.18477 3.4283-0.47386 5.1251-0.62614 3.675-3.1985 6.5595-5.7184 9.2816-0.96836 1.0461-2.4238 1.8505-3.2745 2.9471" fill="none" stroke-width=".26458px"/>
<path d="m70.715 70.614c-3.5137 2.3438-7.0412 5.81-11.423 5.5921-3.9129-0.19456-7.2097-2.7238-9.8472-5.691-1.9943-2.2436-4.3558-3.6575-6.1049-6.3847-1.216-1.8959-2.6229-3.8478-2.8816-6.1561" fill="none" stroke-width=".26458px"/>
<path d="m40.459 57.974c-0.34138-1.6846-0.97032-3.315-1.3182-4.9841-0.30766-1.4759 0.05662-2.9225 0.12926-4.3937 0.05468-1.1074 0.10071-2.2937 0.3376-3.3929" fill="none" stroke-width=".26458px"/>
<path d="m51.678 74.231c-0.22476 0.3688-0.49983 0.7114-0.66745 1.1113-0.03706 0.08841-0.07177 0.181-0.07349 0.27798" fill="none" stroke-dasharray="0.26458332, 0.52916663" stroke-width=".26458"/>
<path d="m52.141 74.694c-0.02714 0.40443-0.24567 0.75909-0.45698 1.093-0.09966 0.15745-0.20045 0.31473-0.28396 0.48156" fill="none" stroke-dasharray="0.26458332, 0.52916663" stroke-width=".26458"/>
<path d="m52.882 75.157c-0.32054 0.8846-0.69194 1.7511-1.1114 2.5933" fill="none" stroke-dasharray="0.26458332, 0.52916663" stroke-width=".26458"/>
<path d="m53.808 75.713c-0.58334 0.80879-1.1225 1.65-1.616 2.5162-0.04936 0.08664-0.09874 0.17336-0.14374 0.26236" fill="none" stroke-dasharray="0.26458332, 0.52916663" stroke-width=".26458"/>
<path d="m54.92 76.454c-0.22956 0.34959-0.53313 0.63916-0.75046 1.0017-0.63572 1.0605-2.1178 4.2738-2.1146 3.0394 4e-5 -0.01546-0.0461 0.08512-0.0061 0.03413" fill="none" stroke-dasharray="0.26458332, 0.52916663" stroke-width=".26458"/>
<path d="m55.475 77.936c-0.62035 0.51999-1.0002 1.2497-1.48 1.8885-0.48163 0.6412-1.2017 1.0602-1.6769 1.7072-0.21026 0.28627-0.47854 0.56479-0.55481 0.9155-0.01437 0.0661 0.07053 0.05103 0.09968 0.02713" fill="none" stroke-dasharray="0.26458332, 0.52916663" stroke-width=".26458"/>
<path d="m55.938 79.232c-0.92808 1.1769-1.9996 2.2651-2.6859 3.6121" fill="none" stroke-dasharray="0.26458332, 0.52916663" stroke-width=".26458"/>
<path d="m57.05 80.622c-1.0484 0.71553-1.5849 1.9182-2.4456 2.8149-0.01819 0.01895-0.03656 0.03772-0.05514 0.0563" fill="none" stroke-dasharray="0.26458332, 0.52916663" stroke-width=".26458"/>
<path d="m57.976 82.104c-0.60566 0.36512-1.1264 0.89075-1.4399 1.5269-0.05193 0.10538-0.09746 0.214-0.13462 0.32548" fill="none" stroke-dasharray="0.26458332, 0.52916663" stroke-width=".26458"/>
<path d="m59.55 82.659c-0.76856 0.53797-1.3436 1.3053-1.8144 2.1058-0.11164 0.18982-0.21729 0.38318-0.31584 0.58012" fill="none" stroke-dasharray="0.26458332, 0.52916663" stroke-width=".26458"/>
<path d="m61.125 82.381c-0.56394 0.31724-0.90202 0.89525-1.2226 1.4351-0.21874 0.36839-0.42069 0.75614-0.72238 1.0655" fill="none" stroke-dasharray="0.26458332, 0.52916663" stroke-width=".26458"/>
<path d="m63.533 81.918c-0.55754 0.34428-0.94036 0.89986-1.2615 1.4572-0.14425 0.2503-0.27649 0.5073-0.40559 0.76567" fill="none" stroke-dasharray="0.26458332, 0.52916663" stroke-width=".26458"/>
<path d="m65.2 78.121c-1.2281 1.7633-1.2116 4.0325-2.1302 5.9276" fill="none" stroke-dasharray="0.26458332, 0.52916663" stroke-width=".26458"/>
<path d="m66.404 77.102c-0.84672 1.2528-1.201 2.7463-1.6441 4.1711-0.16568 0.5328-0.33185 1.0692-0.57873 1.5712" fill="none" stroke-dasharray="0.26458332, 0.52916663" stroke-width=".26458"/>
<path d="m67.516 76.824c-0.30915 0.47437-0.55983 0.9909-0.66565 1.5528-0.11283 0.59916-0.24963 1.1975-0.51897 1.7513-0.22863 0.47007-0.50179 0.92126-0.66774 1.4194" fill="none" stroke-dasharray="0.26458332, 0.52916663" stroke-width=".26458"/>
<path d="m68.72 75.806c0.02648 0.34316-0.2112 0.60871-0.30377 0.92358-0.29417 1.0006-0.62286 1.9924-0.84254 3.0134-0.05769 0.26811-0.28709 0.57271-0.1503 0.81504 0.02401 0.04253 0.07685-0.01485 0.09257-0.0285" fill="none" stroke-dasharray="0.26458332, 0.52916663" stroke-width=".26458"/>
<path d="m69.553 75.157c-0.41315 0.7403-0.36187 1.6138-0.42844 2.4304-0.0593 0.72741-0.49325 1.3705-0.49774 2.1079" fill="none" stroke-dasharray="0.26458332, 0.52916663" stroke-width=".26458"/>
<path d="m70.665 72.657c-0.38796 0.68987-0.27513 1.5041-0.2893 2.2594-0.01757 0.93577-0.19363 1.858-0.28355 2.789-0.03512 0.36368-0.05712 1.4499-0.07338 1.1162-0.0023-0.0481-0.0019-0.09627-0.0021-0.14441" fill="none" stroke-dasharray="0.26458332, 0.52916663" stroke-width=".26458"/>
<path d="m71.406 71.175c-0.17196 0.3304-0.24356 0.69488-0.24623 1.0681-0.0087 1.2136 0.22653 2.415 0.26682 3.6255 0.01994 0.59923-0.0783 1.1933-0.11321 1.7897" fill="none" stroke-dasharray="0.26458332, 0.52916663" stroke-width=".26458"/>
<path d="m72.239 69.971c-0.1081 2.0688 0.09324 4.1368 0.09262 6.2054" fill="none" stroke-dasharray="0.26458332, 0.52916663" stroke-width=".26458"/>
<path d="m73.073 69.785c0.07607 1.6062 0.25143 3.2078 0.27785 4.8161" fill="none" stroke-dasharray="0.26458332, 0.52916663" stroke-width=".26458"/>
<path d="m73.814 68.489c-0.21482 1.4223 0.18078 2.8392 0.18524 4.2604" fill="none" stroke-dasharray="0.26458332, 0.52916663" stroke-width=".26458"/>
<path d="m74.647 67.655c-0.16135 0.7033 9.98e-4 1.421 0 2.1302" fill="none" stroke-dasharray="0.26458332, 0.52916663" stroke-width=".26458"/>
<path d="m9.7219 65.34c-0.060957 1.6843-0.88687 3.203-1.571 4.7034-0.53938 1.1829-1.1771 2.396-1.2075 3.7249" fill="none" stroke-dasharray="0.26458332, 0.52916663" stroke-width=".26458"/>
<path d="m7.1285 77.565c0.12681-0.75492 0.33903-1.4856 0.57973-2.2136 0.90331-2.7322 1.5636-5.5338 2.2642-8.3244 0.2066-0.82289 0.40335-1.6584 0.76816-2.4285" fill="none" stroke-dasharray="0.26458332, 0.52916663" stroke-width=".26458"/>
<path d="m8.5178 78.769c0.56408-3.7859 2.111-7.3084 3.0954-10.992 0.17991-0.6733 0.3225-1.3511 0.33627-2.0546 0.01251-0.63936 0.49584-1.1449 0.55095-1.7721" fill="none" stroke-dasharray="0.26458332, 0.52916663" stroke-width=".26458"/>
<path d="m15.094 63.487c-1.6063 5.1158-2.9173 10.336-3.7441 15.631-0.10658 0.68254-0.22188 1.3676-0.2385 2.0596" fill="none" stroke-dasharray="0.26458332, 0.52916663" stroke-width=".26458"/>
<path d="m16.761 62.932c-1.2352 7.6142-2.5427 15.201-4.2612 22.739-0.01881 0.08252 0.13836 1.4002-0.09186 0.78578" fill="none" stroke-dasharray="0.26458332, 0.52916663" stroke-width=".26458"/>
<path d="m18.335 62.469c-0.61103 3.1833-0.18351 6.4703-0.91294 9.6448-0.38636 1.6814-0.60098 3.3926-0.93942 5.0815-0.28686 1.4315-0.44304 2.8891-0.51224 4.3448-0.09843 2.0708-0.67874 4.1213-0.48508 6.21 0.01436 0.15488 0.04147 1.8907 0.07114 1.2077" fill="none" stroke-dasharray="0.26458332, 0.52916663" stroke-width=".26458"/>
<path d="m20.002 61.82c-0.61548 3.2316-0.09445 6.5336-0.48705 9.7937-0.4401 3.6546-0.5783 7.3281-0.6258 11.013-0.03488 2.7058 0.11937 5.4411 0.81632 8.0655 0 0 0.01867-0.06749 0.01867-0.06749" fill="none" stroke-dasharray="0.26458332, 0.52916663" stroke-width=".26458"/>
<path d="m21.299 61.82c0.14178 1.1583-0.06685 2.3215-0.19155 3.4718-0.12195 1.1249-0.35781 2.2699-0.17163 3.3963 0.01992 0.12053 0.04674 0.24016 0.08533 0.35618" fill="none" stroke-dasharray="0.26458332, 0.52916663" stroke-width=".26458"/>
<path d="m23.244 61.542c-0.0037 1.3805-0.55196 2.6951-0.55571 4.0752" fill="none" stroke-dasharray="0.26458332, 0.52916663" stroke-width=".26458"/>
<path d="m25.282 60.894c-0.09058 0.64506 0.07768 1.3078-0.08382 1.9447-0.02429 0.0958-0.05717 0.18964-0.10142 0.27811" fill="none" stroke-dasharray="0.26458332, 0.52916663" stroke-width=".26458"/>
<path d="m21.207 74.046c0.85724 6.1981 0.25796 12.456 0.49558 18.688 0.03676 0.9642 0.02219 1.9343 0.15275 2.892" fill="none" stroke-dasharray="0.26458332, 0.52916663" stroke-width=".26458"/>
<path d="m23.707 77.473c-0.36986 1.3399-0.18038 2.7423-0.20347 4.1151-0.05068 3.0134-0.4529 6.0321-0.22543 9.0399 0.09112 1.2049 0.33628 4.8204 0.33628 3.6089v-0.37048" fill="none" stroke-dasharray="0.26458332, 0.52916663" stroke-width=".26458"/>
<path d="m25.282 79.047c0.14307 4.9192-0.64743 9.8455-0.22751 14.75 0.05262 0.61459 0.07679 1.2534 0.32013 1.8289" fill="none" stroke-dasharray="0.26458332, 0.52916663" stroke-width=".26458"/>
<path d="m26.764 79.973c-0.03701 1.8219 0.16002 3.6383 0.10129 5.4628-0.07412 2.3025-0.15753 4.6153 0.13898 6.9066 0.06879 0.53162 0.08845 1.292 0.21881 1.6718l4e-3 -0.14843" fill="none" stroke-dasharray="0.26458332, 0.52916663" stroke-width=".26458"/>
<path d="m28.431 81.455c-0.01887 1.8372 0.16877 3.6671 0.19496 5.5058 0.0325 2.2815-0.04896 4.5641 0.01271 6.8449 0.01253 0.46328 0.40492 1.8683 0.3711 1.6647-0.03264-0.1964-0.08092-0.38977-0.11568-0.58577" fill="none" stroke-dasharray="0.26458332, 0.52916663" stroke-width=".26458"/>
<path d="m30.098 83.493c0.03787 0.99083 0.1937 1.9707 0.23775 2.9633 0.09413 2.1211 0.17184 4.2439 0.3622 6.3587 0.04438 0.49298 0.08559 1.9656 0.13315 1.5012 9e-3 -0.08797 0.0069-0.17647 0.0078-0.26472" fill="none" stroke-dasharray="0.26458332, 0.52916663" stroke-width=".26458"/>
<path d="m88.169 75.528c-0.49216 0.56043-1.1089 0.99173-1.65 1.5014-0.37046 0.34897-0.78862 0.69561-0.97717 1.1793-0.03513 0.09011-0.05878 0.18591-0.05879 0.28309" fill="none" stroke-dasharray="0.26458332, 0.52916663" stroke-width=".26458"/>
<path d="m89.837 75.991c0.05738-0.12435-0.21852 0.16986-0.27938 0.23155-0.8978 0.90999-1.8345 1.7882-2.6457 2.7762-0.0671 0.08172 0.04742-0.03974 0.05396-0.04393" fill="none" stroke-dasharray="0.26458332, 0.52916663" stroke-width=".26458"/>
<path d="m91.041 77.01c-1.1171 0.8155-1.9944 1.897-2.9638 2.8712" fill="none" stroke-dasharray="0.26458332, 0.52916663" stroke-width=".26458"/>
<path d="m92.059 78.399c-0.85897 0.77782-1.594 1.6784-2.4081 2.5007" fill="none" stroke-dasharray="0.26458332, 0.52916663" stroke-width=".26458"/>
<path d="m92.8 80.529c-0.78633 0.64937-1.5308 1.3347-2.2538 2.0759-0.16487 0.16902-0.69434 0.19944-0.57449 0.39928 0.04939 0.08235 0.17716-0.03896 0.23495-0.06708" fill="none" stroke-dasharray="0.26458332, 0.52916663" stroke-width=".26458"/>
<path d="m95.208 80.251c-2.0903 2.0454-4.621 3.6313-6.5589 5.8192-0.22466 0.25365-0.64991 0.49334-0.66531 0.84929" fill="none" stroke-dasharray="0.26458332, 0.52916663" stroke-width=".26458"/>
<path d="m84.65 94.514c2.0476-2.3821 4.4122-4.4529 6.7681-6.5184 1.6266-1.4261 3.1219-2.9895 4.5881-4.5758 0.79228-0.85715 3.1774-1.7836 2.3512-2.6133-0.07824-0.07858-0.22041 0.19805-0.27786 0.18524" fill="none" stroke-dasharray="0.26458332, 0.52916663" stroke-width=".26458"/>
<path d="m86.41 95.626c3.8428-3.2914 7.9341-6.362 11.267-10.175 0.63725-0.72912 1.1894-1.5886 2.0705-2.0508" fill="none" stroke-dasharray="0.26458332, 0.52916663" stroke-width=".26458"/>
<path d="m88.169 96.645c2.3754-1.5928 4.4484-3.5918 6.8736-5.1197 1.8769-1.1825 3.5227-2.6709 5.212-4.0957 0.91901-0.77513 1.6959-1.7372 2.7333-2.3618" fill="none" stroke-dasharray="0.26458332, 0.52916663" stroke-width=".26458"/>
<path d="m88.725 98.682c1.2769-1.1341 2.6774-2.1145 4.1156-3.0309 1.7846-1.1372 3.7224-2.0099 5.4516-3.247 1.9187-1.3727 4.1039-2.3239 6.0129-3.7111 0.9913-0.72039 1.8675-1.7205 3.0805-1.9681 0.0902-0.0184 0.31251-0.29543-0.0443-0.08322" fill="none" stroke-dasharray="0.26458332, 0.52916663" stroke-width=".26458"/>
<path d="m88.077 101.37c2.0002-1.0858 4.0118-2.1584 5.92-3.4005 1.9116-1.2443 4.071-2.0528 5.9727-3.3012 2.0855-1.369 4.1107-2.8152 6.2733-4.0783 1.353-0.79027 5.4312-2.502 3.8771-2.6496-0.29246-0.02778-0.57082 0.25455-0.83356 0.37047" fill="none" stroke-dasharray="0.26458332, 0.52916663" stroke-width=".26458"/>
<path d="m87.799 104.24c3.1758-1.7686 6.4943-3.2718 9.6028-5.1605 1.9962-1.2129 4.2902-1.7184 6.3344-2.8605 1.8564-1.0372 3.7548-1.9913 5.8071-2.5765 0.30943-0.08825 1.9687-0.87844 0.75398-0.46775l-0.22585 0.12188-0.2293 0.10714" fill="none" stroke-dasharray="0.26458332, 0.52916663" stroke-width=".26458"/>
<path d="m90.022 106.09c2.9486-1.8955 6.3698-2.7978 9.4947-4.3536 2.4111-1.2004 4.8858-2.2494 7.4017-3.2381 0.8425-0.33109 1.5614-0.89855 2.3683-1.2996" fill="none" stroke-dasharray="0.26458332, 0.52916663" stroke-width=".26458"/>
<path d="m100.12 105.35c3.0616-0.90886 6.0481-2.0469 9.0766-3.0564" fill="none" stroke-dasharray="0.26458332, 0.52916663" stroke-width=".26458"/>
<path d="m11.805 79.876c0.56408-3.7859 2.111-7.3084 3.0954-10.992 0.17991-0.6733 0.3225-1.3511 0.33627-2.0546 0.01251-0.63936 0.49584-1.1449 0.55095-1.7721" fill="none" stroke-dasharray="0.26458332, 0.52916663" stroke-width=".26458"/>
<path d="m96.783 80.251c-3.8068 1.8629-6.5569 5.1781-9.6209 7.9966-0.8079 0.74318-1.7242 1.3545-2.6047 2.0061" fill="none" stroke-dasharray="0.26458332, 0.52916663" stroke-width=".26458"/>
<path d="m103.45 86.179c-3.6209 2.9669-7.4199 5.7181-11.299 8.3356" fill="none" stroke-dasharray="0.26458332, 0.52916663" stroke-width=".26458"/>
<path d="m108.08 89.143c-5.6183 1.2331-10.77 3.9385-15.638 6.9311-1.2567 0.77269-2.7739 1.3915-3.5491 2.7145l-0.04269 0.12008-0.03532 0.23701" fill="none" stroke-dasharray="0.26458332, 0.52916663" stroke-width=".26458"/>
<path d="m109.75 93.033c-1.3286-0.53232-2.5913 0.42765-3.7562 0.96414-4.8924 2.2532-10.191 3.5178-14.953 6.0748-0.98608 0.52956-1.7395 1.4083-2.2228 2.4081" fill="none" stroke-dasharray="0.26458332, 0.52916663" stroke-width=".26458"/>
<path d="m88.262 105.26c3.0657-2.4966 7.1077-3.0154 10.749-4.231 3.2958-1.1002 6.5666-2.2578 9.9659-3.0573 0.38366-0.09024 0.77478-0.16129 1.1428-0.30636" fill="none" stroke-dasharray="0.26458332, 0.52916663" stroke-width=".26458"/>
<path d="m94.375 106.74c3.8748-2.2633 8.1369-3.8915 12.54-4.7379 1.3612-0.26167 2.7432-0.4456 4.1314-0.44875" fill="none" stroke-dasharray="0.26458332, 0.52916663" stroke-width=".26458"/>
<path d="m87.521 89.328c0.34707-0.79726 1.1635-1.1588 1.7519-1.7507 2.1007-2.1135 4.3343-4.0909 6.6604-5.9497 0.345-0.2757 0.87231-0.78081 1.1216-0.91006 0 0-0.08684 0.08964-0.08684 0.08964" fill="none" stroke-dasharray="0.26458332, 0.52916663" stroke-width=".26458"/>
<path d="m85.854 93.773c2.5334-2.9539 5.7176-5.2311 8.783-7.604 0.64572-0.49984 1.2291-1.0942 1.9607-1.4725" fill="none" stroke-dasharray="0.26458332, 0.52916663" stroke-width=".26458"/>
<path d="m87.336 96.367c2.7382-3.4044 6.4427-5.8172 10.078-8.1317 1.2059-0.76776 2.4475-1.4838 3.6171-2.3058 0 0-0.0262-0.0032-0.0262-0.0032l-0.14649 0.06748" fill="none" stroke-dasharray="0.26458332, 0.52916663" stroke-width=".26458"/>
<path d="m88.818 99.516c1.2529-1.5441 3.0954-2.4159 4.8105-3.3257 3.2204-1.7084 6.5422-3.2582 9.998-4.3983 1.3365-0.44095 2.6755-0.87647 4.0253-1.2751l-0.0826 0.03073s-0.22761 0.07702-0.22761 0.07702" fill="none" stroke-dasharray="0.26458332, 0.52916663" stroke-width=".26458"/>
<path d="m91.782 99.145c2.8461-1.4781 5.8831-2.5552 9.028-3.2203 3.1377-0.66357 6.3899-0.5414 9.5274-1.1579 0.58753-0.11544 2.2559-0.25278 2.0688-0.25278h-0.80394" fill="none" stroke-dasharray="0.26458332, 0.52916663" stroke-width=".26458"/>
<path d="m94.56 101.74c3.5106-2.1214 7.8059-3.0315 11.789-2.3741 1.1929 0.19686 2.4012 0.20599 3.6015-0.03243 0.48315-0.09596 0.97121-0.18747 1.4657-0.18677" fill="none" stroke-dasharray="0.26458332, 0.52916663" stroke-width=".26458"/>
<path d="m65.607 44.09c0.54391-0.66086 1.1273-1.3255 1.9818-1.6041 1.1176-0.36439 2.3579-0.85659 3.5103-0.49342 0.68982 0.2174 1.4607 0.21139 2.1703 0.52573" fill="none" stroke-width=".26458px"/>
<path d="m65.607 44.09c0.69767 0.25768 1.4675 0.13323 2.1649 0.34508 0.76745 0.23312 1.6099 0.11539 2.3738-0.06613 0.83192-0.19767 1.6568-0.55579 2.2068-1.1958 0.22489-0.26172 1.005-0.45459 0.98579-0.62692l-0.06892-0.02799" fill="none" stroke-width=".26458px"/>
<path d="m66.72 42.453c-0.60834 0.39881-1.012 1.0892-1.668 1.3957-0.25899 0.12101-1.0267 0.01704-0.83461 0.26022 0.17749 0.22469 0.56073 0.13937 0.82802 0.15118 0.49095 0.02169 1.0005-0.04024 1.4781 0.09211" fill="none" stroke-width=".26458px"/>
<path d="m72.156 42.256c0.16333 0.24496 0.2313 0.56931 0.1063 0.84806-0.05596 0.12478-0.14104 0.2345-0.23728 0.33078" fill="none" stroke-width=".26458px"/>
<path d="m67.113 42.387c0.95669-0.62907 2.113-1.0358 3.2514-1.0042 0.67801 0.0188 1.3158 0.27019 1.9865 0.36441 0.37764 0.05304 1.2766 0.54532 1.1455 0.50623-0.57472-0.17133-1.09-0.48458-1.686-0.56683-1.2932-0.17845-2.7021-0.38178-3.9114 0.12687-0.35594 0.14971-0.48974 0.28025-0.75786 0.54543l-0.02598 0.02598-0.0021 0.0021z" stroke-width=".26458px"/>
<path d="m73.27 42.125c0.79125 0.54446 1.7546 0.12286 2.5567-0.13298 0.40129-0.12799-0.7385 0.17593-0.98647 0.26696-0.46493 0.17069-1.8178-0.05406-1.5094-0.16362 0.48582-0.17256 1.7469-0.90502 1.5676-0.76158-0.50104 0.40076-1.0984 1.0958-1.6285 0.79121-0.28463-0.16353-1.113-0.5417-0.32135-0.37446 0.40781 0.08616 1.1568-0.78815 1.0196-0.71096-0.6416 0.36086-1.4251 0.94379-2.1163 0.65541-0.58078-0.24233 0.59535-0.12606 0.83532-0.38011 0.21511-0.22774 1.0681-0.77694 0.28719-0.44232-0.66682 0.28574-2.8299 0.58752-2.0982 0.63438 0.26269 0.01683 0.92872-0.88379 0.87867-0.81206-0.35093 0.50293-2.1436 0.52441-1.6643 0.60168 0.46058 0.07425 1.0353-0.94615 0.8937-0.82137-0.37569 0.33106-1.7918 1.125-1.3817 0.86392 0.3335-0.21237 0.46049-0.80769 0.10162-0.19207-0.15762 0.27038-0.82604 0.21885-0.2691 0.01649 0.11882-0.04317-0.24534 0.21938-0.29096 0.24108" stroke-width=".18521"/>
<path d="m67.572 42.518c-0.29458 0.40752-0.66674 1.0898-0.20855 1.4791 0.57699 0.49015 1.4187 0.47526 2.1164 0.3554 0.65187-0.11199 1.5458-0.10692 1.8735-0.71257 0.24665-0.45587 0.28672-1.2034-0.14671-1.5176-0.1914-0.13874-0.45397-0.14855-0.62199-0.3247" fill="none" stroke-width=".26458px"/>
<path d="m68.685 42.191c-0.43642 0.04041-0.66864 0.53293-0.44346 0.94885 0.16276 0.30064 0.30499 0.72821 0.70972 0.75959 0.40114 0.0311 0.91693 0.05091 1.1745-0.26764 0.19376-0.2396 0.44869-0.51212 0.4373-0.81991-0.01708-0.46154-0.44245-0.83008-0.85975-0.93831-0.11992-0.0311-0.26835-0.03905-0.36344 0.05546" fill="none" stroke-width=".26458px"/>
<path d="m70.126 42.387c-0.20808-0.12419-0.46508-0.11235-0.70331-0.09902-0.15458 0.0086-0.23864 0.16365-0.1341 0.30333 0.10132 0.13538 0.28129 0.17348 0.43757 0.1958 0.15841 0.02262 0.37586 0.09342 0.48585-0.04006 0.09514-0.11545-0.01866-0.2615-0.086-0.36005z" fill="none" stroke-width=".26458px"/>
<path d="m72.353 43.893c0.59006-0.19151 0.84004-0.8273 1.3555-1.1326 0.17911-0.10608 0.40988-0.0261 0.6092-0.04624" fill="none" stroke-width=".26458px"/>
<path d="m65.149 42.584c0.33168-0.87338 1.2559-1.3203 2.0925-1.5775 0.65764-0.20216 1.3449-0.31727 2.0334-0.32174" fill="none" stroke-width=".26458px"/>
<path d="m70.323 45.269c1.6601 0.1281 3.0687-0.90846 4.4393-1.7943 0.28512-0.18429 0.66646-0.14651 0.93096-0.36687" fill="none" stroke-width=".26458px"/>
<path d="m44.257 43.566c0.72602-0.15034 1.3812-0.7942 2.2064-0.78396 0.81435 0.0101 1.6147-0.18313 2.4648 0.02843 1.1729 0.2919 2.2977 0.75544 3.3842 1.2795" fill="none" stroke-width=".26458px"/>
<path d="m44.65 43.763c0.84416 0.25097 1.1401 1.2699 2.0774 1.4165 0.77176 0.12068 1.5515 0.42731 2.335 0.26311 0.69166-0.14497 1.4048-0.24617 2.0398-0.54884 0.45379-0.21628 0.85663-0.581 1.2758-0.86878" fill="none" stroke-width=".26458px"/>
<path d="m47.204 42.977c-0.5585 0.22692-0.50682 0.88499-0.36869 1.444 0.12115 0.49029 0.51001 0.82266 1.0332 0.89211 0.57934 0.07691 1.3352 0.47133 1.7612 0.0592 0.32996-0.31917 0.9012-0.4125 1.081-0.85405 0.16752-0.41132 0.24968-1.1537-0.3632-1.2138" fill="none" stroke-width=".26458px"/>
<path d="m48.776 42.911c-0.31408-0.1598-0.64067 0.04666-0.83383 0.30357-0.20022 0.26629-0.0613 0.68587 0.04026 0.98094 0.11214 0.32578 0.50199 0.60859 0.81581 0.42346 0.22574-0.13317 0.44411-0.05789 0.69039-0.22999 0.31991-0.22355 0.47944-0.68837 0.25665-1.0381-0.20417-0.32051-0.60728-0.44236-0.96928-0.43987z" fill="none" stroke-width=".26458px"/>
<path d="m49.365 43.304c-0.17861-0.06005-0.42945-0.12593-0.56588 0.03478-0.12484 0.14706-0.02721 0.35714 0.09198 0.47325 0.10679 0.10402 0.27717 0.07138 0.4026 0.02774 0.13257-0.04613 0.33408-0.12194 0.31708-0.28243-0.01359-0.12835-0.14371-0.1985-0.24578-0.25334z" fill="none" stroke-width=".26458px"/>
<path d="m46.68 42.322c1.3494-0.09742 2.7619 0.07756 3.9949 0.65491" fill="none" stroke-width=".26458px"/>
<path d="m44.126 43.239c-0.43293 0.4349-1.1525 0.11852-1.695 0.22084-0.22817 0.04303-1.0427-0.06155-0.39913-0.14309 0.5742-0.07275 1.0831-0.22486 1.7147-0.20244 0.26674 0.0095 0.61093 0.21306 0.15173-0.05147-0.42019-0.24205-1.8097-0.64763-1.3441-0.54425 0.60675 0.13471 1.242 0.54596 1.8754 0.31551 0.71177-0.25897-1.2942-0.19782-0.94434-0.39025 0.2387-0.1313 0.95205 0.32712 1.3355 0.17634 0.17866-0.07025 0.82166-0.01646 0.30338-0.21334-0.1851-0.07031-0.76987-0.52833-0.68269-0.4483 0.35352 0.32457 1.1932 0.98537 1.3462 0.52281 0.05913-0.17883-0.64808-0.70262-0.55264-0.57892 0.1823 0.23629 1.4371 0.37972 1.1023 0.18826-0.19403-0.11096-0.5929-0.82523-0.2233-0.32012 0.25005 0.34173 1.293 0.33174 1.0635 0.37896-0.65816 0.13547-1.2703 0.42053-1.9337 0.54381-0.42415 0.07883-0.71512 0.42683-1.1179 0.54564z" stroke-width=".18521"/>
<path d="m47.597 41.863c1.291 0.33284 2.7281-0.09044 3.9323 0.55918 0.39945 0.21549 0.77025 0.4809 1.176 0.68514" fill="none" stroke-width=".26458px"/>
<path d="m51.985 43.435c0.16642 0.21821 0.46602 0.29667 0.70749 0.41801 0.26635 0.13385 0.98478 0.17375 0.79856 0.40872-0.15155 0.19122-0.48314 0.15561-0.7177 0.1659-0.55005 0.02414-1.234 0.08261-1.5087 0.64464" fill="none" stroke-width=".26458px"/>
<path d="m45.894 43.042c-0.45696 0.01523-0.88215 0.46707-0.78387 0.93352 0.01315 0.06239 0.03495 0.12284 0.06347 0.17983" fill="none" stroke-width=".26458px"/>
<path d="m44.192 43.763c-0.17948 0.05179-0.54939-0.0022-0.53157 0.18645 0.01449 0.15341 0.32295 0.12072 0.45921 0.12806 0.19859 0.0107 0.45444-0.12628 0.59628 0.01294 0.1658 0.16274 0.35839 0.2954 0.52393 0.45844" fill="none" stroke-width=".26458"/>
<path d="m44.65 45.596c0.83902 0.49378 1.8235 0.38906 2.8348 0.63718 0.44478 0.10913 0.8488-0.08775 1.281-0.15927 0.06829-0.0113 0.13733-0.01935 0.20664-0.01947" fill="none" stroke-width=".26458px"/>
<path d="m53.819 41.077c0.83278 0.66578 1.7024 1.4477 1.9304 2.5473 0.08077 0.38952 0.09924 0.78884 0.09983 1.1857" fill="none" stroke-width=".26458px"/>
<path d="m63.511 40.226c-1.6368 1.3036-2.2204 3.5137-2.1449 5.4963 0.02994 0.78626-0.14957 1.5925 0.03305 2.3642l0.08165 0.12934" fill="none" stroke-width=".26458px"/>
<path d="m53.295 53.324c-0.31088 0.828-0.86674 1.7208-0.6323 2.5853 0.12326 0.45454 0.50631 0.81041 0.82877 1.1476 0.43152 0.4513 1.0763 0.56938 1.5718 0.91687" fill="none" stroke-width=".26458px"/>
<path d="m55.194 57.319c0.17708-0.85647 1.5271-0.38448 1.9158 0.08434 0.52816 0.63706 1.2284 0.89477 2.0601 1.07 0.90057 0.1898 1.8718-0.25134 2.4652-0.932 0.52487-0.60205 1.371-1.5731 2.1996-0.85992l0.09915 0.08312 0.10139 0.09597" fill="none" stroke-width=".26458px"/>
<path d="m64.625 52.342c0.88707 0.80262 1.6539 2.0387 1.2708 3.262-0.38762 1.2375-1.8027 1.6668-2.9735 1.6499" fill="none" stroke-width=".26458px"/>
<path d="m55.26 52.407c-0.37278 0.80399-0.57414 1.7463-0.3261 2.6108 0.03317 0.11561 0.07582 0.22864 0.12963 0.33627" fill="none" stroke-width=".15875"/>
<path d="m55.914 46.186c0.1573 1.6627-0.24567 3.3174-0.26196 4.9773" fill="none" stroke-width=".21167"/>
<path d="m49.758 57.254c-1.1687 0.3046-2.4366 0.45672-3.4383 1.1887-0.47648 0.34818-0.5914 0.99021-0.29468 1.4964" fill="none" stroke-width=".26458px"/>
<path d="m69.209 55.944c0.88031 0.99702 2.1947 1.4596 3.1236 2.3994 0.41185 0.41667 0.19079 1.0225-0.04556 1.4646" fill="none" stroke-width=".26458px"/>
<path d="m49.758 61.183c1.7406 0.47583 2.6019 2.0728 4.4993 2.5944 2.0531 0.56441 4.2795 1.0738 6.3389 0.34552 2.0799-0.73556 4.5226-0.32864 6.388-1.3979 1.158-0.6638 2.3924-1.2064 3.6654-1.6075" fill="none" stroke-width=".26458px"/>
<path d="m51.92 62.12c1.5124 0.22347 2.9572-1.0636 4.4182-0.69113 1.4246 0.36312 2.9201 1.4986 4.403 0.48275 1.5055-1.0313 2.858-0.55426 4.6832-0.39058 1.1384 0.10209 2.9235 0.48244 3.5232-0.12144" fill="none" stroke-width=".26458px"/>
<path d="m50.738 61.899c1.4685 1.2597 1.9509 3.1568 3.6688 4.3628 1.4155 0.9937 3.1735 1.238 4.8415 1.0668 1.7818-0.18281 3.4157-0.8133 5.1166-1.491 1.7925-0.71422 2.6861-2.616 4.3207-3.5532 0 0 0.33081-0.0825 0.33081-0.0825" fill="none" stroke-width=".25455px"/>
<path d="m52.836 63.737c0.24647 0.47218 0.33527 1.0455 0.73667 1.4226 0.09221 0.08663 0.19805 0.15823 0.31118 0.21463" fill="none" stroke-width=".079375"/>
<path d="m58.731 69.173c0.80772-0.02183 1.6154-0.04366 2.4232-0.06549" fill="none" stroke-width=".10583"/>
<path d="m71.436 63.082c-1.2011 0.88737-2.2719 1.9962-2.9471 3.34" fill="none" stroke-width=".15875"/>
<path d="m48.056 60.397c0.22552 0.23756 0.39837 0.50736 0.62626 0.75318 0.07663 0.08266 0.31304 0.33288 0.27085 0.28794-0.31369-0.33414-0.5947-0.70326-0.82729-1.0972-0.07101-0.12026-0.35087-0.50236-0.06363-0.44143 0.37896 0.08039 0.71726 0.28687 1.045 0.48456 0.04275 0.02578 0.08562 0.05138 0.1276 0.0784" fill="none" stroke-width=".15875"/>
<path d="m70.519 60.201c0.23893-0.11012 0.4761-0.26225 0.74245-0.27451 0.2094-0.0096 0.1061 0.24193 0.05396 0.35127-0.10436 0.21883-0.23027 0.4265-0.33797 0.64365" fill="none" stroke-width=".15875"/>
<path d="m74.448 56.271c0.60159-0.05585 1.2261-0.21734 1.6984-0.6038 0.1064-0.08706 0.204-0.1893 0.26633-0.31307" fill="none" stroke-width=".26458px"/>
<path d="m62.922 52.407c0.03766 0.15625 0.08798 0.30911 0.13359 0.46315 0.10642 0.35939 0.21955 0.71878 0.2794 1.0892 0.02249 0.1392 0.0462 0.28146 0.02835 0.42247-0.0063 0.04969-0.03001 0.09371-0.06057 0.13482-0.08578 0.11539-0.15968 0.23994-0.22046 0.37001-0.04488 0.09603-0.08849 0.19517-0.10308 0.30148-0.0058 0.04244 0.01198 0.09877 0.06272 0.09991l0.0054 3.89e-4 0.0056 1.3e-4" fill="none" stroke-width=".15875"/>
<path d="m62.791 37.41c-0.0505 0.13333-0.06701 0.27687-0.06711 0.4187-8.2e-5 0.10964 0.0016 0.21928 0.0016 0.32892 0 0.07825-0.0019 0.15652 0 0.23474 9.62e-4 0.03965 0.02703 0.07748 0.01842 0.11666-6e-3 0.02718-0.04123 0.01279-0.03747-0.01433 0.0074-0.05367 0.03319-0.10262 0.05733-0.15038 0.04776-0.0945 0.12442-0.17531 0.1567-0.27606 0.02539-0.07927 0.04561-0.16021 0.06843-0.24029 0.05129-0.18 0.09581-0.36316 0.16992-0.53522 0.02019-0.04689 0.03884-0.09608 0.0725-0.13547 0.02093-0.0245 0.03605 0.0079 0.03823 0.02858 0.0086 0.08131 6.04e-4 0.16326-0.0061 0.24438-0.02164 0.26075-0.06523 0.52016-0.06845 0.78198-7.99e-4 0.0649 0.0058 0.12948 0.01295 0.19459 0.0032 0.02876 0.03392 0.0472 0.05917 0.02576 0.0441-0.03746 0.07329-0.08894 0.10081-0.13889 0.05995-0.10882 0.11508-0.2206 0.16107-0.33597 0.04562-0.11444 0.07451-0.23452 0.11342-0.35122" fill="none" stroke-width=".10583"/>
<path d="m63.642 37.606c0.02836 0.17028-0.0071 0.34185-0.04006 0.50871-0.01971 0.09992-0.03449 0.20102-0.03332 0.30346 9.74e-4 0.08541 0.0039 0.17079 0.01404 0.25562 4e-3 0.03371-0.0195 0.06608-0.05944 0.05108-0.04081-0.01533 0.0032-0.06018 0.01783-0.082 0.08191-0.12222 0.15462-0.25368 0.19117-0.39698 0.01533-0.06008 0.01279-0.12608 0.04069-0.18145 0.07679-0.15234 0.1636-0.30011 0.22246-0.46107 0.05569-0.1523 0.11796-0.30173 0.17048-0.4558 0.0067-0.01972 4.47e-4 -0.08031 0-0.06549-0.0043 0.14407-0.02075 0.28744-0.03388 0.4309-0.02756 0.30111-0.06494 0.60221-0.06629 0.90476-3.92e-4 0.08745 0.01197 0.17422 0.016 0.26212 0.0012 0.02663 0.03842 0.07174 0.05353 0.02932 0.0259-0.07272 0.0242-0.15122 0.03691-0.22676 0.04979-0.29586 0.1651-0.57707 0.19805-0.87665 0.02107-0.19157-0.01893-0.39244 0.03762-0.57655 0.0072-0.02355 0.0044-0.09819 0.03082-0.07664 0.04061 0.03308 0.0104 0.09517-0.0016 0.13666-0.01391 0.04817-0.0092 0.09835-0.0092 0.14773-1.24e-4 0.43074 0.02838 0.86244-1.86e-4 1.2922-0.0037 0.0554-0.02132 0.10788-0.02836 0.16344-0.0027 0.0217 0.02563 0.03951 0.03499 0.0095 0.0839-0.26876 0.16445-0.53861 0.2404-0.80971 0.02839-0.10134 0.06789-0.20035 0.08428-0.30431 0.02173-0.13782 0.05387-0.27571 0.05133-0.41527-2.25e-4 -0.01236 0.01185-0.03857 0.0122-0.01075 0.0026 0.20725-0.02424 0.41557-3e-3 0.62177 8e-3 0.07766 0.02202 0.15468 0.03525 0.23163 0.0319 0.18551 0.03418 0.38108 0.1081 0.55432 0.01201 0.02814 0.0307 0.11855 0.04188 0.08967 0.01515-0.03913 0.01053-0.08289 0.01251-0.12424l2.6e-5 -0.0061 9e-6 -0.0063" fill="none" stroke-width=".10583"/>
<path d="m65.018 37.148c0.14649 0.21641 0.30104 0.43158 0.50156 0.60202 0.10996 0.09346 0.23067 0.17317 0.35049 0.25322 0.09594 0.0641 0.20251 0.11046 0.31358 0.14215 0.11058 0.03156 0.22311 0.05423 0.33361 0.08705 0.06645 0.01974 0.13395 0.07475 0.20085 0.05528 0.03757-0.01094-0.02245-0.05112-0.03898-0.06569-0.17579-0.15504-0.39199-0.25635-0.61226-0.33078-0.22446-0.07584-0.45656-0.13056-0.69177-0.15828-0.1112-0.0131-0.22513-0.015-0.33374 0.0096-0.04308 0.0097-0.02016-0.04533 0.01362-0.03209 0.06493 0.02545 0.11726 0.07382 0.17133 0.11644 0.10446 0.08233 0.2163 0.15497 0.32947 0.22464 0.16884 0.10393 0.35335 0.18 0.52292 0.28235 0.07213 0.04354 0.13296 0.10306 0.20596 0.14563 0.05017 0.02926 0.04948-0.04119 0.01992-0.06739-0.06151-0.05453-0.14229-0.0799-0.21882-0.10539-0.04985-0.0166-0.1061-0.01795-0.15088-0.04537-0.081-0.04959-0.15631-0.10806-0.23198-0.16536-0.21844-0.16542-0.44302-0.3245-0.64435-0.51047-0.03616-0.0334-0.11874-0.05663-0.10516-0.1043 0.01195-0.04192 0.06181 0.0045 0.08 0.02199 0.04062 0.03914 0.09308 0.06115 0.14124 0.08917 0.34371 0.20001 0.68479 0.40827 1.0507 0.56521 0.12096 0.05188 0.24318 0.11021 0.37487 0.12533 0.04522 0.0052 0.10944 0.0099 0.13253-0.03733 0.02234-0.04573-0.0069-0.09614-0.03401-0.13237-0.081-0.10819-0.1873-0.19408-0.29284-0.277-0.27286-0.21435-0.57386-0.39049-0.84521-0.60642-0.05008-0.03985-0.11005-0.07326-0.14293-0.1289-0.02837-0.04802 0.04019-0.04973 0.07271-0.03992 0.11226 0.03386 0.21558 0.09145 0.31707 0.14893 0.35033 0.19839 0.6709 0.44557 1.0207 0.64437 0.12426 0.07062 0.24886 0.14127 0.37794 0.20266 0.05484 0.02608 0.14992 0.13379 0.16639 0.07511 0.0091-0.03258-0.04411-0.04589-0.06231-0.06717" fill="none" stroke-width=".10583"/>
<path d="m65.018 37.148c0.17464-0.13098 0.40419-0.21041 0.52393-0.39295 0.02353-0.03588 0.0081-0.08785-0.04474-0.07067-0.02792 0.0091-0.14348-0.01329-0.07832-0.02071 0.04307-0.0049 0.07554 0.03813 0.10312 0.06612 0.06759 0.06859 0.13237 0.13975 0.20432 0.20417 0.30768 0.27549 0.60766 0.58772 0.99445 0.73796 0.15066 0.05852 0.30431 0.10921 0.45757 0.16048 0.29525 0.09877 0.63774 0.10488 0.88772 0.2905 0.05193 0.03856 0.06742-0.05528 0.01167-0.05949-0.25556-0.01929-0.51174 0.0015-0.76753 0.0015" fill="none" stroke-width=".10583"/>
<path d="m65.018 37.148c0.37109-0.04365 0.76674-0.27177 1.1133-0.13098 0.11658 0.04735 0.22204 0.11908 0.3304 0.18271 0.15803 0.0928 0.30393 0.20885 0.47139 0.28309 0.20544 0.09108 0.42563 0.16009 0.60753 0.29379 0.08265 0.06075-0.05193 0.01747-0.08712-9.6e-4 -0.26709-0.13992-0.50291-0.33231-0.72224-0.53705-0.24138-0.22532-0.47029-0.46934-0.64536-0.75006-0.0548-0.08787-0.06153-0.23349-0.15969-0.2667-0.04147-0.01403-0.09143-0.07325-0.01899-0.07478 0.1023-0.0022 0.18766 0.06953 0.26442 0.12872 0.40289 0.31066 0.86204 0.53639 1.3146 0.76434 0.15871 0.07994 0.31769 0.16032 0.48788 0.21401 0.1051 0.03316 0.38216 0.18033 0.31836 0.09035-0.07537-0.1063-0.20257-0.14999-0.30266-0.22884-0.27837-0.21928-0.57898-0.43176-0.93302-0.50456-0.28311-0.05821-1.136 0.02805-0.86163-0.05408 0.0712-0.02131 0.12643 0.03761 0.1756 0.07824 0.2837 0.23444 0.60962 0.4167 0.95299 0.54717 0.25566 0.09715 0.51516 0.20629 0.78742 0.22869 0.15848 0.01304 0.32202 0.21805 0.45216 0.13046 0.03733-0.02513 0.09392 0.03911 0.03502 0.03612-0.09169-0.0047-0.17812-0.05892-0.23822-0.12311-0.0358-0.03824-0.18315-0.1087-0.13189-0.11056 0.08387-0.0031 0.32649 0.07002 0.24563 0.05079-0.23178-0.05512-0.4599-0.12603-0.68771-0.19584-0.49259-0.15096-0.96806-0.6668-1.4584-0.50941-0.02518 0.0081-0.10319-0.0082-0.03451-0.0044 0.18714 0.01045 0.37263 0.04761 0.54889 0.11473 0.60018 0.22857 1.1777 0.51564 1.803 0.68156 0.1854 0.0492 0.36556 0.10345 0.5534 0.15714 0.03974 0.01136 0.11861 0.0038 0.05761-0.05027-0.2065-0.18311-0.45739-0.30641-0.70833-0.41564-0.44303-0.19283-0.90594-0.3352-1.3704-0.46833-0.11314-0.03243-0.23226-0.01656-0.34833-0.02164-0.11883-0.0052-0.26393 0.04643-0.35656-0.02962-0.05825-0.04783 0.07136-0.02176 0.09835-0.0169 0.60689 0.10938 1.209 0.24372 1.8141 0.36204 0.37977 0.07425 0.77798 0.07969 1.1413 0.21333 0.04748 0.01747 0.11091 2e-3 0.05926-0.05672-0.11726-0.13336-0.26554-0.23514-0.41204-0.33347-0.2935-0.19701-0.58763-0.40528-0.9204-0.52632-0.082-0.02983-0.25715-0.14958-0.25816-0.05858-6.27e-4 0.05674 0.09143 0.0885 0.1388 0.11515 0.14652 0.08245 0.29487 0.16182 0.4299 0.26376 0.2911 0.21975 0.62664 0.36826 0.94113 0.55057 0.09914 0.05747 0.40732 0.19565 0.29401 0.17853-0.12322-0.01862-0.23728-0.07509-0.3491-0.12747-0.4852-0.22728-0.96438-0.47048-1.4193-0.75329-0.09822-0.06106-0.31188-0.07759-0.28988-0.19152 0.0072-0.03712 0.10194 0.01483 0.13862 0.03056 0.32255 0.13836 0.6379 0.29323 0.96331 0.4251 0.21993 0.08913 0.43783 0.18508 0.66416 0.25684 0.23003 0.07294 0.45632 0.15594 0.68238 0.24446 0.03478 0.01362 0.1057 0.0805 0.02389 0.05489-0.21683-0.06787-0.42043-0.17191-0.62969-0.25959-0.19624-0.08222-0.39354-0.16177-0.5899-0.2439-0.44364-0.18556-0.88585-0.38952-1.3579-0.4883-0.17144-0.03587-0.34981-0.06022-0.52595-0.02518-0.03813 0.0076-0.08985 0.02598-0.0329 0.06921 0.06664 0.0506 0.13307 0.10274 0.21461 0.13046 0.22219 0.07552 0.46853 0.02449 0.6893 0.09551 0.36985 0.11898 0.73484 0.253 1.0971 0.39318 0.29152 0.11281 0.55709 0.32741 0.86882 0.35345 0.04401 0.0037 0.06214 0.07511 0.0066 0.04511-0.0623-0.03365-0.08721-0.12244-0.15423-0.14053-0.1473-0.03976-0.3014-0.03657-0.44859-0.0827-0.38897-0.12189-0.79045-0.21586-1.1591-0.38979-0.29953-0.14134-0.56251-0.35753-0.87718-0.46544-0.06549-0.02246-0.23538-0.10419-0.20472-0.04187 0.03278 0.06662 0.09943 0.11154 0.1571 0.15645 0.16339 0.12725 0.36176 0.19614 0.56164 0.24222 0.37389 0.08621 0.75752 0.12252 1.1282 0.22536 0.17524 0.04861 0.34252 0.12827 0.52153 0.16076 0.20724 0.03762 0.41404 0.07404 0.62025 0.12041 0.11359 0.02555 0.23212 0.06604 0.34916 0.04076 0.09194-0.01986 0.0712-0.11505 0.01839-0.17542-0.23816-0.27224-0.49234-0.53107-0.76277-0.77099-0.1254-0.11126-0.23837-0.24622-0.3911-0.31712-0.09382-0.04355-0.01752 0.08466 0.0049 0.12004 0.22871 0.36056 0.56974 0.63081 0.9275 0.85675 0.135 0.08526 0.28795 0.1383 0.42132 0.22622 0.04114 0.02712 0.17919 0.09095 0.13426 0.09284-0.14208 6e-3 -0.27369-0.06566-0.39212-0.1357-0.34286-0.20276-0.63-0.48595-0.96847-0.69441-0.27275-0.16798-1.1998-0.38843-0.88462-0.34721 0.03638 0.0048 0.1186 0.04522 0.17467 0.05927 0.19086 0.04782 0.38322 0.09199 0.56398 0.17424 0.48515 0.22075 0.94165 0.51966 1.4662 0.64212 0.11495 0.02683 0.46464 0.01399 0.351 0.04263-0.0711 0.01792-0.13073-0.03252-0.18856-0.06481-0.25052-0.13986-0.49793-0.28538-0.7546-0.41408-0.37628-0.18868-0.75416-0.38602-1.1618-0.49501-0.14399-0.0385-0.29307-0.06097-0.44552-0.04927-0.07575 0.0058-0.10954 0.08481-0.02091 0.11869 0.18692 0.07146 0.38804 0.09446 0.5849 0.12258 0.18987 0.02712 0.38366 0.02745 0.57157 0.06498 0.65067 0.12995 2.606 0.49858 1.9497 0.40143-0.05606-0.0083-0.13662-0.02535-0.20223-0.03835-0.06777-0.01343-0.13552-0.02694-0.20326-0.04049" fill="none" stroke-width=".10583"/>
<path d="m69.799 36.231c-0.34929-0.06549-0.72653-0.04469-1.0479-0.19648-0.04345-0.02053-0.14446-0.0018-0.13507-0.04912 0.0077-0.03874 0.08412-0.0468 0.12364-0.05341 0.21659-0.03621 0.43808-0.02177 0.65517 3.4e-4 0.55256 0.05628 1.0998 0.16203 1.6361 0.30489 0.32877 0.08758 0.66227 0.17144 0.96995 0.31832 0.07766 0.03707 0.28614 0.07596 0.22126 0.13388-0.03765 0.03361-0.0984-0.02098-0.13196-0.04773-0.08792-0.07006-0.1779-0.13727-0.27168-0.1995-0.37867-0.25127-0.74709-0.51722-1.1092-0.79255-0.07578-0.05763-0.14273-0.13604-0.23408-0.16436-0.05963-0.01849-0.0013 0.05954 0.01658 0.07866 0.10958 0.11699 0.24281 0.20825 0.37343 0.2998 0.20317 0.14239 0.42245 0.26227 0.61634 0.41711 0.11445 0.09139 0.2627 0.15495 0.33839 0.2804 0.0057 0.0095-0.03528-0.0326-0.04537-0.04723-0.04188-0.06076 0.05244-0.04155 0.0858-0.03175 0.12724 0.03738 0.22959 0.16995 0.3613 0.1615 0.03529-0.0023-0.03268-0.05268-0.04766-0.0667-0.23797-0.2228-0.49984-0.42042-0.77915-0.58852-0.15429-0.09286-0.36181-0.1181-0.47329-0.25988-0.03462-0.04403 0.02617-0.0027 0.02536 0.03569-1e-3 0.04867 0.03547 0.07417 0.07565 0.09769 0.27337 0.16005 0.48095 0.41891 0.77157 0.5495 0.07659 0.03442 0.15798 0.05691 0.23759 0.08344 0.06344 0.02115 0.12402 0.07207 0.19033 0.06344 0.07319-0.0095 0.14205 0.02432 0.21276 0.03722 0.04941 9e-3 0.10239 0.04492 0.15023 0.023 0.05337-0.02445 0.03156 0.06003-0.01456 0.03404-0.08937-0.05036-0.15923-0.12758-0.23753-0.19278-0.11442-0.09528-0.26889-0.10658-0.39723-0.17673-0.49771-0.27203-1.0082-0.52394-1.5474-0.70711-0.14847-0.05043-0.28142-0.13469-0.42906-0.18941-0.0388-0.01438-0.09561-1.43e-4 -0.09462 0.05031 1e-3 0.05192 0.0515 0.08505 0.08918 0.11206 0.16562 0.11866 0.34871 0.2103 0.53158 0.29878 0.32979 0.15956 0.66142 0.31742 1.0051 0.44443 0.24823 0.09174 0.50691 0.15413 0.76778 0.19574 0.07547 0.01204 0.19601 0.08817 0.22886 0.01884 0.01-0.02104-0.04926-0.03648-0.07212-0.04641-0.28911-0.12569-0.59767-0.19853-0.90528-0.26228-0.32013-0.06635-0.64117-0.12829-0.96342-0.18329-0.09903-0.0169-0.20509-0.08378-0.298-0.04581-0.02812 0.01149-0.0859 7e-3 -0.04975-0.03004 0.03536-0.03625 0.09098-0.0041 0.12746 0.01434 0.10763 0.05435 0.20848 0.12004 0.31655 0.17438 0.18225 0.09164 0.35864 0.19584 0.5509 0.26687 0.45613 0.1685 0.9404 0.24133 1.4215 0.29486" fill="none" stroke-width=".10583"/>
<path d="m71.239 36.559c0.18124-0.2015 0.33923-0.42203 0.50697-0.63463 0.03289-0.04168 0.08212-0.10681 0.14126-0.07596 0.10169 0.05304 0.19201 0.1249 0.28844 0.18716 0.2033 0.13127 0.44153 0.19799 0.64261 0.33171 0.0558 0.03711 0.07919 0.11668 0.15564 0.12417 0.07754 0.0076-0.02214-0.09172-0.0444-0.12122-0.07467-0.09893-0.13713-0.20615-0.21073-0.30615-0.17868-0.24278-0.42765-0.45007-0.52465-0.7375-0.01523-0.04512-0.0751-0.17807-0.04595-0.14939 0.14686 0.14447 0.21501 0.34831 0.36362 0.49298 0.15354 0.14946 0.33076 0.27082 0.50716 0.39217 0.1265 0.08702 0.22211 0.2192 0.36127 0.28659 0.04525 0.02191 0.01323 0.13408-0.0183 0.06619-0.05194-0.11184-0.12804-0.20895-0.20377-0.30575-0.18689-0.23889-0.24934-0.65172-0.54385-0.7292-0.01919-0.0051-0.10356-0.0315-0.04893-0.01509 0.08026 0.02411 0.14631 0.08126 0.20912 0.13448 0.17044 0.14442 0.34029 0.28959 0.51407 0.43004 0.20365 0.16459 0.36846 0.40083 0.61525 0.48866 0.06193 0.02204 0.01094-0.08238-0.01179-0.11023-0.12767-0.15642-0.2885-0.2817-0.4495-0.40162-0.21081-0.15703-0.42118-0.31834-0.65446-0.43998-0.15096-0.07871-0.36942-0.0057-0.48701-0.12474-0.04986-0.05045 0.03409 0.0099 0.05479 0.02696 0.30576 0.2526 0.62247 0.49663 0.88979 0.78997 0.06097 0.0669 0.18342 0.12336 0.169 0.21418-0.01114 0.07015-0.11702 0.01-0.16008-0.0092-0.24815-0.11059-0.47621-0.25983-0.72194-0.3758-0.33186-0.15662-0.67136-0.29635-1.013-0.42985-0.13438-0.05252-0.26991-0.10456-0.38597-0.20206-0.03167-0.0266-0.07377-0.13237 8e-3 -0.0893 0.04966 0.02614 0.0568 0.07142 0.09985 0.12538 0.04817 0.06038 0.12428 0.09009 0.18828 0.1315 0.22746 0.1472 0.45306 0.2971 0.68707 0.43423 0.1526 0.08942 0.28086 0.22827 0.44876 0.2831 0.03185 0.0104 0.16514 0.07591 0.09821 0.06906-0.07912-0.0081-0.13654-0.07719-0.18795-0.13156-0.15654-0.16553-0.23749-0.39038-0.3983-0.55026-0.06109-0.06074-0.20865-0.07615-0.20022-0.16182 0.0047-0.04816 0.09907-0.0033 0.13367 0.01293 0.23144 0.10832 0.44137 0.25607 0.65371 0.39692 0.17634 0.11697 0.33535 0.26576 0.52937 0.35054 0.12683 0.05542 0.26185 0.0909 0.39665 0.12071 0.07515 0.01662 0.16704 0.05179 0.2327 0.0055 0.06442-0.04538 0.01505-0.13107-0.01448-0.18244-0.07878-0.13701-0.17807-0.26022-0.24446-0.40594-0.06898-0.15141-0.09677-0.33941-0.22524-0.44595-0.04366-0.0362-1.34e-4 0.06817 0.0083 0.08855 0.08213 0.1983 0.17592 0.3934 0.2949 0.57191 0.10668 0.16006 0.16166 0.46328 0.35426 0.4557 0.04438-0.0017-0.01206-0.10022-0.0275-0.13593-0.04131-0.0955-0.10059-0.18077-0.16148-0.26514-0.15721-0.21783-0.33976-0.42671-0.43559-0.67828-0.01976-0.05188-0.07985-0.20803-0.03345-0.17103 0.11074 0.08829 0.20704 0.19357 0.307 0.2937 0.20495 0.20532 0.39738 0.42316 0.60763 0.62302 0.1232 0.11711 0.44856 0.48726 0.39116 0.32703-0.09435-0.2634-0.24704-0.49897-0.39897-0.73165-0.03208-0.04912-0.08782-0.18857-0.11524-0.1353-0.0274 0.05324 0.0166 0.12927 0.0465 0.17851 0.11437 0.1883 0.25565 0.36022 0.41732 0.50774 0.11647 0.10627 0.2126 0.25386 0.36191 0.30471 0.03924 0.01336-0.0076-0.07639-0.01929-0.09678-0.10369-0.18135-0.26076-0.33238-0.33069-0.53254-0.0249-0.07129-0.01241-0.27335 0.04277-0.21546 0.05949 0.06243 0.09732 0.1428 0.14029 0.21711 0.11669 0.2018 0.20693 0.421 0.34829 0.60659 0.05708 0.07494 0.03147-0.06394 0.02307-0.09973-0.06716-0.28614-0.11415-0.58311-0.24472-0.84632-0.01472-0.02967-0.01274-0.09849 0.02779-0.0476 0.12598 0.15814 0.14869 0.3662 0.24832 0.53937 0.08611 0.14968 0.16582 0.30375 0.26586 0.44448 0.03446 0.04848 0.07155 0.13988 0.13551 0.12146 0.0782-0.02253 0.01963-0.12058 8.09e-4 -0.16947-0.08697-0.22598-0.22741-0.43164-0.28994-0.66548-0.02172-0.08122 0.05441 0.02771 0.06894 0.04924 0.19547 0.28953 0.34612 0.60843 0.55077 0.89124 0.03197 0.04418 0.09377 0.19633 0.09505 0.14979 8e-3 -0.29156 0.06551-0.58723 0.01019-0.87594-0.01495-0.07804-0.0616-0.2798-0.11298-0.21072-0.03311 0.04452 0.0097 0.11898 0.02772 0.16864 0.06273 0.17245 0.14345 0.33771 0.22904 0.49967 0.09832 0.18606 0.21379 0.38236 0.40634 0.4828 0.06962 0.03632 0.14801 0.05539 0.22654 0.05508" fill="none" stroke-width=".10583"/>
<path d="m65.018 37.148c0.04779 0.18681 0.07299 0.37825 0.10922 0.56752 0.01249 0.06522 0.01504 0.13876 0.05838 0.19188 0.04308 0.05279 0.11625 0.06085 0.17928 0.06608 0.17067 0.01415 0.34198 0.01813 0.51275 0.03141 0.18065 0.01405 0.36827 0.04106 0.54405-0.01295 0.14757-0.04535 0.26593-0.15483 0.41557-0.19532 0.06491-0.01756 0.13421-0.0044 0.19265 0.02806 0.10884 0.06048 0.18419 0.1635 0.28029 0.24019" fill="none" stroke-width=".10583"/>
<path d="m65.018 37.148c0.57822 0.07523 1.125 0.28759 1.676 0.4675 0.46853 0.15297 0.95244 0.28806 1.4493 0.28685 0.1377-3.35e-4 0.27543-0.01128 0.41127-0.03395" fill="none" stroke-width=".10583"/>
<path d="m65.018 37.148c0.3603-0.11799 0.74769-0.14816 1.1226-0.09075 0.55343 0.08474 1.0607 0.33556 1.5961 0.48655 0.30655 0.08645 0.62483 0.1445 0.94449 0.13191 0.08898-0.0035 0.33128-0.06999 0.26694-0.0085-0.02871 0.02742-0.07193 0.04542-0.10889 0.0643-0.09382 0.04792-0.19057 0.08981-0.28479 0.13692" fill="none" stroke-width=".10583"/>
<path d="m67.31 38.065c0.10918-0.3273 0.06395-0.7562 0.32745-0.98236 0.0347-0.02978 0.06858 0.03264 0.098 0.04992 0.05423 0.03184 0.12184 0.02804 0.18306 0.03602 0.28344 0.03696 0.56611 0.08422 0.8516 0.10144 0.25169 0.01518 0.50497-0.01339 0.75592 0.0093 0.04235 0.0038 0.08054-0.01504 0.11922-0.0293 0.11408-0.04205 0.22933-0.08699 0.34987-0.10185 0.02496-0.0031 0.07201 0.02919 0.06074-0.02184-0.067018-0.3035-0.17196-0.59664-0.25722-0.89507" fill="none" stroke-width=".10583"/>
<path d="m69.799 36.231c-0.01772 0.10467-0.08393 0.19847-0.08361 0.30588 1.12e-4 0.0382 8.88e-4 0.09073 0.03706 0.1089 0.04854 0.02438 0.1045 0.0033 0.15197-0.01246 0.04939-0.01638 0.10067-0.0085 0.15032 4e-3 0.24279 0.06135 0.48312 0.13708 0.73127 0.17266 0.06093 0.0087 0.12392 0.02544 0.18464 0.01205 0.06983-0.0154 0.11975-0.07188 0.16117-0.12644 0.03517-0.04633 0.06683-0.09573 0.10799-0.13717" fill="none" stroke-width=".10583"/>
<path d="m68.947 36.231c0.08875 0.13432 0.21182 0.24096 0.33595 0.3415 0.12034 0.09747 0.263 0.17199 0.36183 0.29149 0.02847 0.03442 0.0702 0.05115 0.11261 0.06234 0.07323 0.01931 0.15292 0.02756 0.216 0.07252 0.0076 0.0054 0.01484 0.01143 0.02146 0.01805" fill="none" stroke-width=".10583"/>
<path d="m52.902 38.523c0.12353 0.1901 0.19076 0.40841 0.28356 0.61362 0.06063 0.13408 0.13532 0.26426 0.24037 0.36874" fill="none" stroke-width=".10583"/>
<path d="m53.426 38.392c0.02369 0.03504 0.03178 0.07788 0.04028 0.11855 0.03093 0.14794 0.03504 0.30061 0.06874 0.4478 0.0038 0.01665 8e-3 0.06674 0.01278 0.05017 0.01065-0.03686 0.0079-0.07713 0.0085-0.1155 5.29e-4 -0.03602 6.58e-4 -0.07205 6.65e-4 -0.10807" fill="none" stroke-width=".10583"/>
<path d="m53.426 38.392c0.01519-0.07257 0.01046-0.14639 0.01389-0.22039 0.0015-0.03194 0.04079-0.06158 0.06487-0.03595 0.02616 0.02784-0.0053 0.06647-0.02042 0.09266-0.02379 0.04133-0.05707 0.081-0.06189 0.12946-0.0038 0.03787 0.01927 0.07129 0.0368 0.10291 0.08284 0.14936 0.20783 0.26791 0.31588 0.3983 0.08111 0.09787 0.13631 0.21322 0.19089 0.32768 0.01481 0.03105 0.03288 0.12676 0.04347 0.09389 0.01382-0.0429 0.0077-0.09091 0.0074-0.13594-6.97e-4 -0.09806-0.0015-0.19611-0.0015-0.29417" fill="none" stroke-width=".10583"/>
<path d="m53.884 37.999c-5.53e-4 0.09584-0.01155 0.19189 0.0043 0.28768 0.04596 0.27829 0.10386 0.55541 0.12807 0.83643 0.0089 0.10335 0.0136 0.20796 0.0018 0.31088-1e-3 0.0091-0.0025 0.03672-0.0025 0.02752-2.43e-4 -0.11436-0.01064-0.22864-0.03036-0.34128-0.04092-0.23372-0.10924-0.46326-0.20846-0.67896-0.04547-0.09886-0.10378-0.1925-0.13345-0.29806-0.01334-0.04748-0.04199-0.19314-0.02429-0.14588 0.01833 0.04892 0.02644 0.10529 0.03514 0.15816 0.05296 0.3218 0.03939 0.65064 0.10176 0.97154 0.02598 0.13366 0.08198 0.2662 0.07227 0.40211-0.0013 0.01754 0.0064 0.07466-0.0053 0.05967-0.02927-0.03755-0.04337-0.08482-0.05984-0.12898-0.02671-0.07162-0.0513-0.14401-0.07553-0.2165" fill="none" stroke-width=".10583"/>
<path d="m52.312 37.868c-0.02695 0.0579 2.25e-4 0.12358 0.02613 0.17636 0.07927 0.16155 0.1909 0.30417 0.29758 0.4481 0.13585 0.18327 0.28933 0.3565 0.39475 0.55948 0.03232 0.06224 0.13859 0.20481 0.06651 0.20049-0.03977-0.0024-0.06778-0.06819-0.09421-0.10227-0.03723-0.04801-0.09034-0.07935-0.13723-0.11701-0.22228-0.17852-0.40245-0.40107-0.58702-0.61718-0.04662-0.05459-0.07706-0.13968-0.14686-0.15797-0.03388-0.0089-0.01027 0.05501-0.0051 0.07536 0.05001 0.19707 0.12151 0.38805 0.19876 0.57579 0.07126 0.17319 0.19619 0.32677 0.23568 0.51017 0.0093 0.04332 0.11926 0.07739 0.07848 0.08595-0.04234 0.0089-0.07498-0.03953-0.0996-0.06826-0.13494-0.1575-0.24856-0.33164-0.36543-0.50259-0.06462-0.09452-0.11186-0.20341-0.19298-0.28422-0.10328-0.10287-0.21764-0.19394-0.32455-0.29296-0.08576-0.07943-0.14995-0.18468-0.2491-0.24735-0.024-0.01517-0.0085-0.07735 0.01245-0.04004 0.02653 0.04715 0.02458 0.10377 0.05596 0.15066 0.04645 0.06942 0.09139 0.13979 0.13932 0.20825 0.11483 0.16401 0.26076 0.31084 0.33781 0.49731 0.01756 0.04249 0.05318 0.09469 0.02914 0.13531-0.02319 0.0392-0.07785 0.01172-0.10924-0.0029-0.06591-0.03059-0.13318-0.06043-0.1927-0.102-0.14419-0.1007-0.27121-0.2235-0.39827-0.34441-0.32122-0.30567-0.61676-0.63834-0.94933-0.93164-0.05412-0.04773-0.09844-0.11827-0.16881-0.1362-0.06333-0.01613-0.02216 0.06825-0.0051 0.09529 0.06124 0.09684 0.10934 0.20101 0.17045 0.29808 0.18002 0.28594 0.39354 0.5492 0.62086 0.79778 0.08485 0.09279 0.18789 0.16701 0.27048 0.26227 0.04277 0.04933-0.03368 0.05246-0.06937 0.04422-0.11532-0.02661-0.20814-0.10816-0.28788-0.19101-0.20222-0.21011-0.36118-0.45622-0.54134-0.68447-0.11105-0.14069-0.21141-0.30385-0.3697-0.39118-0.02235-0.01233-0.08223-0.06704-0.07473-0.01032 0.0066 0.04969 0.04379 0.08719 0.07262 0.12573 0.13294 0.17774 0.28198 0.34306 0.41254 0.52247 0.12093 0.16618 0.22991 0.341 0.36257 0.49871 0.11243 0.13366 0.19013 0.31073 0.34209 0.39696 0.02103 0.01194 0.11538 0.02272 0.05893 0.02145-0.04087-9.22e-4 -0.06726-0.04545-0.09092-0.0747-0.09525-0.11775-0.16297-0.25414-0.23364-0.38716-0.13902-0.26168-0.23367-0.54295-0.32963-0.82402-0.04169-0.12212-0.12417-0.22832-0.15568-0.35331-0.01495-0.05931 0.04925-0.0072 0.07008 0.0078 0.26221 0.18887 0.46168 0.44771 0.65398 0.70368 0.16993 0.22618 0.34505 0.44934 0.54827 0.6477 0.06471 0.06316 0.2072 0.09109 0.20159 0.18123-0.0019 0.02982-0.03518-0.02446-0.04353-0.03936-0.09964-0.17784-0.18132-0.365-0.2654-0.5505-0.09862-0.21757-0.18338-0.44156-0.28943-0.65557-0.06018-0.12145-0.05465-0.30352-0.17749-0.36652-0.02376-0.01218-0.02554-0.09607-0.0093-0.07444 0.24335 0.32323 0.4128 0.69801 0.6825 1.002 0.10088 0.11372 0.21387 0.21597 0.3159 0.32864 0.06195 0.0684 0.1469 0.12514 0.17806 0.21239 0.01771 0.04959-0.03981-6.42e-4 -0.05345-0.01871-0.09378-0.12426-0.16593-0.26306-0.23848-0.40028-0.13241-0.25045-0.24298-0.51202-0.3771-0.76147-0.04488-0.08347-0.0974-0.16253-0.1476-0.2434-0.0232-0.03737-0.03668-0.0018-0.03536 0.02858 0.0088 0.20173 0.10669 0.3866 0.21811 0.54989 0.24059 0.35258 0.56342 0.63831 0.81967 0.97826 0.05221 0.06927 0.10164 0.14115 0.14067 0.21879" fill="none" stroke-width=".10583"/>
<path d="m44.323 37.213c0.68772 0.36071 1.3761 0.74034 2.1311 0.94384 0.23083 0.06222 0.47369 0.06494 0.70505 0.12333 0.07266 0.01834 0.18087-0.03785 0.05114-0.05727-0.08207-0.01229-0.16164-0.03399-0.23526-0.07575-0.06246-0.03543-0.13712-0.03875-0.20718-0.04859-0.12116-0.01703-0.23507-0.06216-0.34382-0.11729-0.41826-0.21208-0.83255-0.43477-1.2239-0.693-0.09601-0.06335-0.3449-0.10008-0.2835-0.19788 0.02797-0.04455 0.13152 0.01092 0.1811 0.03226 0.27727 0.11931 0.51888 0.30302 0.78572 0.44245 0.35812 0.18712 0.73262 0.34752 1.1222 0.45263 0.21225 0.05726 0.45507 0.03374 0.63979 0.15952 0.02776 0.0189 0.13481 0.04662 0.05962 0.0048-0.44884-0.2497-0.90451-0.48731-1.3495-0.74383-0.08765-0.05054-0.1784-0.20466-0.26374-0.15028-0.01697 0.01081 0.12363 0.1037 0.07767 0.08635-0.11896-0.0449-0.44725-0.23801-0.34308-0.16554 0.18737 0.13037 0.37739 0.25983 0.56643 0.38888 0.26601 0.18159 0.54755 0.33876 0.83643 0.48123 0.28455 0.14033 1.1543 0.48491 0.83793 0.45208-0.05049-0.0052-0.14288-0.05766-0.20116-0.09295-0.12349-0.07479-0.23222-0.17135-0.34293-0.26346-0.40876-0.34009-0.81755-0.68694-1.1606-1.0933-0.05092-0.06032-0.2251-0.17992-0.14585-0.18781 0.06178-0.0061 0.12367 0.0664 0.1724 0.10968 0.23861 0.21188 0.42493 0.48321 0.68444 0.66835 0.24402 0.17409 0.51 0.31314 0.75642 0.4843 0.14291 0.09926 0.57688 0.38566 0.44506 0.27231-0.05014-0.04311-0.11541-0.08298-0.1731-0.12269-0.42344-0.29148-0.8646-0.56546-1.2386-0.91924-0.09492-0.08979-0.20943-0.17367-0.2568-0.29821-0.03753-0.09868 0.08307-0.08825 0.14419-0.05873 0.21365 0.1032 0.4 0.25325 0.58684 0.39755 0.23865 0.18432 0.45276 0.40202 0.7069 0.56435 0.13492 0.08618 0.25436 0.22858 0.41443 0.24452 0.07252 0.0072 0.10801 0.08744 0.16451 0.12827 0.05221 0.03773 0.20786 0.15221 0.16272 0.10609-0.22119-0.22603-0.42085-0.47227-0.6104-0.72545-0.18066-0.24131-0.35882-0.4846-0.52899-0.73336-0.01998-0.02921-0.16193-0.12055-0.11169-0.05601 0.39238 0.50415 0.76962 1.0207 1.1815 1.5091 0.12966 0.15373 0.20574 0.38751 0.39475 0.45683 0.10704 0.03926 0.02123-0.08253 5.3e-5 -0.12495-0.239-0.47873-0.56681-0.92176-0.72124-1.4341-0.01332-0.04419 0.04336 0.05028 0.05403 0.06844 0.29878 0.50887 0.68029 0.98314 0.8685 1.5424 0.01673 0.04973 0.09685 0.11789 0.10472 0.02887 0.01011-0.11431-0.03656-0.2231-0.06311-0.3325-0.10534-0.43398-0.11618-0.96118-0.44694-1.2598-0.01918-0.01732-0.08021-0.12203-0.03834-0.06242 0.06415 0.09134 0.09929 0.19954 0.1403 0.3026 0.05479 0.1377 0.11969 0.27068 0.19529 0.39835 0.19777 0.33402 0.47281 0.62744 0.61607 0.98844 0.01444 0.03639 0.121 0.11741 0.09585 0.03478-0.03831-0.12585-0.11311-0.23661-0.17716-0.35057-0.09028-0.16065-0.16125-0.3313-0.21109-0.50918-0.04028-0.14375-0.05408-0.29433-0.10175-0.43636-0.06794-0.20245-0.18196-0.38969-0.23126-0.59743-0.01034-0.04356-0.03695-0.04618-0.0198 8.19e-4 0.0765 0.20962 0.18177 0.4075 0.28636 0.60413 0.20508 0.38554 0.34182 0.82788 0.65013 1.1375 0.03316 0.0333 0.1245 0.16573 0.11658 0.11428-0.01502-0.09754-0.07223-0.18306-0.11755-0.26913-0.07054-0.13396-0.1192-0.2783-0.17066-0.42038-0.07942-0.21927-0.23423-0.42822-0.22844-0.66154 0.0015-0.06085 0.05883 0.07778 0.07326 0.10534 0.19682 0.37581 0.43997 0.72829 0.58881 1.1287 0.07426 0.19981 0.15123 0.4219 0.32278 0.54716 0.0742 0.05418 0.05851-0.09592 0.0567-0.13953-0.0029-0.07101-0.01113-0.14176-0.01234-0.21284" fill="none" stroke-width=".10583"/>
<path d="m42.947 37.279c-0.14999 0.09623-0.31554 0.16463-0.48039 0.23065-0.31022 0.12423-0.62987 0.22761-0.92791 0.37997-0.12859 0.06574-0.40191 0.10154-0.35995 0.24076 6e-3 0.02004 0.04151 0.01163 0.05667 0.0039 0.05173-0.02651 0.09507-0.06658 0.13829-0.10486 0.04838-0.04285 0.10142-0.08023 0.15973-0.10902 0.46412-0.22922 0.95046-0.40998 1.4136-0.64136z" fill="none" stroke-width=".10583"/>
<path d="m43.471 37.082c-0.17222 0.0852-0.34565 0.16815-0.51304 0.2628-0.35938 0.20322-0.70747 0.42755-1.0839 0.59991-0.17341 0.07939-0.36033 0.14035-0.51076 0.25742-0.02103 0.01637-0.08837 0.052-0.06066 0.05646 0.03712 6e-3 0.07592-0.0037 0.11154-0.0143 0.14569-0.04349 0.27753-0.12178 0.40919-0.19592 0.11116-0.0626 0.21985-0.13114 0.33783-0.18048" fill="none" stroke-width=".10583"/>
<path d="m43.799 36.951c-0.29657 0.1344-0.5278 0.37098-0.75493 0.59758-0.20546 0.20498-0.41671 0.41357-0.67914 0.54559-0.09557 0.04808-0.24114 0.04751-0.28687 0.14464-0.01902 0.04041 0.07118 0.01599 0.09569 0.0014 0.11064-0.06602 0.16673-0.19058 0.27795-0.25881 0.29376-0.18021 0.63574-0.28262 0.89707-0.51359 0.17682-0.15628 0.25349-0.414 0.4659-0.5266 0.12741-0.06754 0.28048-0.0074 0.41028-0.06851 0.08643-0.04068 0.19871-0.06659 0.24369-0.15165 0.0292-0.05521-0.0738-0.02517-0.1019-0.0078-0.09487 0.05875-0.12034 0.19384-0.22792 0.23359-0.10476 0.0387-0.22085-0.07046-0.3155-0.01199-0.04802 0.02966-0.06468 0.09055-0.09131 0.13856-0.07238 0.1305-0.12823 0.27-0.20586 0.39736-0.05804 0.09522-0.1548 0.15604-0.24201 0.2213-0.15904 0.11902-0.33019 0.2263-0.4649 0.37228-0.02554 0.02768-0.10542 0.05811-0.06451-0.0069 0.06557-0.10414 0.1677-0.1783 0.26742-0.24686 0.31537-0.21686 0.65699-0.39148 0.99495-0.56984 0.16934-0.08937 0.34414-0.16878 0.50908-0.26618 0.09143-0.05399 0.17744-0.11917 0.27536-0.16128 0.0314-0.0135 0.05454-0.0036 0.02707 0.03294-0.1393 0.18536-0.31672 0.33774-0.49618 0.48259-0.29935 0.24161-0.60737 0.47416-0.93505 0.67536-0.03662 0.02248-0.1487 0.06955-0.12231 0.06012 0.2127-0.07597 0.40669-0.19475 0.59883-0.31146 0.39183-0.23802 0.76189-0.51372 1.1708-0.72179 0.11883-0.06046 0.24502-0.10337 0.37374-0.14486 0.03217-0.01037 0.07482 0.0057 0.02707 0.02856-0.15539 0.0744-0.31086 0.14892-0.45879 0.23793-0.38578 0.23214-1.2331 0.28223-1.1396 0.72429 2e-3 0.0097 0.06748-0.01799 0.09156-0.02698 0.11326-0.0423 0.22958-0.07672 0.3414-0.12244 0.15635-0.06394 0.30615-0.15487 0.47306-0.18238 0.07019-0.01157 0.14259-2e-3 0.21272 0.0066 0.22798 0.02815 0.46166 0.06103 0.66982 0.15933 0.04495 0.02123 0.14399 0.03338 0.12627 0.08225-0.01547 0.04265-0.09299 0.01978-0.13358 0.01482-0.26464-0.03234-0.52123-0.12497-0.78729-0.13742-0.21181-0.0099-0.44821 0.10184-0.63573 0.0031-0.04191-0.02206 0.02527-0.04699 0.06134-0.03598 0.10477 0.03196 0.19868 0.09116 0.30952 0.10854 0.48162 0.0755 0.97082 0.0043 1.4541 0.06359 0.13886 0.01705 0.55172 0.01699 0.41652 0.0532-0.04024 0.01078-0.11011 0.0038-0.16124 0.0031-0.4564-0.0068-0.91438-0.03341-1.3695 0.0056-0.10277 0.0088-0.21579-0.0045-0.3066 0.04626-0.06708 0.0375 0.06069 0.04563 0.08963 0.04935 0.14261 0.01832 0.28761 0.01355 0.42969 0.03412 0.29138 0.04219 0.58431 0.07692 0.87268 0.13671 0.08368 0.01735 0.16393 0.05698 0.24975 0.05881 0.02538 5.41e-4 0.05367-0.0014 0.01168-2e-3 -0.45393-0.0073-0.89333-0.13618-1.3432-0.18283-0.17936-0.0186-0.3598-0.01419-0.53979-0.01962-0.14066-0.0042-0.28508-0.0081-0.41974 0.03467-0.03263 0.01036-0.13138 0.03613-0.1086 0.03628 0.3061 0.0021 0.6128-0.02717 0.91871 0.0067 0.6344 0.07018 1.2715 0.12559 1.9103 0.12496" fill="none" stroke-width=".10583"/>
<path d="m46.942 36.886c0.1061 0.1028 0.19943 0.21792 0.29474 0.33055 0.44 0.51996 0.86102 1.0576 1.3346 1.5476 0.12814 0.1326 0.24635 0.28192 0.40464 0.37788 0.03502 0.02123 0.08943 0.07707 0.11795 0.04253 0.02897-0.03508-0.01196-0.08914-0.0299-0.12442-0.1175-0.23111-0.25335-0.45231-0.38907-0.67298-0.17044-0.27712-0.33674-0.55711-0.51872-0.82678-0.07777-0.11524-0.15943-0.22762-0.23185-0.34692-0.01315-0.02166-0.0101-0.09749 0.01041-0.04185 0.0245 0.06648 0.03689 0.13646 0.06907 0.20084 0.2486 0.49722 0.49056 1.005 0.83775 1.4423 0.10863 0.13683 0.21987 0.27468 0.3567 0.38411 0.0922 0.07374 0.20007 0.12352 0.30515 0.17953 0.04802 0.0256 0.06995-0.02107 0.07872-0.06196 0.0297-0.1386 0.01672-0.28188 2e-3 -0.42151-0.0201-0.19074-0.0584-0.37883-0.08802-0.56815" fill="none" stroke-width=".10583"/>
<path d="m49.365 37.475c0.11149 0.18129 0.23477 0.35548 0.3376 0.54192 0.07997 0.14498 0.15325 0.29386 0.21747 0.44643 0.06265 0.14883 0.10487 0.3097 0.19999 0.44189 0.08318 0.1156 0.2002 0.20022 0.31229 0.28589 0.03571 0.02729 0.09257 0.02851 0.11806-0.01457 0.04114-0.06953 0.04725-0.15314 0.05061-0.23184 0.0108-0.25276-0.01463-0.50517-0.0317-0.75709-0.01373-0.20256-0.04513-0.4063-0.02563-0.60878 0.0051-0.05284-0.0028-0.11861 0.03769-0.15602 0.03033-0.028 0.0942-0.01214 0.1062 0.02596 0.02197 0.06974-0.03818 0.14196-0.01639 0.20889 0.01633 0.05015 0.03917 0.09835 0.05915 0.14731 0.15307 0.37495 0.29896 0.75685 0.51688 1.0997 0.09583 0.15079 0.20158 0.30267 0.35034 0.40531 0.03867 0.02668 0.08044 0.0493 0.1251 0.0642" fill="none" stroke-width=".10583"/>
<path d="m86.965 74.694c1.5581 0.46837 3.5872 0.21745 4.6346 1.7227 0.63278 0.90946 0.95878 1.9833 0.84236 3.0639-0.16759 1.5555 1.5435 1.1255 2.5079 0.63661 0.94631-0.47977 2.1114-1.2751 3.2615-0.47486 1.0018 0.69702 0.42433 1.5147 0.8471 2.8789 0.32099 1.0357 2.377-0.0334 3.4598 0.84214 1.9475 1.5747 3.9415 3.1746 6.2398 4.2054 0 0 0.16409 0.05021 0.16409 0.05021s0.27125 0.04158 0.27125 0.04158" fill="none" stroke-width=".26458px"/>
<path d="m92.893 86.549c0.78704-1.0113 1.4442-2.1174 2.209-3.1452 0.46384-0.62333 0.7666-1.4794 1.4753-1.811 0.43796-0.20494 0.35135 0.56891 0.26216 0.82549-0.38008 1.0934-1.0734 2.0395-1.5983 3.0634-0.29226 0.57012-0.64074 1.1542-0.68098 1.8083" fill="none" stroke-width=".26458px"/>
<path d="m98.635 84.141c-0.75246 0.54852-1.1854 1.4357-1.3742 2.3286-0.06986 0.33039-0.10752 0.6679-0.10774 1.0057" fill="none" stroke-width=".26458px"/>
<path d="m94.375 88.957c-3.8045 4.714-5.8797 10.814-5.9276 16.857" fill="none" stroke-width=".26458px"/>
<path d="m88.077 90.439c-0.68169 1.5235-0.7667 3.2209-0.75394 4.8665 0.0037 0.47718 0.013 0.95432 0.01299 1.4315" fill="none" stroke-width=".26458px"/>
<path d="m86.595 102.48c-0.16433 1.4241 0.18381 2.8383 0.18523 4.2604" fill="none" stroke-width=".26458px"/>
<path d="m51.956 74.138c1.2765 1.0093 3.1839 1.9102 3.3343 3.5195 0.11541 1.2352 1.1174 2.1159 1.6951 3.2027 0.65182 1.2263 2.1244 1.2753 3.3186 1.5463 1.2796 0.2904 3.3752-0.57657 3.2926-2.03-0.07843-1.3796 0.86746-2.3343 1.9799-3.0513 1.2629-0.81399 3.0838-1.1019 3.7918-2.4462 0.83304-1.5816 1.0956-3.5554 2.3553-4.8191 0.43111-0.43245 1.0965-0.49979 1.5346-0.92321" fill="none" stroke-width=".26458px"/>
<path d="m52.697 82.659c1.799 0.76875 3.2616 2.164 5.1152 2.8258 0.86544 0.30896 1.9258 0.1861 2.5596-0.50227 0.60306-0.65502 1.6841-0.24801 2.3279-0.8416" fill="none" stroke-width=".26458px"/>
<path d="m55.105 80.251c0.38328 0.64296 1.0924 0.96839 1.7283 1.3066 0.51345 0.27307 1.2399 0.46918 1.3957 1.0541 0.06816 0.25592-0.14093 0.50728-0.23167 0.74474-0.05092 0.13325-0.10842 0.26954-0.11379 0.41402" fill="none" stroke-width=".26458px"/>
<path d="m27.319 59.319c-0.42277 0.84674-1.0611 1.5777-2.103 1.764-1.8151 0.32464-3.7876-0.1132-5.4916 0.64405-3.1111 1.3825-6.7108 1.476-9.6483 3.2634-0.74464 0.45308-1.4811 1.1718-1.4659 2.1085" fill="none" stroke-width=".26458px"/>
<path d="m16.39 65.062c1.2168 0.79237 2.22 1.8896 3.0099 3.0957 0.56687 0.86548 1.1239 1.8002 1.2435 2.8476l0.0052 0.08577s0.0018 0.08373 0.0018 0.08373" fill="none" stroke-width=".26458px"/>
<path d="m16.761 64.321c-0.05604-0.29014-0.42911-0.76695-0.13056-0.89632 0.30585-0.13254 0.6372 0.08712 0.8971 0.23644 0.45408 0.26088 0.95527 0.48742 1.3034 0.87826 0.74481 0.83617 1.1174 1.9565 1.9272 2.7335 0.07919 0.07598 0.16483 0.14736 0.26328 0.19713" fill="none" stroke-width=".26458px"/>
<path d="m11.759 76.546c4.3428 2.4525 8.0142 5.8694 11.356 9.6717 0.83499 0.94995 0.76749 2.0266 0.42879 3.2721-0.32525 1.196-1.4102 1.9833-2.0195 3.0802-0.55225 0.99422-1.0394 2.0844-1.0597 3.2406" fill="none" stroke-width=".26458px"/>
<path d="m14.908 74.879c1.9073 0.83836 2.887 2.767 4.2722 4.2052 0.90357 0.93815 2.3384 0.89863 3.3463 1.6515 1.076 0.80382 0.72398 2.3248 1.2729 3.405" fill="none" stroke-width=".26458px"/>
<path d="m91.041 106.93c2.375-2.578 5.4647-4.3602 7.7479-7.1356 0.66101-0.80352 1.51-1.3962 2.3123-2.0553 2.0442-1.6793 4.5805-2.5461 6.8653-3.8273 0.28857-0.16181 0.59243-0.30383 0.85722-0.50405" fill="none" stroke-width=".26458px"/>
<path d="m101.6 94.7c1.7334-1.0999 3.4818-2.2295 5.4118-2.9377 0.59988-0.22014 1.2371-0.55827 1.8817-0.42296 0.1231 0.02584 0.24513 0.09425 0.30124 0.21166" fill="none" stroke-width=".26458px"/>
<path d="m105.3 99.886c1.3584-0.55571 2.7168-1.1114 4.0752-1.6671" fill="none" stroke-width=".26458px"/>
<path d="m64.181 15.048c0.12021 5.7473 8.0735 2.6848 9.4097 8.2083 0.99632 4.1185 0.0013 9.4106 4.1755 12.076 3.8911 2.4844 6.9371 7.9483 3.8435 12.092-2.7886 3.7347-4.2653 10.231-0.25482 12.949 4.1094 2.7856 4.4729 8.7756 0.0073 11.228-3.5448 1.9464-4.3233 6.1366-7.2429 8.7153-1.9393 1.7129-3.2484 3.9241-5.4535 5.3419-4.4996 2.8931-4.4439 8.1861-5.1945 12.767-0.53501 3.2649-1.9039 6.7317-4.6622 8.6859" fill="none" stroke-width=".26458"/>
<path d="m53.438 18.012c-1.6595-1.0425-3.7767-3.4136-5.6153-2.2296-1.791 1.1534-2.0058 3.5662-3.0493 5.2842-1.1753 1.935-3.1111 3.4421-3.2855 5.8936-0.18981 2.6676 2.2849 5.2581 1.3233 7.7468-0.98548 2.5506-3.9516 3.9462-4.7735 6.4776-0.52854 1.6279-0.95044 3.3855-0.8061 5.0918 0.20087 2.3746 0.87444 4.6551 1.9548 6.8711 0.17864 0.36641 0.34785 0.75626 0.35887 1.1707" fill="none" stroke-width=".26458"/>
<path d="m42.879 63.765c0.06743 0.92237 0.34146 1.8102 0.41995 2.7322 0.24948 2.9304-1.2794 5.5846-2.7308 8.0199-0.90674 1.5214-2.155 3.0049-2.271 4.8289-0.02339 0.36765 0.01867 0.74057 0.13617 1.0903" fill="none" stroke-width=".26458"/>
<path d="m44.917 78.214c0.77962-0.205 1.6659 0.19913 1.8734 1.0321 0.36055 1.4473-0.01472 2.9522-0.36688 4.3621-0.41584 1.6648-1.1719 3.2275-1.5856 4.8888-0.32473 1.3038 0.4353 2.5026 1.0053 3.6097" fill="none" stroke-width=".26458"/>
<path d="m50.844 90.069c0.55133 2.0823-0.16868 4.2126-1.0398 6.1004-0.94698 2.0521-2.0986 4.1935-1.8656 6.5339 0.04889 0.49101 0.15593 0.97571 0.31214 1.4436" fill="none" stroke-width=".26458"/>
<path d="m52.882 92.662c1.3306 2.1995 2.3846 4.7693 2.0815 7.3956-0.17428 1.5101-1.2051 2.6924-2.1972 3.7346-1.1797 1.2392-2.94 2.0687-3.4038 3.8739-0.93777 3.65 3.1431 7.2878 6.6685 6.1128" fill="none" stroke-width=".26458"/>
<path d="m59.921 10.047c-2.3962-2.2349-5.8374-1.4273-8.8913-0.55571-6.8492 1.9549-10.118 8.9041-14.278 14.064-2.1149 2.6232-3.0286 5.8057-3.6721 9.1685-0.55398 2.8952-0.84665 5.8233-0.72012 8.7587 0.17322 4.0183 0.34384 8.1463 2.1742 11.838 1.5776 3.1816 0.48485 6.6355-0.47669 9.7546-0.64146 2.0808-1.9523 3.9978-1.9213 6.2479" fill="none" stroke-width=".26458"/>
<path d="m61.218 7.8238c-1.8121-2.4238-5.1475-3.2459-7.9723-2.2232-3.4864 1.2623-6.9694 2.9672-9.6 5.5661-2.6546 2.6225-4.2034 6.1207-6.061 9.3161-1.0418 1.7921-1.3361 3.8507-2.0985 5.7222-1.2373 3.0373-1.5408 6.3586-2.7424 9.408l-0.0384 0.26502s-0.01377 0.287-0.01377 0.287" fill="none" stroke-width=".26458"/>
<path d="m32.135 39.129c-0.39107 3.6708-1.2802 8.279 1.2635 10.935 1.6812 1.7557 2.7246 4.083 1.4762 6.3274-1.893 3.4035-6.2498 5.2276-6.8773 9.3946-0.61118 4.0586 2.559 7.4005 3.3023 11.185 0.44394 2.2606-0.2317 4.5368-0.27617 6.7992" fill="none" stroke-width=".26458"/>
<path d="m50.844 18.197c-0.55204-0.79044-1.3507-1.9895-2.4023-1.6606-1.1936 0.37326-1.6998 1.6911-2.0433 2.772-0.29962 0.94286 0.10813 2.1232-0.709 2.8757-1.2553 1.156-2.9619 1.9054-3.7435 3.5293-0.64145 1.3326-0.0701 2.8202 0.26541 4.1562 0.21376 0.85114 0.46529 1.7072 0.4824 2.5906" fill="none" stroke-width=".26458"/>
<path d="m49.548 19.123c-0.40514-0.70933-0.76808-1.8221-1.6431-1.8615-1.0654-0.04797-1.4589 1.2115-1.7894 2.0113-0.61213 1.4813-0.73621 3.1521-1.523 4.5517-0.72418 1.2883-2.742 1.97-2.697 3.4703 0.03045 1.0154 0.79294 1.79 0.99003 2.7883 0.21453 1.0867 0.17743 2.2015 0.1792 3.3031" fill="none" stroke-width=".26458"/>
<path d="m48.436 19.679c-0.10065-0.68384-1.1342-1.8034-1.5601-0.70466-0.44618 1.1511 0.47503 2.6687-0.40355 3.585-0.87484 0.91234-2.4674 1.1579-2.8525 2.4915-0.3581 1.2404 1.0779 2.4812 0.58934 3.5879-0.60809 1.3775-1.5558 2.8722-1.1116 4.4197 0.09549 0.33264 0.2763 0.64 0.52223 0.8837" fill="none" stroke-width=".26458"/>
<path d="m50.289 19.864c-0.05607-0.96003-0.7029-2.1033-1.7968-2.0097-1.3674 0.11711-2.4927 1.6324-2.0839 2.9625 0.25201 0.82015 0.0061 1.6738-0.66238 2.2616-0.63541 0.55866-1.6393 0.58726-2.1747 1.2224-0.58087 0.68895-1.1894 1.542-1.114 2.419 0.08648 1.0054 0.73577 1.8466 1.0018 2.8168 0.23622 0.86158 0.1243 1.8123-0.3942 2.553" fill="none" stroke-width=".26458"/>
<path d="m52.511 18.938c-0.2138-0.83114-0.64034-1.6584-1.3827-2.1349-0.5223-0.3352-1.1526-0.46019-1.7663-0.45842" fill="none" stroke-width=".26458"/>
<path d="m77.333 30.052c-0.19257 3.3894 3.8374 4.8707 4.5889 7.8312 0.66965 2.6382 0.35971 5.2842-0.41243 7.9567-0.65725 2.2748-1.014 4.4921-0.36456 6.9222 1.2458 4.6616 5.7936 6.9361 8.9447 10.213 2.2691 2.3596 2.4212 6.0912-0.7671 7.9262-2.1685 1.2481-4.0369 2.8839-5.536 4.9317-0.17452 0.23841-0.34865 0.47712-0.52591 0.71352" fill="none" stroke-width=".26458"/>
<path d="m79.371 31.534c1.3798 3.8307 5.3114 7.1456 4.63 11.338-0.4084 2.5124-2.1137 4.5579-3.3637 6.7196-1.7629 3.0488-1.9683 6.9573-0.05532 10.105 1.4183 2.3335 4.3727 3.7582 5.0482 6.3926 0.49565 1.933 0.2861 4.5699-1.443 5.8269" fill="none" stroke-width=".26458"/>
<path d="m80.297 61.357c0.65433 2.9742 0.57676 6.154-0.7562 8.9993-0.85008 1.8146-1.9462 4.1986-0.54045 6.0048 1.776 2.2819 4.9232 2.0135 7.4776 2.4621 1.7959 0.31544 3.7212 1.6834 3.5487 3.7099-0.27024 3.1745-2.3477 5.7531-3.9983 8.3341-0.32346 0.50582-0.67504 0.99827-1.1005 1.4242" fill="none" stroke-width=".26458"/>
<path d="m75.851 67.285c-0.3328 2.2898-0.19149 4.6496-1.1545 6.8434-0.98936 2.2539-2.0073 4.6261-3.7494 6.3486-3.2069 3.1709-6.3365 6.4531-8.4585 10.676-1.2102 2.4083-0.48537 5.5661 2.7212 5.7544 3.3242 0.19527 6.43 2.7837 6.7103 6.2288 0.2392 2.9397-0.7645 5.7876-1.441 8.6055" fill="none" stroke-width=".26458"/>
<path d="m78.63 63.024c-0.93844 3.0926-1.2344 6.3513-2.147 9.5018-0.73127 2.5246-2.7821 4.1405-4.4725 6.0138-3.6224 4.0143-7.4809 7.9249-9.4961 13.196-1.1147 2.9158 1.4355 6.0347 4.5191 6.1369 2.4347 0.08071 6.249 0.3306 6.5748 3.1951 0.28496 2.5051-0.41092 4.9661-0.87766 7.4256-0.21181 1.1162-0.36469 2.3594-1.1397 3.248" fill="none" stroke-width=".26458"/>
<path d="m77.333 64.321c-0.70768 3.9305-0.51212 8.4323-2.9774 11.642-1.9433 2.5302-5.23 3.3548-7.3092 5.8408-2.6301 3.1446-5.6641 6.2758-6.8626 10.221-0.63642 2.0952-0.79722 4.224-0.64259 6.4627 0.20489 2.9665-1.1816 5.8155-2.399 8.4374" fill="none" stroke-width=".26458"/>
<path d="m79.741 59.69c-0.80483 3.5758-1.1893 7.2499-2.2165 10.765-1.2931 4.4251-2.2058 10.27-6.3905 12.254-3.2099 1.5218-5.7925 4.091-7.4998 7.2614-1.1249 2.089-2.2566 4.7331-0.94589 6.8466 1.888 3.0444 5.4396 4.6106 6.155 8.7373 0.35386 2.0414 0.33949 4.1222 0.33926 6.1867" fill="none" stroke-width=".26458"/>
<path d="m77.148 76.732c-0.0038 2.6826-1.3699 5.1655-2.9253 7.2472-1.9483 2.6076-5.5651 3.4637-7.0347 6.5098-0.7687 1.5934-2.0535 3.483-1.4054 5.1209 0.77022 1.9465 3.2004 2.122 4.9737 2.1495 2.1051 0.03269 4.2721 0.97868 5.2238 2.9941 1.213 2.5687 0.99911 5.8061-0.49919 8.2096" fill="none" stroke-width=".26458"/>
<path d="m81.964 78.955c0.0832 1.9366-0.83251 4.11-2.4795 5.0049-1.8839 1.0235-3.1281 2.8414-4.7179 4.2302-1.0738 0.93799-1.6186 2.4896-1.4065 3.8211 0.25539 1.6037 2.1605 2.0299 3.4896 2.0609 1.4088 0.03287 2.7517 0.52447 3.638 1.6984 1.7185 2.2762 1.8198 5.3271 1.5409 8.0457-0.10796 1.0524-0.28994 2.1026-0.62012 3.1096" fill="none" stroke-width=".26458"/>
<path d="m80.667 51.354c-0.89946 3.2552-0.0342 7.0296 2.6069 9.2485 1.9952 1.6762 5.0197 2.6243 5.7288 5.3852 0.60544 2.3574-0.48163 4.7451-1.4786 6.8269-0.92424 1.93-2.0384 3.7597-3.1523 5.5839" fill="none" stroke-width=".26458"/>
<path d="m63.811 11.714c3.653-1.7209 8.256-0.77119 10.868 2.3661 2.1193 2.5455 4.5783 5.9854 3.6092 9.1868-0.8682 2.8679-2.537 6.516 0.34 8.8399 2.2635 1.8284 4.4357 3.7496 5.6027 6.6078 0.98976 2.4241 1.4309 4.8722 0.95823 7.6771-0.63759 3.7835-2.4431 8.0795-0.07597 11.631" fill="none" stroke-width=".26458"/>
<path d="m80.667 29.496c1.2139 4.5782 5.2094 7.8302 6.2987 12.413 0.89076 3.7475-1.2216 7.2319-2.7724 10.49-1.1008 2.3124 1.466 4.0791 2.8913 5.5684 2.783 2.9079 6.8304 6.7117 5.5496 10.63-0.83933 2.5676-2.7503 4.8759-5.2515 6.0082-2.0752 0.93946-4.2298 2.7278-3.3814 5.2754" fill="none" stroke-width=".26458"/>
<path d="m60.291 13.751c-2.1801-3.3348-6.6695-3.4424-10.056-2.3422-5.0368 1.6366-9.6144 4.9168-12.501 9.5152-2.6556 4.2303-5.1556 8.5311-6.2979 13.581-1.1827 5.2287-0.84617 10.775 0.79739 15.78 1.1841 3.6059 3.7226 6.5456 3.3101 10.93-0.47639 5.0639-6.9594 6.5832-5.6189 12.635 0.67796 3.0606 2.3677 5.7771 3.1365 8.809" fill="none" stroke-width=".26458"/>
<path d="m40.286 62.098c0.86601 2.9345 0.59096 6.7195-1.9474 8.6612-1.626 1.2438-3.661 2.0636-4.8137 3.8596-1.1955 1.8627-1.8436 4.534-0.47683 6.456 0.29688 0.4175 0.68583 0.76638 1.1251 1.0288" fill="none" stroke-width=".26458"/>
<path d="m41.953 75.25c0.44834 2.0121 0.97043 4.0924 0.63824 6.1664-0.20646 1.2891-1.1073 2.3957-2.2996 2.9296-1.3325 0.59674-2.8242 0.71251-4.2662 0.72146" fill="none" stroke-width=".26458"/>
<path d="m45.287 78.769c0.17163 1.2643 1.007 2.516 0.50861 3.8215-0.81586 2.1372-2.2143 4.0226-2.8166 6.2424-0.58468 2.1547 0.38281 4.298 1.5671 6.0517" fill="none" stroke-width=".26458"/>
<path d="m47.695 85.994c-0.2967 1.245 0.28975 2.5793-0.39784 3.7811-0.8938 1.5622-2.4787 2.5701-3.2286 4.2719-1.0658 2.4187-0.56568 5.2636 0.8737 7.4376 0.92776 1.4013 2.1553 2.5823 3.4936 3.5886" fill="none" stroke-width=".26458"/>
<path d="m52.511 94.7c-0.05717 1.4041 0.72054 2.9286-0.1045 4.2432-1.2853 2.0479-3.6768 2.9375-5.3162 4.6168-1.6079 1.6469-1.61 4.2793-0.55708 6.2478 0.78793 1.473 2.1453 2.587 3.7608 3.1022 0.62537 0.19945 1.2584 0.38737 1.8465 0.68413" fill="none" stroke-width=".26458"/>
<path d="m54.364 102.85c-1.5202 1.8503-2.7455 4.0464-3.0868 6.4419-0.18166 1.2749 0.07986 2.7018 1.0982 3.5871 1.498 1.3023 3.5124 1.8894 5.4582 1.999 0.13998 8e-3 0.28018 0.0124 0.42039 0.0124" fill="none" stroke-width=".26458"/>
<path d="m67.886 90.439c-0.91442 1.6191-1.243 4.1998 0.47072 5.3378 1.9216 1.276 4.2839 0.58772 6.4319 0.69654 1.6536 0.08377 2.5619 1.7448 2.9642 3.1354 0.35876 1.2401 0.76611 2.5823 0.14046 3.8496-1.2883 2.6096-3.0817 5.0103-5.2844 6.8809-0.57845 0.49125-1.1827 1.0062-1.3886 1.7724" fill="none" stroke-width=".26458"/>
<path d="m85.113 82.104c-1.1151 2.0862-1.9912 4.3257-3.8446 5.9981-1.2605 1.1374-2.5005 2.3247-4.0285 3.0962-1.2755 0.64394-2.9672 2.5269-1.8205 3.3893 0.95179 0.71582 2.3121 0.67744 3.4653 0.64309 1.7941-0.05343 3.7466 1.171 3.8107 3.1192 0.07777 2.3642-1.7162 4.2275-2.202 6.4344-0.14453 0.65658-0.11375 1.4134-0.56693 1.9561" fill="none" stroke-width=".26458"/>
<path d="m84.372 78.769c-0.75544 0.97349-0.23611 2.2263 0.49385 3.0706 0.81255 0.93983 2.4812 1.7781 2.1622 3.1225-0.27608 1.1633-0.75159 2.3277-1.9185 2.9726-1.8821 1.0402-4.17 1.6667-5.4817 3.4795-0.83022 1.1475-0.17366 2.8815 1.28 3.2549 2.0318 0.5218 4.5298 0.09022 6.1065 1.6816 1.2274 1.2387 1.1957 3.3348 0.5066 4.8319" fill="none" stroke-width=".26458"/>
<path d="m75.481 66.544c-0.67182 4.8064-1.7748 10.499-6.1234 13.147-2.0582 1.2532-4.0273 2.3202-5.6448 4.2498-2.3456 2.7981-4.2216 6.2878-4.3836 9.9635-0.1378 3.1258 2.8946 4.9049 5.4489 5.8205 2.4231 0.86858 4.7303 2.8564 4.7516 5.6098 0.0098 1.2673 0.18273 2.6216-0.34674 3.8136" fill="none" stroke-width=".26458"/>
<path d="m79.741 60.246c-1.4036 2.6907-0.68962 5.8022-1.664 8.6418-0.95317 2.7777-1.7117 5.6193-1.7704 8.5846-0.07015 3.5417-3.3855 5.4773-5.7346 7.5918-2.4399 2.1962-6.0573 4.6518-5.5339 8.2297 0.34564 2.3629 3.4312 5.9041 5.3654 4.2057 2.1633-1.8996 5.6008-0.99085 5.8181 1.8314 0.18704 2.4291-0.65278 4.8592-1.5906 7.0552-0.25293 0.59227-0.54654 1.1859-1.0027 1.651" fill="none" stroke-width=".26458"/>
<path d="m79 77.658c0.36441 1.3702 0.72409 2.9767-0.28927 4.2077-1.2621 1.5332-3.5833 1.5743-4.9336 2.9151-1.8096 1.7969-4.2028 3.268-5.0492 5.8105-0.82579 2.4805 0.28211 5.1872 1.8613 7.0833 0.75247 0.90346 1.8181 1.6625 3.0389 1.656" fill="none" stroke-width=".26458"/>
<path d="m80.667 60.616c0.56708 1.7577 1.7533 3.2505 2.265 5.0224 0.42075 1.4571 0.32039 3.087-0.31536 4.4507-0.7328 1.5719-2.1314 2.7552-2.6905 4.4196" fill="none" stroke-width=".26458"/>
<path d="m44.732 66.544c-0.94597 2.0577-1.7569 4.5495-0.53724 6.7288 1.4828 2.6497 5.6512 3.4891 6.0415 6.5379 0.16334 1.2757 0.75986 2.5681 0.29584 3.8501-1.2462 3.443-4.1957 6.215-4.6526 9.919-0.02309 0.1872-0.03611 0.37575-0.03612 0.56442" fill="none" stroke-width=".26458"/>
<path d="m45.658 66.914c-0.68143 1.8261-1.4643 3.8357-0.92268 5.7953 0.41408 1.4983 1.9537 2.1858 3.2529 2.7422 1.2283 0.52601 1.9387 1.7077 2.3985 2.9186 0.78943 2.0786 0.64683 4.3327 0.64309 6.5118" fill="none" stroke-width=".26458"/>
<path d="m46.028 67.655c-0.42808 1.4524-1.1679 3.1699-0.30537 4.5664 0.84257 1.3642 2.5346 1.7777 3.455 3.1231 1.3509 1.9747 2.4477 4.1839 2.6933 6.6072 0.06123 0.60418 0.08455 1.2117 0.08463 1.8189" fill="none" stroke-width=".26458"/>
<path d="m46.954 69.322c-0.68246 0.72947-0.13622 1.5958 0.35164 2.2906 1.1955 1.7026 2.9926 3.0108 3.6588 5.061 0.80148 2.4664 0.61877 5.0984 0.62046 7.6525" fill="none" stroke-width=".26458"/>
<path d="m48.251 69.507c-0.17878 0.6353-0.29811 1.308-0.03518 1.9576 0.45658 1.128 1.3234 2.0102 1.9098 3.0708 0.96277 1.7413 1.4673 3.7259 1.4596 5.7153" fill="none" stroke-width=".26458"/>
<path d="m49.918 70.434c-0.52893 1.6382 0.13275 3.3283 0.86438 4.7898 0.64538 1.2892 1.2508 2.6399 1.2918 4.1159 0.05204 1.8772-0.28801 3.7593-0.85948 5.5428" fill="none" stroke-width=".26458"/>
<path d="m42.323 72.842c0.76005 2.0694 2.1588 3.863 2.7386 5.9973 0.57273 2.1081-0.70483 4.0889-1.9003 5.7351-1.1931 1.6429-3.3107 2.5748-3.9471 4.6128-0.1636 0.52395-0.22564 1.0752-0.22551 1.6227" fill="none" stroke-width=".26458"/>
<path d="m50.844 14.307c-3.028-0.68627-5.8863 1.2482-7.6032 3.6551-1.6224 2.2744-2.0534 5.0838-2.8661 7.7102-0.49844 1.6109-0.45852 3.237 0.12975 4.9388 0.57223 1.6554 1.5955 3.7134 0.61356 5.2364-1.4084 2.1845-3.5676 3.778-5.0929 5.8744" fill="none" stroke-width=".26458"/>
<path d="m41.212 29.496c0.06977 2.2053 0.54777 5.0385-1.1454 6.5709-1.1541 1.0445-2.4618 1.8848-3.5129 3.0785-1.5814 1.796-2.7505 4.0917-2.4099 6.6011 0.63356 4.6681 5.5243 7.8784 5.3925 12.611-0.03441 1.2354-0.11247 2.6594-0.73235 3.7404" fill="none" stroke-width=".26458"/>
<path d="m41.212 32.46c0.97233 1.4137 0.20239 3.1299-0.83794 4.3263-1.9341 2.2244-3.5978 4.5599-4.8671 7.4263-0.82381 1.8604-0.18228 3.8811 1.0197 5.4625 1.4261 1.8762 3.2988 3.5668 3.6202 6.0914 0.41651 3.2716-0.01113 6.5713-0.04631 9.8508" fill="none" stroke-width=".26458"/>
<path d="m41.397 66.358c-1.6638 2.4915-2.9159 5.3976-5.3034 7.2805-0.96372 0.76004-2.3637 0.85648-3.2099 1.7256-0.93062 0.95585-1.4352 2.2842-1.6756 3.5775-0.40459 2.1772 0.68948 4.2773 2.2237 5.7548" fill="none" stroke-width=".26458"/>
<path d="m39.36 76.361c-0.79912 1.5684-2.6457 2.0476-3.7814 3.3036-1.5168 1.6773-2.882 3.5724-3.6057 5.7347-0.26202 0.78288-0.22453 1.6648 0.27632 2.3799 0.95984 1.3705 2.7658 1.597 3.9618 2.6597" fill="none" stroke-width=".26458"/>
<path d="m31.95 49.872c-0.14953 3.0347 1.0738 6.2985-0.7056 9.1218-1.7706 2.8093-4.8832 4.5344-6.0243 7.8705-1.0616 3.1038 0.31191 6.3529 2.254 8.7882 2.155 2.7024 4.0154 5.7443 4.4206 9.287 0.30751 2.689 0.05378 5.3962 0.05533 8.0927" fill="none" stroke-width=".26458"/>
<path d="m44.917 82.845c-0.53582 1.0651-1.1446 2.1171-1.7059 3.188-0.7509 1.4324-1.9187 2.5563-3.3167 3.4406-1.4 0.88557-2.6345 2.0649-3.2608 3.6651-1.8283 4.6716 0.28677 10.32 4.3934 13.046" fill="none" stroke-width=".26458"/>
<path d="m43.805 86.549c-3.1375 2.6624-6.0405 6.1203-6.6168 10.335-0.32018 2.3418 0.76074 4.5575 2.2238 6.356 0.99132 1.2186 2.4446 1.9102 3.5483 3.0335 1.702 1.7321 3.0533 4.2088 2.6602 6.6863-0.10235 0.64488-0.33928 1.2701-0.33367 1.9302" fill="none" stroke-width=".26458"/>
<path d="m33.803 81.363c-1.6988 2.8233-2.7633 6.2819-2.0432 9.5798 0.3859 1.7674 1.9763 2.7529 3.4619 3.6688 2.5855 1.5941 5.211 3.2424 7.3109 5.4719 1.9154 2.0335 2.3991 4.9366 2.1283 7.6867-0.05959 0.6054-0.20159 1.2066-0.48468 1.7487" fill="none" stroke-width=".26458"/>
<path d="m31.765 49.317c-1.0305 2.8473-0.98729 5.8785-2.513 8.6992-2.1946 4.0572-6.6074 6.4495-8.2202 10.916-1.332 3.6889 1.3834 7.1683 4.0191 9.4903 2.7802 2.4493 6.4021 4.7443 6.9516 8.7857 0.31469 2.3144-0.04421 4.6521-0.4226 6.9358" fill="none" stroke-width=".26458"/>
<path d="m34.544 94.329c0.60226 1.44 0.49211 3.0572 0.31571 4.5641-0.19227 1.6425-0.7118 3.5537 0.44974 4.9822 1.3652 1.6789 3.6927 1.6037 5.5587 2.3171 1.7701 0.67679 2.8145 2.4501 3.1248 4.269 0.14508 0.85038 0.18254 1.7151 0.18337 2.5765" fill="none" stroke-width=".26458"/>
<path d="m61.218 9.4909c-1.7103-2.319-4.9006-2.8485-7.5656-2.1369-4.632 1.2368-8.696 4.1582-11.869 7.6678-2.5098 2.7764-4.4594 6.1726-5.2715 9.8265-0.19037 0.85649-0.30127 1.7325-0.30119 2.6106" fill="none" stroke-width=".26458"/>
<path d="m39.73 30.052c-0.82442 1.8181 1.2986 3.6414 0.44552 5.3894-0.68816 1.4101-2.2095 2.0863-3.506 2.815-1.4081 0.79147-2.8358 1.7471-3.5269 3.2911-0.77602 1.7338-0.81802 3.6803-0.82207 5.5462" fill="none" stroke-width=".26458"/>
<path d="m83.879 27.128c0.37569 1.7267 1.3546 3.2292 1.9086 4.8924 0.41532 1.2468 0.25588 2.5903-0.10361 3.8456-0.1398 0.48812-0.14037 1.0154-0.36421 1.4786" fill="none" stroke-width=".26458px"/>
<path d="m66.034 13.566c-0.80303 1.5303 0.04076 3.3591 1.6239 4.0896 1.9691 0.90859 4.5828 0.52728 6.0558 2.3867 1.0528 1.329 1.2162 3.2364 0.71925 4.7412-0.44605 1.3507-0.29872 2.7873-0.06977 4.1725 0.43308 2.6203 2.012 4.863 3.7853 6.7214 0.32233 0.3378 0.7307 0.67045 1.2225 0.6726" fill="none" stroke-width=".18521"/>
<path d="m58.624 15.418c0.53975-1.0719-0.53026-1.8925-1.2658-2.3213-2.1516-1.2542-4.8061-0.77956-7.0392-0.04893-1.7942 0.587-3.6891 1.0682-5.2513 2.1269-1.9235 1.3035-3.0214 3.5167-3.856 5.6151" fill="none" stroke-width=".18521"/>
<path d="m60.662 12.084c-1.63-0.50693-3.0399-1.531-4.804-1.7565-3.5635-0.45534-7.1982 0.7127-9.988 2.9594-2.1959 1.7685-4.1761 3.8151-5.8775 6.0511-0.50536 0.66418-0.92642 1.3982-1.1884 2.193" fill="none" stroke-width=".18521"/>
<path d="m38.989 26.162c-0.56735 1.0421-1.0057 2.2077-1.0457 3.3787-0.06391 1.8677 1.2889 3.4995 0.97 5.4218-0.24619 1.4839-1.7144 2.2023-2.8646 2.9213-1.3397 0.83747-3.0285 1.6361-3.4962 3.2635-0.21673 0.75402-0.02338 1.5589 0.32377 2.2417" fill="none" stroke-width=".18521"/>
<path d="m34.914 40.24c-1.3239 1.4275-3.3418 3.2955-2.6687 5.2291 0.68267 1.9613 0.70536 4.5232 2.4129 5.8022 2.7925 2.0918 4.6261 5.4166 4.5106 9.0492-0.07954 2.5018-1.3787 4.7587-3.2943 6.3649-1.9682 1.6503-4.3789 3.3922-4.5459 6.2497-0.05955 1.0192 0.06688 2.0365 0.06589 3.0554" fill="none" stroke-width=".18521"/>
<path d="m36.766 39.499c-2.3525 1.5114-4.5799 4.1527-3.7394 7.1604 1.0434 3.7342 3.9461 7.0837 3.7971 11.005-0.11588 3.0498-2.537 5.3256-4.1583 7.7196-1.1869 1.7526-3.3148 2.7734-4.1817 4.691-1.2285 2.7175 0.64324 5.4696 1.9651 7.7418 0.99582 1.7118 1.2087 4.0651 2.983 5.2123" fill="none" stroke-width=".18521"/>
<path d="m42.138 65.062c0.33826 2.2689-0.34744 4.622-1.7753 6.3933-1.0142 1.2581-1.931 2.6297-3.4002 3.4656-1.5585 0.88661-3.6621 1.3401-4.4061 3.1571-0.55944 1.3662-0.55426 2.8813-0.46877 4.3215 0.02035 0.34287 0.07831 0.69072 0.23292 1.0008" fill="none" stroke-width=".18521"/>
<path d="m41.397 62.839c0.97023 1.7736-0.12779 3.6782-0.21788 5.5212-0.11743 2.4023-2.2592 3.9491-3.9907 5.3204-1.1925 0.94445-2.5559 1.6204-3.9998 2.0563-1.4115 0.42616-2.1187 1.7779-2.4332 3.1528-0.52422 2.2915-0.17732 4.6857 0.45358 6.9186" fill="none" stroke-width=".18521"/>
<path d="m42.323 74.324c-0.27753 0.816-0.07745 1.6082 0.23732 2.4108 0.67844 1.73-0.30137 3.5571-1.6826 4.719-0.7363 0.61941-1.7669 0.53081-2.5978 0.9318-2.2 1.0617-4.3971 2.4209-5.7933 4.4662-0.53402 0.78229-0.91095 1.7027-0.9074 2.6616" fill="none" stroke-width=".18521"/>
<path d="m43.991 70.434c-0.61615 2.3578-0.70268 5.1596 1.0771 7.132 1.4252 1.5794 4.0063 2.871 3.804 5.2408-0.28358 3.3226-3.049 5.5371-5.0708 7.8893-1.6002 1.8617-2.1347 4.3999-1.6908 6.841 0.16532 0.90913 0.66175 1.716 1.3247 2.3494" fill="none" stroke-width=".18521"/>
<path d="m49.918 88.216c-1.123 0.8474-0.75351 2.4196-1.2496 3.5712-0.76115 1.7669-2.3044 3.0153-3.3862 4.5688-0.87478 1.2561-0.50142 2.8814 0.11169 4.1595 0.49702 1.0362 0.96097 2.1026 1.6119 3.049 0.2483 0.361 0.58361 0.7606 1.0599 0.76708" fill="none" stroke-width=".18521"/>
<path d="m52.141 92.106c0.24728 1.8488 0.1299 3.7839-0.67716 5.4986-0.55326 1.1755-1.3315 2.2247-2.2391 3.1606-0.4458 0.4597-0.87324 0.95063-1.1589 1.5287" fill="none" stroke-width=".18521"/>
<path d="m53.623 94.329c0.56048 1.9271 0.56608 4.0463-0.4711 5.9213-0.45601 0.82438-1.4737 0.93093-2.1265 1.5242-1.0371 0.94258-1.9074 2.1035-2.4702 3.3725-0.8818 1.9883 0.10096 4.1934 1.1702 5.8927 0.79291 1.2602 1.7389 2.4228 2.7862 3.4799" fill="none" stroke-width=".18521"/>
<path d="m50.844 86.734c0.077 1.0118-0.15791 2.1177 0.55808 2.9998 1.2661 1.56 3.5211 1.69 4.852 3.2029 1.7472 1.986 1.8839 4.8519 1.5026 7.3447-0.13324 0.87102-0.33676 1.7318-0.61467 2.5681" fill="none" stroke-width=".18521"/>
<path d="m78.259 62.283c-1.2121 2.7558-0.87597 5.8502-1.9949 8.6783-1.5682 3.9635-2.7608 8.5323-6.0735 11.279-2.3167 1.9207-5.661 2.5773-7.274 5.3429-2.081 3.568-0.64328 8.1076 1.655 11.177 0.94436 1.2612 2.166 2.7211 3.8699 2.7932" fill="none" stroke-width=".18521"/>
<path d="m80.297 63.024c-0.65394 3.7397 0.05331 7.8013-2.1606 11.218-1.5711 2.4244-3.8386 4.2178-6.2529 5.8076-3.2102 2.1139-6.5432 5.197-6.7104 9.2808-0.13731 3.3531 2.4346 5.9234 4.8841 7.9051 0.53028 0.42902 1.0514 0.87109 1.5337 1.354" fill="none" stroke-width=".18521"/>
<path d="m81.223 62.469c1.5543 1.8402 2.5421 4.723 0.90297 6.8414-1.7484 2.2597-5.2616 3.099-5.9089 6.1837-0.32366 1.5424 0.2128 3.4108 1.9377 3.9309 2.3862 0.71958 5.5212-0.32784 7.2996 1.694 1.639 1.8632 1.2339 4.6566 0.57919 6.7973-0.7516 2.4576-1.9343 4.8899-3.6992 6.7837" fill="none" stroke-width=".18521"/>
<path d="m79.926 59.505c0.91942 2.5992 3.0751 5.1998 1.999 8.0973-1.5257 4.1081-7.7428 4.6183-8.3878 9.0539-0.28856 1.9842 0.53014 4.422 2.522 5.2962 2.2674 0.99505 5.5591 0.56774 6.8307 3.1152 1.8269 3.6603-0.58667 7.5095-1.3661 11.144-0.16691 0.77836-0.81652 1.3832-0.85676 2.193" fill="none" stroke-width=".18521"/>
<path d="m76.407 83.956c-2.1184 1.6244-4.735 3.0596-5.573 5.7985-0.66101 2.1605-1.0792 4.8468 0.35205 6.7273 0.79636 1.0463 2.0545 1.6305 3.2649 2.0211 1.4026 0.45264 3.4373-0.14149 4.1788 1.5687 0.9574 2.208-0.09238 4.6028-1.0545 6.6102-0.42901 0.89507-0.90646 1.7656-1.3535 2.6516" fill="none" stroke-width=".18521"/>
<path d="m81.964 27.088c1.5885 1.9635 1.9928 4.5368 2.36 6.9607 0.27126 1.7904 0.52863 3.6253 1.3447 5.2649" fill="none" stroke-width=".18521"/>
<path d="m55.846 17.827c-0.81456-0.99858-1.9098-1.783-3.1632-2.1282-0.77806-0.21428-1.5894-0.27952-2.3939-0.27989" fill="none" stroke-width=".26458px"/>
<path d="m57.142 17.086c-1.9014-1.1838-4.0249-2.1754-6.3072-2.2211-0.05869-0.0012-0.1174-0.0018-0.17611-0.0018" fill="none" stroke-width=".26458px"/>
<path d="m62.144 9.3057c0.16542-0.97035 0.8743-1.7568 1.6573-2.2998 0.90734-0.62921 2.0631-1.0713 3.1686-0.79874 0.25957 0.063992 0.50875 0.17138 0.73117 0.32003" fill="none" stroke-width=".26458px"/>
<path d="m62.329 10.232c2.94-0.01453 5.366-3.1253 8.23-2.4169 2.2901 0.56647 3.1403 3.1262 4.7512 4.5926 1.2017 1.0939 1.2747 2.8296 1.6087 4.3165 0.36478 1.6241 0.63403 3.4477 2.0773 4.5272 1.0884 0.81406 2.3523 1.3801 3.1488 2.5796 0.80418 1.211 1.313 2.5967 1.6714 3.9983" fill="none" stroke-width=".26458px"/>
<path d="m66.96 6.1567c5.0956 0.77672 10.013 4.2456 11.491 9.3875 0.4203 1.4622 0.1733 2.5896 1.7402 3.6396 2.0008 1.3408 2.5163 3.8207 2.9893 6.0259 0.23309 1.0868 0.51649 2.1728 1.0069 3.1754" fill="none" stroke-width=".26458px"/>
<path d="m57.883 17.271c0.06763-0.25162 0.28266-0.47022 0.56124-0.46611 0.45735 0.0068 0.83863 0.35644 1.2915 0.35521 0.25871-7.03e-4 0.28791-0.30659 0.27672-0.51188-0.01391-0.25511-0.19826-0.54403-0.05935-0.76591 0.14569-0.23272 0.36984 0.04974 0.47719 0.18725 0.21417 0.27434 0.34589 0.66219 0.6752 0.80349 0.2258 0.09688 0.06231-0.2837 0.04438-0.40541-0.07301-0.49555-0.1456-0.99407-0.14071-1.4979 0.0013-0.13482 0.0972-0.24472 0.20813-0.1068" fill="none" stroke-width=".21167"/>
<path d="m62.329 13.751c0.19352 0.19206 0.46577 0.43572 0.39045 0.72697-0.08446 0.32659-0.4072 0.49234-0.61524 0.73402-0.09733 0.11307-0.27989 0.39886 0.01637 0.39868 0.31614-2.02e-4 0.7429-0.247 0.94936-0.0073 0.12281 0.14258 0.14476 0.34445 0.19676 0.52052 0.09335 0.31612 0.14791 0.65667 0.33502 0.93457 0 0 0.02393 0.0268 0.02393 0.0268" fill="none" stroke-width=".21167"/>
<path d="m76.036 21.717c0.4534 1.6197 0.56632 3.3722 0.23323 5.0138-0.2992 1.4746-0.60517 3.0225 0.0098 4.5094 1.2408 2.9998 4.673 4.3 5.8666 7.3505 0.41209 1.0532 0.5592 2.1917 0.55885 3.3171" fill="none" stroke-width=".10583"/>
<path d="m74.74 16.53c1.0591 0.22929 1.0467 1.382 1.5978 2.3285 0.76291 1.3103 1.3019 2.7677 1.6089 4.2444 0.35438 1.7043-0.72858 3.1893-1.2659 4.7308-0.42604 1.2224-0.41317 2.6022 0.37565 3.7346 1.7044 2.447 4.7665 4.0403 5.459 7.1019 0.2009 0.88813 0.11007 1.8238-0.18081 2.6815" fill="none" stroke-width=".10583"/>
<path d="m81.408 34.313c0.91188 1.3511 1.8182 2.7248 2.2885 4.2966 0.75448 2.5213 2.1409 5.2287 1.182 7.8466-0.99053 2.7044-3.4736 4.9401-3.3238 8.0063 0.10922 2.2365 2.4097 3.1614 4.111 4.0635 2.1759 1.1538 4.9413 1.9117 6.1827 4.1808 0.43213 0.7899 0.34716 1.7623-0.06713 2.5406" fill="none" stroke-width=".10583"/>
<path d="m79 82.659c-1.4312 1.2055-3.161 1.9481-4.6325 3.1253-1.5322 1.2258-3.7602 2.0295-4.4441 3.9136-0.51037 1.406-0.78163 3.3982 0.69601 4.3272 2.1358 1.3427 4.6005 1.5774 6.9038 2.8838 1.3319 0.75545 0.55857 2.4465 0.10659 3.5855-1.1644 2.9342-4.2689 4.1788-6.5231 6.1032-0.92057 0.7859-1.729 1.7549-2.1095 2.9206" fill="none" stroke-width=".10583"/>
<path d="m79 72.286c-2.4373 0.47542-4.86 2.8093-4.3702 5.4607 0.25536 1.3824 1.5182 2.0957 2.7381 2.6446 2.1488 0.9669 3.9311 2.6888 5.2399 4.6143 1.5727 2.3137 0.75429 5.3853-0.5737 7.6042-0.86859 1.4513-1.7317 2.8867-2.3617 4.4793-0.15087 0.38141-0.30425 0.76254-0.48721 1.13" fill="none" stroke-width=".10583"/>
<path d="m41.953 63.765c0.66957 2.5158 0.85943 5.3742-0.41291 7.7494-0.77996 1.456-2.4253 1.9552-3.861 2.531-1.6327 0.6548-3.767 1.2324-4.3491 3.0233-0.42553 1.3091-1.2582 2.7272-0.7644 4.0976 0.11806 0.32762 0.36783 0.60086 0.68126 0.75188" fill="none" stroke-width=".10583"/>
<path d="m43.064 66.914c-1.167 3.5315-3.2393 6.853-6.3988 9.0064-1.0318 0.70321-2.4352 0.84944-3.2717 1.7826-0.95868 1.0696-0.82237 2.624-0.88713 3.9641l-6.49e-4 0.12426-2.15e-4 0.12677" fill="none" stroke-width=".10583"/>
<path d="m41.397 71.73c-0.48583 1.4529-1.1195 2.9622-2.4081 3.89-1.731 1.2463-4.0244 1.5007-5.5946 2.9998-0.8481 0.80966-0.90058 2.0693-0.51822 3.113" fill="none" stroke-width=".10583"/>
<path d="m42.879 75.25c0.37507 1.4273 0.92338 2.8447 0.63639 4.3742-0.56908 3.0329-2.8538 5.3565-5.2565 7.1901-1.4956 1.1414-3.3215 2.2611-3.8857 4.1515-0.48154 1.6133 0.94136 2.9161 2.2127 3.5892 2.043 1.0817 3.5217 2.9457 5.5522 4.0347" fill="none" stroke-width=".10583"/>
<path d="m44.176 78.214c0.54615 2.1906-1.0707 4.0894-2.4529 5.5967-1.9212 2.0952-4.2494 3.8334-5.7915 6.2691-0.74718 1.1801-0.24711 2.555 0.81416 3.4793 1.8696 1.6282 4.3882 2.5277 5.9253 4.4711 0.75803 0.9584 0.61014 2.2784 1.1344 3.3383" fill="none" stroke-width=".10583"/>
<path d="m50.103 85.623c-0.98283 3.9852-5.0765 6.264-6.0793 10.247-0.38703 1.537-0.01094 3.1736 0.95165 4.4545 1.3229 1.7604 3.0961 3.4966 3.0901 5.8601" fill="none" stroke-width=".10583"/>
<path d="m53.623 93.218c0.20059 2.3069-0.56224 4.7871-2.2053 6.3507-1.0696 1.0179-2.6424 1.3406-3.511 2.6407-1.9023 2.8473-1.8133 7.2123 0.87968 9.5225 0.34451 0.29554 0.72586 0.54787 1.1319 0.7507" fill="none" stroke-width=".10583"/>
<path d="m50.659 88.587c-1.6338 2.2691-1.8707 5.1986-3.522 7.4848-0.53404 0.7394-1.2042 1.5357-1.0167 2.5357 0.30029 1.6013 1.0281 3.1158 1.973 4.4351 0 0 0.08175 0.0971 0.08175 0.0971s0.07582 0.081 0.07582 0.081" fill="none" stroke-width=".10583"/>
<path d="m50.289 83.771c-0.6477 2.3808-2.2335 4.7216-1.6378 7.2642 0.30898 1.3189 1.1909 2.4226 2.1275 3.3443 1.2674 1.2473 3.0632-0.07319 4.513 0.6226 1.8022 0.86494 2.8538 2.9015 2.6319 4.903-0.25764 2.3237-1.4214 4.4079-2.4479 6.4648" fill="none" stroke-width=".10583"/>
<path d="m40.656 74.324c0.39569 2.1875 0.10543 4.5324-0.90948 6.5323-0.48912 0.96383-1.4592 1.4808-2.4076 1.9014-0.80872 0.35869-1.5125 0.8848-1.8379 1.7875-0.74799 2.0749-1.1832 4.5486-0.10111 6.5711 0.44179 0.82569 1.2177 1.4477 2.1071 1.7313" fill="none" stroke-width=".10583"/>
<path d="m39.545 75.25c-0.13929 1.7222 0.16962 3.5917-0.8966 5.142-1.1481 1.6693-3.2055 2.3168-4.5288 3.7895-1.1843 1.318-0.83118 3.2452-0.31698 4.776 0.49639 1.4778 1.3352 2.977 2.7785 3.7047" fill="none" stroke-width=".10583"/>
<path d="m32.135 55.985c1.3541 1.168 1.108 3.0898 0.61116 4.6483-0.83652 2.6241-2.5821 5.0239-5.1354 6.2264-3.006 1.4156-5.3316 5.3946-3.8114 8.3899 0.99392 1.9583 3.122 2.8949 4.8231 4.1334 1.5193 1.1061 3.3109 2.5072 3.3273 4.5728" fill="none" stroke-width=".10583"/>
<path d="m35.099 55.985c1.3151 1.4208 1.759 3.3965 1.7394 5.2905-0.01973 1.906 0.28967 4.1475-0.93668 5.6639-1.3717 1.6961-3.3682 2.6974-4.9239 4.2232-0.87629 0.8594-1.3245 2.245-0.64912 3.3957 0.18948 0.32284 0.43121 0.61225 0.69517 0.87653" fill="none" stroke-width=".10583"/>
<path d="m39.174 39.314c0.20105 2.8457-1.469 5.426-1.3772 8.2595 0.02792 0.86177 0.2476 1.7147 0.63627 2.4842" fill="none" stroke-width=".26458px"/>
<path d="m38.989 40.796c-0.07623 0.39798-0.32466 1.5157-0.23527 1.2662 0.06274-0.17506 0.10399-0.58772-0.05687-0.19385-0.40592 0.99395 0.07641 2.0321 0.07046 3.0516-0.0038 0.65334-0.40737 1.1975-0.58052 1.8142-0.22463 0.80017-0.52222 1.6055-0.53862 2.4382-0.0071 0.35994 0.03575 0.74001-0.14108 1.0706" fill="none" stroke-width=".26458px"/>
<path d="m39.545 42.093c0.17536 0.76832-0.27398 1.4734-0.41603 2.2055-0.1781 0.91781 0.32163 1.8343-0.0046 2.7573-0.47787 1.3521-1.2904 2.6282-1.2465 4.1138" fill="none" stroke-width=".26458px"/>
<path d="m78.074 35.98c-0.42399 0.66203-0.52144 1.5621-0.06749 2.2385 0.72034 1.0734 1.9147 1.6668 2.9185 2.4314 0.68761 0.52382 1.4646 1.1963 1.4749 2.1326 0.0038 0.34092-0.09898 0.67496-0.25069 0.97743" fill="none" stroke-width=".18521"/>
<path d="m82.334 45.612c0.57312-0.18948 0.42426-0.84574 0.08076-1.224-0.75509-0.83158-1.9112-1.2061-2.6298-2.055-0.45604-0.53878-0.33468-1.302-0.04501-1.897 0.3262-0.67 0.71976-1.5058 0.29606-2.206-0.31522-0.52093-0.89701-0.82477-0.99732-1.5065-0.05807-0.39468-0.34815 0.32936-0.43391 0.51222-0.4522 0.96418-0.85664 2.0846-0.53273 3.1508 0.14528 0.47822 0.57064 0.78066 1.0514 0.90849 0.85413 0.2271 1.943 0.24881 2.46 1.0632 0.40936 0.64493 0.22824 1.464 0.0096 2.1425" fill="none" stroke-width=".18521"/>
<path d="m80.112 38.203c-0.04819 0.66404 0.16027 1.3554 0.64818 1.8268 0.56837 0.5491 1.279 0.96852 1.6795 1.6779 0.35072 0.62128 0.45037 1.3485 0.45091 2.0524" fill="none" stroke-width=".26458px"/>
</g>
</svg>
