<svg width="694px" height="94px" viewBox="0 0 694 94" version="1.1" xmlns="http://www.w3.org/2000/svg" xmlns:xlink="http://www.w3.org/1999/xlink">
  <g id="Page-1" stroke="none" stroke-width="1" fill="none" fill-rule="evenodd">
    <g id="logo_GwG_horz_FullColor_838x217px" fill-rule="nonzero">
      <g id="Grow_with" transform="translate(0.000000, 5.000000)" fill="#5F6368">
        <path d="M64.76,36.55 C64.76,45.47 62.1133333,52.58 56.82,57.88 C50.8733333,64.1866667 43.05,67.34 33.35,67.34 C24.498267,67.4160737 15.9891061,63.9230215 9.74388286,57.6495734 C3.49865963,51.3761253 0.0440126487,42.8513 0.16,34 C0.0358684426,25.1435347 3.48691554,16.6109102 9.73303703,10.330914 C15.9791585,4.05091776 24.4929929,0.553771463 33.35,0.63 C37.8992876,0.603827069 42.4111803,1.45256536 46.64,3.13 C50.5646474,4.62065701 54.0805586,7.01942679 56.9,10.13 L51,16 C48.9444681,13.5512703 46.3265346,11.6367135 43.37,10.42 C40.2077231,9.07904867 36.8047753,8.39845911 33.37,8.42 C26.7336143,8.28276124 20.3367471,10.9001552 15.7,15.65 C10.9203589,20.5397848 8.33867454,27.1655062 8.55,34 C8.35245755,40.8124408 10.9292323,47.4131706 15.69,52.29 C20.3267471,57.0398448 26.7236143,59.6572388 33.36,59.52 C39.7266667,59.52 45.02,57.7366667 49.24,54.17 C53.46,50.6033333 55.9,45.6966667 56.56,39.45 L33.36,39.45 L33.36,31.78 L64.36,31.78 C64.6321786,33.3552931 64.7660222,34.9513777 64.76,36.55 L64.76,36.55 Z" id="Shape"></path>
        <path d="M78.86,65.9 L70.65,65.9 L70.65,22.18 L78.5,22.18 L78.5,29.32 L78.86,29.32 C79.8475371,26.818467 81.6566258,24.7272591 83.99,23.39 C86.2463625,21.8597733 88.8945743,21.00943 91.62,20.94 C93.6907535,20.8818795 95.7519277,21.242415 97.68,22 L95.18,29.94 C93.6234462,29.4462647 91.9908348,29.2362607 90.36,29.32 C87.2472513,29.325459 84.2936126,30.696269 82.28,33.07 C80.0434718,35.4270974 78.8100554,38.5608355 78.84,41.81 L78.86,65.9 Z" id="Shape"></path>
        <path d="M97,44 C97,37.28 99.1133333,31.7166667 103.34,27.31 C107.555149,22.9360127 113.417902,20.5400888 119.49,20.71 C125.53752,20.5304284 131.376306,22.9299296 135.55,27.31 C139.83,31.71 141.97,37.2733333 141.97,44 C141.97,50.7266667 139.83,56.29 135.55,60.69 C131.377037,65.0711399 125.537752,67.4708463 119.49,67.29 C113.417902,67.4599112 107.555149,65.0639873 103.34,60.69 C99.1133333,56.3166667 97,50.7533333 97,44 Z M105.21,44 C105.21,48.6666667 106.576667,52.4733333 109.31,55.42 C111.954274,58.215051 115.632339,59.7986124 119.48,59.7986124 C123.327661,59.7986124 127.005726,58.215051 129.65,55.42 C132.383333,52.5066667 133.75,48.7 133.75,44 C133.923734,39.8315346 132.451075,35.7619679 129.65,32.67 C127.031542,29.8286788 123.343862,28.2122996 119.48,28.2122996 C115.616138,28.2122996 111.928458,29.8286788 109.31,32.67 C106.497104,35.756693 105.013328,39.8271978 105.18,44 L105.21,44 Z" id="Shape"></path>
        <polygon id="Shape" points="209.57 22.18 195.47 65.9 187.08 65.9 176.2 32.35 165.4 65.9 157.1 65.9 143 22.18 151.57 22.18 161.3 55.18 161.39 55.18 172.19 22.18 180.67 22.18 191.47 55.18 191.56 55.18 201.2 22.18"></polygon>
        <polygon id="Shape" points="294.7 22.18 280.6 65.9 272.21 65.9 261.32 32.35 250.52 65.9 242.22 65.9 228.12 22.18 236.69 22.18 246.42 55.18 246.51 55.18 257.31 22.18 265.79 22.18 276.59 55.18 276.68 55.18 286.32 22.18"></polygon>
        <path d="M309.77,7.1 C309.769186,9.86154835 307.818224,12.2381651 305.109755,12.7770032 C302.401286,13.3158413 299.689248,11.8669082 298.631533,9.31594956 C297.573819,6.76499094 298.464857,3.82209945 300.759948,2.28629087 C303.055038,0.750482291 306.115314,1.04926899 308.07,3 C309.178202,4.07349543 309.793434,5.55728998 309.77,7.1 Z M308.07,22.18 L308.07,65.9 L299.86,65.9 L299.86,22.18 L308.07,22.18 Z" id="Shape"></path>
        <path d="M334.76,66.62 C331.481323,66.7298603 328.291232,65.5443535 325.88,63.32 C323.533333,61.12 322.33,58.0566667 322.27,54.13 L322.27,29.68 L314.6,29.68 L314.6,22.18 L322.27,22.18 L322.27,8.8 L330.48,8.8 L330.48,22.18 L341.19,22.18 L341.19,29.68 L330.47,29.68 L330.47,51.45 C330.47,54.3633333 331.036667,56.34 332.17,57.38 C333.198182,58.3799562 334.575751,58.9395933 336.01,58.94 C336.656419,58.9423241 337.300861,58.8684818 337.93,58.72 C338.526745,58.5810926 339.10926,58.3869212 339.67,58.14 L342.26,65.46 C339.845782,66.2770227 337.308239,66.6694959 334.76,66.62 L334.76,66.62 Z" id="Shape"></path>
        <path d="M348.59,2 L356.8,2 L356.8,22.18 L356.44,28.25 L356.8,28.25 C358.192016,25.9749362 360.180642,24.1246499 362.55,22.9 C365.015016,21.5049869 367.797634,20.7680064 370.63,20.76 C375.963333,20.76 380.083333,22.2933333 382.99,25.36 C385.896667,28.4266667 387.34,32.7833333 387.32,38.43 L387.32,65.9 L379.1,65.9 L379.1,40 C379.1,32.1466667 375.62,28.22 368.66,28.22 C365.355091,28.2065641 362.234863,29.7426192 360.23,32.37 C357.958062,35.0788518 356.736979,38.5149232 356.79,42.05 L356.79,65.9 L348.58,65.9 L348.59,2 Z" id="Shape"></path>
      </g>
      <g id="Google_logo" transform="translate(409.000000, 0.000000)">
        <path d="M37.42,72.32 C17.53,72.32 0.81,56.13 0.81,36.24 C0.81,16.35 17.53,0.16 37.42,0.16 C46.6645543,0.0132579974 55.5785826,3.59617109 62.15,10.1 L55.15,17.1 C50.3762507,12.516533 43.9871807,10.0011511 37.37,10.1 C23.0859035,10.3789432 11.6521279,22.0381801 11.6521279,36.325 C11.6521279,50.6118199 23.0859035,62.2710568 37.37,62.55 C46.79,62.55 52.15,58.77 55.59,55.33 C58.41,52.51 60.25,48.47 60.96,42.92 L37.52,42.92 L37.52,33 L70.6,33 C70.9745231,35.0314884 71.1520134,37.094394 71.13,39.16 C71.13,46.55 69.13,55.7 62.59,62.22 C56.26,68.8 48.16,72.32 37.42,72.32 Z" id="Shape" fill="#4285F4"></path>
        <path d="M120.77,49.08 C120.778091,58.485563 115.118543,66.9694929 106.431257,70.5744536 C97.7439707,74.1794143 87.7404526,72.1951827 81.0868516,65.5473053 C74.4332506,58.8994278 72.4404109,48.897621 76.0378941,40.2072358 C79.6353773,31.5168506 88.1144335,25.8500035 97.52,25.85 C103.709867,25.7602944 109.672802,28.1782611 114.052041,32.5537338 C118.431281,36.9292066 120.854379,42.8900579 120.77,49.08 Z M110.59,49.08 C110.59,40.72 104.54,35 97.52,35 C90.5,35 84.45,40.72 84.45,49.08 C84.45,57.44 90.5,63.16 97.52,63.16 C104.54,63.16 110.59,57.36 110.59,49.08 Z" id="Shape" fill="#E94235"></path>
        <path d="M171.84,49.08 C171.876433,58.5201642 166.217855,67.0510652 157.506716,70.6889326 C148.795577,74.3267999 138.750503,72.353916 132.062356,65.6915806 C125.374208,59.0292452 123.362497,48.9918753 126.966653,40.2667342 C130.570809,31.5415931 139.079765,25.8500703 148.52,25.85 C154.715321,25.76348 160.683512,28.1801865 165.073154,32.5528881 C169.462797,36.9255897 171.902563,42.8843912 171.84,49.08 L171.84,49.08 Z M161.63,49.08 C161.63,40.72 155.56,35 148.52,35 C141.48,35 135.41,40.72 135.41,49.08 C135.41,57.44 141.48,63.16 148.52,63.16 C155.56,63.16 161.63,57.36 161.63,49.08 Z" id="Shape" fill="#FABB05"></path>
        <path d="M220.52,27.26 L220.52,69 C220.52,86.16 210.4,93.2 198.43,93.2 C189.410704,93.2445568 181.265961,87.8134091 177.84,79.47 L186.73,75.77 C188.31,79.55 192.19,84.04 198.43,84.04 C206.09,84.04 210.84,79.29 210.84,70.4 L210.84,67 L210.49,67 C207.387506,70.4719662 202.914555,72.4030522 198.26,72.28 C186.64,72.28 176.02,62.16 176.02,49.14 C176.02,36.12 186.64,25.82 198.26,25.82 C202.892127,25.7063465 207.348658,27.5939041 210.49,31 L210.84,31 L210.84,27.26 L220.52,27.26 Z M211.52,49.17 C211.52,40.99 206.06,35 199.11,35 C192.16,35 186.17,41 186.17,49.17 C186.17,57.34 192.07,63.17 199.11,63.17 C206.15,63.17 211.54,57.27 211.54,49.17 L211.52,49.17 Z" id="Shape" fill="#4285F4"></path>
        <polygon id="Shape" fill="#34A853" points="236.93 2.91 236.93 70.91 226.78 70.91 226.78 2.91"></polygon>
        <path d="M276,56.74 L283.92,62.02 C279.610256,68.4915111 272.335126,72.3620605 264.56,72.32 C251.36,72.32 241.5,62.11 241.5,49.09 C241.5,35.27 251.44,25.86 263.41,25.86 C275.38,25.86 281.41,35.45 283.3,40.64 L284.36,43.28 L253.3,56.13 C255.68,60.79 259.37,63.13 264.56,63.13 C269.75,63.13 273.37,60.61 276,56.74 Z M251.62,48.38 L272.39,39.76 C271.25,36.86 267.81,34.83 263.77,34.83 C260.353064,34.9866261 257.142638,36.5106879 254.86119,39.0592133 C252.579743,41.6077388 251.418938,44.9666269 251.64,48.38 L251.62,48.38 Z" id="Shape" fill="#E94235"></path>
      </g>
    </g>
  </g>
</svg>